M48
; DRILL file KiCad 10.0.5 date 2026-08-18T17:51:47
; FORMAT={-:-/ absolute / metric / decimal}
; #@! TF.CreationDate,2026-08-18T17:51:47+02:00
; #@! TF.GenerationSoftware,Kicad,Pcbnew,10.0.5
; #@! TF.FileFunction,Plated,1,2,PTH
FMAT,2
METRIC
; #@! TA.AperFunction,Plated,PTH,ViaDrill
T1C0.400
; #@! TA.AperFunction,Plated,PTH,ComponentDrill
T2C0.800
; #@! TA.AperFunction,Plated,PTH,ComponentDrill
T3C0.900
; #@! TA.AperFunction,Plated,PTH,ComponentDrill
T4C1.000
; #@! TA.AperFunction,Plated,PTH,ComponentDrill
T5C1.200
; #@! TA.AperFunction,Plated,PTH,ComponentDrill
T6C1.600
; #@! TA.AperFunction,Plated,PTH,ComponentDrill
T7C3.200
%
G90
G05
T1
X-65.4Y-24.66
X-65.4Y-144.16
X92.1Y-24.16
X95.1Y-24.66
X95.1Y-59.66
X101.6Y-63.16
X104.1Y-53.16
X104.6Y-79.16
X105.6Y-32.16
X106.6Y-82.16
X109.6Y-63.16
X112.085Y-42.16
X113.23Y-33.66
X113.6Y-55.66
X114.375Y-43.66
X115.1Y-56.66
X115.157Y-59.004
X115.455Y-35.725
X116.6Y-101.16
X116.665Y-45.16
X117.6Y-63.16
X117.81Y-37.16
X118.6Y-56.66
X118.6Y-60.16
X118.955Y-45.66
X120.1Y-65.66
X120.6Y-33.66
X120.6Y-40.16
X121.6Y-43.66
X121.6Y-46.66
X121.6Y-60.16
X122.1Y-29.66
X122.595Y-38.16
X122.6Y-26.66
X122.6Y-60.16
X122.6Y-77.66
X123.6Y-30.66
X123.6Y-60.16
X124.1Y-55.16
X124.1Y-70.16
X124.6Y-33.66
X124.6Y-40.66
X124.6Y-60.16
X125.1Y-49.66
X125.323Y-43.66
X126.1Y-42.66
X126.6Y-51.16
X127.777Y-61.16
X128.6Y-54.66
X129.6Y-49.66
X130.6Y-61.66
X130.6Y-119.66
X130.6Y-144.16
X131.1Y-69.16
X132.1Y-78.16
X133.1Y-59.16
X134.1Y-41.66
X134.1Y-119.66
X134.1Y-144.16
X135.312Y-47.66
X135.6Y-56.947
X138.6Y-101.16
X139.1Y-42.16
X140.484Y-33.979
X143.6Y-33.66
X143.6Y-44.66
X144.6Y-38.66
X145.85Y-34.91
X146.35Y-43.91
X147.0Y-35.009
X148.6Y-81.66
X148.86Y-36.608
X150.1Y-33.16
X150.1Y-34.16
X150.1Y-79.16
X153.6Y-44.16
X153.6Y-67.66
X159.1Y-29.16
X169.6Y-24.66
X169.6Y-41.16
X172.6Y-24.16
X329.6Y-24.16
X329.6Y-144.16
T2
X110.6Y-50.72
X110.6Y-55.6
T3
X-55.48Y-45.66
X-55.48Y-64.66
X-50.48Y-83.66
X-48.4Y-140.66
X-47.98Y-102.66
X-45.32Y-45.66
X-45.32Y-64.66
X-40.32Y-83.66
X-38.24Y-140.66
X-37.82Y-102.66
X-36.48Y-45.66
X-36.48Y-64.66
X-26.98Y-83.66
X-26.48Y-140.66
X-26.32Y-45.66
X-26.32Y-64.66
X-22.48Y-102.66
X-19.4Y-108.58
X-19.4Y-118.74
X-17.48Y-45.66
X-17.48Y-64.66
X-16.82Y-83.66
X-16.32Y-140.66
X-12.48Y-121.66
X-12.32Y-102.66
X-7.98Y-83.66
X-7.48Y-140.66
X-7.32Y-45.66
X-7.32Y-64.66
X-3.48Y-102.66
X-2.32Y-121.66
X1.52Y-45.66
X1.52Y-64.66
X2.18Y-83.66
X2.68Y-140.66
X6.52Y-121.66
X6.68Y-102.66
X11.02Y-83.66
X11.68Y-45.66
X11.68Y-64.66
X15.52Y-102.66
X16.02Y-140.66
X16.68Y-121.66
X20.52Y-45.66
X20.52Y-64.66
X21.18Y-83.66
X25.52Y-121.66
X25.68Y-102.66
X26.18Y-140.66
X30.02Y-83.66
X30.68Y-45.66
X30.68Y-64.66
X35.02Y-102.66
X35.68Y-121.66
X39.52Y-45.66
X39.52Y-64.66
X40.18Y-83.66
X44.52Y-121.66
X45.18Y-102.66
X49.02Y-83.66
X49.68Y-45.66
X49.68Y-64.66
X54.02Y-102.66
X54.68Y-121.66
X58.52Y-45.66
X58.52Y-64.66
X59.18Y-83.66
X63.52Y-121.66
X64.18Y-102.66
X68.02Y-83.66
X68.68Y-45.66
X68.68Y-64.66
X71.6Y-127.58
X71.6Y-137.74
X73.02Y-102.66
X73.68Y-121.66
X77.52Y-45.66
X77.52Y-64.66
X78.02Y-140.66
X78.18Y-83.66
X82.52Y-121.66
X83.18Y-102.66
X87.02Y-83.66
X87.68Y-45.66
X87.68Y-64.66
X88.18Y-140.66
X90.02Y-102.66
X92.68Y-121.66
X97.02Y-140.66
X97.18Y-83.66
X100.18Y-102.66
X101.52Y-121.66
X107.18Y-140.66
X111.68Y-121.66
X112.94Y-140.66
X123.1Y-140.66
X141.52Y-140.66
X143.02Y-121.66
X151.68Y-140.66
X153.02Y-102.66
X153.18Y-121.66
X155.1Y-128.08
X155.1Y-138.24
X157.52Y-64.66
X162.02Y-121.66
X163.18Y-102.66
X167.02Y-83.66
X167.68Y-64.66
X172.02Y-102.66
X172.18Y-121.66
X176.52Y-45.66
X176.52Y-64.66
X177.18Y-83.66
X181.02Y-121.66
X182.18Y-102.66
X186.02Y-83.66
X186.68Y-45.66
X186.68Y-64.66
X191.02Y-102.66
X191.18Y-121.66
X195.44Y-45.66
X195.52Y-64.66
X196.18Y-83.66
X200.02Y-121.66
X200.52Y-140.66
X201.18Y-102.66
X205.02Y-83.66
X205.6Y-45.66
X205.68Y-64.66
X210.02Y-102.66
X210.18Y-121.66
X210.68Y-140.66
X214.52Y-45.66
X214.52Y-64.66
X215.18Y-83.66
X219.02Y-121.66
X220.18Y-102.66
X224.02Y-83.66
X224.02Y-140.66
X224.68Y-45.66
X224.68Y-64.66
X229.02Y-102.66
X229.18Y-121.66
X233.52Y-45.66
X233.52Y-64.66
X234.18Y-83.66
X234.18Y-140.66
X238.02Y-121.66
X239.18Y-102.66
X243.02Y-83.66
X243.02Y-140.66
X243.68Y-45.66
X243.68Y-64.66
X248.02Y-102.66
X248.18Y-121.66
X252.52Y-45.66
X252.52Y-64.66
X253.18Y-83.66
X253.18Y-140.66
X257.02Y-121.66
X258.18Y-102.66
X262.02Y-83.66
X262.02Y-140.66
X262.68Y-45.66
X262.68Y-64.66
X267.02Y-102.66
X267.18Y-121.66
X271.52Y-45.66
X271.52Y-64.66
X272.18Y-83.66
X272.18Y-140.66
X274.1Y-109.08
X274.1Y-119.24
X277.18Y-102.66
X281.02Y-83.66
X281.02Y-140.66
X281.68Y-45.66
X281.68Y-64.66
X290.52Y-45.66
X291.18Y-83.66
X291.18Y-140.66
X293.52Y-102.66
X298.02Y-64.66
X300.52Y-83.66
X300.68Y-45.66
X303.02Y-140.66
X303.68Y-102.66
X308.18Y-64.66
X309.52Y-45.66
X310.68Y-83.66
X313.18Y-140.66
X319.68Y-45.66
T4
X-48.705Y-22.26
X-47.56Y-20.36
X-47.56Y-24.16
X-46.415Y-22.26
X-45.27Y-20.36
X-45.27Y-24.16
X-44.125Y-22.26
X-42.98Y-20.36
X-42.98Y-24.16
X-41.835Y-22.26
X-40.69Y-20.36
X-40.69Y-24.16
X-39.545Y-22.26
X-38.4Y-20.36
X-38.4Y-24.16
X109.795Y-29.26
X110.94Y-27.36
X110.94Y-31.16
X112.085Y-29.26
X113.23Y-27.36
X113.23Y-31.16
X114.375Y-29.26
X115.52Y-27.36
X115.52Y-31.16
X116.665Y-29.26
X117.81Y-27.36
X117.81Y-31.16
X118.955Y-29.26
X120.1Y-27.36
X120.1Y-31.16
X146.875Y-29.26
X148.02Y-27.36
X148.02Y-31.16
X149.165Y-29.26
X150.31Y-27.36
X150.31Y-31.16
X151.455Y-29.26
X152.6Y-27.36
X152.6Y-31.16
X153.745Y-29.26
X154.89Y-27.36
X154.89Y-31.16
X156.035Y-29.26
X157.18Y-27.36
X157.18Y-31.16
X302.14Y-22.26
X303.285Y-20.36
X303.285Y-24.16
X304.43Y-22.26
X305.575Y-20.36
X305.575Y-24.16
X306.72Y-22.26
X307.865Y-20.36
X307.865Y-24.16
X309.01Y-22.26
X310.155Y-20.36
X310.155Y-24.16
X311.3Y-22.26
X312.445Y-20.36
X312.445Y-24.16
T5
X-58.34Y-40.63
X-58.34Y-59.68
X-53.578Y-78.721
X-53.34Y-42.73
X-53.34Y-61.78
X-53.26Y-135.88
X-51.176Y-97.769
X-48.578Y-80.821
X-48.26Y-137.98
X-46.275Y-116.83
X-46.176Y-99.869
X-41.275Y-118.93
X-39.29Y-40.63
X-39.29Y-59.68
X-34.29Y-42.73
X-34.29Y-61.78
X-29.777Y-78.736
X-29.452Y-135.879
X-25.042Y-97.766
X-24.777Y-80.836
X-24.452Y-137.979
X-20.24Y-40.63
X-20.24Y-59.68
X-20.042Y-99.866
X-15.326Y-116.815
X-15.24Y-42.73
X-15.24Y-61.78
X-10.727Y-78.736
X-10.402Y-135.879
X-10.326Y-118.915
X-5.992Y-97.766
X-5.727Y-80.836
X-5.402Y-137.979
X-1.19Y-40.63
X-1.19Y-59.68
X-0.992Y-99.866
X3.724Y-116.815
X3.81Y-42.73
X3.81Y-61.78
X8.323Y-78.736
X8.724Y-118.915
X11.036Y-135.886
X13.058Y-97.766
X13.323Y-80.836
X16.036Y-137.986
X17.86Y-40.63
X17.86Y-59.68
X18.058Y-99.866
X22.774Y-116.815
X22.86Y-42.73
X22.86Y-61.78
X27.373Y-78.736
X27.774Y-118.915
X32.108Y-97.766
X32.373Y-80.836
X36.91Y-40.63
X36.91Y-59.68
X37.108Y-99.866
X41.824Y-116.815
X41.91Y-42.73
X41.91Y-61.78
X44.358Y-135.896
X46.423Y-78.736
X46.824Y-118.915
X49.358Y-137.996
X51.158Y-97.766
X51.423Y-80.836
X55.96Y-40.63
X55.96Y-59.68
X56.158Y-99.866
X60.874Y-116.815
X60.96Y-42.73
X60.96Y-61.78
X65.473Y-78.736
X65.874Y-118.915
X70.208Y-97.766
X70.473Y-80.836
X75.01Y-40.63
X75.01Y-59.68
X75.208Y-99.866
X75.316Y-135.897
X79.924Y-116.815
X80.01Y-42.73
X80.01Y-61.78
X80.316Y-137.997
X84.523Y-78.736
X84.924Y-118.915
X89.258Y-97.766
X89.523Y-80.836
X94.258Y-99.866
X94.366Y-135.897
X98.974Y-116.815
X99.366Y-137.997
X103.974Y-118.915
X113.416Y-135.897
X118.416Y-137.997
X141.229Y-135.932
X146.041Y-116.866
X146.229Y-138.032
X151.041Y-118.966
X155.512Y-97.809
X160.326Y-59.69
X160.512Y-99.909
X165.091Y-116.866
X165.326Y-61.79
X169.854Y-78.774
X170.091Y-118.966
X172.189Y-135.931
X174.562Y-97.809
X174.854Y-80.874
X177.189Y-138.031
X179.376Y-59.69
X179.38Y-40.629
X179.562Y-99.909
X184.141Y-116.866
X184.376Y-61.79
X184.38Y-42.729
X188.904Y-78.774
X189.141Y-118.966
X193.612Y-97.809
X193.904Y-80.874
X198.426Y-59.69
X198.43Y-40.629
X198.612Y-99.909
X203.191Y-116.866
X203.426Y-61.79
X203.43Y-42.729
X205.513Y-135.918
X207.954Y-78.774
X208.191Y-118.966
X210.513Y-138.018
X212.662Y-97.809
X212.954Y-80.874
X217.476Y-59.69
X217.48Y-40.629
X217.662Y-99.909
X222.241Y-116.866
X222.476Y-61.79
X222.48Y-42.729
X226.936Y-135.915
X227.004Y-78.774
X227.241Y-118.966
X231.712Y-97.809
X231.936Y-138.015
X232.004Y-80.874
X236.526Y-59.69
X236.53Y-40.629
X236.712Y-99.909
X241.291Y-116.866
X241.526Y-61.79
X241.53Y-42.729
X245.986Y-135.915
X246.054Y-78.774
X246.291Y-118.966
X250.762Y-97.809
X250.986Y-138.015
X251.054Y-80.874
X255.576Y-59.69
X255.58Y-40.629
X255.762Y-99.909
X260.341Y-116.866
X260.576Y-61.79
X260.58Y-42.729
X265.036Y-135.915
X265.104Y-78.774
X265.341Y-118.966
X269.812Y-97.809
X270.036Y-138.015
X270.104Y-80.874
X274.626Y-59.69
X274.63Y-40.629
X274.812Y-99.909
X279.626Y-61.79
X279.63Y-42.729
X284.086Y-135.915
X284.154Y-78.774
X289.086Y-138.015
X289.154Y-80.874
X293.68Y-40.629
X296.064Y-116.85
X298.68Y-42.729
X300.8Y-97.809
X301.064Y-118.95
X303.226Y-59.713
X305.8Y-99.909
X307.912Y-135.909
X307.968Y-78.763
X308.226Y-61.813
X312.734Y-40.63
X312.912Y-138.009
X312.968Y-80.863
X317.734Y-42.73
T6
X-48.34Y-31.68
X-48.34Y-50.73
X-43.578Y-69.771
X-43.26Y-126.93
X-41.176Y-88.819
X-36.275Y-107.88
X-29.29Y-31.68
X-29.29Y-50.73
X-19.777Y-69.786
X-19.452Y-126.929
X-15.042Y-88.816
X-10.24Y-31.68
X-10.24Y-50.73
X-5.326Y-107.865
X-0.727Y-69.786
X-0.402Y-126.929
X4.008Y-88.816
X8.81Y-31.68
X8.81Y-50.73
X13.724Y-107.865
X18.323Y-69.786
X21.036Y-126.936
X23.058Y-88.816
X27.86Y-31.68
X27.86Y-50.73
X32.774Y-107.865
X37.373Y-69.786
X42.108Y-88.816
X46.91Y-31.68
X46.91Y-50.73
X51.824Y-107.865
X54.358Y-126.946
X56.423Y-69.786
X61.158Y-88.816
X65.96Y-31.68
X65.96Y-50.73
X70.874Y-107.865
X75.473Y-69.786
X80.208Y-88.816
X85.01Y-31.68
X85.01Y-50.73
X85.316Y-126.947
X89.924Y-107.865
X94.523Y-69.786
X99.258Y-88.816
X104.366Y-126.947
X108.974Y-107.865
X123.416Y-126.947
X151.229Y-126.982
X156.041Y-107.916
X165.512Y-88.859
X170.326Y-50.74
X175.091Y-107.916
X179.854Y-69.824
X182.189Y-126.981
X184.562Y-88.859
X189.376Y-50.74
X189.38Y-31.679
X194.141Y-107.916
X198.904Y-69.824
X203.612Y-88.859
X208.426Y-50.74
X208.43Y-31.679
X213.191Y-107.916
X215.513Y-126.968
X217.954Y-69.824
X222.662Y-88.859
X227.476Y-50.74
X227.48Y-31.679
X232.241Y-107.916
X236.936Y-126.965
X237.004Y-69.824
X241.712Y-88.859
X246.526Y-50.74
X246.53Y-31.679
X251.291Y-107.916
X255.986Y-126.965
X256.054Y-69.824
X260.762Y-88.859
X265.576Y-50.74
X265.58Y-31.679
X270.341Y-107.916
X275.036Y-126.965
X275.104Y-69.824
X279.812Y-88.859
X284.626Y-50.74
X284.63Y-31.679
X294.086Y-126.965
X294.154Y-69.824
X303.68Y-31.679
X306.064Y-107.9
X310.8Y-88.859
X313.226Y-50.763
X317.912Y-126.959
X317.968Y-69.813
X322.734Y-31.68
T7
X-55.745Y-22.27
X-30.745Y-22.27
X102.755Y-29.27
X127.755Y-29.27
X139.835Y-29.27
X164.835Y-29.27
X295.1Y-22.27
X320.1Y-22.27
M30
