G04 #@! TF.GenerationSoftware,KiCad,Pcbnew,10.0.5*
G04 #@! TF.CreationDate,2026-08-05T21:21:47+02:00*
G04 #@! TF.ProjectId,k8split,6b387370-6c69-4742-9e6b-696361645f70,rev?*
G04 #@! TF.SameCoordinates,Original*
G04 #@! TF.FileFunction,Paste,Bot*
G04 #@! TF.FilePolarity,Positive*
%FSLAX46Y46*%
G04 Gerber Fmt 4.6, Leading zero omitted, Abs format (unit mm)*
G04 Created by KiCad (PCBNEW 10.0.5) date 2026-08-05 21:21:47*
%MOMM*%
%LPD*%
G01*
G04 APERTURE LIST*
G04 Aperture macros list*
%AMRoundRect*
0 Rectangle with rounded corners*
0 $1 Rounding radius*
0 $2 $3 $4 $5 $6 $7 $8 $9 X,Y pos of 4 corners*
0 Add a 4 corners polygon primitive as box body*
4,1,4,$2,$3,$4,$5,$6,$7,$8,$9,$2,$3,0*
0 Add four circle primitives for the rounded corners*
1,1,$1+$1,$2,$3*
1,1,$1+$1,$4,$5*
1,1,$1+$1,$6,$7*
1,1,$1+$1,$8,$9*
0 Add four rect primitives between the rounded corners*
20,1,$1+$1,$2,$3,$4,$5,0*
20,1,$1+$1,$4,$5,$6,$7,0*
20,1,$1+$1,$6,$7,$8,$9,0*
20,1,$1+$1,$8,$9,$2,$3,0*%
G04 Aperture macros list end*
%ADD10RoundRect,0.218750X0.218750X0.256250X-0.218750X0.256250X-0.218750X-0.256250X0.218750X-0.256250X0*%
%ADD11RoundRect,0.218750X-0.256250X0.218750X-0.256250X-0.218750X0.256250X-0.218750X0.256250X0.218750X0*%
%ADD12RoundRect,0.218750X0.256250X-0.218750X0.256250X0.218750X-0.256250X0.218750X-0.256250X-0.218750X0*%
%ADD13R,0.550000X1.500000*%
%ADD14R,1.500000X0.550000*%
%ADD15RoundRect,0.218750X-0.218750X-0.256250X0.218750X-0.256250X0.218750X0.256250X-0.218750X0.256250X0*%
%ADD16R,1.100000X1.800000*%
%ADD17R,0.900000X2.500000*%
%ADD18R,2.500000X5.150000*%
G04 APERTURE END LIST*
D10*
X121887500Y-44660000D03*
X120312500Y-44660000D03*
D11*
X126441000Y-67660000D03*
X126441000Y-69235000D03*
X128473000Y-67660000D03*
X128473000Y-69235000D03*
D12*
X137100000Y-56947500D03*
X137100000Y-55372500D03*
D11*
X131100000Y-40872500D03*
X131100000Y-42447500D03*
D10*
X105387500Y-50660000D03*
X103812500Y-50660000D03*
X105387500Y-55660000D03*
X103812500Y-55660000D03*
X125887500Y-63660000D03*
X124312500Y-63660000D03*
D13*
X131000000Y-58060000D03*
X130200000Y-58060000D03*
X129400000Y-58060000D03*
X128600000Y-58060000D03*
X127800000Y-58060000D03*
X127000000Y-58060000D03*
X126200000Y-58060000D03*
X125400000Y-58060000D03*
X124600000Y-58060000D03*
X123800000Y-58060000D03*
X123000000Y-58060000D03*
D14*
X121300000Y-56360000D03*
X121300000Y-55560000D03*
X121300000Y-54760000D03*
X121300000Y-53960000D03*
X121300000Y-53160000D03*
X121300000Y-52360000D03*
X121300000Y-51560000D03*
X121300000Y-50760000D03*
X121300000Y-49960000D03*
X121300000Y-49160000D03*
X121300000Y-48360000D03*
D13*
X123000000Y-46660000D03*
X123800000Y-46660000D03*
X124600000Y-46660000D03*
X125400000Y-46660000D03*
X126200000Y-46660000D03*
X127000000Y-46660000D03*
X127800000Y-46660000D03*
X128600000Y-46660000D03*
X129400000Y-46660000D03*
X130200000Y-46660000D03*
X131000000Y-46660000D03*
D14*
X132700000Y-48360000D03*
X132700000Y-49160000D03*
X132700000Y-49960000D03*
X132700000Y-50760000D03*
X132700000Y-51560000D03*
X132700000Y-52360000D03*
X132700000Y-53160000D03*
X132700000Y-53960000D03*
X132700000Y-54760000D03*
X132700000Y-55560000D03*
X132700000Y-56360000D03*
D15*
X109600000Y-64660000D03*
X111175000Y-64660000D03*
D16*
X111950000Y-74260000D03*
X108250000Y-68060000D03*
X108250000Y-74260000D03*
X111950000Y-68060000D03*
D17*
X130932000Y-73285000D03*
X128432000Y-73285000D03*
X126432000Y-73285000D03*
X123932000Y-73285000D03*
D18*
X134682000Y-75660000D03*
X120182000Y-75660000D03*
D12*
X133600000Y-62947500D03*
X133600000Y-61372500D03*
X116600000Y-56447500D03*
X116600000Y-54872500D03*
M02*
