G04 #@! TF.GenerationSoftware,KiCad,Pcbnew,10.0.5*
G04 #@! TF.CreationDate,2026-08-05T21:21:47+02:00*
G04 #@! TF.ProjectId,k8split,6b387370-6c69-4742-9e6b-696361645f70,rev?*
G04 #@! TF.SameCoordinates,Original*
G04 #@! TF.FileFunction,Profile,NP*
%FSLAX46Y46*%
G04 Gerber Fmt 4.6, Leading zero omitted, Abs format (unit mm)*
G04 Created by KiCad (PCBNEW 10.0.5) date 2026-08-05 21:21:47*
%MOMM*%
%LPD*%
G01*
G04 APERTURE LIST*
G04 #@! TA.AperFunction,Profile*
%ADD10C,0.150000*%
G04 #@! TD*
G04 APERTURE END LIST*
D10*
X-66548000Y-23368000D02*
X-66548000Y-145288000D01*
X-66548000Y-23368000D02*
X-58900000Y-23368000D01*
X-66548000Y-145288000D02*
X330708000Y-145288000D01*
X-58900000Y-17160000D02*
X-58900000Y-23368000D01*
X-27900000Y-17160000D02*
X-58900000Y-17160000D01*
X-27900000Y-17160000D02*
X-27900000Y-23368000D01*
X-27900000Y-23368000D02*
X94100000Y-23368000D01*
X92964000Y-50038000D02*
X92964000Y-29972000D01*
X92964000Y-50038000D02*
X94100000Y-50038000D01*
X92964000Y-61976000D02*
X92964000Y-56642000D01*
X94100000Y-23368000D02*
X170568000Y-23368000D01*
X94100000Y-29972000D02*
X92964000Y-29972000D01*
X94100000Y-29972000D02*
X94100000Y-50038000D01*
X94100000Y-56642000D02*
X92964000Y-56642000D01*
X94100000Y-56642000D02*
X94100000Y-60660000D01*
X94100000Y-60660000D02*
X103600000Y-60660000D01*
X102616000Y-61976000D02*
X92964000Y-61976000D01*
X102616000Y-80772000D02*
X102616000Y-61976000D01*
X103600000Y-60660000D02*
X103600000Y-80160000D01*
X103600000Y-80160000D02*
X151264000Y-80160000D01*
X107696000Y-80772000D02*
X102616000Y-80772000D01*
X107696000Y-87376000D02*
X107696000Y-80772000D01*
X107696000Y-87376000D02*
X147828000Y-87376000D01*
X107696000Y-93980000D02*
X147828000Y-93980000D01*
X107696000Y-100076000D02*
X107696000Y-93980000D01*
X117600000Y-100076000D02*
X107696000Y-100076000D01*
X117600000Y-118872000D02*
X117600000Y-100076000D01*
X131826000Y-118872000D02*
X117600000Y-118872000D01*
X131826000Y-138684000D02*
X131826000Y-118872000D01*
X131826000Y-138684000D02*
X132842000Y-138684000D01*
X132842000Y-118872000D02*
X137668000Y-118872000D01*
X132842000Y-138684000D02*
X132842000Y-118872000D01*
X137668000Y-100076000D02*
X147828000Y-100076000D01*
X137668000Y-118872000D02*
X137668000Y-100076000D01*
X147828000Y-87376000D02*
X147828000Y-80772000D01*
X147828000Y-100076000D02*
X147828000Y-93980000D01*
X151264000Y-50038000D02*
X151264000Y-42160000D01*
X151264000Y-50038000D02*
X152400000Y-50038000D01*
X151264000Y-56642000D02*
X151264000Y-80160000D01*
X151264000Y-56642000D02*
X152400000Y-56642000D01*
X152400000Y-50038000D02*
X152400000Y-43180000D01*
X152400000Y-56642000D02*
X152400000Y-68660000D01*
X162100000Y-68660000D02*
X152400000Y-68660000D01*
X162100000Y-68660000D02*
X162100000Y-80772000D01*
X162100000Y-80772000D02*
X147828000Y-80772000D01*
X170568000Y-23368000D02*
X292100000Y-23368000D01*
X170568000Y-29972000D02*
X170600000Y-42160000D01*
X170568000Y-29972000D02*
X171704000Y-29972000D01*
X170600000Y-42160000D02*
X151264000Y-42160000D01*
X171704000Y-29972000D02*
X171704000Y-43180000D01*
X171704000Y-43180000D02*
X152400000Y-43180000D01*
X292100000Y-17160000D02*
X292100000Y-23368000D01*
X323100000Y-17160000D02*
X292100000Y-17160000D01*
X323100000Y-17160000D02*
X323100000Y-23368000D01*
X323100000Y-23368000D02*
X330708000Y-23368000D01*
X330708000Y-23368000D02*
X330708000Y-145288000D01*
M02*
