M48
; DRILL file KiCad 10.0.5 date 2026-08-18T17:51:47
; FORMAT={-:-/ absolute / metric / decimal}
; #@! TF.CreationDate,2026-08-18T17:51:47+02:00
; #@! TF.GenerationSoftware,Kicad,Pcbnew,10.0.5
; #@! TF.FileFunction,NonPlated,1,2,NPTH
FMAT,2
METRIC
; #@! TA.AperFunction,NonPlated,NPTH,ComponentDrill
T1C0.787
; #@! TA.AperFunction,NonPlated,NPTH,ComponentDrill
T2C1.300
; #@! TA.AperFunction,NonPlated,NPTH,ComponentDrill
T3C3.200
; #@! TA.AperFunction,NonPlated,NPTH,ComponentDrill
T4C5.000
%
G90
G05
T1
X93.472Y-24.13
X93.472Y-25.4
X93.472Y-26.67
X93.472Y-27.94
X93.472Y-29.21
X93.472Y-50.8
X93.472Y-52.07
X93.472Y-53.34
X93.472Y-54.61
X93.472Y-55.88
X132.334Y-139.446
X132.334Y-140.716
X132.334Y-141.986
X132.334Y-143.256
X132.334Y-144.526
X151.892Y-50.8
X151.892Y-52.07
X151.892Y-53.34
X151.892Y-54.61
X151.892Y-55.88
X171.196Y-24.13
X171.196Y-25.4
X171.196Y-26.67
X171.196Y-27.94
X171.196Y-29.21
T2
X124.932Y-77.365
X129.932Y-77.365
T3
X-62.992Y-26.924
X-62.992Y-141.732
X89.408Y-26.924
X128.524Y-141.732
X136.144Y-141.732
X175.26Y-26.924
X327.152Y-26.924
X327.152Y-141.732
T4
X-53.34Y-36.83
X-53.34Y-55.88
X-48.578Y-74.921
X-48.26Y-132.08
X-46.176Y-93.969
X-41.275Y-113.03
X-34.29Y-36.83
X-34.29Y-55.88
X-24.777Y-74.936
X-24.452Y-132.079
X-20.042Y-93.966
X-15.24Y-36.83
X-15.24Y-55.88
X-10.326Y-113.015
X-5.727Y-74.936
X-5.402Y-132.079
X-0.992Y-93.966
X3.81Y-36.83
X3.81Y-55.88
X8.724Y-113.015
X13.323Y-74.936
X16.036Y-132.086
X18.058Y-93.966
X22.86Y-36.83
X22.86Y-55.88
X27.774Y-113.015
X32.373Y-74.936
X37.108Y-93.966
X41.91Y-36.83
X41.91Y-55.88
X46.824Y-113.015
X49.358Y-132.096
X51.423Y-74.936
X56.158Y-93.966
X60.96Y-36.83
X60.96Y-55.88
X65.874Y-113.015
X70.473Y-74.936
X75.208Y-93.966
X80.01Y-36.83
X80.01Y-55.88
X80.316Y-132.097
X84.924Y-113.015
X89.523Y-74.936
X94.258Y-93.966
X99.366Y-132.097
X103.974Y-113.015
X118.416Y-132.097
X146.229Y-132.132
X151.041Y-113.066
X160.512Y-94.009
X165.326Y-55.89
X170.091Y-113.066
X174.854Y-74.974
X177.189Y-132.131
X179.562Y-94.009
X184.376Y-55.89
X184.38Y-36.829
X189.141Y-113.066
X193.904Y-74.974
X198.612Y-94.009
X203.426Y-55.89
X203.43Y-36.829
X208.191Y-113.066
X210.513Y-132.118
X212.954Y-74.974
X217.662Y-94.009
X222.476Y-55.89
X222.48Y-36.829
X227.241Y-113.066
X231.936Y-132.115
X232.004Y-74.974
X236.712Y-94.009
X241.526Y-55.89
X241.53Y-36.829
X246.291Y-113.066
X250.986Y-132.115
X251.054Y-74.974
X255.762Y-94.009
X260.576Y-55.89
X260.58Y-36.829
X265.341Y-113.066
X270.036Y-132.115
X270.104Y-74.974
X274.812Y-94.009
X279.626Y-55.89
X279.63Y-36.829
X289.086Y-132.115
X289.154Y-74.974
X298.68Y-36.829
X301.064Y-113.05
X305.8Y-94.009
X308.226Y-55.913
X312.912Y-132.109
X312.968Y-74.963
X317.734Y-36.83
M30
