G04 #@! TF.GenerationSoftware,KiCad,Pcbnew,5.1.5*
G04 #@! TF.CreationDate,2020-02-16T02:09:05+01:00*
G04 #@! TF.ProjectId,k8split,6b387370-6c69-4742-9e6b-696361645f70,rev?*
G04 #@! TF.SameCoordinates,Original*
G04 #@! TF.FileFunction,Paste,Bot*
G04 #@! TF.FilePolarity,Positive*
%FSLAX46Y46*%
G04 Gerber Fmt 4.6, Leading zero omitted, Abs format (unit mm)*
G04 Created by KiCad (PCBNEW 5.1.5) date 2020-02-16 02:09:05*
%MOMM*%
%LPD*%
G04 APERTURE LIST*
%ADD10C,0.100000*%
%ADD11R,1.800000X1.100000*%
%ADD12R,1.200000X0.900000*%
%ADD13R,0.900000X1.200000*%
%ADD14R,2.500000X5.150000*%
%ADD15R,0.900000X2.500000*%
%ADD16R,1.400000X1.200000*%
%ADD17R,0.550000X1.500000*%
%ADD18R,1.500000X0.550000*%
G04 APERTURE END LIST*
D10*
G36*
X204493691Y-137460053D02*
G01*
X204514926Y-137463203D01*
X204535750Y-137468419D01*
X204555962Y-137475651D01*
X204575368Y-137484830D01*
X204593781Y-137495866D01*
X204611024Y-137508654D01*
X204626930Y-137523070D01*
X204641346Y-137538976D01*
X204654134Y-137556219D01*
X204665170Y-137574632D01*
X204674349Y-137594038D01*
X204681581Y-137614250D01*
X204686797Y-137635074D01*
X204689947Y-137656309D01*
X204691000Y-137677750D01*
X204691000Y-138115250D01*
X204689947Y-138136691D01*
X204686797Y-138157926D01*
X204681581Y-138178750D01*
X204674349Y-138198962D01*
X204665170Y-138218368D01*
X204654134Y-138236781D01*
X204641346Y-138254024D01*
X204626930Y-138269930D01*
X204611024Y-138284346D01*
X204593781Y-138297134D01*
X204575368Y-138308170D01*
X204555962Y-138317349D01*
X204535750Y-138324581D01*
X204514926Y-138329797D01*
X204493691Y-138332947D01*
X204472250Y-138334000D01*
X203959750Y-138334000D01*
X203938309Y-138332947D01*
X203917074Y-138329797D01*
X203896250Y-138324581D01*
X203876038Y-138317349D01*
X203856632Y-138308170D01*
X203838219Y-138297134D01*
X203820976Y-138284346D01*
X203805070Y-138269930D01*
X203790654Y-138254024D01*
X203777866Y-138236781D01*
X203766830Y-138218368D01*
X203757651Y-138198962D01*
X203750419Y-138178750D01*
X203745203Y-138157926D01*
X203742053Y-138136691D01*
X203741000Y-138115250D01*
X203741000Y-137677750D01*
X203742053Y-137656309D01*
X203745203Y-137635074D01*
X203750419Y-137614250D01*
X203757651Y-137594038D01*
X203766830Y-137574632D01*
X203777866Y-137556219D01*
X203790654Y-137538976D01*
X203805070Y-137523070D01*
X203820976Y-137508654D01*
X203838219Y-137495866D01*
X203856632Y-137484830D01*
X203876038Y-137475651D01*
X203896250Y-137468419D01*
X203917074Y-137463203D01*
X203938309Y-137460053D01*
X203959750Y-137459000D01*
X204472250Y-137459000D01*
X204493691Y-137460053D01*
G37*
G36*
X204493691Y-139035053D02*
G01*
X204514926Y-139038203D01*
X204535750Y-139043419D01*
X204555962Y-139050651D01*
X204575368Y-139059830D01*
X204593781Y-139070866D01*
X204611024Y-139083654D01*
X204626930Y-139098070D01*
X204641346Y-139113976D01*
X204654134Y-139131219D01*
X204665170Y-139149632D01*
X204674349Y-139169038D01*
X204681581Y-139189250D01*
X204686797Y-139210074D01*
X204689947Y-139231309D01*
X204691000Y-139252750D01*
X204691000Y-139690250D01*
X204689947Y-139711691D01*
X204686797Y-139732926D01*
X204681581Y-139753750D01*
X204674349Y-139773962D01*
X204665170Y-139793368D01*
X204654134Y-139811781D01*
X204641346Y-139829024D01*
X204626930Y-139844930D01*
X204611024Y-139859346D01*
X204593781Y-139872134D01*
X204575368Y-139883170D01*
X204555962Y-139892349D01*
X204535750Y-139899581D01*
X204514926Y-139904797D01*
X204493691Y-139907947D01*
X204472250Y-139909000D01*
X203959750Y-139909000D01*
X203938309Y-139907947D01*
X203917074Y-139904797D01*
X203896250Y-139899581D01*
X203876038Y-139892349D01*
X203856632Y-139883170D01*
X203838219Y-139872134D01*
X203820976Y-139859346D01*
X203805070Y-139844930D01*
X203790654Y-139829024D01*
X203777866Y-139811781D01*
X203766830Y-139793368D01*
X203757651Y-139773962D01*
X203750419Y-139753750D01*
X203745203Y-139732926D01*
X203742053Y-139711691D01*
X203741000Y-139690250D01*
X203741000Y-139252750D01*
X203742053Y-139231309D01*
X203745203Y-139210074D01*
X203750419Y-139189250D01*
X203757651Y-139169038D01*
X203766830Y-139149632D01*
X203777866Y-139131219D01*
X203790654Y-139113976D01*
X203805070Y-139098070D01*
X203820976Y-139083654D01*
X203838219Y-139070866D01*
X203856632Y-139059830D01*
X203876038Y-139050651D01*
X203896250Y-139043419D01*
X203917074Y-139038203D01*
X203938309Y-139035053D01*
X203959750Y-139034000D01*
X204472250Y-139034000D01*
X204493691Y-139035053D01*
G37*
G36*
X37552691Y-136686053D02*
G01*
X37573926Y-136689203D01*
X37594750Y-136694419D01*
X37614962Y-136701651D01*
X37634368Y-136710830D01*
X37652781Y-136721866D01*
X37670024Y-136734654D01*
X37685930Y-136749070D01*
X37700346Y-136764976D01*
X37713134Y-136782219D01*
X37724170Y-136800632D01*
X37733349Y-136820038D01*
X37740581Y-136840250D01*
X37745797Y-136861074D01*
X37748947Y-136882309D01*
X37750000Y-136903750D01*
X37750000Y-137416250D01*
X37748947Y-137437691D01*
X37745797Y-137458926D01*
X37740581Y-137479750D01*
X37733349Y-137499962D01*
X37724170Y-137519368D01*
X37713134Y-137537781D01*
X37700346Y-137555024D01*
X37685930Y-137570930D01*
X37670024Y-137585346D01*
X37652781Y-137598134D01*
X37634368Y-137609170D01*
X37614962Y-137618349D01*
X37594750Y-137625581D01*
X37573926Y-137630797D01*
X37552691Y-137633947D01*
X37531250Y-137635000D01*
X37093750Y-137635000D01*
X37072309Y-137633947D01*
X37051074Y-137630797D01*
X37030250Y-137625581D01*
X37010038Y-137618349D01*
X36990632Y-137609170D01*
X36972219Y-137598134D01*
X36954976Y-137585346D01*
X36939070Y-137570930D01*
X36924654Y-137555024D01*
X36911866Y-137537781D01*
X36900830Y-137519368D01*
X36891651Y-137499962D01*
X36884419Y-137479750D01*
X36879203Y-137458926D01*
X36876053Y-137437691D01*
X36875000Y-137416250D01*
X36875000Y-136903750D01*
X36876053Y-136882309D01*
X36879203Y-136861074D01*
X36884419Y-136840250D01*
X36891651Y-136820038D01*
X36900830Y-136800632D01*
X36911866Y-136782219D01*
X36924654Y-136764976D01*
X36939070Y-136749070D01*
X36954976Y-136734654D01*
X36972219Y-136721866D01*
X36990632Y-136710830D01*
X37010038Y-136701651D01*
X37030250Y-136694419D01*
X37051074Y-136689203D01*
X37072309Y-136686053D01*
X37093750Y-136685000D01*
X37531250Y-136685000D01*
X37552691Y-136686053D01*
G37*
G36*
X39127691Y-136686053D02*
G01*
X39148926Y-136689203D01*
X39169750Y-136694419D01*
X39189962Y-136701651D01*
X39209368Y-136710830D01*
X39227781Y-136721866D01*
X39245024Y-136734654D01*
X39260930Y-136749070D01*
X39275346Y-136764976D01*
X39288134Y-136782219D01*
X39299170Y-136800632D01*
X39308349Y-136820038D01*
X39315581Y-136840250D01*
X39320797Y-136861074D01*
X39323947Y-136882309D01*
X39325000Y-136903750D01*
X39325000Y-137416250D01*
X39323947Y-137437691D01*
X39320797Y-137458926D01*
X39315581Y-137479750D01*
X39308349Y-137499962D01*
X39299170Y-137519368D01*
X39288134Y-137537781D01*
X39275346Y-137555024D01*
X39260930Y-137570930D01*
X39245024Y-137585346D01*
X39227781Y-137598134D01*
X39209368Y-137609170D01*
X39189962Y-137618349D01*
X39169750Y-137625581D01*
X39148926Y-137630797D01*
X39127691Y-137633947D01*
X39106250Y-137635000D01*
X38668750Y-137635000D01*
X38647309Y-137633947D01*
X38626074Y-137630797D01*
X38605250Y-137625581D01*
X38585038Y-137618349D01*
X38565632Y-137609170D01*
X38547219Y-137598134D01*
X38529976Y-137585346D01*
X38514070Y-137570930D01*
X38499654Y-137555024D01*
X38486866Y-137537781D01*
X38475830Y-137519368D01*
X38466651Y-137499962D01*
X38459419Y-137479750D01*
X38454203Y-137458926D01*
X38451053Y-137437691D01*
X38450000Y-137416250D01*
X38450000Y-136903750D01*
X38451053Y-136882309D01*
X38454203Y-136861074D01*
X38459419Y-136840250D01*
X38466651Y-136820038D01*
X38475830Y-136800632D01*
X38486866Y-136782219D01*
X38499654Y-136764976D01*
X38514070Y-136749070D01*
X38529976Y-136734654D01*
X38547219Y-136721866D01*
X38565632Y-136710830D01*
X38585038Y-136701651D01*
X38605250Y-136694419D01*
X38626074Y-136689203D01*
X38647309Y-136686053D01*
X38668750Y-136685000D01*
X39106250Y-136685000D01*
X39127691Y-136686053D01*
G37*
G36*
X310132291Y-31872253D02*
G01*
X310153526Y-31875403D01*
X310174350Y-31880619D01*
X310194562Y-31887851D01*
X310213968Y-31897030D01*
X310232381Y-31908066D01*
X310249624Y-31920854D01*
X310265530Y-31935270D01*
X310279946Y-31951176D01*
X310292734Y-31968419D01*
X310303770Y-31986832D01*
X310312949Y-32006238D01*
X310320181Y-32026450D01*
X310325397Y-32047274D01*
X310328547Y-32068509D01*
X310329600Y-32089950D01*
X310329600Y-32527450D01*
X310328547Y-32548891D01*
X310325397Y-32570126D01*
X310320181Y-32590950D01*
X310312949Y-32611162D01*
X310303770Y-32630568D01*
X310292734Y-32648981D01*
X310279946Y-32666224D01*
X310265530Y-32682130D01*
X310249624Y-32696546D01*
X310232381Y-32709334D01*
X310213968Y-32720370D01*
X310194562Y-32729549D01*
X310174350Y-32736781D01*
X310153526Y-32741997D01*
X310132291Y-32745147D01*
X310110850Y-32746200D01*
X309598350Y-32746200D01*
X309576909Y-32745147D01*
X309555674Y-32741997D01*
X309534850Y-32736781D01*
X309514638Y-32729549D01*
X309495232Y-32720370D01*
X309476819Y-32709334D01*
X309459576Y-32696546D01*
X309443670Y-32682130D01*
X309429254Y-32666224D01*
X309416466Y-32648981D01*
X309405430Y-32630568D01*
X309396251Y-32611162D01*
X309389019Y-32590950D01*
X309383803Y-32570126D01*
X309380653Y-32548891D01*
X309379600Y-32527450D01*
X309379600Y-32089950D01*
X309380653Y-32068509D01*
X309383803Y-32047274D01*
X309389019Y-32026450D01*
X309396251Y-32006238D01*
X309405430Y-31986832D01*
X309416466Y-31968419D01*
X309429254Y-31951176D01*
X309443670Y-31935270D01*
X309459576Y-31920854D01*
X309476819Y-31908066D01*
X309495232Y-31897030D01*
X309514638Y-31887851D01*
X309534850Y-31880619D01*
X309555674Y-31875403D01*
X309576909Y-31872253D01*
X309598350Y-31871200D01*
X310110850Y-31871200D01*
X310132291Y-31872253D01*
G37*
G36*
X310132291Y-33447253D02*
G01*
X310153526Y-33450403D01*
X310174350Y-33455619D01*
X310194562Y-33462851D01*
X310213968Y-33472030D01*
X310232381Y-33483066D01*
X310249624Y-33495854D01*
X310265530Y-33510270D01*
X310279946Y-33526176D01*
X310292734Y-33543419D01*
X310303770Y-33561832D01*
X310312949Y-33581238D01*
X310320181Y-33601450D01*
X310325397Y-33622274D01*
X310328547Y-33643509D01*
X310329600Y-33664950D01*
X310329600Y-34102450D01*
X310328547Y-34123891D01*
X310325397Y-34145126D01*
X310320181Y-34165950D01*
X310312949Y-34186162D01*
X310303770Y-34205568D01*
X310292734Y-34223981D01*
X310279946Y-34241224D01*
X310265530Y-34257130D01*
X310249624Y-34271546D01*
X310232381Y-34284334D01*
X310213968Y-34295370D01*
X310194562Y-34304549D01*
X310174350Y-34311781D01*
X310153526Y-34316997D01*
X310132291Y-34320147D01*
X310110850Y-34321200D01*
X309598350Y-34321200D01*
X309576909Y-34320147D01*
X309555674Y-34316997D01*
X309534850Y-34311781D01*
X309514638Y-34304549D01*
X309495232Y-34295370D01*
X309476819Y-34284334D01*
X309459576Y-34271546D01*
X309443670Y-34257130D01*
X309429254Y-34241224D01*
X309416466Y-34223981D01*
X309405430Y-34205568D01*
X309396251Y-34186162D01*
X309389019Y-34165950D01*
X309383803Y-34145126D01*
X309380653Y-34123891D01*
X309379600Y-34102450D01*
X309379600Y-33664950D01*
X309380653Y-33643509D01*
X309383803Y-33622274D01*
X309389019Y-33601450D01*
X309396251Y-33581238D01*
X309405430Y-33561832D01*
X309416466Y-33543419D01*
X309429254Y-33526176D01*
X309443670Y-33510270D01*
X309459576Y-33495854D01*
X309476819Y-33483066D01*
X309495232Y-33472030D01*
X309514638Y-33462851D01*
X309534850Y-33455619D01*
X309555674Y-33450403D01*
X309576909Y-33447253D01*
X309598350Y-33446200D01*
X310110850Y-33446200D01*
X310132291Y-33447253D01*
G37*
G36*
X308100291Y-31872253D02*
G01*
X308121526Y-31875403D01*
X308142350Y-31880619D01*
X308162562Y-31887851D01*
X308181968Y-31897030D01*
X308200381Y-31908066D01*
X308217624Y-31920854D01*
X308233530Y-31935270D01*
X308247946Y-31951176D01*
X308260734Y-31968419D01*
X308271770Y-31986832D01*
X308280949Y-32006238D01*
X308288181Y-32026450D01*
X308293397Y-32047274D01*
X308296547Y-32068509D01*
X308297600Y-32089950D01*
X308297600Y-32527450D01*
X308296547Y-32548891D01*
X308293397Y-32570126D01*
X308288181Y-32590950D01*
X308280949Y-32611162D01*
X308271770Y-32630568D01*
X308260734Y-32648981D01*
X308247946Y-32666224D01*
X308233530Y-32682130D01*
X308217624Y-32696546D01*
X308200381Y-32709334D01*
X308181968Y-32720370D01*
X308162562Y-32729549D01*
X308142350Y-32736781D01*
X308121526Y-32741997D01*
X308100291Y-32745147D01*
X308078850Y-32746200D01*
X307566350Y-32746200D01*
X307544909Y-32745147D01*
X307523674Y-32741997D01*
X307502850Y-32736781D01*
X307482638Y-32729549D01*
X307463232Y-32720370D01*
X307444819Y-32709334D01*
X307427576Y-32696546D01*
X307411670Y-32682130D01*
X307397254Y-32666224D01*
X307384466Y-32648981D01*
X307373430Y-32630568D01*
X307364251Y-32611162D01*
X307357019Y-32590950D01*
X307351803Y-32570126D01*
X307348653Y-32548891D01*
X307347600Y-32527450D01*
X307347600Y-32089950D01*
X307348653Y-32068509D01*
X307351803Y-32047274D01*
X307357019Y-32026450D01*
X307364251Y-32006238D01*
X307373430Y-31986832D01*
X307384466Y-31968419D01*
X307397254Y-31951176D01*
X307411670Y-31935270D01*
X307427576Y-31920854D01*
X307444819Y-31908066D01*
X307463232Y-31897030D01*
X307482638Y-31887851D01*
X307502850Y-31880619D01*
X307523674Y-31875403D01*
X307544909Y-31872253D01*
X307566350Y-31871200D01*
X308078850Y-31871200D01*
X308100291Y-31872253D01*
G37*
G36*
X308100291Y-33447253D02*
G01*
X308121526Y-33450403D01*
X308142350Y-33455619D01*
X308162562Y-33462851D01*
X308181968Y-33472030D01*
X308200381Y-33483066D01*
X308217624Y-33495854D01*
X308233530Y-33510270D01*
X308247946Y-33526176D01*
X308260734Y-33543419D01*
X308271770Y-33561832D01*
X308280949Y-33581238D01*
X308288181Y-33601450D01*
X308293397Y-33622274D01*
X308296547Y-33643509D01*
X308297600Y-33664950D01*
X308297600Y-34102450D01*
X308296547Y-34123891D01*
X308293397Y-34145126D01*
X308288181Y-34165950D01*
X308280949Y-34186162D01*
X308271770Y-34205568D01*
X308260734Y-34223981D01*
X308247946Y-34241224D01*
X308233530Y-34257130D01*
X308217624Y-34271546D01*
X308200381Y-34284334D01*
X308181968Y-34295370D01*
X308162562Y-34304549D01*
X308142350Y-34311781D01*
X308121526Y-34316997D01*
X308100291Y-34320147D01*
X308078850Y-34321200D01*
X307566350Y-34321200D01*
X307544909Y-34320147D01*
X307523674Y-34316997D01*
X307502850Y-34311781D01*
X307482638Y-34304549D01*
X307463232Y-34295370D01*
X307444819Y-34284334D01*
X307427576Y-34271546D01*
X307411670Y-34257130D01*
X307397254Y-34241224D01*
X307384466Y-34223981D01*
X307373430Y-34205568D01*
X307364251Y-34186162D01*
X307357019Y-34165950D01*
X307351803Y-34145126D01*
X307348653Y-34123891D01*
X307347600Y-34102450D01*
X307347600Y-33664950D01*
X307348653Y-33643509D01*
X307351803Y-33622274D01*
X307357019Y-33601450D01*
X307364251Y-33581238D01*
X307373430Y-33561832D01*
X307384466Y-33543419D01*
X307397254Y-33526176D01*
X307411670Y-33510270D01*
X307427576Y-33495854D01*
X307444819Y-33483066D01*
X307463232Y-33472030D01*
X307482638Y-33462851D01*
X307502850Y-33455619D01*
X307523674Y-33450403D01*
X307544909Y-33447253D01*
X307566350Y-33446200D01*
X308078850Y-33446200D01*
X308100291Y-33447253D01*
G37*
G36*
X-42394309Y-31796053D02*
G01*
X-42373074Y-31799203D01*
X-42352250Y-31804419D01*
X-42332038Y-31811651D01*
X-42312632Y-31820830D01*
X-42294219Y-31831866D01*
X-42276976Y-31844654D01*
X-42261070Y-31859070D01*
X-42246654Y-31874976D01*
X-42233866Y-31892219D01*
X-42222830Y-31910632D01*
X-42213651Y-31930038D01*
X-42206419Y-31950250D01*
X-42201203Y-31971074D01*
X-42198053Y-31992309D01*
X-42197000Y-32013750D01*
X-42197000Y-32451250D01*
X-42198053Y-32472691D01*
X-42201203Y-32493926D01*
X-42206419Y-32514750D01*
X-42213651Y-32534962D01*
X-42222830Y-32554368D01*
X-42233866Y-32572781D01*
X-42246654Y-32590024D01*
X-42261070Y-32605930D01*
X-42276976Y-32620346D01*
X-42294219Y-32633134D01*
X-42312632Y-32644170D01*
X-42332038Y-32653349D01*
X-42352250Y-32660581D01*
X-42373074Y-32665797D01*
X-42394309Y-32668947D01*
X-42415750Y-32670000D01*
X-42928250Y-32670000D01*
X-42949691Y-32668947D01*
X-42970926Y-32665797D01*
X-42991750Y-32660581D01*
X-43011962Y-32653349D01*
X-43031368Y-32644170D01*
X-43049781Y-32633134D01*
X-43067024Y-32620346D01*
X-43082930Y-32605930D01*
X-43097346Y-32590024D01*
X-43110134Y-32572781D01*
X-43121170Y-32554368D01*
X-43130349Y-32534962D01*
X-43137581Y-32514750D01*
X-43142797Y-32493926D01*
X-43145947Y-32472691D01*
X-43147000Y-32451250D01*
X-43147000Y-32013750D01*
X-43145947Y-31992309D01*
X-43142797Y-31971074D01*
X-43137581Y-31950250D01*
X-43130349Y-31930038D01*
X-43121170Y-31910632D01*
X-43110134Y-31892219D01*
X-43097346Y-31874976D01*
X-43082930Y-31859070D01*
X-43067024Y-31844654D01*
X-43049781Y-31831866D01*
X-43031368Y-31820830D01*
X-43011962Y-31811651D01*
X-42991750Y-31804419D01*
X-42970926Y-31799203D01*
X-42949691Y-31796053D01*
X-42928250Y-31795000D01*
X-42415750Y-31795000D01*
X-42394309Y-31796053D01*
G37*
G36*
X-42394309Y-33371053D02*
G01*
X-42373074Y-33374203D01*
X-42352250Y-33379419D01*
X-42332038Y-33386651D01*
X-42312632Y-33395830D01*
X-42294219Y-33406866D01*
X-42276976Y-33419654D01*
X-42261070Y-33434070D01*
X-42246654Y-33449976D01*
X-42233866Y-33467219D01*
X-42222830Y-33485632D01*
X-42213651Y-33505038D01*
X-42206419Y-33525250D01*
X-42201203Y-33546074D01*
X-42198053Y-33567309D01*
X-42197000Y-33588750D01*
X-42197000Y-34026250D01*
X-42198053Y-34047691D01*
X-42201203Y-34068926D01*
X-42206419Y-34089750D01*
X-42213651Y-34109962D01*
X-42222830Y-34129368D01*
X-42233866Y-34147781D01*
X-42246654Y-34165024D01*
X-42261070Y-34180930D01*
X-42276976Y-34195346D01*
X-42294219Y-34208134D01*
X-42312632Y-34219170D01*
X-42332038Y-34228349D01*
X-42352250Y-34235581D01*
X-42373074Y-34240797D01*
X-42394309Y-34243947D01*
X-42415750Y-34245000D01*
X-42928250Y-34245000D01*
X-42949691Y-34243947D01*
X-42970926Y-34240797D01*
X-42991750Y-34235581D01*
X-43011962Y-34228349D01*
X-43031368Y-34219170D01*
X-43049781Y-34208134D01*
X-43067024Y-34195346D01*
X-43082930Y-34180930D01*
X-43097346Y-34165024D01*
X-43110134Y-34147781D01*
X-43121170Y-34129368D01*
X-43130349Y-34109962D01*
X-43137581Y-34089750D01*
X-43142797Y-34068926D01*
X-43145947Y-34047691D01*
X-43147000Y-34026250D01*
X-43147000Y-33588750D01*
X-43145947Y-33567309D01*
X-43142797Y-33546074D01*
X-43137581Y-33525250D01*
X-43130349Y-33505038D01*
X-43121170Y-33485632D01*
X-43110134Y-33467219D01*
X-43097346Y-33449976D01*
X-43082930Y-33434070D01*
X-43067024Y-33419654D01*
X-43049781Y-33406866D01*
X-43031368Y-33395830D01*
X-43011962Y-33386651D01*
X-42991750Y-33379419D01*
X-42970926Y-33374203D01*
X-42949691Y-33371053D01*
X-42928250Y-33370000D01*
X-42415750Y-33370000D01*
X-42394309Y-33371053D01*
G37*
G36*
X-44426309Y-31796053D02*
G01*
X-44405074Y-31799203D01*
X-44384250Y-31804419D01*
X-44364038Y-31811651D01*
X-44344632Y-31820830D01*
X-44326219Y-31831866D01*
X-44308976Y-31844654D01*
X-44293070Y-31859070D01*
X-44278654Y-31874976D01*
X-44265866Y-31892219D01*
X-44254830Y-31910632D01*
X-44245651Y-31930038D01*
X-44238419Y-31950250D01*
X-44233203Y-31971074D01*
X-44230053Y-31992309D01*
X-44229000Y-32013750D01*
X-44229000Y-32451250D01*
X-44230053Y-32472691D01*
X-44233203Y-32493926D01*
X-44238419Y-32514750D01*
X-44245651Y-32534962D01*
X-44254830Y-32554368D01*
X-44265866Y-32572781D01*
X-44278654Y-32590024D01*
X-44293070Y-32605930D01*
X-44308976Y-32620346D01*
X-44326219Y-32633134D01*
X-44344632Y-32644170D01*
X-44364038Y-32653349D01*
X-44384250Y-32660581D01*
X-44405074Y-32665797D01*
X-44426309Y-32668947D01*
X-44447750Y-32670000D01*
X-44960250Y-32670000D01*
X-44981691Y-32668947D01*
X-45002926Y-32665797D01*
X-45023750Y-32660581D01*
X-45043962Y-32653349D01*
X-45063368Y-32644170D01*
X-45081781Y-32633134D01*
X-45099024Y-32620346D01*
X-45114930Y-32605930D01*
X-45129346Y-32590024D01*
X-45142134Y-32572781D01*
X-45153170Y-32554368D01*
X-45162349Y-32534962D01*
X-45169581Y-32514750D01*
X-45174797Y-32493926D01*
X-45177947Y-32472691D01*
X-45179000Y-32451250D01*
X-45179000Y-32013750D01*
X-45177947Y-31992309D01*
X-45174797Y-31971074D01*
X-45169581Y-31950250D01*
X-45162349Y-31930038D01*
X-45153170Y-31910632D01*
X-45142134Y-31892219D01*
X-45129346Y-31874976D01*
X-45114930Y-31859070D01*
X-45099024Y-31844654D01*
X-45081781Y-31831866D01*
X-45063368Y-31820830D01*
X-45043962Y-31811651D01*
X-45023750Y-31804419D01*
X-45002926Y-31799203D01*
X-44981691Y-31796053D01*
X-44960250Y-31795000D01*
X-44447750Y-31795000D01*
X-44426309Y-31796053D01*
G37*
G36*
X-44426309Y-33371053D02*
G01*
X-44405074Y-33374203D01*
X-44384250Y-33379419D01*
X-44364038Y-33386651D01*
X-44344632Y-33395830D01*
X-44326219Y-33406866D01*
X-44308976Y-33419654D01*
X-44293070Y-33434070D01*
X-44278654Y-33449976D01*
X-44265866Y-33467219D01*
X-44254830Y-33485632D01*
X-44245651Y-33505038D01*
X-44238419Y-33525250D01*
X-44233203Y-33546074D01*
X-44230053Y-33567309D01*
X-44229000Y-33588750D01*
X-44229000Y-34026250D01*
X-44230053Y-34047691D01*
X-44233203Y-34068926D01*
X-44238419Y-34089750D01*
X-44245651Y-34109962D01*
X-44254830Y-34129368D01*
X-44265866Y-34147781D01*
X-44278654Y-34165024D01*
X-44293070Y-34180930D01*
X-44308976Y-34195346D01*
X-44326219Y-34208134D01*
X-44344632Y-34219170D01*
X-44364038Y-34228349D01*
X-44384250Y-34235581D01*
X-44405074Y-34240797D01*
X-44426309Y-34243947D01*
X-44447750Y-34245000D01*
X-44960250Y-34245000D01*
X-44981691Y-34243947D01*
X-45002926Y-34240797D01*
X-45023750Y-34235581D01*
X-45043962Y-34228349D01*
X-45063368Y-34219170D01*
X-45081781Y-34208134D01*
X-45099024Y-34195346D01*
X-45114930Y-34180930D01*
X-45129346Y-34165024D01*
X-45142134Y-34147781D01*
X-45153170Y-34129368D01*
X-45162349Y-34109962D01*
X-45169581Y-34089750D01*
X-45174797Y-34068926D01*
X-45177947Y-34047691D01*
X-45179000Y-34026250D01*
X-45179000Y-33588750D01*
X-45177947Y-33567309D01*
X-45174797Y-33546074D01*
X-45169581Y-33525250D01*
X-45162349Y-33505038D01*
X-45153170Y-33485632D01*
X-45142134Y-33467219D01*
X-45129346Y-33449976D01*
X-45114930Y-33434070D01*
X-45099024Y-33419654D01*
X-45081781Y-33406866D01*
X-45063368Y-33395830D01*
X-45043962Y-33386651D01*
X-45023750Y-33379419D01*
X-45002926Y-33374203D01*
X-44981691Y-33371053D01*
X-44960250Y-33370000D01*
X-44447750Y-33370000D01*
X-44426309Y-33371053D01*
G37*
G36*
X165631691Y-71547053D02*
G01*
X165652926Y-71550203D01*
X165673750Y-71555419D01*
X165693962Y-71562651D01*
X165713368Y-71571830D01*
X165731781Y-71582866D01*
X165749024Y-71595654D01*
X165764930Y-71610070D01*
X165779346Y-71625976D01*
X165792134Y-71643219D01*
X165803170Y-71661632D01*
X165812349Y-71681038D01*
X165819581Y-71701250D01*
X165824797Y-71722074D01*
X165827947Y-71743309D01*
X165829000Y-71764750D01*
X165829000Y-72202250D01*
X165827947Y-72223691D01*
X165824797Y-72244926D01*
X165819581Y-72265750D01*
X165812349Y-72285962D01*
X165803170Y-72305368D01*
X165792134Y-72323781D01*
X165779346Y-72341024D01*
X165764930Y-72356930D01*
X165749024Y-72371346D01*
X165731781Y-72384134D01*
X165713368Y-72395170D01*
X165693962Y-72404349D01*
X165673750Y-72411581D01*
X165652926Y-72416797D01*
X165631691Y-72419947D01*
X165610250Y-72421000D01*
X165097750Y-72421000D01*
X165076309Y-72419947D01*
X165055074Y-72416797D01*
X165034250Y-72411581D01*
X165014038Y-72404349D01*
X164994632Y-72395170D01*
X164976219Y-72384134D01*
X164958976Y-72371346D01*
X164943070Y-72356930D01*
X164928654Y-72341024D01*
X164915866Y-72323781D01*
X164904830Y-72305368D01*
X164895651Y-72285962D01*
X164888419Y-72265750D01*
X164883203Y-72244926D01*
X164880053Y-72223691D01*
X164879000Y-72202250D01*
X164879000Y-71764750D01*
X164880053Y-71743309D01*
X164883203Y-71722074D01*
X164888419Y-71701250D01*
X164895651Y-71681038D01*
X164904830Y-71661632D01*
X164915866Y-71643219D01*
X164928654Y-71625976D01*
X164943070Y-71610070D01*
X164958976Y-71595654D01*
X164976219Y-71582866D01*
X164994632Y-71571830D01*
X165014038Y-71562651D01*
X165034250Y-71555419D01*
X165055074Y-71550203D01*
X165076309Y-71547053D01*
X165097750Y-71546000D01*
X165610250Y-71546000D01*
X165631691Y-71547053D01*
G37*
G36*
X165631691Y-73122053D02*
G01*
X165652926Y-73125203D01*
X165673750Y-73130419D01*
X165693962Y-73137651D01*
X165713368Y-73146830D01*
X165731781Y-73157866D01*
X165749024Y-73170654D01*
X165764930Y-73185070D01*
X165779346Y-73200976D01*
X165792134Y-73218219D01*
X165803170Y-73236632D01*
X165812349Y-73256038D01*
X165819581Y-73276250D01*
X165824797Y-73297074D01*
X165827947Y-73318309D01*
X165829000Y-73339750D01*
X165829000Y-73777250D01*
X165827947Y-73798691D01*
X165824797Y-73819926D01*
X165819581Y-73840750D01*
X165812349Y-73860962D01*
X165803170Y-73880368D01*
X165792134Y-73898781D01*
X165779346Y-73916024D01*
X165764930Y-73931930D01*
X165749024Y-73946346D01*
X165731781Y-73959134D01*
X165713368Y-73970170D01*
X165693962Y-73979349D01*
X165673750Y-73986581D01*
X165652926Y-73991797D01*
X165631691Y-73994947D01*
X165610250Y-73996000D01*
X165097750Y-73996000D01*
X165076309Y-73994947D01*
X165055074Y-73991797D01*
X165034250Y-73986581D01*
X165014038Y-73979349D01*
X164994632Y-73970170D01*
X164976219Y-73959134D01*
X164958976Y-73946346D01*
X164943070Y-73931930D01*
X164928654Y-73916024D01*
X164915866Y-73898781D01*
X164904830Y-73880368D01*
X164895651Y-73860962D01*
X164888419Y-73840750D01*
X164883203Y-73819926D01*
X164880053Y-73798691D01*
X164879000Y-73777250D01*
X164879000Y-73339750D01*
X164880053Y-73318309D01*
X164883203Y-73297074D01*
X164888419Y-73276250D01*
X164895651Y-73256038D01*
X164904830Y-73236632D01*
X164915866Y-73218219D01*
X164928654Y-73200976D01*
X164943070Y-73185070D01*
X164958976Y-73170654D01*
X164976219Y-73157866D01*
X164994632Y-73146830D01*
X165014038Y-73137651D01*
X165034250Y-73130419D01*
X165055074Y-73125203D01*
X165076309Y-73122053D01*
X165097750Y-73121000D01*
X165610250Y-73121000D01*
X165631691Y-73122053D01*
G37*
G36*
X112101691Y-109254053D02*
G01*
X112122926Y-109257203D01*
X112143750Y-109262419D01*
X112163962Y-109269651D01*
X112183368Y-109278830D01*
X112201781Y-109289866D01*
X112219024Y-109302654D01*
X112234930Y-109317070D01*
X112249346Y-109332976D01*
X112262134Y-109350219D01*
X112273170Y-109368632D01*
X112282349Y-109388038D01*
X112289581Y-109408250D01*
X112294797Y-109429074D01*
X112297947Y-109450309D01*
X112299000Y-109471750D01*
X112299000Y-109984250D01*
X112297947Y-110005691D01*
X112294797Y-110026926D01*
X112289581Y-110047750D01*
X112282349Y-110067962D01*
X112273170Y-110087368D01*
X112262134Y-110105781D01*
X112249346Y-110123024D01*
X112234930Y-110138930D01*
X112219024Y-110153346D01*
X112201781Y-110166134D01*
X112183368Y-110177170D01*
X112163962Y-110186349D01*
X112143750Y-110193581D01*
X112122926Y-110198797D01*
X112101691Y-110201947D01*
X112080250Y-110203000D01*
X111642750Y-110203000D01*
X111621309Y-110201947D01*
X111600074Y-110198797D01*
X111579250Y-110193581D01*
X111559038Y-110186349D01*
X111539632Y-110177170D01*
X111521219Y-110166134D01*
X111503976Y-110153346D01*
X111488070Y-110138930D01*
X111473654Y-110123024D01*
X111460866Y-110105781D01*
X111449830Y-110087368D01*
X111440651Y-110067962D01*
X111433419Y-110047750D01*
X111428203Y-110026926D01*
X111425053Y-110005691D01*
X111424000Y-109984250D01*
X111424000Y-109471750D01*
X111425053Y-109450309D01*
X111428203Y-109429074D01*
X111433419Y-109408250D01*
X111440651Y-109388038D01*
X111449830Y-109368632D01*
X111460866Y-109350219D01*
X111473654Y-109332976D01*
X111488070Y-109317070D01*
X111503976Y-109302654D01*
X111521219Y-109289866D01*
X111539632Y-109278830D01*
X111559038Y-109269651D01*
X111579250Y-109262419D01*
X111600074Y-109257203D01*
X111621309Y-109254053D01*
X111642750Y-109253000D01*
X112080250Y-109253000D01*
X112101691Y-109254053D01*
G37*
G36*
X113676691Y-109254053D02*
G01*
X113697926Y-109257203D01*
X113718750Y-109262419D01*
X113738962Y-109269651D01*
X113758368Y-109278830D01*
X113776781Y-109289866D01*
X113794024Y-109302654D01*
X113809930Y-109317070D01*
X113824346Y-109332976D01*
X113837134Y-109350219D01*
X113848170Y-109368632D01*
X113857349Y-109388038D01*
X113864581Y-109408250D01*
X113869797Y-109429074D01*
X113872947Y-109450309D01*
X113874000Y-109471750D01*
X113874000Y-109984250D01*
X113872947Y-110005691D01*
X113869797Y-110026926D01*
X113864581Y-110047750D01*
X113857349Y-110067962D01*
X113848170Y-110087368D01*
X113837134Y-110105781D01*
X113824346Y-110123024D01*
X113809930Y-110138930D01*
X113794024Y-110153346D01*
X113776781Y-110166134D01*
X113758368Y-110177170D01*
X113738962Y-110186349D01*
X113718750Y-110193581D01*
X113697926Y-110198797D01*
X113676691Y-110201947D01*
X113655250Y-110203000D01*
X113217750Y-110203000D01*
X113196309Y-110201947D01*
X113175074Y-110198797D01*
X113154250Y-110193581D01*
X113134038Y-110186349D01*
X113114632Y-110177170D01*
X113096219Y-110166134D01*
X113078976Y-110153346D01*
X113063070Y-110138930D01*
X113048654Y-110123024D01*
X113035866Y-110105781D01*
X113024830Y-110087368D01*
X113015651Y-110067962D01*
X113008419Y-110047750D01*
X113003203Y-110026926D01*
X113000053Y-110005691D01*
X112999000Y-109984250D01*
X112999000Y-109471750D01*
X113000053Y-109450309D01*
X113003203Y-109429074D01*
X113008419Y-109408250D01*
X113015651Y-109388038D01*
X113024830Y-109368632D01*
X113035866Y-109350219D01*
X113048654Y-109332976D01*
X113063070Y-109317070D01*
X113078976Y-109302654D01*
X113096219Y-109289866D01*
X113114632Y-109278830D01*
X113134038Y-109269651D01*
X113154250Y-109262419D01*
X113175074Y-109257203D01*
X113196309Y-109254053D01*
X113217750Y-109253000D01*
X113655250Y-109253000D01*
X113676691Y-109254053D01*
G37*
D11*
X162104000Y-75366000D03*
X155904000Y-79066000D03*
X162104000Y-79066000D03*
X155904000Y-75366000D03*
D12*
X-47625000Y-50545000D03*
X-47625000Y-47245000D03*
X-42545000Y-69595000D03*
X-42545000Y-66295000D03*
X-40640000Y-88645000D03*
X-40640000Y-85345000D03*
X-35560000Y-107060000D03*
X-35560000Y-103760000D03*
X-42545000Y-127380000D03*
X-42545000Y-124080000D03*
X-28575000Y-31495000D03*
X-28575000Y-28195000D03*
X-28575000Y-50545000D03*
X-28575000Y-47245000D03*
X-19050000Y-69595000D03*
X-19050000Y-66295000D03*
X-13970000Y-88645000D03*
X-13970000Y-85345000D03*
X-4445000Y-107060000D03*
X-4445000Y-103760000D03*
X-18415000Y-127380000D03*
X-18415000Y-124080000D03*
X-9525000Y-28195000D03*
X-9525000Y-31495000D03*
X-9525000Y-50545000D03*
X-9525000Y-47245000D03*
X0Y-69595000D03*
X0Y-66295000D03*
X5080000Y-88645000D03*
X5080000Y-85345000D03*
X14605000Y-107060000D03*
X14605000Y-103760000D03*
X635000Y-127380000D03*
X635000Y-124080000D03*
X9525000Y-31495000D03*
X9525000Y-28195000D03*
X9525000Y-50545000D03*
X9525000Y-47245000D03*
X19050000Y-69595000D03*
X19050000Y-66295000D03*
X23495000Y-88645000D03*
X23495000Y-85345000D03*
X33655000Y-107060000D03*
X33655000Y-103760000D03*
X21590000Y-127380000D03*
X21590000Y-124080000D03*
X28575000Y-31495000D03*
X28575000Y-28195000D03*
X28575000Y-50545000D03*
X28575000Y-47245000D03*
X38100000Y-69595000D03*
X38100000Y-66295000D03*
X43180000Y-88645000D03*
X43180000Y-85345000D03*
X52705000Y-107060000D03*
X52705000Y-103760000D03*
X54610000Y-127380000D03*
X54610000Y-124080000D03*
X47625000Y-31495000D03*
X47625000Y-28195000D03*
X47625000Y-50545000D03*
X47625000Y-47245000D03*
X57150000Y-69595000D03*
X57150000Y-66295000D03*
X61595000Y-88645000D03*
X61595000Y-85345000D03*
X71755000Y-107060000D03*
X71755000Y-103760000D03*
X85725000Y-127380000D03*
X85725000Y-124080000D03*
X66675000Y-31495000D03*
X66675000Y-28195000D03*
X66675000Y-50545000D03*
X66675000Y-47245000D03*
X76200000Y-69595000D03*
X76200000Y-66295000D03*
X80645000Y-88645000D03*
X80645000Y-85345000D03*
X90805000Y-107060000D03*
X90805000Y-103760000D03*
X105410000Y-127380000D03*
X105410000Y-124080000D03*
X79756000Y-31495000D03*
X79756000Y-28195000D03*
X85725000Y-50545000D03*
X85725000Y-47245000D03*
X95250000Y-69595000D03*
X95250000Y-66295000D03*
X99695000Y-88645000D03*
X99695000Y-85345000D03*
X109855000Y-107060000D03*
X109855000Y-103760000D03*
X118364000Y-127380000D03*
X118364000Y-124080000D03*
X190373000Y-31495000D03*
X190373000Y-28195000D03*
X171323000Y-50545000D03*
X171323000Y-47245000D03*
X180848000Y-69595000D03*
X180848000Y-66295000D03*
X166243000Y-89280000D03*
X166243000Y-85980000D03*
X156718000Y-108330000D03*
X156718000Y-105030000D03*
X152273000Y-127380000D03*
X152273000Y-124080000D03*
X209423000Y-31495000D03*
X209423000Y-28195000D03*
X190373000Y-50545000D03*
X190373000Y-47245000D03*
X199898000Y-69595000D03*
X199898000Y-66295000D03*
X185293000Y-89280000D03*
X185293000Y-85980000D03*
X175768000Y-108330000D03*
X175768000Y-105030000D03*
X182753000Y-127380000D03*
X182753000Y-124080000D03*
X228473000Y-31495000D03*
X228473000Y-28195000D03*
X209423000Y-50545000D03*
X209423000Y-47245000D03*
X218948000Y-69595000D03*
X218948000Y-66295000D03*
X204343000Y-89280000D03*
X204343000Y-85980000D03*
X194818000Y-108330000D03*
X194818000Y-105030000D03*
X216408000Y-127380000D03*
X216408000Y-124080000D03*
X247523000Y-31495000D03*
X247523000Y-28195000D03*
X227838000Y-50545000D03*
X227838000Y-47245000D03*
X237998000Y-69595000D03*
X237998000Y-66295000D03*
X223393000Y-89280000D03*
X223393000Y-85980000D03*
X213868000Y-108330000D03*
X213868000Y-105030000D03*
X237998000Y-127380000D03*
X237998000Y-124080000D03*
X265938000Y-31495000D03*
X265938000Y-28195000D03*
X247523000Y-50545000D03*
X247523000Y-47245000D03*
X257048000Y-69595000D03*
X257048000Y-66295000D03*
X242443000Y-89280000D03*
X242443000Y-85980000D03*
X232918000Y-108330000D03*
X232918000Y-105030000D03*
X257048000Y-127380000D03*
X257048000Y-124080000D03*
X285623000Y-31495000D03*
X285623000Y-28195000D03*
X266573000Y-50545000D03*
X266573000Y-47245000D03*
X276098000Y-69595000D03*
X276098000Y-66295000D03*
X261493000Y-89280000D03*
X261493000Y-85980000D03*
X251968000Y-108330000D03*
X251968000Y-105030000D03*
X276098000Y-127380000D03*
X276098000Y-124080000D03*
X298196000Y-30354000D03*
X298196000Y-33654000D03*
X288798000Y-69595000D03*
X288798000Y-66295000D03*
X280543000Y-89280000D03*
X280543000Y-85980000D03*
X271018000Y-108330000D03*
X271018000Y-105030000D03*
X295148000Y-127380000D03*
X295148000Y-124080000D03*
D13*
X317372000Y-31242000D03*
X314072000Y-31242000D03*
D12*
X308356000Y-49910000D03*
X308356000Y-46610000D03*
X312293000Y-69595000D03*
X312293000Y-66295000D03*
X311658000Y-89280000D03*
X311658000Y-85980000D03*
D13*
X303783000Y-119380000D03*
X300483000Y-119380000D03*
X313308000Y-125095000D03*
X310008000Y-125095000D03*
D12*
X-53848000Y-30354000D03*
X-53848000Y-33654000D03*
X285623000Y-50545000D03*
X285623000Y-47245000D03*
D10*
G36*
X204747691Y-126792053D02*
G01*
X204768926Y-126795203D01*
X204789750Y-126800419D01*
X204809962Y-126807651D01*
X204829368Y-126816830D01*
X204847781Y-126827866D01*
X204865024Y-126840654D01*
X204880930Y-126855070D01*
X204895346Y-126870976D01*
X204908134Y-126888219D01*
X204919170Y-126906632D01*
X204928349Y-126926038D01*
X204935581Y-126946250D01*
X204940797Y-126967074D01*
X204943947Y-126988309D01*
X204945000Y-127009750D01*
X204945000Y-127447250D01*
X204943947Y-127468691D01*
X204940797Y-127489926D01*
X204935581Y-127510750D01*
X204928349Y-127530962D01*
X204919170Y-127550368D01*
X204908134Y-127568781D01*
X204895346Y-127586024D01*
X204880930Y-127601930D01*
X204865024Y-127616346D01*
X204847781Y-127629134D01*
X204829368Y-127640170D01*
X204809962Y-127649349D01*
X204789750Y-127656581D01*
X204768926Y-127661797D01*
X204747691Y-127664947D01*
X204726250Y-127666000D01*
X204213750Y-127666000D01*
X204192309Y-127664947D01*
X204171074Y-127661797D01*
X204150250Y-127656581D01*
X204130038Y-127649349D01*
X204110632Y-127640170D01*
X204092219Y-127629134D01*
X204074976Y-127616346D01*
X204059070Y-127601930D01*
X204044654Y-127586024D01*
X204031866Y-127568781D01*
X204020830Y-127550368D01*
X204011651Y-127530962D01*
X204004419Y-127510750D01*
X203999203Y-127489926D01*
X203996053Y-127468691D01*
X203995000Y-127447250D01*
X203995000Y-127009750D01*
X203996053Y-126988309D01*
X203999203Y-126967074D01*
X204004419Y-126946250D01*
X204011651Y-126926038D01*
X204020830Y-126906632D01*
X204031866Y-126888219D01*
X204044654Y-126870976D01*
X204059070Y-126855070D01*
X204074976Y-126840654D01*
X204092219Y-126827866D01*
X204110632Y-126816830D01*
X204130038Y-126807651D01*
X204150250Y-126800419D01*
X204171074Y-126795203D01*
X204192309Y-126792053D01*
X204213750Y-126791000D01*
X204726250Y-126791000D01*
X204747691Y-126792053D01*
G37*
G36*
X204747691Y-128367053D02*
G01*
X204768926Y-128370203D01*
X204789750Y-128375419D01*
X204809962Y-128382651D01*
X204829368Y-128391830D01*
X204847781Y-128402866D01*
X204865024Y-128415654D01*
X204880930Y-128430070D01*
X204895346Y-128445976D01*
X204908134Y-128463219D01*
X204919170Y-128481632D01*
X204928349Y-128501038D01*
X204935581Y-128521250D01*
X204940797Y-128542074D01*
X204943947Y-128563309D01*
X204945000Y-128584750D01*
X204945000Y-129022250D01*
X204943947Y-129043691D01*
X204940797Y-129064926D01*
X204935581Y-129085750D01*
X204928349Y-129105962D01*
X204919170Y-129125368D01*
X204908134Y-129143781D01*
X204895346Y-129161024D01*
X204880930Y-129176930D01*
X204865024Y-129191346D01*
X204847781Y-129204134D01*
X204829368Y-129215170D01*
X204809962Y-129224349D01*
X204789750Y-129231581D01*
X204768926Y-129236797D01*
X204747691Y-129239947D01*
X204726250Y-129241000D01*
X204213750Y-129241000D01*
X204192309Y-129239947D01*
X204171074Y-129236797D01*
X204150250Y-129231581D01*
X204130038Y-129224349D01*
X204110632Y-129215170D01*
X204092219Y-129204134D01*
X204074976Y-129191346D01*
X204059070Y-129176930D01*
X204044654Y-129161024D01*
X204031866Y-129143781D01*
X204020830Y-129125368D01*
X204011651Y-129105962D01*
X204004419Y-129085750D01*
X203999203Y-129064926D01*
X203996053Y-129043691D01*
X203995000Y-129022250D01*
X203995000Y-128584750D01*
X203996053Y-128563309D01*
X203999203Y-128542074D01*
X204004419Y-128521250D01*
X204011651Y-128501038D01*
X204020830Y-128481632D01*
X204031866Y-128463219D01*
X204044654Y-128445976D01*
X204059070Y-128430070D01*
X204074976Y-128415654D01*
X204092219Y-128402866D01*
X204110632Y-128391830D01*
X204130038Y-128382651D01*
X204150250Y-128375419D01*
X204171074Y-128370203D01*
X204192309Y-128367053D01*
X204213750Y-128366000D01*
X204726250Y-128366000D01*
X204747691Y-128367053D01*
G37*
D14*
X316058000Y-27089000D03*
X301558000Y-27089000D03*
D15*
X312308000Y-29464000D03*
X309808000Y-29464000D03*
X307808000Y-29464000D03*
X305308000Y-29464000D03*
D14*
X-36494000Y-27089000D03*
X-50994000Y-27089000D03*
D15*
X-40244000Y-29464000D03*
X-42744000Y-29464000D03*
X-44744000Y-29464000D03*
X-47244000Y-29464000D03*
D10*
G36*
X37615691Y-127554053D02*
G01*
X37636926Y-127557203D01*
X37657750Y-127562419D01*
X37677962Y-127569651D01*
X37697368Y-127578830D01*
X37715781Y-127589866D01*
X37733024Y-127602654D01*
X37748930Y-127617070D01*
X37763346Y-127632976D01*
X37776134Y-127650219D01*
X37787170Y-127668632D01*
X37796349Y-127688038D01*
X37803581Y-127708250D01*
X37808797Y-127729074D01*
X37811947Y-127750309D01*
X37813000Y-127771750D01*
X37813000Y-128209250D01*
X37811947Y-128230691D01*
X37808797Y-128251926D01*
X37803581Y-128272750D01*
X37796349Y-128292962D01*
X37787170Y-128312368D01*
X37776134Y-128330781D01*
X37763346Y-128348024D01*
X37748930Y-128363930D01*
X37733024Y-128378346D01*
X37715781Y-128391134D01*
X37697368Y-128402170D01*
X37677962Y-128411349D01*
X37657750Y-128418581D01*
X37636926Y-128423797D01*
X37615691Y-128426947D01*
X37594250Y-128428000D01*
X37081750Y-128428000D01*
X37060309Y-128426947D01*
X37039074Y-128423797D01*
X37018250Y-128418581D01*
X36998038Y-128411349D01*
X36978632Y-128402170D01*
X36960219Y-128391134D01*
X36942976Y-128378346D01*
X36927070Y-128363930D01*
X36912654Y-128348024D01*
X36899866Y-128330781D01*
X36888830Y-128312368D01*
X36879651Y-128292962D01*
X36872419Y-128272750D01*
X36867203Y-128251926D01*
X36864053Y-128230691D01*
X36863000Y-128209250D01*
X36863000Y-127771750D01*
X36864053Y-127750309D01*
X36867203Y-127729074D01*
X36872419Y-127708250D01*
X36879651Y-127688038D01*
X36888830Y-127668632D01*
X36899866Y-127650219D01*
X36912654Y-127632976D01*
X36927070Y-127617070D01*
X36942976Y-127602654D01*
X36960219Y-127589866D01*
X36978632Y-127578830D01*
X36998038Y-127569651D01*
X37018250Y-127562419D01*
X37039074Y-127557203D01*
X37060309Y-127554053D01*
X37081750Y-127553000D01*
X37594250Y-127553000D01*
X37615691Y-127554053D01*
G37*
G36*
X37615691Y-129129053D02*
G01*
X37636926Y-129132203D01*
X37657750Y-129137419D01*
X37677962Y-129144651D01*
X37697368Y-129153830D01*
X37715781Y-129164866D01*
X37733024Y-129177654D01*
X37748930Y-129192070D01*
X37763346Y-129207976D01*
X37776134Y-129225219D01*
X37787170Y-129243632D01*
X37796349Y-129263038D01*
X37803581Y-129283250D01*
X37808797Y-129304074D01*
X37811947Y-129325309D01*
X37813000Y-129346750D01*
X37813000Y-129784250D01*
X37811947Y-129805691D01*
X37808797Y-129826926D01*
X37803581Y-129847750D01*
X37796349Y-129867962D01*
X37787170Y-129887368D01*
X37776134Y-129905781D01*
X37763346Y-129923024D01*
X37748930Y-129938930D01*
X37733024Y-129953346D01*
X37715781Y-129966134D01*
X37697368Y-129977170D01*
X37677962Y-129986349D01*
X37657750Y-129993581D01*
X37636926Y-129998797D01*
X37615691Y-130001947D01*
X37594250Y-130003000D01*
X37081750Y-130003000D01*
X37060309Y-130001947D01*
X37039074Y-129998797D01*
X37018250Y-129993581D01*
X36998038Y-129986349D01*
X36978632Y-129977170D01*
X36960219Y-129966134D01*
X36942976Y-129953346D01*
X36927070Y-129938930D01*
X36912654Y-129923024D01*
X36899866Y-129905781D01*
X36888830Y-129887368D01*
X36879651Y-129867962D01*
X36872419Y-129847750D01*
X36867203Y-129826926D01*
X36864053Y-129805691D01*
X36863000Y-129784250D01*
X36863000Y-129346750D01*
X36864053Y-129325309D01*
X36867203Y-129304074D01*
X36872419Y-129283250D01*
X36879651Y-129263038D01*
X36888830Y-129243632D01*
X36899866Y-129225219D01*
X36912654Y-129207976D01*
X36927070Y-129192070D01*
X36942976Y-129177654D01*
X36960219Y-129164866D01*
X36978632Y-129153830D01*
X36998038Y-129144651D01*
X37018250Y-129137419D01*
X37039074Y-129132203D01*
X37060309Y-129129053D01*
X37081750Y-129128000D01*
X37594250Y-129128000D01*
X37615691Y-129129053D01*
G37*
G36*
X29983691Y-119414053D02*
G01*
X30004926Y-119417203D01*
X30025750Y-119422419D01*
X30045962Y-119429651D01*
X30065368Y-119438830D01*
X30083781Y-119449866D01*
X30101024Y-119462654D01*
X30116930Y-119477070D01*
X30131346Y-119492976D01*
X30144134Y-119510219D01*
X30155170Y-119528632D01*
X30164349Y-119548038D01*
X30171581Y-119568250D01*
X30176797Y-119589074D01*
X30179947Y-119610309D01*
X30181000Y-119631750D01*
X30181000Y-120144250D01*
X30179947Y-120165691D01*
X30176797Y-120186926D01*
X30171581Y-120207750D01*
X30164349Y-120227962D01*
X30155170Y-120247368D01*
X30144134Y-120265781D01*
X30131346Y-120283024D01*
X30116930Y-120298930D01*
X30101024Y-120313346D01*
X30083781Y-120326134D01*
X30065368Y-120337170D01*
X30045962Y-120346349D01*
X30025750Y-120353581D01*
X30004926Y-120358797D01*
X29983691Y-120361947D01*
X29962250Y-120363000D01*
X29524750Y-120363000D01*
X29503309Y-120361947D01*
X29482074Y-120358797D01*
X29461250Y-120353581D01*
X29441038Y-120346349D01*
X29421632Y-120337170D01*
X29403219Y-120326134D01*
X29385976Y-120313346D01*
X29370070Y-120298930D01*
X29355654Y-120283024D01*
X29342866Y-120265781D01*
X29331830Y-120247368D01*
X29322651Y-120227962D01*
X29315419Y-120207750D01*
X29310203Y-120186926D01*
X29307053Y-120165691D01*
X29306000Y-120144250D01*
X29306000Y-119631750D01*
X29307053Y-119610309D01*
X29310203Y-119589074D01*
X29315419Y-119568250D01*
X29322651Y-119548038D01*
X29331830Y-119528632D01*
X29342866Y-119510219D01*
X29355654Y-119492976D01*
X29370070Y-119477070D01*
X29385976Y-119462654D01*
X29403219Y-119449866D01*
X29421632Y-119438830D01*
X29441038Y-119429651D01*
X29461250Y-119422419D01*
X29482074Y-119417203D01*
X29503309Y-119414053D01*
X29524750Y-119413000D01*
X29962250Y-119413000D01*
X29983691Y-119414053D01*
G37*
G36*
X28408691Y-119414053D02*
G01*
X28429926Y-119417203D01*
X28450750Y-119422419D01*
X28470962Y-119429651D01*
X28490368Y-119438830D01*
X28508781Y-119449866D01*
X28526024Y-119462654D01*
X28541930Y-119477070D01*
X28556346Y-119492976D01*
X28569134Y-119510219D01*
X28580170Y-119528632D01*
X28589349Y-119548038D01*
X28596581Y-119568250D01*
X28601797Y-119589074D01*
X28604947Y-119610309D01*
X28606000Y-119631750D01*
X28606000Y-120144250D01*
X28604947Y-120165691D01*
X28601797Y-120186926D01*
X28596581Y-120207750D01*
X28589349Y-120227962D01*
X28580170Y-120247368D01*
X28569134Y-120265781D01*
X28556346Y-120283024D01*
X28541930Y-120298930D01*
X28526024Y-120313346D01*
X28508781Y-120326134D01*
X28490368Y-120337170D01*
X28470962Y-120346349D01*
X28450750Y-120353581D01*
X28429926Y-120358797D01*
X28408691Y-120361947D01*
X28387250Y-120363000D01*
X27949750Y-120363000D01*
X27928309Y-120361947D01*
X27907074Y-120358797D01*
X27886250Y-120353581D01*
X27866038Y-120346349D01*
X27846632Y-120337170D01*
X27828219Y-120326134D01*
X27810976Y-120313346D01*
X27795070Y-120298930D01*
X27780654Y-120283024D01*
X27767866Y-120265781D01*
X27756830Y-120247368D01*
X27747651Y-120227962D01*
X27740419Y-120207750D01*
X27735203Y-120186926D01*
X27732053Y-120165691D01*
X27731000Y-120144250D01*
X27731000Y-119631750D01*
X27732053Y-119610309D01*
X27735203Y-119589074D01*
X27740419Y-119568250D01*
X27747651Y-119548038D01*
X27756830Y-119528632D01*
X27767866Y-119510219D01*
X27780654Y-119492976D01*
X27795070Y-119477070D01*
X27810976Y-119462654D01*
X27828219Y-119449866D01*
X27846632Y-119438830D01*
X27866038Y-119429651D01*
X27886250Y-119422419D01*
X27907074Y-119417203D01*
X27928309Y-119414053D01*
X27949750Y-119413000D01*
X28387250Y-119413000D01*
X28408691Y-119414053D01*
G37*
G36*
X27443691Y-139734053D02*
G01*
X27464926Y-139737203D01*
X27485750Y-139742419D01*
X27505962Y-139749651D01*
X27525368Y-139758830D01*
X27543781Y-139769866D01*
X27561024Y-139782654D01*
X27576930Y-139797070D01*
X27591346Y-139812976D01*
X27604134Y-139830219D01*
X27615170Y-139848632D01*
X27624349Y-139868038D01*
X27631581Y-139888250D01*
X27636797Y-139909074D01*
X27639947Y-139930309D01*
X27641000Y-139951750D01*
X27641000Y-140464250D01*
X27639947Y-140485691D01*
X27636797Y-140506926D01*
X27631581Y-140527750D01*
X27624349Y-140547962D01*
X27615170Y-140567368D01*
X27604134Y-140585781D01*
X27591346Y-140603024D01*
X27576930Y-140618930D01*
X27561024Y-140633346D01*
X27543781Y-140646134D01*
X27525368Y-140657170D01*
X27505962Y-140666349D01*
X27485750Y-140673581D01*
X27464926Y-140678797D01*
X27443691Y-140681947D01*
X27422250Y-140683000D01*
X26984750Y-140683000D01*
X26963309Y-140681947D01*
X26942074Y-140678797D01*
X26921250Y-140673581D01*
X26901038Y-140666349D01*
X26881632Y-140657170D01*
X26863219Y-140646134D01*
X26845976Y-140633346D01*
X26830070Y-140618930D01*
X26815654Y-140603024D01*
X26802866Y-140585781D01*
X26791830Y-140567368D01*
X26782651Y-140547962D01*
X26775419Y-140527750D01*
X26770203Y-140506926D01*
X26767053Y-140485691D01*
X26766000Y-140464250D01*
X26766000Y-139951750D01*
X26767053Y-139930309D01*
X26770203Y-139909074D01*
X26775419Y-139888250D01*
X26782651Y-139868038D01*
X26791830Y-139848632D01*
X26802866Y-139830219D01*
X26815654Y-139812976D01*
X26830070Y-139797070D01*
X26845976Y-139782654D01*
X26863219Y-139769866D01*
X26881632Y-139758830D01*
X26901038Y-139749651D01*
X26921250Y-139742419D01*
X26942074Y-139737203D01*
X26963309Y-139734053D01*
X26984750Y-139733000D01*
X27422250Y-139733000D01*
X27443691Y-139734053D01*
G37*
G36*
X25868691Y-139734053D02*
G01*
X25889926Y-139737203D01*
X25910750Y-139742419D01*
X25930962Y-139749651D01*
X25950368Y-139758830D01*
X25968781Y-139769866D01*
X25986024Y-139782654D01*
X26001930Y-139797070D01*
X26016346Y-139812976D01*
X26029134Y-139830219D01*
X26040170Y-139848632D01*
X26049349Y-139868038D01*
X26056581Y-139888250D01*
X26061797Y-139909074D01*
X26064947Y-139930309D01*
X26066000Y-139951750D01*
X26066000Y-140464250D01*
X26064947Y-140485691D01*
X26061797Y-140506926D01*
X26056581Y-140527750D01*
X26049349Y-140547962D01*
X26040170Y-140567368D01*
X26029134Y-140585781D01*
X26016346Y-140603024D01*
X26001930Y-140618930D01*
X25986024Y-140633346D01*
X25968781Y-140646134D01*
X25950368Y-140657170D01*
X25930962Y-140666349D01*
X25910750Y-140673581D01*
X25889926Y-140678797D01*
X25868691Y-140681947D01*
X25847250Y-140683000D01*
X25409750Y-140683000D01*
X25388309Y-140681947D01*
X25367074Y-140678797D01*
X25346250Y-140673581D01*
X25326038Y-140666349D01*
X25306632Y-140657170D01*
X25288219Y-140646134D01*
X25270976Y-140633346D01*
X25255070Y-140618930D01*
X25240654Y-140603024D01*
X25227866Y-140585781D01*
X25216830Y-140567368D01*
X25207651Y-140547962D01*
X25200419Y-140527750D01*
X25195203Y-140506926D01*
X25192053Y-140485691D01*
X25191000Y-140464250D01*
X25191000Y-139951750D01*
X25192053Y-139930309D01*
X25195203Y-139909074D01*
X25200419Y-139888250D01*
X25207651Y-139868038D01*
X25216830Y-139848632D01*
X25227866Y-139830219D01*
X25240654Y-139812976D01*
X25255070Y-139797070D01*
X25270976Y-139782654D01*
X25288219Y-139769866D01*
X25306632Y-139758830D01*
X25326038Y-139749651D01*
X25346250Y-139742419D01*
X25367074Y-139737203D01*
X25388309Y-139734053D01*
X25409750Y-139733000D01*
X25847250Y-139733000D01*
X25868691Y-139734053D01*
G37*
D16*
X198204000Y-120054000D03*
X196004000Y-120054000D03*
X196004000Y-121754000D03*
X198204000Y-121754000D03*
D10*
G36*
X194067691Y-139734053D02*
G01*
X194088926Y-139737203D01*
X194109750Y-139742419D01*
X194129962Y-139749651D01*
X194149368Y-139758830D01*
X194167781Y-139769866D01*
X194185024Y-139782654D01*
X194200930Y-139797070D01*
X194215346Y-139812976D01*
X194228134Y-139830219D01*
X194239170Y-139848632D01*
X194248349Y-139868038D01*
X194255581Y-139888250D01*
X194260797Y-139909074D01*
X194263947Y-139930309D01*
X194265000Y-139951750D01*
X194265000Y-140464250D01*
X194263947Y-140485691D01*
X194260797Y-140506926D01*
X194255581Y-140527750D01*
X194248349Y-140547962D01*
X194239170Y-140567368D01*
X194228134Y-140585781D01*
X194215346Y-140603024D01*
X194200930Y-140618930D01*
X194185024Y-140633346D01*
X194167781Y-140646134D01*
X194149368Y-140657170D01*
X194129962Y-140666349D01*
X194109750Y-140673581D01*
X194088926Y-140678797D01*
X194067691Y-140681947D01*
X194046250Y-140683000D01*
X193608750Y-140683000D01*
X193587309Y-140681947D01*
X193566074Y-140678797D01*
X193545250Y-140673581D01*
X193525038Y-140666349D01*
X193505632Y-140657170D01*
X193487219Y-140646134D01*
X193469976Y-140633346D01*
X193454070Y-140618930D01*
X193439654Y-140603024D01*
X193426866Y-140585781D01*
X193415830Y-140567368D01*
X193406651Y-140547962D01*
X193399419Y-140527750D01*
X193394203Y-140506926D01*
X193391053Y-140485691D01*
X193390000Y-140464250D01*
X193390000Y-139951750D01*
X193391053Y-139930309D01*
X193394203Y-139909074D01*
X193399419Y-139888250D01*
X193406651Y-139868038D01*
X193415830Y-139848632D01*
X193426866Y-139830219D01*
X193439654Y-139812976D01*
X193454070Y-139797070D01*
X193469976Y-139782654D01*
X193487219Y-139769866D01*
X193505632Y-139758830D01*
X193525038Y-139749651D01*
X193545250Y-139742419D01*
X193566074Y-139737203D01*
X193587309Y-139734053D01*
X193608750Y-139733000D01*
X194046250Y-139733000D01*
X194067691Y-139734053D01*
G37*
G36*
X192492691Y-139734053D02*
G01*
X192513926Y-139737203D01*
X192534750Y-139742419D01*
X192554962Y-139749651D01*
X192574368Y-139758830D01*
X192592781Y-139769866D01*
X192610024Y-139782654D01*
X192625930Y-139797070D01*
X192640346Y-139812976D01*
X192653134Y-139830219D01*
X192664170Y-139848632D01*
X192673349Y-139868038D01*
X192680581Y-139888250D01*
X192685797Y-139909074D01*
X192688947Y-139930309D01*
X192690000Y-139951750D01*
X192690000Y-140464250D01*
X192688947Y-140485691D01*
X192685797Y-140506926D01*
X192680581Y-140527750D01*
X192673349Y-140547962D01*
X192664170Y-140567368D01*
X192653134Y-140585781D01*
X192640346Y-140603024D01*
X192625930Y-140618930D01*
X192610024Y-140633346D01*
X192592781Y-140646134D01*
X192574368Y-140657170D01*
X192554962Y-140666349D01*
X192534750Y-140673581D01*
X192513926Y-140678797D01*
X192492691Y-140681947D01*
X192471250Y-140683000D01*
X192033750Y-140683000D01*
X192012309Y-140681947D01*
X191991074Y-140678797D01*
X191970250Y-140673581D01*
X191950038Y-140666349D01*
X191930632Y-140657170D01*
X191912219Y-140646134D01*
X191894976Y-140633346D01*
X191879070Y-140618930D01*
X191864654Y-140603024D01*
X191851866Y-140585781D01*
X191840830Y-140567368D01*
X191831651Y-140547962D01*
X191824419Y-140527750D01*
X191819203Y-140506926D01*
X191816053Y-140485691D01*
X191815000Y-140464250D01*
X191815000Y-139951750D01*
X191816053Y-139930309D01*
X191819203Y-139909074D01*
X191824419Y-139888250D01*
X191831651Y-139868038D01*
X191840830Y-139848632D01*
X191851866Y-139830219D01*
X191864654Y-139812976D01*
X191879070Y-139797070D01*
X191894976Y-139782654D01*
X191912219Y-139769866D01*
X191930632Y-139758830D01*
X191950038Y-139749651D01*
X191970250Y-139742419D01*
X191991074Y-139737203D01*
X192012309Y-139734053D01*
X192033750Y-139733000D01*
X192471250Y-139733000D01*
X192492691Y-139734053D01*
G37*
G36*
X187920691Y-132114053D02*
G01*
X187941926Y-132117203D01*
X187962750Y-132122419D01*
X187982962Y-132129651D01*
X188002368Y-132138830D01*
X188020781Y-132149866D01*
X188038024Y-132162654D01*
X188053930Y-132177070D01*
X188068346Y-132192976D01*
X188081134Y-132210219D01*
X188092170Y-132228632D01*
X188101349Y-132248038D01*
X188108581Y-132268250D01*
X188113797Y-132289074D01*
X188116947Y-132310309D01*
X188118000Y-132331750D01*
X188118000Y-132844250D01*
X188116947Y-132865691D01*
X188113797Y-132886926D01*
X188108581Y-132907750D01*
X188101349Y-132927962D01*
X188092170Y-132947368D01*
X188081134Y-132965781D01*
X188068346Y-132983024D01*
X188053930Y-132998930D01*
X188038024Y-133013346D01*
X188020781Y-133026134D01*
X188002368Y-133037170D01*
X187982962Y-133046349D01*
X187962750Y-133053581D01*
X187941926Y-133058797D01*
X187920691Y-133061947D01*
X187899250Y-133063000D01*
X187461750Y-133063000D01*
X187440309Y-133061947D01*
X187419074Y-133058797D01*
X187398250Y-133053581D01*
X187378038Y-133046349D01*
X187358632Y-133037170D01*
X187340219Y-133026134D01*
X187322976Y-133013346D01*
X187307070Y-132998930D01*
X187292654Y-132983024D01*
X187279866Y-132965781D01*
X187268830Y-132947368D01*
X187259651Y-132927962D01*
X187252419Y-132907750D01*
X187247203Y-132886926D01*
X187244053Y-132865691D01*
X187243000Y-132844250D01*
X187243000Y-132331750D01*
X187244053Y-132310309D01*
X187247203Y-132289074D01*
X187252419Y-132268250D01*
X187259651Y-132248038D01*
X187268830Y-132228632D01*
X187279866Y-132210219D01*
X187292654Y-132192976D01*
X187307070Y-132177070D01*
X187322976Y-132162654D01*
X187340219Y-132149866D01*
X187358632Y-132138830D01*
X187378038Y-132129651D01*
X187398250Y-132122419D01*
X187419074Y-132117203D01*
X187440309Y-132114053D01*
X187461750Y-132113000D01*
X187899250Y-132113000D01*
X187920691Y-132114053D01*
G37*
G36*
X189495691Y-132114053D02*
G01*
X189516926Y-132117203D01*
X189537750Y-132122419D01*
X189557962Y-132129651D01*
X189577368Y-132138830D01*
X189595781Y-132149866D01*
X189613024Y-132162654D01*
X189628930Y-132177070D01*
X189643346Y-132192976D01*
X189656134Y-132210219D01*
X189667170Y-132228632D01*
X189676349Y-132248038D01*
X189683581Y-132268250D01*
X189688797Y-132289074D01*
X189691947Y-132310309D01*
X189693000Y-132331750D01*
X189693000Y-132844250D01*
X189691947Y-132865691D01*
X189688797Y-132886926D01*
X189683581Y-132907750D01*
X189676349Y-132927962D01*
X189667170Y-132947368D01*
X189656134Y-132965781D01*
X189643346Y-132983024D01*
X189628930Y-132998930D01*
X189613024Y-133013346D01*
X189595781Y-133026134D01*
X189577368Y-133037170D01*
X189557962Y-133046349D01*
X189537750Y-133053581D01*
X189516926Y-133058797D01*
X189495691Y-133061947D01*
X189474250Y-133063000D01*
X189036750Y-133063000D01*
X189015309Y-133061947D01*
X188994074Y-133058797D01*
X188973250Y-133053581D01*
X188953038Y-133046349D01*
X188933632Y-133037170D01*
X188915219Y-133026134D01*
X188897976Y-133013346D01*
X188882070Y-132998930D01*
X188867654Y-132983024D01*
X188854866Y-132965781D01*
X188843830Y-132947368D01*
X188834651Y-132927962D01*
X188827419Y-132907750D01*
X188822203Y-132886926D01*
X188819053Y-132865691D01*
X188818000Y-132844250D01*
X188818000Y-132331750D01*
X188819053Y-132310309D01*
X188822203Y-132289074D01*
X188827419Y-132268250D01*
X188834651Y-132248038D01*
X188843830Y-132228632D01*
X188854866Y-132210219D01*
X188867654Y-132192976D01*
X188882070Y-132177070D01*
X188897976Y-132162654D01*
X188915219Y-132149866D01*
X188933632Y-132138830D01*
X188953038Y-132129651D01*
X188973250Y-132122419D01*
X188994074Y-132117203D01*
X189015309Y-132114053D01*
X189036750Y-132113000D01*
X189474250Y-132113000D01*
X189495691Y-132114053D01*
G37*
D16*
X30056000Y-121578000D03*
X27856000Y-121578000D03*
X27856000Y-123278000D03*
X30056000Y-123278000D03*
D17*
X192723000Y-138415000D03*
X193523000Y-138415000D03*
X194323000Y-138415000D03*
X195123000Y-138415000D03*
X195923000Y-138415000D03*
X196723000Y-138415000D03*
X197523000Y-138415000D03*
X198323000Y-138415000D03*
X199123000Y-138415000D03*
X199923000Y-138415000D03*
X200723000Y-138415000D03*
D18*
X202423000Y-136715000D03*
X202423000Y-135915000D03*
X202423000Y-135115000D03*
X202423000Y-134315000D03*
X202423000Y-133515000D03*
X202423000Y-132715000D03*
X202423000Y-131915000D03*
X202423000Y-131115000D03*
X202423000Y-130315000D03*
X202423000Y-129515000D03*
X202423000Y-128715000D03*
D17*
X200723000Y-127015000D03*
X199923000Y-127015000D03*
X199123000Y-127015000D03*
X198323000Y-127015000D03*
X197523000Y-127015000D03*
X196723000Y-127015000D03*
X195923000Y-127015000D03*
X195123000Y-127015000D03*
X194323000Y-127015000D03*
X193523000Y-127015000D03*
X192723000Y-127015000D03*
D18*
X191023000Y-128715000D03*
X191023000Y-129515000D03*
X191023000Y-130315000D03*
X191023000Y-131115000D03*
X191023000Y-131915000D03*
X191023000Y-132715000D03*
X191023000Y-133515000D03*
X191023000Y-134315000D03*
X191023000Y-135115000D03*
X191023000Y-135915000D03*
X191023000Y-136715000D03*
D17*
X25718000Y-138288000D03*
X26518000Y-138288000D03*
X27318000Y-138288000D03*
X28118000Y-138288000D03*
X28918000Y-138288000D03*
X29718000Y-138288000D03*
X30518000Y-138288000D03*
X31318000Y-138288000D03*
X32118000Y-138288000D03*
X32918000Y-138288000D03*
X33718000Y-138288000D03*
D18*
X35418000Y-136588000D03*
X35418000Y-135788000D03*
X35418000Y-134988000D03*
X35418000Y-134188000D03*
X35418000Y-133388000D03*
X35418000Y-132588000D03*
X35418000Y-131788000D03*
X35418000Y-130988000D03*
X35418000Y-130188000D03*
X35418000Y-129388000D03*
X35418000Y-128588000D03*
D17*
X33718000Y-126888000D03*
X32918000Y-126888000D03*
X32118000Y-126888000D03*
X31318000Y-126888000D03*
X30518000Y-126888000D03*
X29718000Y-126888000D03*
X28918000Y-126888000D03*
X28118000Y-126888000D03*
X27318000Y-126888000D03*
X26518000Y-126888000D03*
X25718000Y-126888000D03*
D18*
X24018000Y-128588000D03*
X24018000Y-129388000D03*
X24018000Y-130188000D03*
X24018000Y-130988000D03*
X24018000Y-131788000D03*
X24018000Y-132588000D03*
X24018000Y-133388000D03*
X24018000Y-134188000D03*
X24018000Y-134988000D03*
X24018000Y-135788000D03*
X24018000Y-136588000D03*
D11*
X116915000Y-112831000D03*
X123115000Y-116531000D03*
X116915000Y-116531000D03*
X123115000Y-112831000D03*
D10*
G36*
X199604691Y-139734053D02*
G01*
X199625926Y-139737203D01*
X199646750Y-139742419D01*
X199666962Y-139749651D01*
X199686368Y-139758830D01*
X199704781Y-139769866D01*
X199722024Y-139782654D01*
X199737930Y-139797070D01*
X199752346Y-139812976D01*
X199765134Y-139830219D01*
X199776170Y-139848632D01*
X199785349Y-139868038D01*
X199792581Y-139888250D01*
X199797797Y-139909074D01*
X199800947Y-139930309D01*
X199802000Y-139951750D01*
X199802000Y-140464250D01*
X199800947Y-140485691D01*
X199797797Y-140506926D01*
X199792581Y-140527750D01*
X199785349Y-140547962D01*
X199776170Y-140567368D01*
X199765134Y-140585781D01*
X199752346Y-140603024D01*
X199737930Y-140618930D01*
X199722024Y-140633346D01*
X199704781Y-140646134D01*
X199686368Y-140657170D01*
X199666962Y-140666349D01*
X199646750Y-140673581D01*
X199625926Y-140678797D01*
X199604691Y-140681947D01*
X199583250Y-140683000D01*
X199145750Y-140683000D01*
X199124309Y-140681947D01*
X199103074Y-140678797D01*
X199082250Y-140673581D01*
X199062038Y-140666349D01*
X199042632Y-140657170D01*
X199024219Y-140646134D01*
X199006976Y-140633346D01*
X198991070Y-140618930D01*
X198976654Y-140603024D01*
X198963866Y-140585781D01*
X198952830Y-140567368D01*
X198943651Y-140547962D01*
X198936419Y-140527750D01*
X198931203Y-140506926D01*
X198928053Y-140485691D01*
X198927000Y-140464250D01*
X198927000Y-139951750D01*
X198928053Y-139930309D01*
X198931203Y-139909074D01*
X198936419Y-139888250D01*
X198943651Y-139868038D01*
X198952830Y-139848632D01*
X198963866Y-139830219D01*
X198976654Y-139812976D01*
X198991070Y-139797070D01*
X199006976Y-139782654D01*
X199024219Y-139769866D01*
X199042632Y-139758830D01*
X199062038Y-139749651D01*
X199082250Y-139742419D01*
X199103074Y-139737203D01*
X199124309Y-139734053D01*
X199145750Y-139733000D01*
X199583250Y-139733000D01*
X199604691Y-139734053D01*
G37*
G36*
X201179691Y-139734053D02*
G01*
X201200926Y-139737203D01*
X201221750Y-139742419D01*
X201241962Y-139749651D01*
X201261368Y-139758830D01*
X201279781Y-139769866D01*
X201297024Y-139782654D01*
X201312930Y-139797070D01*
X201327346Y-139812976D01*
X201340134Y-139830219D01*
X201351170Y-139848632D01*
X201360349Y-139868038D01*
X201367581Y-139888250D01*
X201372797Y-139909074D01*
X201375947Y-139930309D01*
X201377000Y-139951750D01*
X201377000Y-140464250D01*
X201375947Y-140485691D01*
X201372797Y-140506926D01*
X201367581Y-140527750D01*
X201360349Y-140547962D01*
X201351170Y-140567368D01*
X201340134Y-140585781D01*
X201327346Y-140603024D01*
X201312930Y-140618930D01*
X201297024Y-140633346D01*
X201279781Y-140646134D01*
X201261368Y-140657170D01*
X201241962Y-140666349D01*
X201221750Y-140673581D01*
X201200926Y-140678797D01*
X201179691Y-140681947D01*
X201158250Y-140683000D01*
X200720750Y-140683000D01*
X200699309Y-140681947D01*
X200678074Y-140678797D01*
X200657250Y-140673581D01*
X200637038Y-140666349D01*
X200617632Y-140657170D01*
X200599219Y-140646134D01*
X200581976Y-140633346D01*
X200566070Y-140618930D01*
X200551654Y-140603024D01*
X200538866Y-140585781D01*
X200527830Y-140567368D01*
X200518651Y-140547962D01*
X200511419Y-140527750D01*
X200506203Y-140506926D01*
X200503053Y-140485691D01*
X200502000Y-140464250D01*
X200502000Y-139951750D01*
X200503053Y-139930309D01*
X200506203Y-139909074D01*
X200511419Y-139888250D01*
X200518651Y-139868038D01*
X200527830Y-139848632D01*
X200538866Y-139830219D01*
X200551654Y-139812976D01*
X200566070Y-139797070D01*
X200581976Y-139782654D01*
X200599219Y-139769866D01*
X200617632Y-139758830D01*
X200637038Y-139749651D01*
X200657250Y-139742419D01*
X200678074Y-139737203D01*
X200699309Y-139734053D01*
X200720750Y-139733000D01*
X201158250Y-139733000D01*
X201179691Y-139734053D01*
G37*
G36*
X32472691Y-139734053D02*
G01*
X32493926Y-139737203D01*
X32514750Y-139742419D01*
X32534962Y-139749651D01*
X32554368Y-139758830D01*
X32572781Y-139769866D01*
X32590024Y-139782654D01*
X32605930Y-139797070D01*
X32620346Y-139812976D01*
X32633134Y-139830219D01*
X32644170Y-139848632D01*
X32653349Y-139868038D01*
X32660581Y-139888250D01*
X32665797Y-139909074D01*
X32668947Y-139930309D01*
X32670000Y-139951750D01*
X32670000Y-140464250D01*
X32668947Y-140485691D01*
X32665797Y-140506926D01*
X32660581Y-140527750D01*
X32653349Y-140547962D01*
X32644170Y-140567368D01*
X32633134Y-140585781D01*
X32620346Y-140603024D01*
X32605930Y-140618930D01*
X32590024Y-140633346D01*
X32572781Y-140646134D01*
X32554368Y-140657170D01*
X32534962Y-140666349D01*
X32514750Y-140673581D01*
X32493926Y-140678797D01*
X32472691Y-140681947D01*
X32451250Y-140683000D01*
X32013750Y-140683000D01*
X31992309Y-140681947D01*
X31971074Y-140678797D01*
X31950250Y-140673581D01*
X31930038Y-140666349D01*
X31910632Y-140657170D01*
X31892219Y-140646134D01*
X31874976Y-140633346D01*
X31859070Y-140618930D01*
X31844654Y-140603024D01*
X31831866Y-140585781D01*
X31820830Y-140567368D01*
X31811651Y-140547962D01*
X31804419Y-140527750D01*
X31799203Y-140506926D01*
X31796053Y-140485691D01*
X31795000Y-140464250D01*
X31795000Y-139951750D01*
X31796053Y-139930309D01*
X31799203Y-139909074D01*
X31804419Y-139888250D01*
X31811651Y-139868038D01*
X31820830Y-139848632D01*
X31831866Y-139830219D01*
X31844654Y-139812976D01*
X31859070Y-139797070D01*
X31874976Y-139782654D01*
X31892219Y-139769866D01*
X31910632Y-139758830D01*
X31930038Y-139749651D01*
X31950250Y-139742419D01*
X31971074Y-139737203D01*
X31992309Y-139734053D01*
X32013750Y-139733000D01*
X32451250Y-139733000D01*
X32472691Y-139734053D01*
G37*
G36*
X34047691Y-139734053D02*
G01*
X34068926Y-139737203D01*
X34089750Y-139742419D01*
X34109962Y-139749651D01*
X34129368Y-139758830D01*
X34147781Y-139769866D01*
X34165024Y-139782654D01*
X34180930Y-139797070D01*
X34195346Y-139812976D01*
X34208134Y-139830219D01*
X34219170Y-139848632D01*
X34228349Y-139868038D01*
X34235581Y-139888250D01*
X34240797Y-139909074D01*
X34243947Y-139930309D01*
X34245000Y-139951750D01*
X34245000Y-140464250D01*
X34243947Y-140485691D01*
X34240797Y-140506926D01*
X34235581Y-140527750D01*
X34228349Y-140547962D01*
X34219170Y-140567368D01*
X34208134Y-140585781D01*
X34195346Y-140603024D01*
X34180930Y-140618930D01*
X34165024Y-140633346D01*
X34147781Y-140646134D01*
X34129368Y-140657170D01*
X34109962Y-140666349D01*
X34089750Y-140673581D01*
X34068926Y-140678797D01*
X34047691Y-140681947D01*
X34026250Y-140683000D01*
X33588750Y-140683000D01*
X33567309Y-140681947D01*
X33546074Y-140678797D01*
X33525250Y-140673581D01*
X33505038Y-140666349D01*
X33485632Y-140657170D01*
X33467219Y-140646134D01*
X33449976Y-140633346D01*
X33434070Y-140618930D01*
X33419654Y-140603024D01*
X33406866Y-140585781D01*
X33395830Y-140567368D01*
X33386651Y-140547962D01*
X33379419Y-140527750D01*
X33374203Y-140506926D01*
X33371053Y-140485691D01*
X33370000Y-140464250D01*
X33370000Y-139951750D01*
X33371053Y-139930309D01*
X33374203Y-139909074D01*
X33379419Y-139888250D01*
X33386651Y-139868038D01*
X33395830Y-139848632D01*
X33406866Y-139830219D01*
X33419654Y-139812976D01*
X33434070Y-139797070D01*
X33449976Y-139782654D01*
X33467219Y-139769866D01*
X33485632Y-139758830D01*
X33505038Y-139749651D01*
X33525250Y-139742419D01*
X33546074Y-139737203D01*
X33567309Y-139734053D01*
X33588750Y-139733000D01*
X34026250Y-139733000D01*
X34047691Y-139734053D01*
G37*
G36*
X194587691Y-123261353D02*
G01*
X194608926Y-123264503D01*
X194629750Y-123269719D01*
X194649962Y-123276951D01*
X194669368Y-123286130D01*
X194687781Y-123297166D01*
X194705024Y-123309954D01*
X194720930Y-123324370D01*
X194735346Y-123340276D01*
X194748134Y-123357519D01*
X194759170Y-123375932D01*
X194768349Y-123395338D01*
X194775581Y-123415550D01*
X194780797Y-123436374D01*
X194783947Y-123457609D01*
X194785000Y-123479050D01*
X194785000Y-123916550D01*
X194783947Y-123937991D01*
X194780797Y-123959226D01*
X194775581Y-123980050D01*
X194768349Y-124000262D01*
X194759170Y-124019668D01*
X194748134Y-124038081D01*
X194735346Y-124055324D01*
X194720930Y-124071230D01*
X194705024Y-124085646D01*
X194687781Y-124098434D01*
X194669368Y-124109470D01*
X194649962Y-124118649D01*
X194629750Y-124125881D01*
X194608926Y-124131097D01*
X194587691Y-124134247D01*
X194566250Y-124135300D01*
X194053750Y-124135300D01*
X194032309Y-124134247D01*
X194011074Y-124131097D01*
X193990250Y-124125881D01*
X193970038Y-124118649D01*
X193950632Y-124109470D01*
X193932219Y-124098434D01*
X193914976Y-124085646D01*
X193899070Y-124071230D01*
X193884654Y-124055324D01*
X193871866Y-124038081D01*
X193860830Y-124019668D01*
X193851651Y-124000262D01*
X193844419Y-123980050D01*
X193839203Y-123959226D01*
X193836053Y-123937991D01*
X193835000Y-123916550D01*
X193835000Y-123479050D01*
X193836053Y-123457609D01*
X193839203Y-123436374D01*
X193844419Y-123415550D01*
X193851651Y-123395338D01*
X193860830Y-123375932D01*
X193871866Y-123357519D01*
X193884654Y-123340276D01*
X193899070Y-123324370D01*
X193914976Y-123309954D01*
X193932219Y-123297166D01*
X193950632Y-123286130D01*
X193970038Y-123276951D01*
X193990250Y-123269719D01*
X194011074Y-123264503D01*
X194032309Y-123261353D01*
X194053750Y-123260300D01*
X194566250Y-123260300D01*
X194587691Y-123261353D01*
G37*
G36*
X194587691Y-124836353D02*
G01*
X194608926Y-124839503D01*
X194629750Y-124844719D01*
X194649962Y-124851951D01*
X194669368Y-124861130D01*
X194687781Y-124872166D01*
X194705024Y-124884954D01*
X194720930Y-124899370D01*
X194735346Y-124915276D01*
X194748134Y-124932519D01*
X194759170Y-124950932D01*
X194768349Y-124970338D01*
X194775581Y-124990550D01*
X194780797Y-125011374D01*
X194783947Y-125032609D01*
X194785000Y-125054050D01*
X194785000Y-125491550D01*
X194783947Y-125512991D01*
X194780797Y-125534226D01*
X194775581Y-125555050D01*
X194768349Y-125575262D01*
X194759170Y-125594668D01*
X194748134Y-125613081D01*
X194735346Y-125630324D01*
X194720930Y-125646230D01*
X194705024Y-125660646D01*
X194687781Y-125673434D01*
X194669368Y-125684470D01*
X194649962Y-125693649D01*
X194629750Y-125700881D01*
X194608926Y-125706097D01*
X194587691Y-125709247D01*
X194566250Y-125710300D01*
X194053750Y-125710300D01*
X194032309Y-125709247D01*
X194011074Y-125706097D01*
X193990250Y-125700881D01*
X193970038Y-125693649D01*
X193950632Y-125684470D01*
X193932219Y-125673434D01*
X193914976Y-125660646D01*
X193899070Y-125646230D01*
X193884654Y-125630324D01*
X193871866Y-125613081D01*
X193860830Y-125594668D01*
X193851651Y-125575262D01*
X193844419Y-125555050D01*
X193839203Y-125534226D01*
X193836053Y-125512991D01*
X193835000Y-125491550D01*
X193835000Y-125054050D01*
X193836053Y-125032609D01*
X193839203Y-125011374D01*
X193844419Y-124990550D01*
X193851651Y-124970338D01*
X193860830Y-124950932D01*
X193871866Y-124932519D01*
X193884654Y-124915276D01*
X193899070Y-124899370D01*
X193914976Y-124884954D01*
X193932219Y-124872166D01*
X193950632Y-124861130D01*
X193970038Y-124851951D01*
X193990250Y-124844719D01*
X194011074Y-124839503D01*
X194032309Y-124836353D01*
X194053750Y-124835300D01*
X194566250Y-124835300D01*
X194587691Y-124836353D01*
G37*
G36*
X194333691Y-121255053D02*
G01*
X194354926Y-121258203D01*
X194375750Y-121263419D01*
X194395962Y-121270651D01*
X194415368Y-121279830D01*
X194433781Y-121290866D01*
X194451024Y-121303654D01*
X194466930Y-121318070D01*
X194481346Y-121333976D01*
X194494134Y-121351219D01*
X194505170Y-121369632D01*
X194514349Y-121389038D01*
X194521581Y-121409250D01*
X194526797Y-121430074D01*
X194529947Y-121451309D01*
X194531000Y-121472750D01*
X194531000Y-121910250D01*
X194529947Y-121931691D01*
X194526797Y-121952926D01*
X194521581Y-121973750D01*
X194514349Y-121993962D01*
X194505170Y-122013368D01*
X194494134Y-122031781D01*
X194481346Y-122049024D01*
X194466930Y-122064930D01*
X194451024Y-122079346D01*
X194433781Y-122092134D01*
X194415368Y-122103170D01*
X194395962Y-122112349D01*
X194375750Y-122119581D01*
X194354926Y-122124797D01*
X194333691Y-122127947D01*
X194312250Y-122129000D01*
X193799750Y-122129000D01*
X193778309Y-122127947D01*
X193757074Y-122124797D01*
X193736250Y-122119581D01*
X193716038Y-122112349D01*
X193696632Y-122103170D01*
X193678219Y-122092134D01*
X193660976Y-122079346D01*
X193645070Y-122064930D01*
X193630654Y-122049024D01*
X193617866Y-122031781D01*
X193606830Y-122013368D01*
X193597651Y-121993962D01*
X193590419Y-121973750D01*
X193585203Y-121952926D01*
X193582053Y-121931691D01*
X193581000Y-121910250D01*
X193581000Y-121472750D01*
X193582053Y-121451309D01*
X193585203Y-121430074D01*
X193590419Y-121409250D01*
X193597651Y-121389038D01*
X193606830Y-121369632D01*
X193617866Y-121351219D01*
X193630654Y-121333976D01*
X193645070Y-121318070D01*
X193660976Y-121303654D01*
X193678219Y-121290866D01*
X193696632Y-121279830D01*
X193716038Y-121270651D01*
X193736250Y-121263419D01*
X193757074Y-121258203D01*
X193778309Y-121255053D01*
X193799750Y-121254000D01*
X194312250Y-121254000D01*
X194333691Y-121255053D01*
G37*
G36*
X194333691Y-119680053D02*
G01*
X194354926Y-119683203D01*
X194375750Y-119688419D01*
X194395962Y-119695651D01*
X194415368Y-119704830D01*
X194433781Y-119715866D01*
X194451024Y-119728654D01*
X194466930Y-119743070D01*
X194481346Y-119758976D01*
X194494134Y-119776219D01*
X194505170Y-119794632D01*
X194514349Y-119814038D01*
X194521581Y-119834250D01*
X194526797Y-119855074D01*
X194529947Y-119876309D01*
X194531000Y-119897750D01*
X194531000Y-120335250D01*
X194529947Y-120356691D01*
X194526797Y-120377926D01*
X194521581Y-120398750D01*
X194514349Y-120418962D01*
X194505170Y-120438368D01*
X194494134Y-120456781D01*
X194481346Y-120474024D01*
X194466930Y-120489930D01*
X194451024Y-120504346D01*
X194433781Y-120517134D01*
X194415368Y-120528170D01*
X194395962Y-120537349D01*
X194375750Y-120544581D01*
X194354926Y-120549797D01*
X194333691Y-120552947D01*
X194312250Y-120554000D01*
X193799750Y-120554000D01*
X193778309Y-120552947D01*
X193757074Y-120549797D01*
X193736250Y-120544581D01*
X193716038Y-120537349D01*
X193696632Y-120528170D01*
X193678219Y-120517134D01*
X193660976Y-120504346D01*
X193645070Y-120489930D01*
X193630654Y-120474024D01*
X193617866Y-120456781D01*
X193606830Y-120438368D01*
X193597651Y-120418962D01*
X193590419Y-120398750D01*
X193585203Y-120377926D01*
X193582053Y-120356691D01*
X193581000Y-120335250D01*
X193581000Y-119897750D01*
X193582053Y-119876309D01*
X193585203Y-119855074D01*
X193590419Y-119834250D01*
X193597651Y-119814038D01*
X193606830Y-119794632D01*
X193617866Y-119776219D01*
X193630654Y-119758976D01*
X193645070Y-119743070D01*
X193660976Y-119728654D01*
X193678219Y-119715866D01*
X193696632Y-119704830D01*
X193716038Y-119695651D01*
X193736250Y-119688419D01*
X193757074Y-119683203D01*
X193778309Y-119680053D01*
X193799750Y-119679000D01*
X194312250Y-119679000D01*
X194333691Y-119680053D01*
G37*
G36*
X200429691Y-119680053D02*
G01*
X200450926Y-119683203D01*
X200471750Y-119688419D01*
X200491962Y-119695651D01*
X200511368Y-119704830D01*
X200529781Y-119715866D01*
X200547024Y-119728654D01*
X200562930Y-119743070D01*
X200577346Y-119758976D01*
X200590134Y-119776219D01*
X200601170Y-119794632D01*
X200610349Y-119814038D01*
X200617581Y-119834250D01*
X200622797Y-119855074D01*
X200625947Y-119876309D01*
X200627000Y-119897750D01*
X200627000Y-120335250D01*
X200625947Y-120356691D01*
X200622797Y-120377926D01*
X200617581Y-120398750D01*
X200610349Y-120418962D01*
X200601170Y-120438368D01*
X200590134Y-120456781D01*
X200577346Y-120474024D01*
X200562930Y-120489930D01*
X200547024Y-120504346D01*
X200529781Y-120517134D01*
X200511368Y-120528170D01*
X200491962Y-120537349D01*
X200471750Y-120544581D01*
X200450926Y-120549797D01*
X200429691Y-120552947D01*
X200408250Y-120554000D01*
X199895750Y-120554000D01*
X199874309Y-120552947D01*
X199853074Y-120549797D01*
X199832250Y-120544581D01*
X199812038Y-120537349D01*
X199792632Y-120528170D01*
X199774219Y-120517134D01*
X199756976Y-120504346D01*
X199741070Y-120489930D01*
X199726654Y-120474024D01*
X199713866Y-120456781D01*
X199702830Y-120438368D01*
X199693651Y-120418962D01*
X199686419Y-120398750D01*
X199681203Y-120377926D01*
X199678053Y-120356691D01*
X199677000Y-120335250D01*
X199677000Y-119897750D01*
X199678053Y-119876309D01*
X199681203Y-119855074D01*
X199686419Y-119834250D01*
X199693651Y-119814038D01*
X199702830Y-119794632D01*
X199713866Y-119776219D01*
X199726654Y-119758976D01*
X199741070Y-119743070D01*
X199756976Y-119728654D01*
X199774219Y-119715866D01*
X199792632Y-119704830D01*
X199812038Y-119695651D01*
X199832250Y-119688419D01*
X199853074Y-119683203D01*
X199874309Y-119680053D01*
X199895750Y-119679000D01*
X200408250Y-119679000D01*
X200429691Y-119680053D01*
G37*
G36*
X200429691Y-121255053D02*
G01*
X200450926Y-121258203D01*
X200471750Y-121263419D01*
X200491962Y-121270651D01*
X200511368Y-121279830D01*
X200529781Y-121290866D01*
X200547024Y-121303654D01*
X200562930Y-121318070D01*
X200577346Y-121333976D01*
X200590134Y-121351219D01*
X200601170Y-121369632D01*
X200610349Y-121389038D01*
X200617581Y-121409250D01*
X200622797Y-121430074D01*
X200625947Y-121451309D01*
X200627000Y-121472750D01*
X200627000Y-121910250D01*
X200625947Y-121931691D01*
X200622797Y-121952926D01*
X200617581Y-121973750D01*
X200610349Y-121993962D01*
X200601170Y-122013368D01*
X200590134Y-122031781D01*
X200577346Y-122049024D01*
X200562930Y-122064930D01*
X200547024Y-122079346D01*
X200529781Y-122092134D01*
X200511368Y-122103170D01*
X200491962Y-122112349D01*
X200471750Y-122119581D01*
X200450926Y-122124797D01*
X200429691Y-122127947D01*
X200408250Y-122129000D01*
X199895750Y-122129000D01*
X199874309Y-122127947D01*
X199853074Y-122124797D01*
X199832250Y-122119581D01*
X199812038Y-122112349D01*
X199792632Y-122103170D01*
X199774219Y-122092134D01*
X199756976Y-122079346D01*
X199741070Y-122064930D01*
X199726654Y-122049024D01*
X199713866Y-122031781D01*
X199702830Y-122013368D01*
X199693651Y-121993962D01*
X199686419Y-121973750D01*
X199681203Y-121952926D01*
X199678053Y-121931691D01*
X199677000Y-121910250D01*
X199677000Y-121472750D01*
X199678053Y-121451309D01*
X199681203Y-121430074D01*
X199686419Y-121409250D01*
X199693651Y-121389038D01*
X199702830Y-121369632D01*
X199713866Y-121351219D01*
X199726654Y-121333976D01*
X199741070Y-121318070D01*
X199756976Y-121303654D01*
X199774219Y-121290866D01*
X199792632Y-121279830D01*
X199812038Y-121270651D01*
X199832250Y-121263419D01*
X199853074Y-121258203D01*
X199874309Y-121255053D01*
X199895750Y-121254000D01*
X200408250Y-121254000D01*
X200429691Y-121255053D01*
G37*
G36*
X26185691Y-122982053D02*
G01*
X26206926Y-122985203D01*
X26227750Y-122990419D01*
X26247962Y-122997651D01*
X26267368Y-123006830D01*
X26285781Y-123017866D01*
X26303024Y-123030654D01*
X26318930Y-123045070D01*
X26333346Y-123060976D01*
X26346134Y-123078219D01*
X26357170Y-123096632D01*
X26366349Y-123116038D01*
X26373581Y-123136250D01*
X26378797Y-123157074D01*
X26381947Y-123178309D01*
X26383000Y-123199750D01*
X26383000Y-123637250D01*
X26381947Y-123658691D01*
X26378797Y-123679926D01*
X26373581Y-123700750D01*
X26366349Y-123720962D01*
X26357170Y-123740368D01*
X26346134Y-123758781D01*
X26333346Y-123776024D01*
X26318930Y-123791930D01*
X26303024Y-123806346D01*
X26285781Y-123819134D01*
X26267368Y-123830170D01*
X26247962Y-123839349D01*
X26227750Y-123846581D01*
X26206926Y-123851797D01*
X26185691Y-123854947D01*
X26164250Y-123856000D01*
X25651750Y-123856000D01*
X25630309Y-123854947D01*
X25609074Y-123851797D01*
X25588250Y-123846581D01*
X25568038Y-123839349D01*
X25548632Y-123830170D01*
X25530219Y-123819134D01*
X25512976Y-123806346D01*
X25497070Y-123791930D01*
X25482654Y-123776024D01*
X25469866Y-123758781D01*
X25458830Y-123740368D01*
X25449651Y-123720962D01*
X25442419Y-123700750D01*
X25437203Y-123679926D01*
X25434053Y-123658691D01*
X25433000Y-123637250D01*
X25433000Y-123199750D01*
X25434053Y-123178309D01*
X25437203Y-123157074D01*
X25442419Y-123136250D01*
X25449651Y-123116038D01*
X25458830Y-123096632D01*
X25469866Y-123078219D01*
X25482654Y-123060976D01*
X25497070Y-123045070D01*
X25512976Y-123030654D01*
X25530219Y-123017866D01*
X25548632Y-123006830D01*
X25568038Y-122997651D01*
X25588250Y-122990419D01*
X25609074Y-122985203D01*
X25630309Y-122982053D01*
X25651750Y-122981000D01*
X26164250Y-122981000D01*
X26185691Y-122982053D01*
G37*
G36*
X26185691Y-124557053D02*
G01*
X26206926Y-124560203D01*
X26227750Y-124565419D01*
X26247962Y-124572651D01*
X26267368Y-124581830D01*
X26285781Y-124592866D01*
X26303024Y-124605654D01*
X26318930Y-124620070D01*
X26333346Y-124635976D01*
X26346134Y-124653219D01*
X26357170Y-124671632D01*
X26366349Y-124691038D01*
X26373581Y-124711250D01*
X26378797Y-124732074D01*
X26381947Y-124753309D01*
X26383000Y-124774750D01*
X26383000Y-125212250D01*
X26381947Y-125233691D01*
X26378797Y-125254926D01*
X26373581Y-125275750D01*
X26366349Y-125295962D01*
X26357170Y-125315368D01*
X26346134Y-125333781D01*
X26333346Y-125351024D01*
X26318930Y-125366930D01*
X26303024Y-125381346D01*
X26285781Y-125394134D01*
X26267368Y-125405170D01*
X26247962Y-125414349D01*
X26227750Y-125421581D01*
X26206926Y-125426797D01*
X26185691Y-125429947D01*
X26164250Y-125431000D01*
X25651750Y-125431000D01*
X25630309Y-125429947D01*
X25609074Y-125426797D01*
X25588250Y-125421581D01*
X25568038Y-125414349D01*
X25548632Y-125405170D01*
X25530219Y-125394134D01*
X25512976Y-125381346D01*
X25497070Y-125366930D01*
X25482654Y-125351024D01*
X25469866Y-125333781D01*
X25458830Y-125315368D01*
X25449651Y-125295962D01*
X25442419Y-125275750D01*
X25437203Y-125254926D01*
X25434053Y-125233691D01*
X25433000Y-125212250D01*
X25433000Y-124774750D01*
X25434053Y-124753309D01*
X25437203Y-124732074D01*
X25442419Y-124711250D01*
X25449651Y-124691038D01*
X25458830Y-124671632D01*
X25469866Y-124653219D01*
X25482654Y-124635976D01*
X25497070Y-124620070D01*
X25512976Y-124605654D01*
X25530219Y-124592866D01*
X25548632Y-124581830D01*
X25568038Y-124572651D01*
X25588250Y-124565419D01*
X25609074Y-124560203D01*
X25630309Y-124557053D01*
X25651750Y-124556000D01*
X26164250Y-124556000D01*
X26185691Y-124557053D01*
G37*
G36*
X19518691Y-133638053D02*
G01*
X19539926Y-133641203D01*
X19560750Y-133646419D01*
X19580962Y-133653651D01*
X19600368Y-133662830D01*
X19618781Y-133673866D01*
X19636024Y-133686654D01*
X19651930Y-133701070D01*
X19666346Y-133716976D01*
X19679134Y-133734219D01*
X19690170Y-133752632D01*
X19699349Y-133772038D01*
X19706581Y-133792250D01*
X19711797Y-133813074D01*
X19714947Y-133834309D01*
X19716000Y-133855750D01*
X19716000Y-134368250D01*
X19714947Y-134389691D01*
X19711797Y-134410926D01*
X19706581Y-134431750D01*
X19699349Y-134451962D01*
X19690170Y-134471368D01*
X19679134Y-134489781D01*
X19666346Y-134507024D01*
X19651930Y-134522930D01*
X19636024Y-134537346D01*
X19618781Y-134550134D01*
X19600368Y-134561170D01*
X19580962Y-134570349D01*
X19560750Y-134577581D01*
X19539926Y-134582797D01*
X19518691Y-134585947D01*
X19497250Y-134587000D01*
X19059750Y-134587000D01*
X19038309Y-134585947D01*
X19017074Y-134582797D01*
X18996250Y-134577581D01*
X18976038Y-134570349D01*
X18956632Y-134561170D01*
X18938219Y-134550134D01*
X18920976Y-134537346D01*
X18905070Y-134522930D01*
X18890654Y-134507024D01*
X18877866Y-134489781D01*
X18866830Y-134471368D01*
X18857651Y-134451962D01*
X18850419Y-134431750D01*
X18845203Y-134410926D01*
X18842053Y-134389691D01*
X18841000Y-134368250D01*
X18841000Y-133855750D01*
X18842053Y-133834309D01*
X18845203Y-133813074D01*
X18850419Y-133792250D01*
X18857651Y-133772038D01*
X18866830Y-133752632D01*
X18877866Y-133734219D01*
X18890654Y-133716976D01*
X18905070Y-133701070D01*
X18920976Y-133686654D01*
X18938219Y-133673866D01*
X18956632Y-133662830D01*
X18976038Y-133653651D01*
X18996250Y-133646419D01*
X19017074Y-133641203D01*
X19038309Y-133638053D01*
X19059750Y-133637000D01*
X19497250Y-133637000D01*
X19518691Y-133638053D01*
G37*
G36*
X21093691Y-133638053D02*
G01*
X21114926Y-133641203D01*
X21135750Y-133646419D01*
X21155962Y-133653651D01*
X21175368Y-133662830D01*
X21193781Y-133673866D01*
X21211024Y-133686654D01*
X21226930Y-133701070D01*
X21241346Y-133716976D01*
X21254134Y-133734219D01*
X21265170Y-133752632D01*
X21274349Y-133772038D01*
X21281581Y-133792250D01*
X21286797Y-133813074D01*
X21289947Y-133834309D01*
X21291000Y-133855750D01*
X21291000Y-134368250D01*
X21289947Y-134389691D01*
X21286797Y-134410926D01*
X21281581Y-134431750D01*
X21274349Y-134451962D01*
X21265170Y-134471368D01*
X21254134Y-134489781D01*
X21241346Y-134507024D01*
X21226930Y-134522930D01*
X21211024Y-134537346D01*
X21193781Y-134550134D01*
X21175368Y-134561170D01*
X21155962Y-134570349D01*
X21135750Y-134577581D01*
X21114926Y-134582797D01*
X21093691Y-134585947D01*
X21072250Y-134587000D01*
X20634750Y-134587000D01*
X20613309Y-134585947D01*
X20592074Y-134582797D01*
X20571250Y-134577581D01*
X20551038Y-134570349D01*
X20531632Y-134561170D01*
X20513219Y-134550134D01*
X20495976Y-134537346D01*
X20480070Y-134522930D01*
X20465654Y-134507024D01*
X20452866Y-134489781D01*
X20441830Y-134471368D01*
X20432651Y-134451962D01*
X20425419Y-134431750D01*
X20420203Y-134410926D01*
X20417053Y-134389691D01*
X20416000Y-134368250D01*
X20416000Y-133855750D01*
X20417053Y-133834309D01*
X20420203Y-133813074D01*
X20425419Y-133792250D01*
X20432651Y-133772038D01*
X20441830Y-133752632D01*
X20452866Y-133734219D01*
X20465654Y-133716976D01*
X20480070Y-133701070D01*
X20495976Y-133686654D01*
X20513219Y-133673866D01*
X20531632Y-133662830D01*
X20551038Y-133653651D01*
X20571250Y-133646419D01*
X20592074Y-133641203D01*
X20613309Y-133638053D01*
X20634750Y-133637000D01*
X21072250Y-133637000D01*
X21093691Y-133638053D01*
G37*
G36*
X32281691Y-121204053D02*
G01*
X32302926Y-121207203D01*
X32323750Y-121212419D01*
X32343962Y-121219651D01*
X32363368Y-121228830D01*
X32381781Y-121239866D01*
X32399024Y-121252654D01*
X32414930Y-121267070D01*
X32429346Y-121282976D01*
X32442134Y-121300219D01*
X32453170Y-121318632D01*
X32462349Y-121338038D01*
X32469581Y-121358250D01*
X32474797Y-121379074D01*
X32477947Y-121400309D01*
X32479000Y-121421750D01*
X32479000Y-121859250D01*
X32477947Y-121880691D01*
X32474797Y-121901926D01*
X32469581Y-121922750D01*
X32462349Y-121942962D01*
X32453170Y-121962368D01*
X32442134Y-121980781D01*
X32429346Y-121998024D01*
X32414930Y-122013930D01*
X32399024Y-122028346D01*
X32381781Y-122041134D01*
X32363368Y-122052170D01*
X32343962Y-122061349D01*
X32323750Y-122068581D01*
X32302926Y-122073797D01*
X32281691Y-122076947D01*
X32260250Y-122078000D01*
X31747750Y-122078000D01*
X31726309Y-122076947D01*
X31705074Y-122073797D01*
X31684250Y-122068581D01*
X31664038Y-122061349D01*
X31644632Y-122052170D01*
X31626219Y-122041134D01*
X31608976Y-122028346D01*
X31593070Y-122013930D01*
X31578654Y-121998024D01*
X31565866Y-121980781D01*
X31554830Y-121962368D01*
X31545651Y-121942962D01*
X31538419Y-121922750D01*
X31533203Y-121901926D01*
X31530053Y-121880691D01*
X31529000Y-121859250D01*
X31529000Y-121421750D01*
X31530053Y-121400309D01*
X31533203Y-121379074D01*
X31538419Y-121358250D01*
X31545651Y-121338038D01*
X31554830Y-121318632D01*
X31565866Y-121300219D01*
X31578654Y-121282976D01*
X31593070Y-121267070D01*
X31608976Y-121252654D01*
X31626219Y-121239866D01*
X31644632Y-121228830D01*
X31664038Y-121219651D01*
X31684250Y-121212419D01*
X31705074Y-121207203D01*
X31726309Y-121204053D01*
X31747750Y-121203000D01*
X32260250Y-121203000D01*
X32281691Y-121204053D01*
G37*
G36*
X32281691Y-122779053D02*
G01*
X32302926Y-122782203D01*
X32323750Y-122787419D01*
X32343962Y-122794651D01*
X32363368Y-122803830D01*
X32381781Y-122814866D01*
X32399024Y-122827654D01*
X32414930Y-122842070D01*
X32429346Y-122857976D01*
X32442134Y-122875219D01*
X32453170Y-122893632D01*
X32462349Y-122913038D01*
X32469581Y-122933250D01*
X32474797Y-122954074D01*
X32477947Y-122975309D01*
X32479000Y-122996750D01*
X32479000Y-123434250D01*
X32477947Y-123455691D01*
X32474797Y-123476926D01*
X32469581Y-123497750D01*
X32462349Y-123517962D01*
X32453170Y-123537368D01*
X32442134Y-123555781D01*
X32429346Y-123573024D01*
X32414930Y-123588930D01*
X32399024Y-123603346D01*
X32381781Y-123616134D01*
X32363368Y-123627170D01*
X32343962Y-123636349D01*
X32323750Y-123643581D01*
X32302926Y-123648797D01*
X32281691Y-123651947D01*
X32260250Y-123653000D01*
X31747750Y-123653000D01*
X31726309Y-123651947D01*
X31705074Y-123648797D01*
X31684250Y-123643581D01*
X31664038Y-123636349D01*
X31644632Y-123627170D01*
X31626219Y-123616134D01*
X31608976Y-123603346D01*
X31593070Y-123588930D01*
X31578654Y-123573024D01*
X31565866Y-123555781D01*
X31554830Y-123537368D01*
X31545651Y-123517962D01*
X31538419Y-123497750D01*
X31533203Y-123476926D01*
X31530053Y-123455691D01*
X31529000Y-123434250D01*
X31529000Y-122996750D01*
X31530053Y-122975309D01*
X31533203Y-122954074D01*
X31538419Y-122933250D01*
X31545651Y-122913038D01*
X31554830Y-122893632D01*
X31565866Y-122875219D01*
X31578654Y-122857976D01*
X31593070Y-122842070D01*
X31608976Y-122827654D01*
X31626219Y-122814866D01*
X31644632Y-122803830D01*
X31664038Y-122794651D01*
X31684250Y-122787419D01*
X31705074Y-122782203D01*
X31726309Y-122779053D01*
X31747750Y-122778000D01*
X32260250Y-122778000D01*
X32281691Y-122779053D01*
G37*
M02*
