G04 #@! TF.GenerationSoftware,KiCad,Pcbnew,5.1.5*
G04 #@! TF.CreationDate,2020-01-25T02:30:01+01:00*
G04 #@! TF.ProjectId,k8split,6b387370-6c69-4742-9e6b-696361645f70,rev?*
G04 #@! TF.SameCoordinates,Original*
G04 #@! TF.FileFunction,Paste,Bot*
G04 #@! TF.FilePolarity,Positive*
%FSLAX46Y46*%
G04 Gerber Fmt 4.6, Leading zero omitted, Abs format (unit mm)*
G04 Created by KiCad (PCBNEW 5.1.5) date 2020-01-25 02:30:01*
%MOMM*%
%LPD*%
G04 APERTURE LIST*
%ADD10R,1.200000X0.900000*%
%ADD11R,0.900000X1.200000*%
%ADD12C,0.100000*%
%ADD13R,2.500000X5.150000*%
%ADD14R,0.900000X2.500000*%
%ADD15R,1.400000X1.200000*%
%ADD16R,0.550000X1.500000*%
%ADD17R,1.500000X0.550000*%
G04 APERTURE END LIST*
D10*
X-47625000Y-50545000D03*
X-47625000Y-47245000D03*
X-42545000Y-69595000D03*
X-42545000Y-66295000D03*
X-40640000Y-88645000D03*
X-40640000Y-85345000D03*
X-35560000Y-107060000D03*
X-35560000Y-103760000D03*
X-42545000Y-127380000D03*
X-42545000Y-124080000D03*
X-28575000Y-31495000D03*
X-28575000Y-28195000D03*
X-28575000Y-50545000D03*
X-28575000Y-47245000D03*
X-19050000Y-69595000D03*
X-19050000Y-66295000D03*
X-13970000Y-88645000D03*
X-13970000Y-85345000D03*
X-4445000Y-107060000D03*
X-4445000Y-103760000D03*
X-18415000Y-127380000D03*
X-18415000Y-124080000D03*
X-9525000Y-28195000D03*
X-9525000Y-31495000D03*
X-9525000Y-50545000D03*
X-9525000Y-47245000D03*
X0Y-69595000D03*
X0Y-66295000D03*
X5080000Y-88645000D03*
X5080000Y-85345000D03*
X14605000Y-107060000D03*
X14605000Y-103760000D03*
X635000Y-127380000D03*
X635000Y-124080000D03*
X9525000Y-31495000D03*
X9525000Y-28195000D03*
X9525000Y-50545000D03*
X9525000Y-47245000D03*
X19050000Y-69595000D03*
X19050000Y-66295000D03*
X23495000Y-88645000D03*
X23495000Y-85345000D03*
X33655000Y-107060000D03*
X33655000Y-103760000D03*
X21590000Y-127380000D03*
X21590000Y-124080000D03*
X28575000Y-31495000D03*
X28575000Y-28195000D03*
X28575000Y-50545000D03*
X28575000Y-47245000D03*
X38100000Y-69595000D03*
X38100000Y-66295000D03*
X43180000Y-88645000D03*
X43180000Y-85345000D03*
X52705000Y-107060000D03*
X52705000Y-103760000D03*
X54610000Y-127380000D03*
X54610000Y-124080000D03*
X47625000Y-31495000D03*
X47625000Y-28195000D03*
X47625000Y-50545000D03*
X47625000Y-47245000D03*
X57150000Y-69595000D03*
X57150000Y-66295000D03*
X61595000Y-88645000D03*
X61595000Y-85345000D03*
X71755000Y-107060000D03*
X71755000Y-103760000D03*
X85725000Y-127380000D03*
X85725000Y-124080000D03*
X66675000Y-31495000D03*
X66675000Y-28195000D03*
X66675000Y-50545000D03*
X66675000Y-47245000D03*
X76200000Y-69595000D03*
X76200000Y-66295000D03*
X80645000Y-88645000D03*
X80645000Y-85345000D03*
X90805000Y-107060000D03*
X90805000Y-103760000D03*
X105410000Y-127380000D03*
X105410000Y-124080000D03*
X79756000Y-31495000D03*
X79756000Y-28195000D03*
X85725000Y-50545000D03*
X85725000Y-47245000D03*
X95250000Y-69595000D03*
X95250000Y-66295000D03*
X99695000Y-88645000D03*
X99695000Y-85345000D03*
X109855000Y-107060000D03*
X109855000Y-103760000D03*
X124460000Y-127380000D03*
X124460000Y-124080000D03*
X190373000Y-31495000D03*
X190373000Y-28195000D03*
X171323000Y-50545000D03*
X171323000Y-47245000D03*
X180848000Y-69595000D03*
X180848000Y-66295000D03*
X166243000Y-89280000D03*
X166243000Y-85980000D03*
X156718000Y-108330000D03*
X156718000Y-105030000D03*
X152273000Y-127380000D03*
X152273000Y-124080000D03*
X209423000Y-31495000D03*
X209423000Y-28195000D03*
X190373000Y-50545000D03*
X190373000Y-47245000D03*
X199898000Y-69595000D03*
X199898000Y-66295000D03*
X185293000Y-89280000D03*
X185293000Y-85980000D03*
X175768000Y-108330000D03*
X175768000Y-105030000D03*
X182753000Y-127380000D03*
X182753000Y-124080000D03*
X228473000Y-31495000D03*
X228473000Y-28195000D03*
X209423000Y-50545000D03*
X209423000Y-47245000D03*
X218948000Y-69595000D03*
X218948000Y-66295000D03*
X204343000Y-89280000D03*
X204343000Y-85980000D03*
X194818000Y-108330000D03*
X194818000Y-105030000D03*
X216408000Y-127380000D03*
X216408000Y-124080000D03*
X247523000Y-31495000D03*
X247523000Y-28195000D03*
X227838000Y-50545000D03*
X227838000Y-47245000D03*
X237998000Y-69595000D03*
X237998000Y-66295000D03*
X223393000Y-89280000D03*
X223393000Y-85980000D03*
X213868000Y-108330000D03*
X213868000Y-105030000D03*
X237998000Y-127380000D03*
X237998000Y-124080000D03*
X265938000Y-31495000D03*
X265938000Y-28195000D03*
X247523000Y-50545000D03*
X247523000Y-47245000D03*
X257048000Y-69595000D03*
X257048000Y-66295000D03*
X242443000Y-89280000D03*
X242443000Y-85980000D03*
X232918000Y-108330000D03*
X232918000Y-105030000D03*
X257048000Y-127380000D03*
X257048000Y-124080000D03*
X285623000Y-31495000D03*
X285623000Y-28195000D03*
X266573000Y-50545000D03*
X266573000Y-47245000D03*
X276098000Y-69595000D03*
X276098000Y-66295000D03*
X261493000Y-89280000D03*
X261493000Y-85980000D03*
X251968000Y-108330000D03*
X251968000Y-105030000D03*
X276098000Y-127380000D03*
X276098000Y-124080000D03*
X298196000Y-30354000D03*
X298196000Y-33654000D03*
X288798000Y-69595000D03*
X288798000Y-66295000D03*
X280543000Y-89280000D03*
X280543000Y-85980000D03*
X271018000Y-108330000D03*
X271018000Y-105030000D03*
X295148000Y-127380000D03*
X295148000Y-124080000D03*
D11*
X317372000Y-31242000D03*
X314072000Y-31242000D03*
D10*
X308356000Y-49910000D03*
X308356000Y-46610000D03*
X312293000Y-69595000D03*
X312293000Y-66295000D03*
X311658000Y-89280000D03*
X311658000Y-85980000D03*
D11*
X303783000Y-119380000D03*
X300483000Y-119380000D03*
X313308000Y-125095000D03*
X310008000Y-125095000D03*
D10*
X-53848000Y-30354000D03*
X-53848000Y-33654000D03*
X285623000Y-50545000D03*
X285623000Y-47245000D03*
D12*
G36*
X204493691Y-126792053D02*
G01*
X204514926Y-126795203D01*
X204535750Y-126800419D01*
X204555962Y-126807651D01*
X204575368Y-126816830D01*
X204593781Y-126827866D01*
X204611024Y-126840654D01*
X204626930Y-126855070D01*
X204641346Y-126870976D01*
X204654134Y-126888219D01*
X204665170Y-126906632D01*
X204674349Y-126926038D01*
X204681581Y-126946250D01*
X204686797Y-126967074D01*
X204689947Y-126988309D01*
X204691000Y-127009750D01*
X204691000Y-127447250D01*
X204689947Y-127468691D01*
X204686797Y-127489926D01*
X204681581Y-127510750D01*
X204674349Y-127530962D01*
X204665170Y-127550368D01*
X204654134Y-127568781D01*
X204641346Y-127586024D01*
X204626930Y-127601930D01*
X204611024Y-127616346D01*
X204593781Y-127629134D01*
X204575368Y-127640170D01*
X204555962Y-127649349D01*
X204535750Y-127656581D01*
X204514926Y-127661797D01*
X204493691Y-127664947D01*
X204472250Y-127666000D01*
X203959750Y-127666000D01*
X203938309Y-127664947D01*
X203917074Y-127661797D01*
X203896250Y-127656581D01*
X203876038Y-127649349D01*
X203856632Y-127640170D01*
X203838219Y-127629134D01*
X203820976Y-127616346D01*
X203805070Y-127601930D01*
X203790654Y-127586024D01*
X203777866Y-127568781D01*
X203766830Y-127550368D01*
X203757651Y-127530962D01*
X203750419Y-127510750D01*
X203745203Y-127489926D01*
X203742053Y-127468691D01*
X203741000Y-127447250D01*
X203741000Y-127009750D01*
X203742053Y-126988309D01*
X203745203Y-126967074D01*
X203750419Y-126946250D01*
X203757651Y-126926038D01*
X203766830Y-126906632D01*
X203777866Y-126888219D01*
X203790654Y-126870976D01*
X203805070Y-126855070D01*
X203820976Y-126840654D01*
X203838219Y-126827866D01*
X203856632Y-126816830D01*
X203876038Y-126807651D01*
X203896250Y-126800419D01*
X203917074Y-126795203D01*
X203938309Y-126792053D01*
X203959750Y-126791000D01*
X204472250Y-126791000D01*
X204493691Y-126792053D01*
G37*
G36*
X204493691Y-128367053D02*
G01*
X204514926Y-128370203D01*
X204535750Y-128375419D01*
X204555962Y-128382651D01*
X204575368Y-128391830D01*
X204593781Y-128402866D01*
X204611024Y-128415654D01*
X204626930Y-128430070D01*
X204641346Y-128445976D01*
X204654134Y-128463219D01*
X204665170Y-128481632D01*
X204674349Y-128501038D01*
X204681581Y-128521250D01*
X204686797Y-128542074D01*
X204689947Y-128563309D01*
X204691000Y-128584750D01*
X204691000Y-129022250D01*
X204689947Y-129043691D01*
X204686797Y-129064926D01*
X204681581Y-129085750D01*
X204674349Y-129105962D01*
X204665170Y-129125368D01*
X204654134Y-129143781D01*
X204641346Y-129161024D01*
X204626930Y-129176930D01*
X204611024Y-129191346D01*
X204593781Y-129204134D01*
X204575368Y-129215170D01*
X204555962Y-129224349D01*
X204535750Y-129231581D01*
X204514926Y-129236797D01*
X204493691Y-129239947D01*
X204472250Y-129241000D01*
X203959750Y-129241000D01*
X203938309Y-129239947D01*
X203917074Y-129236797D01*
X203896250Y-129231581D01*
X203876038Y-129224349D01*
X203856632Y-129215170D01*
X203838219Y-129204134D01*
X203820976Y-129191346D01*
X203805070Y-129176930D01*
X203790654Y-129161024D01*
X203777866Y-129143781D01*
X203766830Y-129125368D01*
X203757651Y-129105962D01*
X203750419Y-129085750D01*
X203745203Y-129064926D01*
X203742053Y-129043691D01*
X203741000Y-129022250D01*
X203741000Y-128584750D01*
X203742053Y-128563309D01*
X203745203Y-128542074D01*
X203750419Y-128521250D01*
X203757651Y-128501038D01*
X203766830Y-128481632D01*
X203777866Y-128463219D01*
X203790654Y-128445976D01*
X203805070Y-128430070D01*
X203820976Y-128415654D01*
X203838219Y-128402866D01*
X203856632Y-128391830D01*
X203876038Y-128382651D01*
X203896250Y-128375419D01*
X203917074Y-128370203D01*
X203938309Y-128367053D01*
X203959750Y-128366000D01*
X204472250Y-128366000D01*
X204493691Y-128367053D01*
G37*
D13*
X316058000Y-27089000D03*
X301558000Y-27089000D03*
D14*
X312308000Y-29464000D03*
X309808000Y-29464000D03*
X307808000Y-29464000D03*
X305308000Y-29464000D03*
D13*
X-36494000Y-27089000D03*
X-50994000Y-27089000D03*
D14*
X-40244000Y-29464000D03*
X-42744000Y-29464000D03*
X-44744000Y-29464000D03*
X-47244000Y-29464000D03*
D12*
G36*
X39127691Y-129066053D02*
G01*
X39148926Y-129069203D01*
X39169750Y-129074419D01*
X39189962Y-129081651D01*
X39209368Y-129090830D01*
X39227781Y-129101866D01*
X39245024Y-129114654D01*
X39260930Y-129129070D01*
X39275346Y-129144976D01*
X39288134Y-129162219D01*
X39299170Y-129180632D01*
X39308349Y-129200038D01*
X39315581Y-129220250D01*
X39320797Y-129241074D01*
X39323947Y-129262309D01*
X39325000Y-129283750D01*
X39325000Y-129796250D01*
X39323947Y-129817691D01*
X39320797Y-129838926D01*
X39315581Y-129859750D01*
X39308349Y-129879962D01*
X39299170Y-129899368D01*
X39288134Y-129917781D01*
X39275346Y-129935024D01*
X39260930Y-129950930D01*
X39245024Y-129965346D01*
X39227781Y-129978134D01*
X39209368Y-129989170D01*
X39189962Y-129998349D01*
X39169750Y-130005581D01*
X39148926Y-130010797D01*
X39127691Y-130013947D01*
X39106250Y-130015000D01*
X38668750Y-130015000D01*
X38647309Y-130013947D01*
X38626074Y-130010797D01*
X38605250Y-130005581D01*
X38585038Y-129998349D01*
X38565632Y-129989170D01*
X38547219Y-129978134D01*
X38529976Y-129965346D01*
X38514070Y-129950930D01*
X38499654Y-129935024D01*
X38486866Y-129917781D01*
X38475830Y-129899368D01*
X38466651Y-129879962D01*
X38459419Y-129859750D01*
X38454203Y-129838926D01*
X38451053Y-129817691D01*
X38450000Y-129796250D01*
X38450000Y-129283750D01*
X38451053Y-129262309D01*
X38454203Y-129241074D01*
X38459419Y-129220250D01*
X38466651Y-129200038D01*
X38475830Y-129180632D01*
X38486866Y-129162219D01*
X38499654Y-129144976D01*
X38514070Y-129129070D01*
X38529976Y-129114654D01*
X38547219Y-129101866D01*
X38565632Y-129090830D01*
X38585038Y-129081651D01*
X38605250Y-129074419D01*
X38626074Y-129069203D01*
X38647309Y-129066053D01*
X38668750Y-129065000D01*
X39106250Y-129065000D01*
X39127691Y-129066053D01*
G37*
G36*
X37552691Y-129066053D02*
G01*
X37573926Y-129069203D01*
X37594750Y-129074419D01*
X37614962Y-129081651D01*
X37634368Y-129090830D01*
X37652781Y-129101866D01*
X37670024Y-129114654D01*
X37685930Y-129129070D01*
X37700346Y-129144976D01*
X37713134Y-129162219D01*
X37724170Y-129180632D01*
X37733349Y-129200038D01*
X37740581Y-129220250D01*
X37745797Y-129241074D01*
X37748947Y-129262309D01*
X37750000Y-129283750D01*
X37750000Y-129796250D01*
X37748947Y-129817691D01*
X37745797Y-129838926D01*
X37740581Y-129859750D01*
X37733349Y-129879962D01*
X37724170Y-129899368D01*
X37713134Y-129917781D01*
X37700346Y-129935024D01*
X37685930Y-129950930D01*
X37670024Y-129965346D01*
X37652781Y-129978134D01*
X37634368Y-129989170D01*
X37614962Y-129998349D01*
X37594750Y-130005581D01*
X37573926Y-130010797D01*
X37552691Y-130013947D01*
X37531250Y-130015000D01*
X37093750Y-130015000D01*
X37072309Y-130013947D01*
X37051074Y-130010797D01*
X37030250Y-130005581D01*
X37010038Y-129998349D01*
X36990632Y-129989170D01*
X36972219Y-129978134D01*
X36954976Y-129965346D01*
X36939070Y-129950930D01*
X36924654Y-129935024D01*
X36911866Y-129917781D01*
X36900830Y-129899368D01*
X36891651Y-129879962D01*
X36884419Y-129859750D01*
X36879203Y-129838926D01*
X36876053Y-129817691D01*
X36875000Y-129796250D01*
X36875000Y-129283750D01*
X36876053Y-129262309D01*
X36879203Y-129241074D01*
X36884419Y-129220250D01*
X36891651Y-129200038D01*
X36900830Y-129180632D01*
X36911866Y-129162219D01*
X36924654Y-129144976D01*
X36939070Y-129129070D01*
X36954976Y-129114654D01*
X36972219Y-129101866D01*
X36990632Y-129090830D01*
X37010038Y-129081651D01*
X37030250Y-129074419D01*
X37051074Y-129069203D01*
X37072309Y-129066053D01*
X37093750Y-129065000D01*
X37531250Y-129065000D01*
X37552691Y-129066053D01*
G37*
G36*
X29983691Y-119414053D02*
G01*
X30004926Y-119417203D01*
X30025750Y-119422419D01*
X30045962Y-119429651D01*
X30065368Y-119438830D01*
X30083781Y-119449866D01*
X30101024Y-119462654D01*
X30116930Y-119477070D01*
X30131346Y-119492976D01*
X30144134Y-119510219D01*
X30155170Y-119528632D01*
X30164349Y-119548038D01*
X30171581Y-119568250D01*
X30176797Y-119589074D01*
X30179947Y-119610309D01*
X30181000Y-119631750D01*
X30181000Y-120144250D01*
X30179947Y-120165691D01*
X30176797Y-120186926D01*
X30171581Y-120207750D01*
X30164349Y-120227962D01*
X30155170Y-120247368D01*
X30144134Y-120265781D01*
X30131346Y-120283024D01*
X30116930Y-120298930D01*
X30101024Y-120313346D01*
X30083781Y-120326134D01*
X30065368Y-120337170D01*
X30045962Y-120346349D01*
X30025750Y-120353581D01*
X30004926Y-120358797D01*
X29983691Y-120361947D01*
X29962250Y-120363000D01*
X29524750Y-120363000D01*
X29503309Y-120361947D01*
X29482074Y-120358797D01*
X29461250Y-120353581D01*
X29441038Y-120346349D01*
X29421632Y-120337170D01*
X29403219Y-120326134D01*
X29385976Y-120313346D01*
X29370070Y-120298930D01*
X29355654Y-120283024D01*
X29342866Y-120265781D01*
X29331830Y-120247368D01*
X29322651Y-120227962D01*
X29315419Y-120207750D01*
X29310203Y-120186926D01*
X29307053Y-120165691D01*
X29306000Y-120144250D01*
X29306000Y-119631750D01*
X29307053Y-119610309D01*
X29310203Y-119589074D01*
X29315419Y-119568250D01*
X29322651Y-119548038D01*
X29331830Y-119528632D01*
X29342866Y-119510219D01*
X29355654Y-119492976D01*
X29370070Y-119477070D01*
X29385976Y-119462654D01*
X29403219Y-119449866D01*
X29421632Y-119438830D01*
X29441038Y-119429651D01*
X29461250Y-119422419D01*
X29482074Y-119417203D01*
X29503309Y-119414053D01*
X29524750Y-119413000D01*
X29962250Y-119413000D01*
X29983691Y-119414053D01*
G37*
G36*
X28408691Y-119414053D02*
G01*
X28429926Y-119417203D01*
X28450750Y-119422419D01*
X28470962Y-119429651D01*
X28490368Y-119438830D01*
X28508781Y-119449866D01*
X28526024Y-119462654D01*
X28541930Y-119477070D01*
X28556346Y-119492976D01*
X28569134Y-119510219D01*
X28580170Y-119528632D01*
X28589349Y-119548038D01*
X28596581Y-119568250D01*
X28601797Y-119589074D01*
X28604947Y-119610309D01*
X28606000Y-119631750D01*
X28606000Y-120144250D01*
X28604947Y-120165691D01*
X28601797Y-120186926D01*
X28596581Y-120207750D01*
X28589349Y-120227962D01*
X28580170Y-120247368D01*
X28569134Y-120265781D01*
X28556346Y-120283024D01*
X28541930Y-120298930D01*
X28526024Y-120313346D01*
X28508781Y-120326134D01*
X28490368Y-120337170D01*
X28470962Y-120346349D01*
X28450750Y-120353581D01*
X28429926Y-120358797D01*
X28408691Y-120361947D01*
X28387250Y-120363000D01*
X27949750Y-120363000D01*
X27928309Y-120361947D01*
X27907074Y-120358797D01*
X27886250Y-120353581D01*
X27866038Y-120346349D01*
X27846632Y-120337170D01*
X27828219Y-120326134D01*
X27810976Y-120313346D01*
X27795070Y-120298930D01*
X27780654Y-120283024D01*
X27767866Y-120265781D01*
X27756830Y-120247368D01*
X27747651Y-120227962D01*
X27740419Y-120207750D01*
X27735203Y-120186926D01*
X27732053Y-120165691D01*
X27731000Y-120144250D01*
X27731000Y-119631750D01*
X27732053Y-119610309D01*
X27735203Y-119589074D01*
X27740419Y-119568250D01*
X27747651Y-119548038D01*
X27756830Y-119528632D01*
X27767866Y-119510219D01*
X27780654Y-119492976D01*
X27795070Y-119477070D01*
X27810976Y-119462654D01*
X27828219Y-119449866D01*
X27846632Y-119438830D01*
X27866038Y-119429651D01*
X27886250Y-119422419D01*
X27907074Y-119417203D01*
X27928309Y-119414053D01*
X27949750Y-119413000D01*
X28387250Y-119413000D01*
X28408691Y-119414053D01*
G37*
G36*
X27443691Y-139734053D02*
G01*
X27464926Y-139737203D01*
X27485750Y-139742419D01*
X27505962Y-139749651D01*
X27525368Y-139758830D01*
X27543781Y-139769866D01*
X27561024Y-139782654D01*
X27576930Y-139797070D01*
X27591346Y-139812976D01*
X27604134Y-139830219D01*
X27615170Y-139848632D01*
X27624349Y-139868038D01*
X27631581Y-139888250D01*
X27636797Y-139909074D01*
X27639947Y-139930309D01*
X27641000Y-139951750D01*
X27641000Y-140464250D01*
X27639947Y-140485691D01*
X27636797Y-140506926D01*
X27631581Y-140527750D01*
X27624349Y-140547962D01*
X27615170Y-140567368D01*
X27604134Y-140585781D01*
X27591346Y-140603024D01*
X27576930Y-140618930D01*
X27561024Y-140633346D01*
X27543781Y-140646134D01*
X27525368Y-140657170D01*
X27505962Y-140666349D01*
X27485750Y-140673581D01*
X27464926Y-140678797D01*
X27443691Y-140681947D01*
X27422250Y-140683000D01*
X26984750Y-140683000D01*
X26963309Y-140681947D01*
X26942074Y-140678797D01*
X26921250Y-140673581D01*
X26901038Y-140666349D01*
X26881632Y-140657170D01*
X26863219Y-140646134D01*
X26845976Y-140633346D01*
X26830070Y-140618930D01*
X26815654Y-140603024D01*
X26802866Y-140585781D01*
X26791830Y-140567368D01*
X26782651Y-140547962D01*
X26775419Y-140527750D01*
X26770203Y-140506926D01*
X26767053Y-140485691D01*
X26766000Y-140464250D01*
X26766000Y-139951750D01*
X26767053Y-139930309D01*
X26770203Y-139909074D01*
X26775419Y-139888250D01*
X26782651Y-139868038D01*
X26791830Y-139848632D01*
X26802866Y-139830219D01*
X26815654Y-139812976D01*
X26830070Y-139797070D01*
X26845976Y-139782654D01*
X26863219Y-139769866D01*
X26881632Y-139758830D01*
X26901038Y-139749651D01*
X26921250Y-139742419D01*
X26942074Y-139737203D01*
X26963309Y-139734053D01*
X26984750Y-139733000D01*
X27422250Y-139733000D01*
X27443691Y-139734053D01*
G37*
G36*
X25868691Y-139734053D02*
G01*
X25889926Y-139737203D01*
X25910750Y-139742419D01*
X25930962Y-139749651D01*
X25950368Y-139758830D01*
X25968781Y-139769866D01*
X25986024Y-139782654D01*
X26001930Y-139797070D01*
X26016346Y-139812976D01*
X26029134Y-139830219D01*
X26040170Y-139848632D01*
X26049349Y-139868038D01*
X26056581Y-139888250D01*
X26061797Y-139909074D01*
X26064947Y-139930309D01*
X26066000Y-139951750D01*
X26066000Y-140464250D01*
X26064947Y-140485691D01*
X26061797Y-140506926D01*
X26056581Y-140527750D01*
X26049349Y-140547962D01*
X26040170Y-140567368D01*
X26029134Y-140585781D01*
X26016346Y-140603024D01*
X26001930Y-140618930D01*
X25986024Y-140633346D01*
X25968781Y-140646134D01*
X25950368Y-140657170D01*
X25930962Y-140666349D01*
X25910750Y-140673581D01*
X25889926Y-140678797D01*
X25868691Y-140681947D01*
X25847250Y-140683000D01*
X25409750Y-140683000D01*
X25388309Y-140681947D01*
X25367074Y-140678797D01*
X25346250Y-140673581D01*
X25326038Y-140666349D01*
X25306632Y-140657170D01*
X25288219Y-140646134D01*
X25270976Y-140633346D01*
X25255070Y-140618930D01*
X25240654Y-140603024D01*
X25227866Y-140585781D01*
X25216830Y-140567368D01*
X25207651Y-140547962D01*
X25200419Y-140527750D01*
X25195203Y-140506926D01*
X25192053Y-140485691D01*
X25191000Y-140464250D01*
X25191000Y-139951750D01*
X25192053Y-139930309D01*
X25195203Y-139909074D01*
X25200419Y-139888250D01*
X25207651Y-139868038D01*
X25216830Y-139848632D01*
X25227866Y-139830219D01*
X25240654Y-139812976D01*
X25255070Y-139797070D01*
X25270976Y-139782654D01*
X25288219Y-139769866D01*
X25306632Y-139758830D01*
X25326038Y-139749651D01*
X25346250Y-139742419D01*
X25367074Y-139737203D01*
X25388309Y-139734053D01*
X25409750Y-139733000D01*
X25847250Y-139733000D01*
X25868691Y-139734053D01*
G37*
G36*
X205204142Y-137514174D02*
G01*
X205227803Y-137517684D01*
X205251007Y-137523496D01*
X205273529Y-137531554D01*
X205295153Y-137541782D01*
X205315670Y-137554079D01*
X205334883Y-137568329D01*
X205352607Y-137584393D01*
X205368671Y-137602117D01*
X205382921Y-137621330D01*
X205395218Y-137641847D01*
X205405446Y-137663471D01*
X205413504Y-137685993D01*
X205419316Y-137709197D01*
X205422826Y-137732858D01*
X205424000Y-137756750D01*
X205424000Y-138244250D01*
X205422826Y-138268142D01*
X205419316Y-138291803D01*
X205413504Y-138315007D01*
X205405446Y-138337529D01*
X205395218Y-138359153D01*
X205382921Y-138379670D01*
X205368671Y-138398883D01*
X205352607Y-138416607D01*
X205334883Y-138432671D01*
X205315670Y-138446921D01*
X205295153Y-138459218D01*
X205273529Y-138469446D01*
X205251007Y-138477504D01*
X205227803Y-138483316D01*
X205204142Y-138486826D01*
X205180250Y-138488000D01*
X204267750Y-138488000D01*
X204243858Y-138486826D01*
X204220197Y-138483316D01*
X204196993Y-138477504D01*
X204174471Y-138469446D01*
X204152847Y-138459218D01*
X204132330Y-138446921D01*
X204113117Y-138432671D01*
X204095393Y-138416607D01*
X204079329Y-138398883D01*
X204065079Y-138379670D01*
X204052782Y-138359153D01*
X204042554Y-138337529D01*
X204034496Y-138315007D01*
X204028684Y-138291803D01*
X204025174Y-138268142D01*
X204024000Y-138244250D01*
X204024000Y-137756750D01*
X204025174Y-137732858D01*
X204028684Y-137709197D01*
X204034496Y-137685993D01*
X204042554Y-137663471D01*
X204052782Y-137641847D01*
X204065079Y-137621330D01*
X204079329Y-137602117D01*
X204095393Y-137584393D01*
X204113117Y-137568329D01*
X204132330Y-137554079D01*
X204152847Y-137541782D01*
X204174471Y-137531554D01*
X204196993Y-137523496D01*
X204220197Y-137517684D01*
X204243858Y-137514174D01*
X204267750Y-137513000D01*
X205180250Y-137513000D01*
X205204142Y-137514174D01*
G37*
G36*
X205204142Y-139389174D02*
G01*
X205227803Y-139392684D01*
X205251007Y-139398496D01*
X205273529Y-139406554D01*
X205295153Y-139416782D01*
X205315670Y-139429079D01*
X205334883Y-139443329D01*
X205352607Y-139459393D01*
X205368671Y-139477117D01*
X205382921Y-139496330D01*
X205395218Y-139516847D01*
X205405446Y-139538471D01*
X205413504Y-139560993D01*
X205419316Y-139584197D01*
X205422826Y-139607858D01*
X205424000Y-139631750D01*
X205424000Y-140119250D01*
X205422826Y-140143142D01*
X205419316Y-140166803D01*
X205413504Y-140190007D01*
X205405446Y-140212529D01*
X205395218Y-140234153D01*
X205382921Y-140254670D01*
X205368671Y-140273883D01*
X205352607Y-140291607D01*
X205334883Y-140307671D01*
X205315670Y-140321921D01*
X205295153Y-140334218D01*
X205273529Y-140344446D01*
X205251007Y-140352504D01*
X205227803Y-140358316D01*
X205204142Y-140361826D01*
X205180250Y-140363000D01*
X204267750Y-140363000D01*
X204243858Y-140361826D01*
X204220197Y-140358316D01*
X204196993Y-140352504D01*
X204174471Y-140344446D01*
X204152847Y-140334218D01*
X204132330Y-140321921D01*
X204113117Y-140307671D01*
X204095393Y-140291607D01*
X204079329Y-140273883D01*
X204065079Y-140254670D01*
X204052782Y-140234153D01*
X204042554Y-140212529D01*
X204034496Y-140190007D01*
X204028684Y-140166803D01*
X204025174Y-140143142D01*
X204024000Y-140119250D01*
X204024000Y-139631750D01*
X204025174Y-139607858D01*
X204028684Y-139584197D01*
X204034496Y-139560993D01*
X204042554Y-139538471D01*
X204052782Y-139516847D01*
X204065079Y-139496330D01*
X204079329Y-139477117D01*
X204095393Y-139459393D01*
X204113117Y-139443329D01*
X204132330Y-139429079D01*
X204152847Y-139416782D01*
X204174471Y-139406554D01*
X204196993Y-139398496D01*
X204220197Y-139392684D01*
X204243858Y-139389174D01*
X204267750Y-139388000D01*
X205180250Y-139388000D01*
X205204142Y-139389174D01*
G37*
G36*
X37430142Y-136461174D02*
G01*
X37453803Y-136464684D01*
X37477007Y-136470496D01*
X37499529Y-136478554D01*
X37521153Y-136488782D01*
X37541670Y-136501079D01*
X37560883Y-136515329D01*
X37578607Y-136531393D01*
X37594671Y-136549117D01*
X37608921Y-136568330D01*
X37621218Y-136588847D01*
X37631446Y-136610471D01*
X37639504Y-136632993D01*
X37645316Y-136656197D01*
X37648826Y-136679858D01*
X37650000Y-136703750D01*
X37650000Y-137616250D01*
X37648826Y-137640142D01*
X37645316Y-137663803D01*
X37639504Y-137687007D01*
X37631446Y-137709529D01*
X37621218Y-137731153D01*
X37608921Y-137751670D01*
X37594671Y-137770883D01*
X37578607Y-137788607D01*
X37560883Y-137804671D01*
X37541670Y-137818921D01*
X37521153Y-137831218D01*
X37499529Y-137841446D01*
X37477007Y-137849504D01*
X37453803Y-137855316D01*
X37430142Y-137858826D01*
X37406250Y-137860000D01*
X36918750Y-137860000D01*
X36894858Y-137858826D01*
X36871197Y-137855316D01*
X36847993Y-137849504D01*
X36825471Y-137841446D01*
X36803847Y-137831218D01*
X36783330Y-137818921D01*
X36764117Y-137804671D01*
X36746393Y-137788607D01*
X36730329Y-137770883D01*
X36716079Y-137751670D01*
X36703782Y-137731153D01*
X36693554Y-137709529D01*
X36685496Y-137687007D01*
X36679684Y-137663803D01*
X36676174Y-137640142D01*
X36675000Y-137616250D01*
X36675000Y-136703750D01*
X36676174Y-136679858D01*
X36679684Y-136656197D01*
X36685496Y-136632993D01*
X36693554Y-136610471D01*
X36703782Y-136588847D01*
X36716079Y-136568330D01*
X36730329Y-136549117D01*
X36746393Y-136531393D01*
X36764117Y-136515329D01*
X36783330Y-136501079D01*
X36803847Y-136488782D01*
X36825471Y-136478554D01*
X36847993Y-136470496D01*
X36871197Y-136464684D01*
X36894858Y-136461174D01*
X36918750Y-136460000D01*
X37406250Y-136460000D01*
X37430142Y-136461174D01*
G37*
G36*
X39305142Y-136461174D02*
G01*
X39328803Y-136464684D01*
X39352007Y-136470496D01*
X39374529Y-136478554D01*
X39396153Y-136488782D01*
X39416670Y-136501079D01*
X39435883Y-136515329D01*
X39453607Y-136531393D01*
X39469671Y-136549117D01*
X39483921Y-136568330D01*
X39496218Y-136588847D01*
X39506446Y-136610471D01*
X39514504Y-136632993D01*
X39520316Y-136656197D01*
X39523826Y-136679858D01*
X39525000Y-136703750D01*
X39525000Y-137616250D01*
X39523826Y-137640142D01*
X39520316Y-137663803D01*
X39514504Y-137687007D01*
X39506446Y-137709529D01*
X39496218Y-137731153D01*
X39483921Y-137751670D01*
X39469671Y-137770883D01*
X39453607Y-137788607D01*
X39435883Y-137804671D01*
X39416670Y-137818921D01*
X39396153Y-137831218D01*
X39374529Y-137841446D01*
X39352007Y-137849504D01*
X39328803Y-137855316D01*
X39305142Y-137858826D01*
X39281250Y-137860000D01*
X38793750Y-137860000D01*
X38769858Y-137858826D01*
X38746197Y-137855316D01*
X38722993Y-137849504D01*
X38700471Y-137841446D01*
X38678847Y-137831218D01*
X38658330Y-137818921D01*
X38639117Y-137804671D01*
X38621393Y-137788607D01*
X38605329Y-137770883D01*
X38591079Y-137751670D01*
X38578782Y-137731153D01*
X38568554Y-137709529D01*
X38560496Y-137687007D01*
X38554684Y-137663803D01*
X38551174Y-137640142D01*
X38550000Y-137616250D01*
X38550000Y-136703750D01*
X38551174Y-136679858D01*
X38554684Y-136656197D01*
X38560496Y-136632993D01*
X38568554Y-136610471D01*
X38578782Y-136588847D01*
X38591079Y-136568330D01*
X38605329Y-136549117D01*
X38621393Y-136531393D01*
X38639117Y-136515329D01*
X38658330Y-136501079D01*
X38678847Y-136488782D01*
X38700471Y-136478554D01*
X38722993Y-136470496D01*
X38746197Y-136464684D01*
X38769858Y-136461174D01*
X38793750Y-136460000D01*
X39281250Y-136460000D01*
X39305142Y-136461174D01*
G37*
G36*
X310334742Y-31672374D02*
G01*
X310358403Y-31675884D01*
X310381607Y-31681696D01*
X310404129Y-31689754D01*
X310425753Y-31699982D01*
X310446270Y-31712279D01*
X310465483Y-31726529D01*
X310483207Y-31742593D01*
X310499271Y-31760317D01*
X310513521Y-31779530D01*
X310525818Y-31800047D01*
X310536046Y-31821671D01*
X310544104Y-31844193D01*
X310549916Y-31867397D01*
X310553426Y-31891058D01*
X310554600Y-31914950D01*
X310554600Y-32402450D01*
X310553426Y-32426342D01*
X310549916Y-32450003D01*
X310544104Y-32473207D01*
X310536046Y-32495729D01*
X310525818Y-32517353D01*
X310513521Y-32537870D01*
X310499271Y-32557083D01*
X310483207Y-32574807D01*
X310465483Y-32590871D01*
X310446270Y-32605121D01*
X310425753Y-32617418D01*
X310404129Y-32627646D01*
X310381607Y-32635704D01*
X310358403Y-32641516D01*
X310334742Y-32645026D01*
X310310850Y-32646200D01*
X309398350Y-32646200D01*
X309374458Y-32645026D01*
X309350797Y-32641516D01*
X309327593Y-32635704D01*
X309305071Y-32627646D01*
X309283447Y-32617418D01*
X309262930Y-32605121D01*
X309243717Y-32590871D01*
X309225993Y-32574807D01*
X309209929Y-32557083D01*
X309195679Y-32537870D01*
X309183382Y-32517353D01*
X309173154Y-32495729D01*
X309165096Y-32473207D01*
X309159284Y-32450003D01*
X309155774Y-32426342D01*
X309154600Y-32402450D01*
X309154600Y-31914950D01*
X309155774Y-31891058D01*
X309159284Y-31867397D01*
X309165096Y-31844193D01*
X309173154Y-31821671D01*
X309183382Y-31800047D01*
X309195679Y-31779530D01*
X309209929Y-31760317D01*
X309225993Y-31742593D01*
X309243717Y-31726529D01*
X309262930Y-31712279D01*
X309283447Y-31699982D01*
X309305071Y-31689754D01*
X309327593Y-31681696D01*
X309350797Y-31675884D01*
X309374458Y-31672374D01*
X309398350Y-31671200D01*
X310310850Y-31671200D01*
X310334742Y-31672374D01*
G37*
G36*
X310334742Y-33547374D02*
G01*
X310358403Y-33550884D01*
X310381607Y-33556696D01*
X310404129Y-33564754D01*
X310425753Y-33574982D01*
X310446270Y-33587279D01*
X310465483Y-33601529D01*
X310483207Y-33617593D01*
X310499271Y-33635317D01*
X310513521Y-33654530D01*
X310525818Y-33675047D01*
X310536046Y-33696671D01*
X310544104Y-33719193D01*
X310549916Y-33742397D01*
X310553426Y-33766058D01*
X310554600Y-33789950D01*
X310554600Y-34277450D01*
X310553426Y-34301342D01*
X310549916Y-34325003D01*
X310544104Y-34348207D01*
X310536046Y-34370729D01*
X310525818Y-34392353D01*
X310513521Y-34412870D01*
X310499271Y-34432083D01*
X310483207Y-34449807D01*
X310465483Y-34465871D01*
X310446270Y-34480121D01*
X310425753Y-34492418D01*
X310404129Y-34502646D01*
X310381607Y-34510704D01*
X310358403Y-34516516D01*
X310334742Y-34520026D01*
X310310850Y-34521200D01*
X309398350Y-34521200D01*
X309374458Y-34520026D01*
X309350797Y-34516516D01*
X309327593Y-34510704D01*
X309305071Y-34502646D01*
X309283447Y-34492418D01*
X309262930Y-34480121D01*
X309243717Y-34465871D01*
X309225993Y-34449807D01*
X309209929Y-34432083D01*
X309195679Y-34412870D01*
X309183382Y-34392353D01*
X309173154Y-34370729D01*
X309165096Y-34348207D01*
X309159284Y-34325003D01*
X309155774Y-34301342D01*
X309154600Y-34277450D01*
X309154600Y-33789950D01*
X309155774Y-33766058D01*
X309159284Y-33742397D01*
X309165096Y-33719193D01*
X309173154Y-33696671D01*
X309183382Y-33675047D01*
X309195679Y-33654530D01*
X309209929Y-33635317D01*
X309225993Y-33617593D01*
X309243717Y-33601529D01*
X309262930Y-33587279D01*
X309283447Y-33574982D01*
X309305071Y-33564754D01*
X309327593Y-33556696D01*
X309350797Y-33550884D01*
X309374458Y-33547374D01*
X309398350Y-33546200D01*
X310310850Y-33546200D01*
X310334742Y-33547374D01*
G37*
G36*
X308302742Y-31672374D02*
G01*
X308326403Y-31675884D01*
X308349607Y-31681696D01*
X308372129Y-31689754D01*
X308393753Y-31699982D01*
X308414270Y-31712279D01*
X308433483Y-31726529D01*
X308451207Y-31742593D01*
X308467271Y-31760317D01*
X308481521Y-31779530D01*
X308493818Y-31800047D01*
X308504046Y-31821671D01*
X308512104Y-31844193D01*
X308517916Y-31867397D01*
X308521426Y-31891058D01*
X308522600Y-31914950D01*
X308522600Y-32402450D01*
X308521426Y-32426342D01*
X308517916Y-32450003D01*
X308512104Y-32473207D01*
X308504046Y-32495729D01*
X308493818Y-32517353D01*
X308481521Y-32537870D01*
X308467271Y-32557083D01*
X308451207Y-32574807D01*
X308433483Y-32590871D01*
X308414270Y-32605121D01*
X308393753Y-32617418D01*
X308372129Y-32627646D01*
X308349607Y-32635704D01*
X308326403Y-32641516D01*
X308302742Y-32645026D01*
X308278850Y-32646200D01*
X307366350Y-32646200D01*
X307342458Y-32645026D01*
X307318797Y-32641516D01*
X307295593Y-32635704D01*
X307273071Y-32627646D01*
X307251447Y-32617418D01*
X307230930Y-32605121D01*
X307211717Y-32590871D01*
X307193993Y-32574807D01*
X307177929Y-32557083D01*
X307163679Y-32537870D01*
X307151382Y-32517353D01*
X307141154Y-32495729D01*
X307133096Y-32473207D01*
X307127284Y-32450003D01*
X307123774Y-32426342D01*
X307122600Y-32402450D01*
X307122600Y-31914950D01*
X307123774Y-31891058D01*
X307127284Y-31867397D01*
X307133096Y-31844193D01*
X307141154Y-31821671D01*
X307151382Y-31800047D01*
X307163679Y-31779530D01*
X307177929Y-31760317D01*
X307193993Y-31742593D01*
X307211717Y-31726529D01*
X307230930Y-31712279D01*
X307251447Y-31699982D01*
X307273071Y-31689754D01*
X307295593Y-31681696D01*
X307318797Y-31675884D01*
X307342458Y-31672374D01*
X307366350Y-31671200D01*
X308278850Y-31671200D01*
X308302742Y-31672374D01*
G37*
G36*
X308302742Y-33547374D02*
G01*
X308326403Y-33550884D01*
X308349607Y-33556696D01*
X308372129Y-33564754D01*
X308393753Y-33574982D01*
X308414270Y-33587279D01*
X308433483Y-33601529D01*
X308451207Y-33617593D01*
X308467271Y-33635317D01*
X308481521Y-33654530D01*
X308493818Y-33675047D01*
X308504046Y-33696671D01*
X308512104Y-33719193D01*
X308517916Y-33742397D01*
X308521426Y-33766058D01*
X308522600Y-33789950D01*
X308522600Y-34277450D01*
X308521426Y-34301342D01*
X308517916Y-34325003D01*
X308512104Y-34348207D01*
X308504046Y-34370729D01*
X308493818Y-34392353D01*
X308481521Y-34412870D01*
X308467271Y-34432083D01*
X308451207Y-34449807D01*
X308433483Y-34465871D01*
X308414270Y-34480121D01*
X308393753Y-34492418D01*
X308372129Y-34502646D01*
X308349607Y-34510704D01*
X308326403Y-34516516D01*
X308302742Y-34520026D01*
X308278850Y-34521200D01*
X307366350Y-34521200D01*
X307342458Y-34520026D01*
X307318797Y-34516516D01*
X307295593Y-34510704D01*
X307273071Y-34502646D01*
X307251447Y-34492418D01*
X307230930Y-34480121D01*
X307211717Y-34465871D01*
X307193993Y-34449807D01*
X307177929Y-34432083D01*
X307163679Y-34412870D01*
X307151382Y-34392353D01*
X307141154Y-34370729D01*
X307133096Y-34348207D01*
X307127284Y-34325003D01*
X307123774Y-34301342D01*
X307122600Y-34277450D01*
X307122600Y-33789950D01*
X307123774Y-33766058D01*
X307127284Y-33742397D01*
X307133096Y-33719193D01*
X307141154Y-33696671D01*
X307151382Y-33675047D01*
X307163679Y-33654530D01*
X307177929Y-33635317D01*
X307193993Y-33617593D01*
X307211717Y-33601529D01*
X307230930Y-33587279D01*
X307251447Y-33574982D01*
X307273071Y-33564754D01*
X307295593Y-33556696D01*
X307318797Y-33550884D01*
X307342458Y-33547374D01*
X307366350Y-33546200D01*
X308278850Y-33546200D01*
X308302742Y-33547374D01*
G37*
G36*
X-42191858Y-31596174D02*
G01*
X-42168197Y-31599684D01*
X-42144993Y-31605496D01*
X-42122471Y-31613554D01*
X-42100847Y-31623782D01*
X-42080330Y-31636079D01*
X-42061117Y-31650329D01*
X-42043393Y-31666393D01*
X-42027329Y-31684117D01*
X-42013079Y-31703330D01*
X-42000782Y-31723847D01*
X-41990554Y-31745471D01*
X-41982496Y-31767993D01*
X-41976684Y-31791197D01*
X-41973174Y-31814858D01*
X-41972000Y-31838750D01*
X-41972000Y-32326250D01*
X-41973174Y-32350142D01*
X-41976684Y-32373803D01*
X-41982496Y-32397007D01*
X-41990554Y-32419529D01*
X-42000782Y-32441153D01*
X-42013079Y-32461670D01*
X-42027329Y-32480883D01*
X-42043393Y-32498607D01*
X-42061117Y-32514671D01*
X-42080330Y-32528921D01*
X-42100847Y-32541218D01*
X-42122471Y-32551446D01*
X-42144993Y-32559504D01*
X-42168197Y-32565316D01*
X-42191858Y-32568826D01*
X-42215750Y-32570000D01*
X-43128250Y-32570000D01*
X-43152142Y-32568826D01*
X-43175803Y-32565316D01*
X-43199007Y-32559504D01*
X-43221529Y-32551446D01*
X-43243153Y-32541218D01*
X-43263670Y-32528921D01*
X-43282883Y-32514671D01*
X-43300607Y-32498607D01*
X-43316671Y-32480883D01*
X-43330921Y-32461670D01*
X-43343218Y-32441153D01*
X-43353446Y-32419529D01*
X-43361504Y-32397007D01*
X-43367316Y-32373803D01*
X-43370826Y-32350142D01*
X-43372000Y-32326250D01*
X-43372000Y-31838750D01*
X-43370826Y-31814858D01*
X-43367316Y-31791197D01*
X-43361504Y-31767993D01*
X-43353446Y-31745471D01*
X-43343218Y-31723847D01*
X-43330921Y-31703330D01*
X-43316671Y-31684117D01*
X-43300607Y-31666393D01*
X-43282883Y-31650329D01*
X-43263670Y-31636079D01*
X-43243153Y-31623782D01*
X-43221529Y-31613554D01*
X-43199007Y-31605496D01*
X-43175803Y-31599684D01*
X-43152142Y-31596174D01*
X-43128250Y-31595000D01*
X-42215750Y-31595000D01*
X-42191858Y-31596174D01*
G37*
G36*
X-42191858Y-33471174D02*
G01*
X-42168197Y-33474684D01*
X-42144993Y-33480496D01*
X-42122471Y-33488554D01*
X-42100847Y-33498782D01*
X-42080330Y-33511079D01*
X-42061117Y-33525329D01*
X-42043393Y-33541393D01*
X-42027329Y-33559117D01*
X-42013079Y-33578330D01*
X-42000782Y-33598847D01*
X-41990554Y-33620471D01*
X-41982496Y-33642993D01*
X-41976684Y-33666197D01*
X-41973174Y-33689858D01*
X-41972000Y-33713750D01*
X-41972000Y-34201250D01*
X-41973174Y-34225142D01*
X-41976684Y-34248803D01*
X-41982496Y-34272007D01*
X-41990554Y-34294529D01*
X-42000782Y-34316153D01*
X-42013079Y-34336670D01*
X-42027329Y-34355883D01*
X-42043393Y-34373607D01*
X-42061117Y-34389671D01*
X-42080330Y-34403921D01*
X-42100847Y-34416218D01*
X-42122471Y-34426446D01*
X-42144993Y-34434504D01*
X-42168197Y-34440316D01*
X-42191858Y-34443826D01*
X-42215750Y-34445000D01*
X-43128250Y-34445000D01*
X-43152142Y-34443826D01*
X-43175803Y-34440316D01*
X-43199007Y-34434504D01*
X-43221529Y-34426446D01*
X-43243153Y-34416218D01*
X-43263670Y-34403921D01*
X-43282883Y-34389671D01*
X-43300607Y-34373607D01*
X-43316671Y-34355883D01*
X-43330921Y-34336670D01*
X-43343218Y-34316153D01*
X-43353446Y-34294529D01*
X-43361504Y-34272007D01*
X-43367316Y-34248803D01*
X-43370826Y-34225142D01*
X-43372000Y-34201250D01*
X-43372000Y-33713750D01*
X-43370826Y-33689858D01*
X-43367316Y-33666197D01*
X-43361504Y-33642993D01*
X-43353446Y-33620471D01*
X-43343218Y-33598847D01*
X-43330921Y-33578330D01*
X-43316671Y-33559117D01*
X-43300607Y-33541393D01*
X-43282883Y-33525329D01*
X-43263670Y-33511079D01*
X-43243153Y-33498782D01*
X-43221529Y-33488554D01*
X-43199007Y-33480496D01*
X-43175803Y-33474684D01*
X-43152142Y-33471174D01*
X-43128250Y-33470000D01*
X-42215750Y-33470000D01*
X-42191858Y-33471174D01*
G37*
G36*
X-44223858Y-31596174D02*
G01*
X-44200197Y-31599684D01*
X-44176993Y-31605496D01*
X-44154471Y-31613554D01*
X-44132847Y-31623782D01*
X-44112330Y-31636079D01*
X-44093117Y-31650329D01*
X-44075393Y-31666393D01*
X-44059329Y-31684117D01*
X-44045079Y-31703330D01*
X-44032782Y-31723847D01*
X-44022554Y-31745471D01*
X-44014496Y-31767993D01*
X-44008684Y-31791197D01*
X-44005174Y-31814858D01*
X-44004000Y-31838750D01*
X-44004000Y-32326250D01*
X-44005174Y-32350142D01*
X-44008684Y-32373803D01*
X-44014496Y-32397007D01*
X-44022554Y-32419529D01*
X-44032782Y-32441153D01*
X-44045079Y-32461670D01*
X-44059329Y-32480883D01*
X-44075393Y-32498607D01*
X-44093117Y-32514671D01*
X-44112330Y-32528921D01*
X-44132847Y-32541218D01*
X-44154471Y-32551446D01*
X-44176993Y-32559504D01*
X-44200197Y-32565316D01*
X-44223858Y-32568826D01*
X-44247750Y-32570000D01*
X-45160250Y-32570000D01*
X-45184142Y-32568826D01*
X-45207803Y-32565316D01*
X-45231007Y-32559504D01*
X-45253529Y-32551446D01*
X-45275153Y-32541218D01*
X-45295670Y-32528921D01*
X-45314883Y-32514671D01*
X-45332607Y-32498607D01*
X-45348671Y-32480883D01*
X-45362921Y-32461670D01*
X-45375218Y-32441153D01*
X-45385446Y-32419529D01*
X-45393504Y-32397007D01*
X-45399316Y-32373803D01*
X-45402826Y-32350142D01*
X-45404000Y-32326250D01*
X-45404000Y-31838750D01*
X-45402826Y-31814858D01*
X-45399316Y-31791197D01*
X-45393504Y-31767993D01*
X-45385446Y-31745471D01*
X-45375218Y-31723847D01*
X-45362921Y-31703330D01*
X-45348671Y-31684117D01*
X-45332607Y-31666393D01*
X-45314883Y-31650329D01*
X-45295670Y-31636079D01*
X-45275153Y-31623782D01*
X-45253529Y-31613554D01*
X-45231007Y-31605496D01*
X-45207803Y-31599684D01*
X-45184142Y-31596174D01*
X-45160250Y-31595000D01*
X-44247750Y-31595000D01*
X-44223858Y-31596174D01*
G37*
G36*
X-44223858Y-33471174D02*
G01*
X-44200197Y-33474684D01*
X-44176993Y-33480496D01*
X-44154471Y-33488554D01*
X-44132847Y-33498782D01*
X-44112330Y-33511079D01*
X-44093117Y-33525329D01*
X-44075393Y-33541393D01*
X-44059329Y-33559117D01*
X-44045079Y-33578330D01*
X-44032782Y-33598847D01*
X-44022554Y-33620471D01*
X-44014496Y-33642993D01*
X-44008684Y-33666197D01*
X-44005174Y-33689858D01*
X-44004000Y-33713750D01*
X-44004000Y-34201250D01*
X-44005174Y-34225142D01*
X-44008684Y-34248803D01*
X-44014496Y-34272007D01*
X-44022554Y-34294529D01*
X-44032782Y-34316153D01*
X-44045079Y-34336670D01*
X-44059329Y-34355883D01*
X-44075393Y-34373607D01*
X-44093117Y-34389671D01*
X-44112330Y-34403921D01*
X-44132847Y-34416218D01*
X-44154471Y-34426446D01*
X-44176993Y-34434504D01*
X-44200197Y-34440316D01*
X-44223858Y-34443826D01*
X-44247750Y-34445000D01*
X-45160250Y-34445000D01*
X-45184142Y-34443826D01*
X-45207803Y-34440316D01*
X-45231007Y-34434504D01*
X-45253529Y-34426446D01*
X-45275153Y-34416218D01*
X-45295670Y-34403921D01*
X-45314883Y-34389671D01*
X-45332607Y-34373607D01*
X-45348671Y-34355883D01*
X-45362921Y-34336670D01*
X-45375218Y-34316153D01*
X-45385446Y-34294529D01*
X-45393504Y-34272007D01*
X-45399316Y-34248803D01*
X-45402826Y-34225142D01*
X-45404000Y-34201250D01*
X-45404000Y-33713750D01*
X-45402826Y-33689858D01*
X-45399316Y-33666197D01*
X-45393504Y-33642993D01*
X-45385446Y-33620471D01*
X-45375218Y-33598847D01*
X-45362921Y-33578330D01*
X-45348671Y-33559117D01*
X-45332607Y-33541393D01*
X-45314883Y-33525329D01*
X-45295670Y-33511079D01*
X-45275153Y-33498782D01*
X-45253529Y-33488554D01*
X-45231007Y-33480496D01*
X-45207803Y-33474684D01*
X-45184142Y-33471174D01*
X-45160250Y-33470000D01*
X-44247750Y-33470000D01*
X-44223858Y-33471174D01*
G37*
G36*
X164056142Y-70712174D02*
G01*
X164079803Y-70715684D01*
X164103007Y-70721496D01*
X164125529Y-70729554D01*
X164147153Y-70739782D01*
X164167670Y-70752079D01*
X164186883Y-70766329D01*
X164204607Y-70782393D01*
X164220671Y-70800117D01*
X164234921Y-70819330D01*
X164247218Y-70839847D01*
X164257446Y-70861471D01*
X164265504Y-70883993D01*
X164271316Y-70907197D01*
X164274826Y-70930858D01*
X164276000Y-70954750D01*
X164276000Y-71442250D01*
X164274826Y-71466142D01*
X164271316Y-71489803D01*
X164265504Y-71513007D01*
X164257446Y-71535529D01*
X164247218Y-71557153D01*
X164234921Y-71577670D01*
X164220671Y-71596883D01*
X164204607Y-71614607D01*
X164186883Y-71630671D01*
X164167670Y-71644921D01*
X164147153Y-71657218D01*
X164125529Y-71667446D01*
X164103007Y-71675504D01*
X164079803Y-71681316D01*
X164056142Y-71684826D01*
X164032250Y-71686000D01*
X163119750Y-71686000D01*
X163095858Y-71684826D01*
X163072197Y-71681316D01*
X163048993Y-71675504D01*
X163026471Y-71667446D01*
X163004847Y-71657218D01*
X162984330Y-71644921D01*
X162965117Y-71630671D01*
X162947393Y-71614607D01*
X162931329Y-71596883D01*
X162917079Y-71577670D01*
X162904782Y-71557153D01*
X162894554Y-71535529D01*
X162886496Y-71513007D01*
X162880684Y-71489803D01*
X162877174Y-71466142D01*
X162876000Y-71442250D01*
X162876000Y-70954750D01*
X162877174Y-70930858D01*
X162880684Y-70907197D01*
X162886496Y-70883993D01*
X162894554Y-70861471D01*
X162904782Y-70839847D01*
X162917079Y-70819330D01*
X162931329Y-70800117D01*
X162947393Y-70782393D01*
X162965117Y-70766329D01*
X162984330Y-70752079D01*
X163004847Y-70739782D01*
X163026471Y-70729554D01*
X163048993Y-70721496D01*
X163072197Y-70715684D01*
X163095858Y-70712174D01*
X163119750Y-70711000D01*
X164032250Y-70711000D01*
X164056142Y-70712174D01*
G37*
G36*
X164056142Y-72587174D02*
G01*
X164079803Y-72590684D01*
X164103007Y-72596496D01*
X164125529Y-72604554D01*
X164147153Y-72614782D01*
X164167670Y-72627079D01*
X164186883Y-72641329D01*
X164204607Y-72657393D01*
X164220671Y-72675117D01*
X164234921Y-72694330D01*
X164247218Y-72714847D01*
X164257446Y-72736471D01*
X164265504Y-72758993D01*
X164271316Y-72782197D01*
X164274826Y-72805858D01*
X164276000Y-72829750D01*
X164276000Y-73317250D01*
X164274826Y-73341142D01*
X164271316Y-73364803D01*
X164265504Y-73388007D01*
X164257446Y-73410529D01*
X164247218Y-73432153D01*
X164234921Y-73452670D01*
X164220671Y-73471883D01*
X164204607Y-73489607D01*
X164186883Y-73505671D01*
X164167670Y-73519921D01*
X164147153Y-73532218D01*
X164125529Y-73542446D01*
X164103007Y-73550504D01*
X164079803Y-73556316D01*
X164056142Y-73559826D01*
X164032250Y-73561000D01*
X163119750Y-73561000D01*
X163095858Y-73559826D01*
X163072197Y-73556316D01*
X163048993Y-73550504D01*
X163026471Y-73542446D01*
X163004847Y-73532218D01*
X162984330Y-73519921D01*
X162965117Y-73505671D01*
X162947393Y-73489607D01*
X162931329Y-73471883D01*
X162917079Y-73452670D01*
X162904782Y-73432153D01*
X162894554Y-73410529D01*
X162886496Y-73388007D01*
X162880684Y-73364803D01*
X162877174Y-73341142D01*
X162876000Y-73317250D01*
X162876000Y-72829750D01*
X162877174Y-72805858D01*
X162880684Y-72782197D01*
X162886496Y-72758993D01*
X162894554Y-72736471D01*
X162904782Y-72714847D01*
X162917079Y-72694330D01*
X162931329Y-72675117D01*
X162947393Y-72657393D01*
X162965117Y-72641329D01*
X162984330Y-72627079D01*
X163004847Y-72614782D01*
X163026471Y-72604554D01*
X163048993Y-72596496D01*
X163072197Y-72590684D01*
X163095858Y-72587174D01*
X163119750Y-72586000D01*
X164032250Y-72586000D01*
X164056142Y-72587174D01*
G37*
G36*
X116304142Y-105764174D02*
G01*
X116327803Y-105767684D01*
X116351007Y-105773496D01*
X116373529Y-105781554D01*
X116395153Y-105791782D01*
X116415670Y-105804079D01*
X116434883Y-105818329D01*
X116452607Y-105834393D01*
X116468671Y-105852117D01*
X116482921Y-105871330D01*
X116495218Y-105891847D01*
X116505446Y-105913471D01*
X116513504Y-105935993D01*
X116519316Y-105959197D01*
X116522826Y-105982858D01*
X116524000Y-106006750D01*
X116524000Y-106494250D01*
X116522826Y-106518142D01*
X116519316Y-106541803D01*
X116513504Y-106565007D01*
X116505446Y-106587529D01*
X116495218Y-106609153D01*
X116482921Y-106629670D01*
X116468671Y-106648883D01*
X116452607Y-106666607D01*
X116434883Y-106682671D01*
X116415670Y-106696921D01*
X116395153Y-106709218D01*
X116373529Y-106719446D01*
X116351007Y-106727504D01*
X116327803Y-106733316D01*
X116304142Y-106736826D01*
X116280250Y-106738000D01*
X115367750Y-106738000D01*
X115343858Y-106736826D01*
X115320197Y-106733316D01*
X115296993Y-106727504D01*
X115274471Y-106719446D01*
X115252847Y-106709218D01*
X115232330Y-106696921D01*
X115213117Y-106682671D01*
X115195393Y-106666607D01*
X115179329Y-106648883D01*
X115165079Y-106629670D01*
X115152782Y-106609153D01*
X115142554Y-106587529D01*
X115134496Y-106565007D01*
X115128684Y-106541803D01*
X115125174Y-106518142D01*
X115124000Y-106494250D01*
X115124000Y-106006750D01*
X115125174Y-105982858D01*
X115128684Y-105959197D01*
X115134496Y-105935993D01*
X115142554Y-105913471D01*
X115152782Y-105891847D01*
X115165079Y-105871330D01*
X115179329Y-105852117D01*
X115195393Y-105834393D01*
X115213117Y-105818329D01*
X115232330Y-105804079D01*
X115252847Y-105791782D01*
X115274471Y-105781554D01*
X115296993Y-105773496D01*
X115320197Y-105767684D01*
X115343858Y-105764174D01*
X115367750Y-105763000D01*
X116280250Y-105763000D01*
X116304142Y-105764174D01*
G37*
G36*
X116304142Y-107639174D02*
G01*
X116327803Y-107642684D01*
X116351007Y-107648496D01*
X116373529Y-107656554D01*
X116395153Y-107666782D01*
X116415670Y-107679079D01*
X116434883Y-107693329D01*
X116452607Y-107709393D01*
X116468671Y-107727117D01*
X116482921Y-107746330D01*
X116495218Y-107766847D01*
X116505446Y-107788471D01*
X116513504Y-107810993D01*
X116519316Y-107834197D01*
X116522826Y-107857858D01*
X116524000Y-107881750D01*
X116524000Y-108369250D01*
X116522826Y-108393142D01*
X116519316Y-108416803D01*
X116513504Y-108440007D01*
X116505446Y-108462529D01*
X116495218Y-108484153D01*
X116482921Y-108504670D01*
X116468671Y-108523883D01*
X116452607Y-108541607D01*
X116434883Y-108557671D01*
X116415670Y-108571921D01*
X116395153Y-108584218D01*
X116373529Y-108594446D01*
X116351007Y-108602504D01*
X116327803Y-108608316D01*
X116304142Y-108611826D01*
X116280250Y-108613000D01*
X115367750Y-108613000D01*
X115343858Y-108611826D01*
X115320197Y-108608316D01*
X115296993Y-108602504D01*
X115274471Y-108594446D01*
X115252847Y-108584218D01*
X115232330Y-108571921D01*
X115213117Y-108557671D01*
X115195393Y-108541607D01*
X115179329Y-108523883D01*
X115165079Y-108504670D01*
X115152782Y-108484153D01*
X115142554Y-108462529D01*
X115134496Y-108440007D01*
X115128684Y-108416803D01*
X115125174Y-108393142D01*
X115124000Y-108369250D01*
X115124000Y-107881750D01*
X115125174Y-107857858D01*
X115128684Y-107834197D01*
X115134496Y-107810993D01*
X115142554Y-107788471D01*
X115152782Y-107766847D01*
X115165079Y-107746330D01*
X115179329Y-107727117D01*
X115195393Y-107709393D01*
X115213117Y-107693329D01*
X115232330Y-107679079D01*
X115252847Y-107666782D01*
X115274471Y-107656554D01*
X115296993Y-107648496D01*
X115320197Y-107642684D01*
X115343858Y-107639174D01*
X115367750Y-107638000D01*
X116280250Y-107638000D01*
X116304142Y-107639174D01*
G37*
D15*
X198204000Y-120054000D03*
X196004000Y-120054000D03*
X196004000Y-121754000D03*
X198204000Y-121754000D03*
D12*
G36*
X194067691Y-139734053D02*
G01*
X194088926Y-139737203D01*
X194109750Y-139742419D01*
X194129962Y-139749651D01*
X194149368Y-139758830D01*
X194167781Y-139769866D01*
X194185024Y-139782654D01*
X194200930Y-139797070D01*
X194215346Y-139812976D01*
X194228134Y-139830219D01*
X194239170Y-139848632D01*
X194248349Y-139868038D01*
X194255581Y-139888250D01*
X194260797Y-139909074D01*
X194263947Y-139930309D01*
X194265000Y-139951750D01*
X194265000Y-140464250D01*
X194263947Y-140485691D01*
X194260797Y-140506926D01*
X194255581Y-140527750D01*
X194248349Y-140547962D01*
X194239170Y-140567368D01*
X194228134Y-140585781D01*
X194215346Y-140603024D01*
X194200930Y-140618930D01*
X194185024Y-140633346D01*
X194167781Y-140646134D01*
X194149368Y-140657170D01*
X194129962Y-140666349D01*
X194109750Y-140673581D01*
X194088926Y-140678797D01*
X194067691Y-140681947D01*
X194046250Y-140683000D01*
X193608750Y-140683000D01*
X193587309Y-140681947D01*
X193566074Y-140678797D01*
X193545250Y-140673581D01*
X193525038Y-140666349D01*
X193505632Y-140657170D01*
X193487219Y-140646134D01*
X193469976Y-140633346D01*
X193454070Y-140618930D01*
X193439654Y-140603024D01*
X193426866Y-140585781D01*
X193415830Y-140567368D01*
X193406651Y-140547962D01*
X193399419Y-140527750D01*
X193394203Y-140506926D01*
X193391053Y-140485691D01*
X193390000Y-140464250D01*
X193390000Y-139951750D01*
X193391053Y-139930309D01*
X193394203Y-139909074D01*
X193399419Y-139888250D01*
X193406651Y-139868038D01*
X193415830Y-139848632D01*
X193426866Y-139830219D01*
X193439654Y-139812976D01*
X193454070Y-139797070D01*
X193469976Y-139782654D01*
X193487219Y-139769866D01*
X193505632Y-139758830D01*
X193525038Y-139749651D01*
X193545250Y-139742419D01*
X193566074Y-139737203D01*
X193587309Y-139734053D01*
X193608750Y-139733000D01*
X194046250Y-139733000D01*
X194067691Y-139734053D01*
G37*
G36*
X192492691Y-139734053D02*
G01*
X192513926Y-139737203D01*
X192534750Y-139742419D01*
X192554962Y-139749651D01*
X192574368Y-139758830D01*
X192592781Y-139769866D01*
X192610024Y-139782654D01*
X192625930Y-139797070D01*
X192640346Y-139812976D01*
X192653134Y-139830219D01*
X192664170Y-139848632D01*
X192673349Y-139868038D01*
X192680581Y-139888250D01*
X192685797Y-139909074D01*
X192688947Y-139930309D01*
X192690000Y-139951750D01*
X192690000Y-140464250D01*
X192688947Y-140485691D01*
X192685797Y-140506926D01*
X192680581Y-140527750D01*
X192673349Y-140547962D01*
X192664170Y-140567368D01*
X192653134Y-140585781D01*
X192640346Y-140603024D01*
X192625930Y-140618930D01*
X192610024Y-140633346D01*
X192592781Y-140646134D01*
X192574368Y-140657170D01*
X192554962Y-140666349D01*
X192534750Y-140673581D01*
X192513926Y-140678797D01*
X192492691Y-140681947D01*
X192471250Y-140683000D01*
X192033750Y-140683000D01*
X192012309Y-140681947D01*
X191991074Y-140678797D01*
X191970250Y-140673581D01*
X191950038Y-140666349D01*
X191930632Y-140657170D01*
X191912219Y-140646134D01*
X191894976Y-140633346D01*
X191879070Y-140618930D01*
X191864654Y-140603024D01*
X191851866Y-140585781D01*
X191840830Y-140567368D01*
X191831651Y-140547962D01*
X191824419Y-140527750D01*
X191819203Y-140506926D01*
X191816053Y-140485691D01*
X191815000Y-140464250D01*
X191815000Y-139951750D01*
X191816053Y-139930309D01*
X191819203Y-139909074D01*
X191824419Y-139888250D01*
X191831651Y-139868038D01*
X191840830Y-139848632D01*
X191851866Y-139830219D01*
X191864654Y-139812976D01*
X191879070Y-139797070D01*
X191894976Y-139782654D01*
X191912219Y-139769866D01*
X191930632Y-139758830D01*
X191950038Y-139749651D01*
X191970250Y-139742419D01*
X191991074Y-139737203D01*
X192012309Y-139734053D01*
X192033750Y-139733000D01*
X192471250Y-139733000D01*
X192492691Y-139734053D01*
G37*
G36*
X187920691Y-132114053D02*
G01*
X187941926Y-132117203D01*
X187962750Y-132122419D01*
X187982962Y-132129651D01*
X188002368Y-132138830D01*
X188020781Y-132149866D01*
X188038024Y-132162654D01*
X188053930Y-132177070D01*
X188068346Y-132192976D01*
X188081134Y-132210219D01*
X188092170Y-132228632D01*
X188101349Y-132248038D01*
X188108581Y-132268250D01*
X188113797Y-132289074D01*
X188116947Y-132310309D01*
X188118000Y-132331750D01*
X188118000Y-132844250D01*
X188116947Y-132865691D01*
X188113797Y-132886926D01*
X188108581Y-132907750D01*
X188101349Y-132927962D01*
X188092170Y-132947368D01*
X188081134Y-132965781D01*
X188068346Y-132983024D01*
X188053930Y-132998930D01*
X188038024Y-133013346D01*
X188020781Y-133026134D01*
X188002368Y-133037170D01*
X187982962Y-133046349D01*
X187962750Y-133053581D01*
X187941926Y-133058797D01*
X187920691Y-133061947D01*
X187899250Y-133063000D01*
X187461750Y-133063000D01*
X187440309Y-133061947D01*
X187419074Y-133058797D01*
X187398250Y-133053581D01*
X187378038Y-133046349D01*
X187358632Y-133037170D01*
X187340219Y-133026134D01*
X187322976Y-133013346D01*
X187307070Y-132998930D01*
X187292654Y-132983024D01*
X187279866Y-132965781D01*
X187268830Y-132947368D01*
X187259651Y-132927962D01*
X187252419Y-132907750D01*
X187247203Y-132886926D01*
X187244053Y-132865691D01*
X187243000Y-132844250D01*
X187243000Y-132331750D01*
X187244053Y-132310309D01*
X187247203Y-132289074D01*
X187252419Y-132268250D01*
X187259651Y-132248038D01*
X187268830Y-132228632D01*
X187279866Y-132210219D01*
X187292654Y-132192976D01*
X187307070Y-132177070D01*
X187322976Y-132162654D01*
X187340219Y-132149866D01*
X187358632Y-132138830D01*
X187378038Y-132129651D01*
X187398250Y-132122419D01*
X187419074Y-132117203D01*
X187440309Y-132114053D01*
X187461750Y-132113000D01*
X187899250Y-132113000D01*
X187920691Y-132114053D01*
G37*
G36*
X189495691Y-132114053D02*
G01*
X189516926Y-132117203D01*
X189537750Y-132122419D01*
X189557962Y-132129651D01*
X189577368Y-132138830D01*
X189595781Y-132149866D01*
X189613024Y-132162654D01*
X189628930Y-132177070D01*
X189643346Y-132192976D01*
X189656134Y-132210219D01*
X189667170Y-132228632D01*
X189676349Y-132248038D01*
X189683581Y-132268250D01*
X189688797Y-132289074D01*
X189691947Y-132310309D01*
X189693000Y-132331750D01*
X189693000Y-132844250D01*
X189691947Y-132865691D01*
X189688797Y-132886926D01*
X189683581Y-132907750D01*
X189676349Y-132927962D01*
X189667170Y-132947368D01*
X189656134Y-132965781D01*
X189643346Y-132983024D01*
X189628930Y-132998930D01*
X189613024Y-133013346D01*
X189595781Y-133026134D01*
X189577368Y-133037170D01*
X189557962Y-133046349D01*
X189537750Y-133053581D01*
X189516926Y-133058797D01*
X189495691Y-133061947D01*
X189474250Y-133063000D01*
X189036750Y-133063000D01*
X189015309Y-133061947D01*
X188994074Y-133058797D01*
X188973250Y-133053581D01*
X188953038Y-133046349D01*
X188933632Y-133037170D01*
X188915219Y-133026134D01*
X188897976Y-133013346D01*
X188882070Y-132998930D01*
X188867654Y-132983024D01*
X188854866Y-132965781D01*
X188843830Y-132947368D01*
X188834651Y-132927962D01*
X188827419Y-132907750D01*
X188822203Y-132886926D01*
X188819053Y-132865691D01*
X188818000Y-132844250D01*
X188818000Y-132331750D01*
X188819053Y-132310309D01*
X188822203Y-132289074D01*
X188827419Y-132268250D01*
X188834651Y-132248038D01*
X188843830Y-132228632D01*
X188854866Y-132210219D01*
X188867654Y-132192976D01*
X188882070Y-132177070D01*
X188897976Y-132162654D01*
X188915219Y-132149866D01*
X188933632Y-132138830D01*
X188953038Y-132129651D01*
X188973250Y-132122419D01*
X188994074Y-132117203D01*
X189015309Y-132114053D01*
X189036750Y-132113000D01*
X189474250Y-132113000D01*
X189495691Y-132114053D01*
G37*
D15*
X30056000Y-121578000D03*
X27856000Y-121578000D03*
X27856000Y-123278000D03*
X30056000Y-123278000D03*
D16*
X192723000Y-138415000D03*
X193523000Y-138415000D03*
X194323000Y-138415000D03*
X195123000Y-138415000D03*
X195923000Y-138415000D03*
X196723000Y-138415000D03*
X197523000Y-138415000D03*
X198323000Y-138415000D03*
X199123000Y-138415000D03*
X199923000Y-138415000D03*
X200723000Y-138415000D03*
D17*
X202423000Y-136715000D03*
X202423000Y-135915000D03*
X202423000Y-135115000D03*
X202423000Y-134315000D03*
X202423000Y-133515000D03*
X202423000Y-132715000D03*
X202423000Y-131915000D03*
X202423000Y-131115000D03*
X202423000Y-130315000D03*
X202423000Y-129515000D03*
X202423000Y-128715000D03*
D16*
X200723000Y-127015000D03*
X199923000Y-127015000D03*
X199123000Y-127015000D03*
X198323000Y-127015000D03*
X197523000Y-127015000D03*
X196723000Y-127015000D03*
X195923000Y-127015000D03*
X195123000Y-127015000D03*
X194323000Y-127015000D03*
X193523000Y-127015000D03*
X192723000Y-127015000D03*
D17*
X191023000Y-128715000D03*
X191023000Y-129515000D03*
X191023000Y-130315000D03*
X191023000Y-131115000D03*
X191023000Y-131915000D03*
X191023000Y-132715000D03*
X191023000Y-133515000D03*
X191023000Y-134315000D03*
X191023000Y-135115000D03*
X191023000Y-135915000D03*
X191023000Y-136715000D03*
D16*
X25718000Y-138288000D03*
X26518000Y-138288000D03*
X27318000Y-138288000D03*
X28118000Y-138288000D03*
X28918000Y-138288000D03*
X29718000Y-138288000D03*
X30518000Y-138288000D03*
X31318000Y-138288000D03*
X32118000Y-138288000D03*
X32918000Y-138288000D03*
X33718000Y-138288000D03*
D17*
X35418000Y-136588000D03*
X35418000Y-135788000D03*
X35418000Y-134988000D03*
X35418000Y-134188000D03*
X35418000Y-133388000D03*
X35418000Y-132588000D03*
X35418000Y-131788000D03*
X35418000Y-130988000D03*
X35418000Y-130188000D03*
X35418000Y-129388000D03*
X35418000Y-128588000D03*
D16*
X33718000Y-126888000D03*
X32918000Y-126888000D03*
X32118000Y-126888000D03*
X31318000Y-126888000D03*
X30518000Y-126888000D03*
X29718000Y-126888000D03*
X28918000Y-126888000D03*
X28118000Y-126888000D03*
X27318000Y-126888000D03*
X26518000Y-126888000D03*
X25718000Y-126888000D03*
D17*
X24018000Y-128588000D03*
X24018000Y-129388000D03*
X24018000Y-130188000D03*
X24018000Y-130988000D03*
X24018000Y-131788000D03*
X24018000Y-132588000D03*
X24018000Y-133388000D03*
X24018000Y-134188000D03*
X24018000Y-134988000D03*
X24018000Y-135788000D03*
X24018000Y-136588000D03*
D12*
G36*
X199604691Y-139734053D02*
G01*
X199625926Y-139737203D01*
X199646750Y-139742419D01*
X199666962Y-139749651D01*
X199686368Y-139758830D01*
X199704781Y-139769866D01*
X199722024Y-139782654D01*
X199737930Y-139797070D01*
X199752346Y-139812976D01*
X199765134Y-139830219D01*
X199776170Y-139848632D01*
X199785349Y-139868038D01*
X199792581Y-139888250D01*
X199797797Y-139909074D01*
X199800947Y-139930309D01*
X199802000Y-139951750D01*
X199802000Y-140464250D01*
X199800947Y-140485691D01*
X199797797Y-140506926D01*
X199792581Y-140527750D01*
X199785349Y-140547962D01*
X199776170Y-140567368D01*
X199765134Y-140585781D01*
X199752346Y-140603024D01*
X199737930Y-140618930D01*
X199722024Y-140633346D01*
X199704781Y-140646134D01*
X199686368Y-140657170D01*
X199666962Y-140666349D01*
X199646750Y-140673581D01*
X199625926Y-140678797D01*
X199604691Y-140681947D01*
X199583250Y-140683000D01*
X199145750Y-140683000D01*
X199124309Y-140681947D01*
X199103074Y-140678797D01*
X199082250Y-140673581D01*
X199062038Y-140666349D01*
X199042632Y-140657170D01*
X199024219Y-140646134D01*
X199006976Y-140633346D01*
X198991070Y-140618930D01*
X198976654Y-140603024D01*
X198963866Y-140585781D01*
X198952830Y-140567368D01*
X198943651Y-140547962D01*
X198936419Y-140527750D01*
X198931203Y-140506926D01*
X198928053Y-140485691D01*
X198927000Y-140464250D01*
X198927000Y-139951750D01*
X198928053Y-139930309D01*
X198931203Y-139909074D01*
X198936419Y-139888250D01*
X198943651Y-139868038D01*
X198952830Y-139848632D01*
X198963866Y-139830219D01*
X198976654Y-139812976D01*
X198991070Y-139797070D01*
X199006976Y-139782654D01*
X199024219Y-139769866D01*
X199042632Y-139758830D01*
X199062038Y-139749651D01*
X199082250Y-139742419D01*
X199103074Y-139737203D01*
X199124309Y-139734053D01*
X199145750Y-139733000D01*
X199583250Y-139733000D01*
X199604691Y-139734053D01*
G37*
G36*
X201179691Y-139734053D02*
G01*
X201200926Y-139737203D01*
X201221750Y-139742419D01*
X201241962Y-139749651D01*
X201261368Y-139758830D01*
X201279781Y-139769866D01*
X201297024Y-139782654D01*
X201312930Y-139797070D01*
X201327346Y-139812976D01*
X201340134Y-139830219D01*
X201351170Y-139848632D01*
X201360349Y-139868038D01*
X201367581Y-139888250D01*
X201372797Y-139909074D01*
X201375947Y-139930309D01*
X201377000Y-139951750D01*
X201377000Y-140464250D01*
X201375947Y-140485691D01*
X201372797Y-140506926D01*
X201367581Y-140527750D01*
X201360349Y-140547962D01*
X201351170Y-140567368D01*
X201340134Y-140585781D01*
X201327346Y-140603024D01*
X201312930Y-140618930D01*
X201297024Y-140633346D01*
X201279781Y-140646134D01*
X201261368Y-140657170D01*
X201241962Y-140666349D01*
X201221750Y-140673581D01*
X201200926Y-140678797D01*
X201179691Y-140681947D01*
X201158250Y-140683000D01*
X200720750Y-140683000D01*
X200699309Y-140681947D01*
X200678074Y-140678797D01*
X200657250Y-140673581D01*
X200637038Y-140666349D01*
X200617632Y-140657170D01*
X200599219Y-140646134D01*
X200581976Y-140633346D01*
X200566070Y-140618930D01*
X200551654Y-140603024D01*
X200538866Y-140585781D01*
X200527830Y-140567368D01*
X200518651Y-140547962D01*
X200511419Y-140527750D01*
X200506203Y-140506926D01*
X200503053Y-140485691D01*
X200502000Y-140464250D01*
X200502000Y-139951750D01*
X200503053Y-139930309D01*
X200506203Y-139909074D01*
X200511419Y-139888250D01*
X200518651Y-139868038D01*
X200527830Y-139848632D01*
X200538866Y-139830219D01*
X200551654Y-139812976D01*
X200566070Y-139797070D01*
X200581976Y-139782654D01*
X200599219Y-139769866D01*
X200617632Y-139758830D01*
X200637038Y-139749651D01*
X200657250Y-139742419D01*
X200678074Y-139737203D01*
X200699309Y-139734053D01*
X200720750Y-139733000D01*
X201158250Y-139733000D01*
X201179691Y-139734053D01*
G37*
G36*
X32472691Y-139734053D02*
G01*
X32493926Y-139737203D01*
X32514750Y-139742419D01*
X32534962Y-139749651D01*
X32554368Y-139758830D01*
X32572781Y-139769866D01*
X32590024Y-139782654D01*
X32605930Y-139797070D01*
X32620346Y-139812976D01*
X32633134Y-139830219D01*
X32644170Y-139848632D01*
X32653349Y-139868038D01*
X32660581Y-139888250D01*
X32665797Y-139909074D01*
X32668947Y-139930309D01*
X32670000Y-139951750D01*
X32670000Y-140464250D01*
X32668947Y-140485691D01*
X32665797Y-140506926D01*
X32660581Y-140527750D01*
X32653349Y-140547962D01*
X32644170Y-140567368D01*
X32633134Y-140585781D01*
X32620346Y-140603024D01*
X32605930Y-140618930D01*
X32590024Y-140633346D01*
X32572781Y-140646134D01*
X32554368Y-140657170D01*
X32534962Y-140666349D01*
X32514750Y-140673581D01*
X32493926Y-140678797D01*
X32472691Y-140681947D01*
X32451250Y-140683000D01*
X32013750Y-140683000D01*
X31992309Y-140681947D01*
X31971074Y-140678797D01*
X31950250Y-140673581D01*
X31930038Y-140666349D01*
X31910632Y-140657170D01*
X31892219Y-140646134D01*
X31874976Y-140633346D01*
X31859070Y-140618930D01*
X31844654Y-140603024D01*
X31831866Y-140585781D01*
X31820830Y-140567368D01*
X31811651Y-140547962D01*
X31804419Y-140527750D01*
X31799203Y-140506926D01*
X31796053Y-140485691D01*
X31795000Y-140464250D01*
X31795000Y-139951750D01*
X31796053Y-139930309D01*
X31799203Y-139909074D01*
X31804419Y-139888250D01*
X31811651Y-139868038D01*
X31820830Y-139848632D01*
X31831866Y-139830219D01*
X31844654Y-139812976D01*
X31859070Y-139797070D01*
X31874976Y-139782654D01*
X31892219Y-139769866D01*
X31910632Y-139758830D01*
X31930038Y-139749651D01*
X31950250Y-139742419D01*
X31971074Y-139737203D01*
X31992309Y-139734053D01*
X32013750Y-139733000D01*
X32451250Y-139733000D01*
X32472691Y-139734053D01*
G37*
G36*
X34047691Y-139734053D02*
G01*
X34068926Y-139737203D01*
X34089750Y-139742419D01*
X34109962Y-139749651D01*
X34129368Y-139758830D01*
X34147781Y-139769866D01*
X34165024Y-139782654D01*
X34180930Y-139797070D01*
X34195346Y-139812976D01*
X34208134Y-139830219D01*
X34219170Y-139848632D01*
X34228349Y-139868038D01*
X34235581Y-139888250D01*
X34240797Y-139909074D01*
X34243947Y-139930309D01*
X34245000Y-139951750D01*
X34245000Y-140464250D01*
X34243947Y-140485691D01*
X34240797Y-140506926D01*
X34235581Y-140527750D01*
X34228349Y-140547962D01*
X34219170Y-140567368D01*
X34208134Y-140585781D01*
X34195346Y-140603024D01*
X34180930Y-140618930D01*
X34165024Y-140633346D01*
X34147781Y-140646134D01*
X34129368Y-140657170D01*
X34109962Y-140666349D01*
X34089750Y-140673581D01*
X34068926Y-140678797D01*
X34047691Y-140681947D01*
X34026250Y-140683000D01*
X33588750Y-140683000D01*
X33567309Y-140681947D01*
X33546074Y-140678797D01*
X33525250Y-140673581D01*
X33505038Y-140666349D01*
X33485632Y-140657170D01*
X33467219Y-140646134D01*
X33449976Y-140633346D01*
X33434070Y-140618930D01*
X33419654Y-140603024D01*
X33406866Y-140585781D01*
X33395830Y-140567368D01*
X33386651Y-140547962D01*
X33379419Y-140527750D01*
X33374203Y-140506926D01*
X33371053Y-140485691D01*
X33370000Y-140464250D01*
X33370000Y-139951750D01*
X33371053Y-139930309D01*
X33374203Y-139909074D01*
X33379419Y-139888250D01*
X33386651Y-139868038D01*
X33395830Y-139848632D01*
X33406866Y-139830219D01*
X33419654Y-139812976D01*
X33434070Y-139797070D01*
X33449976Y-139782654D01*
X33467219Y-139769866D01*
X33485632Y-139758830D01*
X33505038Y-139749651D01*
X33525250Y-139742419D01*
X33546074Y-139737203D01*
X33567309Y-139734053D01*
X33588750Y-139733000D01*
X34026250Y-139733000D01*
X34047691Y-139734053D01*
G37*
G36*
X194587691Y-123261353D02*
G01*
X194608926Y-123264503D01*
X194629750Y-123269719D01*
X194649962Y-123276951D01*
X194669368Y-123286130D01*
X194687781Y-123297166D01*
X194705024Y-123309954D01*
X194720930Y-123324370D01*
X194735346Y-123340276D01*
X194748134Y-123357519D01*
X194759170Y-123375932D01*
X194768349Y-123395338D01*
X194775581Y-123415550D01*
X194780797Y-123436374D01*
X194783947Y-123457609D01*
X194785000Y-123479050D01*
X194785000Y-123916550D01*
X194783947Y-123937991D01*
X194780797Y-123959226D01*
X194775581Y-123980050D01*
X194768349Y-124000262D01*
X194759170Y-124019668D01*
X194748134Y-124038081D01*
X194735346Y-124055324D01*
X194720930Y-124071230D01*
X194705024Y-124085646D01*
X194687781Y-124098434D01*
X194669368Y-124109470D01*
X194649962Y-124118649D01*
X194629750Y-124125881D01*
X194608926Y-124131097D01*
X194587691Y-124134247D01*
X194566250Y-124135300D01*
X194053750Y-124135300D01*
X194032309Y-124134247D01*
X194011074Y-124131097D01*
X193990250Y-124125881D01*
X193970038Y-124118649D01*
X193950632Y-124109470D01*
X193932219Y-124098434D01*
X193914976Y-124085646D01*
X193899070Y-124071230D01*
X193884654Y-124055324D01*
X193871866Y-124038081D01*
X193860830Y-124019668D01*
X193851651Y-124000262D01*
X193844419Y-123980050D01*
X193839203Y-123959226D01*
X193836053Y-123937991D01*
X193835000Y-123916550D01*
X193835000Y-123479050D01*
X193836053Y-123457609D01*
X193839203Y-123436374D01*
X193844419Y-123415550D01*
X193851651Y-123395338D01*
X193860830Y-123375932D01*
X193871866Y-123357519D01*
X193884654Y-123340276D01*
X193899070Y-123324370D01*
X193914976Y-123309954D01*
X193932219Y-123297166D01*
X193950632Y-123286130D01*
X193970038Y-123276951D01*
X193990250Y-123269719D01*
X194011074Y-123264503D01*
X194032309Y-123261353D01*
X194053750Y-123260300D01*
X194566250Y-123260300D01*
X194587691Y-123261353D01*
G37*
G36*
X194587691Y-124836353D02*
G01*
X194608926Y-124839503D01*
X194629750Y-124844719D01*
X194649962Y-124851951D01*
X194669368Y-124861130D01*
X194687781Y-124872166D01*
X194705024Y-124884954D01*
X194720930Y-124899370D01*
X194735346Y-124915276D01*
X194748134Y-124932519D01*
X194759170Y-124950932D01*
X194768349Y-124970338D01*
X194775581Y-124990550D01*
X194780797Y-125011374D01*
X194783947Y-125032609D01*
X194785000Y-125054050D01*
X194785000Y-125491550D01*
X194783947Y-125512991D01*
X194780797Y-125534226D01*
X194775581Y-125555050D01*
X194768349Y-125575262D01*
X194759170Y-125594668D01*
X194748134Y-125613081D01*
X194735346Y-125630324D01*
X194720930Y-125646230D01*
X194705024Y-125660646D01*
X194687781Y-125673434D01*
X194669368Y-125684470D01*
X194649962Y-125693649D01*
X194629750Y-125700881D01*
X194608926Y-125706097D01*
X194587691Y-125709247D01*
X194566250Y-125710300D01*
X194053750Y-125710300D01*
X194032309Y-125709247D01*
X194011074Y-125706097D01*
X193990250Y-125700881D01*
X193970038Y-125693649D01*
X193950632Y-125684470D01*
X193932219Y-125673434D01*
X193914976Y-125660646D01*
X193899070Y-125646230D01*
X193884654Y-125630324D01*
X193871866Y-125613081D01*
X193860830Y-125594668D01*
X193851651Y-125575262D01*
X193844419Y-125555050D01*
X193839203Y-125534226D01*
X193836053Y-125512991D01*
X193835000Y-125491550D01*
X193835000Y-125054050D01*
X193836053Y-125032609D01*
X193839203Y-125011374D01*
X193844419Y-124990550D01*
X193851651Y-124970338D01*
X193860830Y-124950932D01*
X193871866Y-124932519D01*
X193884654Y-124915276D01*
X193899070Y-124899370D01*
X193914976Y-124884954D01*
X193932219Y-124872166D01*
X193950632Y-124861130D01*
X193970038Y-124851951D01*
X193990250Y-124844719D01*
X194011074Y-124839503D01*
X194032309Y-124836353D01*
X194053750Y-124835300D01*
X194566250Y-124835300D01*
X194587691Y-124836353D01*
G37*
G36*
X194333691Y-121255053D02*
G01*
X194354926Y-121258203D01*
X194375750Y-121263419D01*
X194395962Y-121270651D01*
X194415368Y-121279830D01*
X194433781Y-121290866D01*
X194451024Y-121303654D01*
X194466930Y-121318070D01*
X194481346Y-121333976D01*
X194494134Y-121351219D01*
X194505170Y-121369632D01*
X194514349Y-121389038D01*
X194521581Y-121409250D01*
X194526797Y-121430074D01*
X194529947Y-121451309D01*
X194531000Y-121472750D01*
X194531000Y-121910250D01*
X194529947Y-121931691D01*
X194526797Y-121952926D01*
X194521581Y-121973750D01*
X194514349Y-121993962D01*
X194505170Y-122013368D01*
X194494134Y-122031781D01*
X194481346Y-122049024D01*
X194466930Y-122064930D01*
X194451024Y-122079346D01*
X194433781Y-122092134D01*
X194415368Y-122103170D01*
X194395962Y-122112349D01*
X194375750Y-122119581D01*
X194354926Y-122124797D01*
X194333691Y-122127947D01*
X194312250Y-122129000D01*
X193799750Y-122129000D01*
X193778309Y-122127947D01*
X193757074Y-122124797D01*
X193736250Y-122119581D01*
X193716038Y-122112349D01*
X193696632Y-122103170D01*
X193678219Y-122092134D01*
X193660976Y-122079346D01*
X193645070Y-122064930D01*
X193630654Y-122049024D01*
X193617866Y-122031781D01*
X193606830Y-122013368D01*
X193597651Y-121993962D01*
X193590419Y-121973750D01*
X193585203Y-121952926D01*
X193582053Y-121931691D01*
X193581000Y-121910250D01*
X193581000Y-121472750D01*
X193582053Y-121451309D01*
X193585203Y-121430074D01*
X193590419Y-121409250D01*
X193597651Y-121389038D01*
X193606830Y-121369632D01*
X193617866Y-121351219D01*
X193630654Y-121333976D01*
X193645070Y-121318070D01*
X193660976Y-121303654D01*
X193678219Y-121290866D01*
X193696632Y-121279830D01*
X193716038Y-121270651D01*
X193736250Y-121263419D01*
X193757074Y-121258203D01*
X193778309Y-121255053D01*
X193799750Y-121254000D01*
X194312250Y-121254000D01*
X194333691Y-121255053D01*
G37*
G36*
X194333691Y-119680053D02*
G01*
X194354926Y-119683203D01*
X194375750Y-119688419D01*
X194395962Y-119695651D01*
X194415368Y-119704830D01*
X194433781Y-119715866D01*
X194451024Y-119728654D01*
X194466930Y-119743070D01*
X194481346Y-119758976D01*
X194494134Y-119776219D01*
X194505170Y-119794632D01*
X194514349Y-119814038D01*
X194521581Y-119834250D01*
X194526797Y-119855074D01*
X194529947Y-119876309D01*
X194531000Y-119897750D01*
X194531000Y-120335250D01*
X194529947Y-120356691D01*
X194526797Y-120377926D01*
X194521581Y-120398750D01*
X194514349Y-120418962D01*
X194505170Y-120438368D01*
X194494134Y-120456781D01*
X194481346Y-120474024D01*
X194466930Y-120489930D01*
X194451024Y-120504346D01*
X194433781Y-120517134D01*
X194415368Y-120528170D01*
X194395962Y-120537349D01*
X194375750Y-120544581D01*
X194354926Y-120549797D01*
X194333691Y-120552947D01*
X194312250Y-120554000D01*
X193799750Y-120554000D01*
X193778309Y-120552947D01*
X193757074Y-120549797D01*
X193736250Y-120544581D01*
X193716038Y-120537349D01*
X193696632Y-120528170D01*
X193678219Y-120517134D01*
X193660976Y-120504346D01*
X193645070Y-120489930D01*
X193630654Y-120474024D01*
X193617866Y-120456781D01*
X193606830Y-120438368D01*
X193597651Y-120418962D01*
X193590419Y-120398750D01*
X193585203Y-120377926D01*
X193582053Y-120356691D01*
X193581000Y-120335250D01*
X193581000Y-119897750D01*
X193582053Y-119876309D01*
X193585203Y-119855074D01*
X193590419Y-119834250D01*
X193597651Y-119814038D01*
X193606830Y-119794632D01*
X193617866Y-119776219D01*
X193630654Y-119758976D01*
X193645070Y-119743070D01*
X193660976Y-119728654D01*
X193678219Y-119715866D01*
X193696632Y-119704830D01*
X193716038Y-119695651D01*
X193736250Y-119688419D01*
X193757074Y-119683203D01*
X193778309Y-119680053D01*
X193799750Y-119679000D01*
X194312250Y-119679000D01*
X194333691Y-119680053D01*
G37*
G36*
X200429691Y-119680053D02*
G01*
X200450926Y-119683203D01*
X200471750Y-119688419D01*
X200491962Y-119695651D01*
X200511368Y-119704830D01*
X200529781Y-119715866D01*
X200547024Y-119728654D01*
X200562930Y-119743070D01*
X200577346Y-119758976D01*
X200590134Y-119776219D01*
X200601170Y-119794632D01*
X200610349Y-119814038D01*
X200617581Y-119834250D01*
X200622797Y-119855074D01*
X200625947Y-119876309D01*
X200627000Y-119897750D01*
X200627000Y-120335250D01*
X200625947Y-120356691D01*
X200622797Y-120377926D01*
X200617581Y-120398750D01*
X200610349Y-120418962D01*
X200601170Y-120438368D01*
X200590134Y-120456781D01*
X200577346Y-120474024D01*
X200562930Y-120489930D01*
X200547024Y-120504346D01*
X200529781Y-120517134D01*
X200511368Y-120528170D01*
X200491962Y-120537349D01*
X200471750Y-120544581D01*
X200450926Y-120549797D01*
X200429691Y-120552947D01*
X200408250Y-120554000D01*
X199895750Y-120554000D01*
X199874309Y-120552947D01*
X199853074Y-120549797D01*
X199832250Y-120544581D01*
X199812038Y-120537349D01*
X199792632Y-120528170D01*
X199774219Y-120517134D01*
X199756976Y-120504346D01*
X199741070Y-120489930D01*
X199726654Y-120474024D01*
X199713866Y-120456781D01*
X199702830Y-120438368D01*
X199693651Y-120418962D01*
X199686419Y-120398750D01*
X199681203Y-120377926D01*
X199678053Y-120356691D01*
X199677000Y-120335250D01*
X199677000Y-119897750D01*
X199678053Y-119876309D01*
X199681203Y-119855074D01*
X199686419Y-119834250D01*
X199693651Y-119814038D01*
X199702830Y-119794632D01*
X199713866Y-119776219D01*
X199726654Y-119758976D01*
X199741070Y-119743070D01*
X199756976Y-119728654D01*
X199774219Y-119715866D01*
X199792632Y-119704830D01*
X199812038Y-119695651D01*
X199832250Y-119688419D01*
X199853074Y-119683203D01*
X199874309Y-119680053D01*
X199895750Y-119679000D01*
X200408250Y-119679000D01*
X200429691Y-119680053D01*
G37*
G36*
X200429691Y-121255053D02*
G01*
X200450926Y-121258203D01*
X200471750Y-121263419D01*
X200491962Y-121270651D01*
X200511368Y-121279830D01*
X200529781Y-121290866D01*
X200547024Y-121303654D01*
X200562930Y-121318070D01*
X200577346Y-121333976D01*
X200590134Y-121351219D01*
X200601170Y-121369632D01*
X200610349Y-121389038D01*
X200617581Y-121409250D01*
X200622797Y-121430074D01*
X200625947Y-121451309D01*
X200627000Y-121472750D01*
X200627000Y-121910250D01*
X200625947Y-121931691D01*
X200622797Y-121952926D01*
X200617581Y-121973750D01*
X200610349Y-121993962D01*
X200601170Y-122013368D01*
X200590134Y-122031781D01*
X200577346Y-122049024D01*
X200562930Y-122064930D01*
X200547024Y-122079346D01*
X200529781Y-122092134D01*
X200511368Y-122103170D01*
X200491962Y-122112349D01*
X200471750Y-122119581D01*
X200450926Y-122124797D01*
X200429691Y-122127947D01*
X200408250Y-122129000D01*
X199895750Y-122129000D01*
X199874309Y-122127947D01*
X199853074Y-122124797D01*
X199832250Y-122119581D01*
X199812038Y-122112349D01*
X199792632Y-122103170D01*
X199774219Y-122092134D01*
X199756976Y-122079346D01*
X199741070Y-122064930D01*
X199726654Y-122049024D01*
X199713866Y-122031781D01*
X199702830Y-122013368D01*
X199693651Y-121993962D01*
X199686419Y-121973750D01*
X199681203Y-121952926D01*
X199678053Y-121931691D01*
X199677000Y-121910250D01*
X199677000Y-121472750D01*
X199678053Y-121451309D01*
X199681203Y-121430074D01*
X199686419Y-121409250D01*
X199693651Y-121389038D01*
X199702830Y-121369632D01*
X199713866Y-121351219D01*
X199726654Y-121333976D01*
X199741070Y-121318070D01*
X199756976Y-121303654D01*
X199774219Y-121290866D01*
X199792632Y-121279830D01*
X199812038Y-121270651D01*
X199832250Y-121263419D01*
X199853074Y-121258203D01*
X199874309Y-121255053D01*
X199895750Y-121254000D01*
X200408250Y-121254000D01*
X200429691Y-121255053D01*
G37*
G36*
X25868691Y-124494053D02*
G01*
X25889926Y-124497203D01*
X25910750Y-124502419D01*
X25930962Y-124509651D01*
X25950368Y-124518830D01*
X25968781Y-124529866D01*
X25986024Y-124542654D01*
X26001930Y-124557070D01*
X26016346Y-124572976D01*
X26029134Y-124590219D01*
X26040170Y-124608632D01*
X26049349Y-124628038D01*
X26056581Y-124648250D01*
X26061797Y-124669074D01*
X26064947Y-124690309D01*
X26066000Y-124711750D01*
X26066000Y-125224250D01*
X26064947Y-125245691D01*
X26061797Y-125266926D01*
X26056581Y-125287750D01*
X26049349Y-125307962D01*
X26040170Y-125327368D01*
X26029134Y-125345781D01*
X26016346Y-125363024D01*
X26001930Y-125378930D01*
X25986024Y-125393346D01*
X25968781Y-125406134D01*
X25950368Y-125417170D01*
X25930962Y-125426349D01*
X25910750Y-125433581D01*
X25889926Y-125438797D01*
X25868691Y-125441947D01*
X25847250Y-125443000D01*
X25409750Y-125443000D01*
X25388309Y-125441947D01*
X25367074Y-125438797D01*
X25346250Y-125433581D01*
X25326038Y-125426349D01*
X25306632Y-125417170D01*
X25288219Y-125406134D01*
X25270976Y-125393346D01*
X25255070Y-125378930D01*
X25240654Y-125363024D01*
X25227866Y-125345781D01*
X25216830Y-125327368D01*
X25207651Y-125307962D01*
X25200419Y-125287750D01*
X25195203Y-125266926D01*
X25192053Y-125245691D01*
X25191000Y-125224250D01*
X25191000Y-124711750D01*
X25192053Y-124690309D01*
X25195203Y-124669074D01*
X25200419Y-124648250D01*
X25207651Y-124628038D01*
X25216830Y-124608632D01*
X25227866Y-124590219D01*
X25240654Y-124572976D01*
X25255070Y-124557070D01*
X25270976Y-124542654D01*
X25288219Y-124529866D01*
X25306632Y-124518830D01*
X25326038Y-124509651D01*
X25346250Y-124502419D01*
X25367074Y-124497203D01*
X25388309Y-124494053D01*
X25409750Y-124493000D01*
X25847250Y-124493000D01*
X25868691Y-124494053D01*
G37*
G36*
X27443691Y-124494053D02*
G01*
X27464926Y-124497203D01*
X27485750Y-124502419D01*
X27505962Y-124509651D01*
X27525368Y-124518830D01*
X27543781Y-124529866D01*
X27561024Y-124542654D01*
X27576930Y-124557070D01*
X27591346Y-124572976D01*
X27604134Y-124590219D01*
X27615170Y-124608632D01*
X27624349Y-124628038D01*
X27631581Y-124648250D01*
X27636797Y-124669074D01*
X27639947Y-124690309D01*
X27641000Y-124711750D01*
X27641000Y-125224250D01*
X27639947Y-125245691D01*
X27636797Y-125266926D01*
X27631581Y-125287750D01*
X27624349Y-125307962D01*
X27615170Y-125327368D01*
X27604134Y-125345781D01*
X27591346Y-125363024D01*
X27576930Y-125378930D01*
X27561024Y-125393346D01*
X27543781Y-125406134D01*
X27525368Y-125417170D01*
X27505962Y-125426349D01*
X27485750Y-125433581D01*
X27464926Y-125438797D01*
X27443691Y-125441947D01*
X27422250Y-125443000D01*
X26984750Y-125443000D01*
X26963309Y-125441947D01*
X26942074Y-125438797D01*
X26921250Y-125433581D01*
X26901038Y-125426349D01*
X26881632Y-125417170D01*
X26863219Y-125406134D01*
X26845976Y-125393346D01*
X26830070Y-125378930D01*
X26815654Y-125363024D01*
X26802866Y-125345781D01*
X26791830Y-125327368D01*
X26782651Y-125307962D01*
X26775419Y-125287750D01*
X26770203Y-125266926D01*
X26767053Y-125245691D01*
X26766000Y-125224250D01*
X26766000Y-124711750D01*
X26767053Y-124690309D01*
X26770203Y-124669074D01*
X26775419Y-124648250D01*
X26782651Y-124628038D01*
X26791830Y-124608632D01*
X26802866Y-124590219D01*
X26815654Y-124572976D01*
X26830070Y-124557070D01*
X26845976Y-124542654D01*
X26863219Y-124529866D01*
X26881632Y-124518830D01*
X26901038Y-124509651D01*
X26921250Y-124502419D01*
X26942074Y-124497203D01*
X26963309Y-124494053D01*
X26984750Y-124493000D01*
X27422250Y-124493000D01*
X27443691Y-124494053D01*
G37*
G36*
X19505491Y-131364053D02*
G01*
X19526726Y-131367203D01*
X19547550Y-131372419D01*
X19567762Y-131379651D01*
X19587168Y-131388830D01*
X19605581Y-131399866D01*
X19622824Y-131412654D01*
X19638730Y-131427070D01*
X19653146Y-131442976D01*
X19665934Y-131460219D01*
X19676970Y-131478632D01*
X19686149Y-131498038D01*
X19693381Y-131518250D01*
X19698597Y-131539074D01*
X19701747Y-131560309D01*
X19702800Y-131581750D01*
X19702800Y-132019250D01*
X19701747Y-132040691D01*
X19698597Y-132061926D01*
X19693381Y-132082750D01*
X19686149Y-132102962D01*
X19676970Y-132122368D01*
X19665934Y-132140781D01*
X19653146Y-132158024D01*
X19638730Y-132173930D01*
X19622824Y-132188346D01*
X19605581Y-132201134D01*
X19587168Y-132212170D01*
X19567762Y-132221349D01*
X19547550Y-132228581D01*
X19526726Y-132233797D01*
X19505491Y-132236947D01*
X19484050Y-132238000D01*
X18971550Y-132238000D01*
X18950109Y-132236947D01*
X18928874Y-132233797D01*
X18908050Y-132228581D01*
X18887838Y-132221349D01*
X18868432Y-132212170D01*
X18850019Y-132201134D01*
X18832776Y-132188346D01*
X18816870Y-132173930D01*
X18802454Y-132158024D01*
X18789666Y-132140781D01*
X18778630Y-132122368D01*
X18769451Y-132102962D01*
X18762219Y-132082750D01*
X18757003Y-132061926D01*
X18753853Y-132040691D01*
X18752800Y-132019250D01*
X18752800Y-131581750D01*
X18753853Y-131560309D01*
X18757003Y-131539074D01*
X18762219Y-131518250D01*
X18769451Y-131498038D01*
X18778630Y-131478632D01*
X18789666Y-131460219D01*
X18802454Y-131442976D01*
X18816870Y-131427070D01*
X18832776Y-131412654D01*
X18850019Y-131399866D01*
X18868432Y-131388830D01*
X18887838Y-131379651D01*
X18908050Y-131372419D01*
X18928874Y-131367203D01*
X18950109Y-131364053D01*
X18971550Y-131363000D01*
X19484050Y-131363000D01*
X19505491Y-131364053D01*
G37*
G36*
X19505491Y-132939053D02*
G01*
X19526726Y-132942203D01*
X19547550Y-132947419D01*
X19567762Y-132954651D01*
X19587168Y-132963830D01*
X19605581Y-132974866D01*
X19622824Y-132987654D01*
X19638730Y-133002070D01*
X19653146Y-133017976D01*
X19665934Y-133035219D01*
X19676970Y-133053632D01*
X19686149Y-133073038D01*
X19693381Y-133093250D01*
X19698597Y-133114074D01*
X19701747Y-133135309D01*
X19702800Y-133156750D01*
X19702800Y-133594250D01*
X19701747Y-133615691D01*
X19698597Y-133636926D01*
X19693381Y-133657750D01*
X19686149Y-133677962D01*
X19676970Y-133697368D01*
X19665934Y-133715781D01*
X19653146Y-133733024D01*
X19638730Y-133748930D01*
X19622824Y-133763346D01*
X19605581Y-133776134D01*
X19587168Y-133787170D01*
X19567762Y-133796349D01*
X19547550Y-133803581D01*
X19526726Y-133808797D01*
X19505491Y-133811947D01*
X19484050Y-133813000D01*
X18971550Y-133813000D01*
X18950109Y-133811947D01*
X18928874Y-133808797D01*
X18908050Y-133803581D01*
X18887838Y-133796349D01*
X18868432Y-133787170D01*
X18850019Y-133776134D01*
X18832776Y-133763346D01*
X18816870Y-133748930D01*
X18802454Y-133733024D01*
X18789666Y-133715781D01*
X18778630Y-133697368D01*
X18769451Y-133677962D01*
X18762219Y-133657750D01*
X18757003Y-133636926D01*
X18753853Y-133615691D01*
X18752800Y-133594250D01*
X18752800Y-133156750D01*
X18753853Y-133135309D01*
X18757003Y-133114074D01*
X18762219Y-133093250D01*
X18769451Y-133073038D01*
X18778630Y-133053632D01*
X18789666Y-133035219D01*
X18802454Y-133017976D01*
X18816870Y-133002070D01*
X18832776Y-132987654D01*
X18850019Y-132974866D01*
X18868432Y-132963830D01*
X18887838Y-132954651D01*
X18908050Y-132947419D01*
X18928874Y-132942203D01*
X18950109Y-132939053D01*
X18971550Y-132938000D01*
X19484050Y-132938000D01*
X19505491Y-132939053D01*
G37*
G36*
X32281691Y-121204053D02*
G01*
X32302926Y-121207203D01*
X32323750Y-121212419D01*
X32343962Y-121219651D01*
X32363368Y-121228830D01*
X32381781Y-121239866D01*
X32399024Y-121252654D01*
X32414930Y-121267070D01*
X32429346Y-121282976D01*
X32442134Y-121300219D01*
X32453170Y-121318632D01*
X32462349Y-121338038D01*
X32469581Y-121358250D01*
X32474797Y-121379074D01*
X32477947Y-121400309D01*
X32479000Y-121421750D01*
X32479000Y-121859250D01*
X32477947Y-121880691D01*
X32474797Y-121901926D01*
X32469581Y-121922750D01*
X32462349Y-121942962D01*
X32453170Y-121962368D01*
X32442134Y-121980781D01*
X32429346Y-121998024D01*
X32414930Y-122013930D01*
X32399024Y-122028346D01*
X32381781Y-122041134D01*
X32363368Y-122052170D01*
X32343962Y-122061349D01*
X32323750Y-122068581D01*
X32302926Y-122073797D01*
X32281691Y-122076947D01*
X32260250Y-122078000D01*
X31747750Y-122078000D01*
X31726309Y-122076947D01*
X31705074Y-122073797D01*
X31684250Y-122068581D01*
X31664038Y-122061349D01*
X31644632Y-122052170D01*
X31626219Y-122041134D01*
X31608976Y-122028346D01*
X31593070Y-122013930D01*
X31578654Y-121998024D01*
X31565866Y-121980781D01*
X31554830Y-121962368D01*
X31545651Y-121942962D01*
X31538419Y-121922750D01*
X31533203Y-121901926D01*
X31530053Y-121880691D01*
X31529000Y-121859250D01*
X31529000Y-121421750D01*
X31530053Y-121400309D01*
X31533203Y-121379074D01*
X31538419Y-121358250D01*
X31545651Y-121338038D01*
X31554830Y-121318632D01*
X31565866Y-121300219D01*
X31578654Y-121282976D01*
X31593070Y-121267070D01*
X31608976Y-121252654D01*
X31626219Y-121239866D01*
X31644632Y-121228830D01*
X31664038Y-121219651D01*
X31684250Y-121212419D01*
X31705074Y-121207203D01*
X31726309Y-121204053D01*
X31747750Y-121203000D01*
X32260250Y-121203000D01*
X32281691Y-121204053D01*
G37*
G36*
X32281691Y-122779053D02*
G01*
X32302926Y-122782203D01*
X32323750Y-122787419D01*
X32343962Y-122794651D01*
X32363368Y-122803830D01*
X32381781Y-122814866D01*
X32399024Y-122827654D01*
X32414930Y-122842070D01*
X32429346Y-122857976D01*
X32442134Y-122875219D01*
X32453170Y-122893632D01*
X32462349Y-122913038D01*
X32469581Y-122933250D01*
X32474797Y-122954074D01*
X32477947Y-122975309D01*
X32479000Y-122996750D01*
X32479000Y-123434250D01*
X32477947Y-123455691D01*
X32474797Y-123476926D01*
X32469581Y-123497750D01*
X32462349Y-123517962D01*
X32453170Y-123537368D01*
X32442134Y-123555781D01*
X32429346Y-123573024D01*
X32414930Y-123588930D01*
X32399024Y-123603346D01*
X32381781Y-123616134D01*
X32363368Y-123627170D01*
X32343962Y-123636349D01*
X32323750Y-123643581D01*
X32302926Y-123648797D01*
X32281691Y-123651947D01*
X32260250Y-123653000D01*
X31747750Y-123653000D01*
X31726309Y-123651947D01*
X31705074Y-123648797D01*
X31684250Y-123643581D01*
X31664038Y-123636349D01*
X31644632Y-123627170D01*
X31626219Y-123616134D01*
X31608976Y-123603346D01*
X31593070Y-123588930D01*
X31578654Y-123573024D01*
X31565866Y-123555781D01*
X31554830Y-123537368D01*
X31545651Y-123517962D01*
X31538419Y-123497750D01*
X31533203Y-123476926D01*
X31530053Y-123455691D01*
X31529000Y-123434250D01*
X31529000Y-122996750D01*
X31530053Y-122975309D01*
X31533203Y-122954074D01*
X31538419Y-122933250D01*
X31545651Y-122913038D01*
X31554830Y-122893632D01*
X31565866Y-122875219D01*
X31578654Y-122857976D01*
X31593070Y-122842070D01*
X31608976Y-122827654D01*
X31626219Y-122814866D01*
X31644632Y-122803830D01*
X31664038Y-122794651D01*
X31684250Y-122787419D01*
X31705074Y-122782203D01*
X31726309Y-122779053D01*
X31747750Y-122778000D01*
X32260250Y-122778000D01*
X32281691Y-122779053D01*
G37*
M02*
