M48
; DRILL file {KiCad 5.1.5} date Sat 25 Jan 2020 02:29:56 AM CET
; FORMAT={-:-/ absolute / metric / decimal}
; #@! TF.CreationDate,2020-01-25T02:29:56+01:00
; #@! TF.GenerationSoftware,Kicad,Pcbnew,5.1.5
; #@! TF.FileFunction,NonPlated,1,2,NPTH
FMAT,2
METRIC
T1C0.787
T2C1.300
T3C1.750
T4C3.048
T5C3.200
T6C3.988
%
G90
G05
T1
X93.472Y-50.8
X93.472Y-52.07
X93.472Y-53.34
X93.472Y-54.61
X93.472Y-55.88
X132.334Y-139.446
X132.334Y-140.716
X132.334Y-141.986
X132.334Y-143.256
X132.334Y-144.526
X147.32Y-88.138
X147.32Y-89.408
X147.32Y-90.678
X147.32Y-91.948
X147.32Y-93.218
X171.196Y-24.13
X171.196Y-25.4
X171.196Y-26.67
X171.196Y-27.94
X171.196Y-29.21
X93.472Y-24.13
X93.472Y-25.4
X93.472Y-26.67
X93.472Y-27.94
X93.472Y-29.21
X108.204Y-88.138
X108.204Y-89.408
X108.204Y-90.678
X108.204Y-91.948
X108.204Y-93.218
X151.892Y-50.8
X151.892Y-52.07
X151.892Y-53.34
X151.892Y-54.61
X151.892Y-55.88
T2
X-46.244Y-25.384
X-41.244Y-25.384
X306.308Y-25.384
X311.308Y-25.384
T3
X-1.27Y-36.83
X8.89Y-36.83
X184.061Y-113.066
X194.221Y-113.066
X188.824Y-74.974
X198.984Y-74.974
X169.774Y-74.974
X179.934Y-74.974
X274.55Y-36.829
X284.71Y-36.829
X307.832Y-132.109
X317.992Y-132.109
X70.128Y-93.966
X80.288Y-93.966
X226.924Y-74.974
X237.084Y-74.974
X250.682Y-94.009
X260.842Y-94.009
X32.028Y-93.966
X42.188Y-93.966
X44.278Y-132.096
X54.438Y-132.096
X10.956Y-132.086
X21.116Y-132.086
X274.546Y-55.89
X284.706Y-55.89
X46.343Y-74.936
X56.503Y-74.936
X84.443Y-74.936
X94.603Y-74.936
X55.88Y-36.83
X66.04Y-36.83
X75.236Y-132.097
X85.396Y-132.097
X174.482Y-94.009
X184.642Y-94.009
X89.178Y-93.966
X99.338Y-93.966
X226.856Y-132.115
X237.016Y-132.115
X245.974Y-74.974
X256.134Y-74.974
X-29.532Y-132.079
X-19.372Y-132.079
X260.261Y-113.066
X270.421Y-113.066
X245.906Y-132.115
X256.066Y-132.115
X-20.32Y-36.83
X-10.16Y-36.83
X-6.072Y-93.966
X4.088Y-93.966
X303.146Y-55.913
X313.306Y-55.913
X22.694Y-113.015
X32.854Y-113.015
X17.78Y-55.88
X27.94Y-55.88
X198.346Y-55.89
X208.506Y-55.89
X-29.857Y-74.936
X-19.697Y-74.936
X-53.34Y-132.08
X-43.18Y-132.08
X160.246Y-55.89
X170.406Y-55.89
X172.109Y-132.131
X182.269Y-132.131
X236.45Y-36.829
X246.61Y-36.829
X179.296Y-55.89
X189.456Y-55.89
X255.496Y-55.89
X265.656Y-55.89
X17.78Y-36.83
X27.94Y-36.83
X155.432Y-94.009
X165.592Y-94.009
X79.844Y-113.015
X90.004Y-113.015
X241.211Y-113.066
X251.371Y-113.066
X41.744Y-113.015
X51.904Y-113.015
X98.894Y-113.015
X109.054Y-113.015
X51.078Y-93.966
X61.238Y-93.966
X-1.27Y-55.88
X8.89Y-55.88
X55.88Y-55.88
X66.04Y-55.88
X-39.37Y-36.83
X-29.21Y-36.83
X307.888Y-74.963
X318.048Y-74.963
X212.582Y-94.009
X222.742Y-94.009
X-58.42Y-36.83
X-48.26Y-36.83
X165.011Y-113.066
X175.171Y-113.066
X255.5Y-36.829
X265.66Y-36.829
X284.074Y-74.974
X294.234Y-74.974
X207.874Y-74.974
X218.034Y-74.974
X231.632Y-94.009
X241.792Y-94.009
X-53.658Y-74.921
X-43.498Y-74.921
X284.006Y-132.115
X294.166Y-132.115
X-20.32Y-55.88
X-10.16Y-55.88
X265.024Y-74.974
X275.184Y-74.974
X74.93Y-55.88
X85.09Y-55.88
X3.644Y-113.015
X13.804Y-113.015
X-25.122Y-93.966
X-14.962Y-93.966
X-10.482Y-132.079
X-0.322Y-132.079
X94.286Y-132.097
X104.446Y-132.097
X193.532Y-94.009
X203.692Y-94.009
X198.35Y-36.829
X208.51Y-36.829
X8.243Y-74.936
X18.403Y-74.936
X145.961Y-113.066
X156.121Y-113.066
X217.396Y-55.89
X227.556Y-55.89
X27.293Y-74.936
X37.453Y-74.936
X74.93Y-36.83
X85.09Y-36.83
X264.956Y-132.115
X275.116Y-132.115
X36.83Y-36.83
X46.99Y-36.83
X113.336Y-132.097
X123.496Y-132.097
X293.6Y-36.829
X303.76Y-36.829
X205.433Y-132.118
X215.593Y-132.118
X65.393Y-74.936
X75.553Y-74.936
X-10.807Y-74.936
X-0.647Y-74.936
X295.984Y-113.05
X306.144Y-113.05
X203.111Y-113.066
X213.271Y-113.066
X236.446Y-55.89
X246.606Y-55.89
X141.149Y-132.132
X151.309Y-132.132
X269.732Y-94.009
X279.892Y-94.009
X60.794Y-113.015
X70.954Y-113.015
X300.72Y-94.009
X310.88Y-94.009
X222.161Y-113.066
X232.321Y-113.066
X-51.256Y-93.969
X-41.096Y-93.969
X312.654Y-36.83
X322.814Y-36.83
X179.3Y-36.829
X189.46Y-36.829
X-15.406Y-113.015
X-5.246Y-113.015
X12.978Y-93.966
X23.138Y-93.966
X-39.37Y-55.88
X-29.21Y-55.88
X36.83Y-55.88
X46.99Y-55.88
X217.4Y-36.829
X227.56Y-36.829
X-58.42Y-55.88
X-48.26Y-55.88
X-46.355Y-113.03
X-36.195Y-113.03
T4
X293.894Y-87.024
X317.707Y-87.024
X-53.181Y-106.045
X-29.369Y-106.045
X37.452Y-125.111
X61.264Y-125.111
X296.32Y-48.928
X320.133Y-48.928
X165.283Y-125.146
X189.095Y-125.146
X289.157Y-106.065
X312.97Y-106.065
T5
X-62.992Y-26.924
X-62.992Y-141.732
X89.408Y-26.924
X175.26Y-26.924
X327.152Y-26.924
X327.152Y-141.732
X128.524Y-141.732
X136.144Y-141.732
T6
X222.476Y-55.89
X32.373Y-74.936
X80.01Y-36.83
X270.036Y-132.115
X41.91Y-36.83
X118.416Y-132.097
X298.68Y-36.829
X210.513Y-132.118
X70.473Y-74.936
X-5.727Y-74.936
X289.157Y-121.305
X301.064Y-113.05
X312.97Y-121.305
X208.191Y-113.066
X241.526Y-55.89
X146.229Y-132.132
X274.812Y-94.009
X65.874Y-113.015
X293.894Y-102.264
X305.8Y-94.009
X317.707Y-102.264
X227.241Y-113.066
X-46.176Y-93.969
X317.734Y-36.83
X184.38Y-36.829
X-10.326Y-113.015
X18.058Y-93.966
X-34.29Y-55.88
X41.91Y-55.88
X222.48Y-36.829
X-53.34Y-55.88
X-53.181Y-121.285
X-41.275Y-113.03
X-29.369Y-121.285
X3.81Y-36.83
X189.141Y-113.066
X193.904Y-74.974
X174.854Y-74.974
X279.63Y-36.829
X312.912Y-132.109
X75.208Y-93.966
X232.004Y-74.974
X255.762Y-94.009
X37.108Y-93.966
X37.452Y-140.351
X49.358Y-132.096
X61.264Y-140.351
X16.036Y-132.086
X279.626Y-55.89
X51.423Y-74.936
X89.523Y-74.936
X60.96Y-36.83
X80.316Y-132.097
X179.562Y-94.009
X94.258Y-93.966
X231.936Y-132.115
X251.054Y-74.974
X-24.452Y-132.079
X265.341Y-113.066
X250.986Y-132.115
X-15.24Y-36.83
X-0.992Y-93.966
X296.32Y-64.168
X308.226Y-55.913
X320.133Y-64.168
X27.774Y-113.015
X22.86Y-55.88
X203.426Y-55.89
X-24.777Y-74.936
X-48.26Y-132.08
X165.326Y-55.89
X165.283Y-140.386
X177.189Y-132.131
X189.095Y-140.386
X241.53Y-36.829
X184.376Y-55.89
X260.576Y-55.89
X22.86Y-36.83
X160.512Y-94.009
X84.924Y-113.015
X246.291Y-113.066
X46.824Y-113.015
X103.974Y-113.015
X56.158Y-93.966
X3.81Y-55.88
X60.96Y-55.88
X-34.29Y-36.83
X312.968Y-74.963
X217.662Y-94.009
X-53.34Y-36.83
X170.091Y-113.066
X260.58Y-36.829
X289.154Y-74.974
X212.954Y-74.974
X236.712Y-94.009
X-48.578Y-74.921
X289.086Y-132.115
X-15.24Y-55.88
X270.104Y-74.974
X80.01Y-55.88
X8.724Y-113.015
X-20.042Y-93.966
X-5.402Y-132.079
X99.366Y-132.097
X198.612Y-94.009
X203.43Y-36.829
X13.323Y-74.936
X151.041Y-113.066
T0
M30
