M48
; DRILL file {KiCad (5.1.4)-1} date 09/30/19 23:05:34
; FORMAT={-:-/ absolute / inch / decimal}
; #@! TF.CreationDate,2019-09-30T23:05:34-07:00
; #@! TF.GenerationSoftware,Kicad,Pcbnew,(5.1.4)-1
; #@! TF.FileFunction,Plated,1,2,PTH
FMAT,2
INCH
T1C0.0157
T2C0.0236
T3C0.0579
%
G90
G05
T1
X1.395Y-1.655
X1.395Y-1.75
X1.54Y-4.305
X1.62Y-1.55
X1.665Y-1.55
X1.765Y-1.52
X1.81Y-1.52
X1.9Y-1.95
X1.95Y-2.565
X1.95Y-3.315
X2.2Y-1.95
X2.2Y-3.315
X2.2Y-2.565
X2.305Y-3.445
X2.65Y-3.755
X2.685Y-4.1
X2.685Y-4.145
X2.865Y-3.54
X2.895Y-3.67
X2.935Y-4.01
X3.05Y-4.005
X3.09Y-3.41
X3.185Y-3.54
X3.215Y-3.28
X3.28Y-3.165
X3.32Y-3.47
X3.375Y-3.165
X3.38Y-3.53
X3.385Y-3.655
X3.4Y-2.875
X3.44Y-4.02
X3.455Y-3.57
X3.46Y-3.775
X3.46Y-3.98
X3.51Y-4.03
X3.61Y-2.875
X3.78Y-3.52
X3.795Y-4.105
X3.825Y-3.52
X3.84Y-4.105
X3.89Y-2.92
X3.89Y-3.02
X3.99Y-4.08
X4.15Y-3.655
X4.36Y-2.715
X4.36Y-3.51
X4.39Y-1.965
X4.4Y-3.51
X4.52Y-4.005
X4.915Y-3.77
X4.95Y-3.01
X6.95Y-3.71
X6.95Y-4.155
X7.19Y-1.965
X7.19Y-3.505
X7.295Y-3.58
X7.39Y-3.83
X7.39Y-3.925
X7.43Y-3.745
X7.495Y-3.4
X7.675Y-3.915
X7.72Y-3.915
X7.96Y-3.83
X7.96Y-3.9
X8.005Y-3.4
X8.045Y-3.445
X8.045Y-3.655
X8.06Y-3.22
X8.1Y-3.4
X8.16Y-3.64
X8.205Y-3.94
X8.925Y-3.57
X9.2Y-2.0
X9.25Y-3.315
X9.35Y-2.565
X9.55Y-3.315
X9.575Y-2.565
X9.6Y-2.0
X9.69Y-4.305
X9.73Y-1.535
X9.775Y-1.535
X9.865Y-1.54
X9.915Y-1.54
X10.135Y-1.655
X10.135Y-1.75
T3
X8.1937Y-2.2437
X8.4437Y-2.1437
X3.7875Y-2.3375
X4.0375Y-2.2375
X8.9437Y-2.3375
X9.1937Y-2.2375
X8.9437Y-1.5875
X9.1937Y-1.4875
X3.7875Y-1.5875
X4.0375Y-1.4875
X6.6937Y-3.1812
X6.9437Y-3.0812
X0.7875Y-2.525
X1.0375Y-2.425
X4.5375Y-1.6812
X4.7875Y-1.5813
X10.4437Y-2.525
X10.6937Y-2.425
X0.7875Y-4.025
X1.0375Y-3.925
X1.5375Y-4.025
X1.7875Y-3.925
X7.4437Y-3.0875
X7.6937Y-2.9875
X2.2875Y-3.0875
X2.5375Y-2.9875
X3.0375Y-1.4937
X3.2875Y-1.3938
X1.5375Y-1.775
X1.7875Y-1.675
X6.6937Y-2.4312
X6.9437Y-2.3312
X8.1937Y-1.4937
X8.4437Y-1.3938
X4.5375Y-3.1812
X4.7875Y-3.0812
X3.7875Y-3.0875
X4.0375Y-2.9875
X7.4437Y-2.3375
X7.6937Y-2.2375
X4.5375Y-2.4312
X4.7875Y-2.3312
X9.6937Y-2.525
X9.9437Y-2.425
X0.7875Y-1.775
X1.0375Y-1.675
X6.6937Y-1.6812
X6.9437Y-1.5813
X9.6937Y-4.025
X9.9437Y-3.925
X2.2875Y-3.8375
X2.5375Y-3.7375
X10.4437Y-1.775
X10.6937Y-1.675
X8.9437Y-3.0875
X9.1937Y-2.9875
X3.0375Y-3.7437
X3.2875Y-3.6437
X2.2875Y-1.5875
X2.5375Y-1.4875
X7.0519Y-3.9857
X7.2675Y-3.8244
X1.5375Y-2.525
X1.7875Y-2.425
X3.0375Y-2.9937
X3.2875Y-2.8937
X4.9444Y-4.4108
X4.9828Y-4.1443
X4.1896Y-3.908
X4.457Y-3.8761
X9.6937Y-1.775
X9.9437Y-1.675
X9.6937Y-3.275
X9.9437Y-3.175
X10.4437Y-4.025
X10.6937Y-3.925
X6.4368Y-4.151
X6.6484Y-4.3175
X0.7875Y-3.275
X1.0375Y-3.175
X2.2875Y-2.3375
X2.5375Y-2.2375
X1.5375Y-3.275
X1.7875Y-3.175
X8.9437Y-3.8375
X9.1937Y-3.7375
X3.0375Y-2.2437
X3.2875Y-2.1437
X8.1937Y-3.7437
X8.4437Y-3.6437
X7.4437Y-1.5875
X7.6937Y-1.4875
X10.4437Y-3.275
X10.6937Y-3.175
X8.1937Y-2.9937
X8.4437Y-2.8937
T2
G00X9.6749Y-1.375
M15
G01X9.6674Y-1.4176
M16
G05
G00X9.7018Y-1.2226
M15
G01X9.6977Y-1.2459
M16
G05
G00X10.0099Y-1.4341
M15
G01X10.0024Y-1.4767
M16
G05
G00X10.0367Y-1.2817
M15
G01X10.0326Y-1.3049
M16
G05
G00X7.8782Y-1.2288
M15
G01X7.8782Y-1.2525
M16
G05
G00X7.8782Y-1.3469
M15
G01X7.8782Y-1.3706
M16
G05
G00X7.8782Y-1.5044
M15
G01X7.8782Y-1.5281
M16
G05
G00X8.0593Y-1.5477
M15
G01X8.0593Y-1.5714
M16
G05
G00X3.4719Y-1.2288
M15
G01X3.4719Y-1.2525
M16
G05
G00X3.4719Y-1.3469
M15
G01X3.4719Y-1.3706
M16
G05
G00X3.4719Y-1.5044
M15
G01X3.4719Y-1.5281
M16
G05
G00X3.6531Y-1.5477
M15
G01X3.6531Y-1.5714
M16
G05
G00X1.4945Y-1.2817
M15
G01X1.4986Y-1.3049
M16
G05
G00X1.5214Y-1.4341
M15
G01X1.5289Y-1.4767
M16
G05
G00X1.8295Y-1.2226
M15
G01X1.8336Y-1.2459
M16
G05
G00X1.8564Y-1.375
M15
G01X1.8639Y-1.4176
M16
G05
T0
M30
