G04 #@! TF.GenerationSoftware,KiCad,Pcbnew,(5.1.4)-1*
G04 #@! TF.CreationDate,2019-09-30T23:05:28-07:00*
G04 #@! TF.ProjectId,Orbit,4f726269-742e-46b6-9963-61645f706362,rev?*
G04 #@! TF.SameCoordinates,Original*
G04 #@! TF.FileFunction,Paste,Bot*
G04 #@! TF.FilePolarity,Positive*
%FSLAX46Y46*%
G04 Gerber Fmt 4.6, Leading zero omitted, Abs format (unit mm)*
G04 Created by KiCad (PCBNEW (5.1.4)-1) date 2019-09-30 23:05:28*
%MOMM*%
%LPD*%
G04 APERTURE LIST*
%ADD10R,0.550000X1.500000*%
%ADD11R,1.500000X0.550000*%
%ADD12C,0.100000*%
%ADD13C,0.875000*%
%ADD14R,1.400000X1.200000*%
%ADD15C,0.600000*%
%ADD16C,0.300000*%
%ADD17R,0.700000X1.000000*%
%ADD18R,0.700000X0.600000*%
%ADD19R,1.800000X1.100000*%
%ADD20C,1.250000*%
%ADD21R,1.200000X0.900000*%
G04 APERTURE END LIST*
D10*
X200850000Y-86375000D03*
X200050000Y-86375000D03*
X199250000Y-86375000D03*
X198450000Y-86375000D03*
X197650000Y-86375000D03*
X196850000Y-86375000D03*
X196050000Y-86375000D03*
X195250000Y-86375000D03*
X194450000Y-86375000D03*
X193650000Y-86375000D03*
X192850000Y-86375000D03*
D11*
X191150000Y-88075000D03*
X191150000Y-88875000D03*
X191150000Y-89675000D03*
X191150000Y-90475000D03*
X191150000Y-91275000D03*
X191150000Y-92075000D03*
X191150000Y-92875000D03*
X191150000Y-93675000D03*
X191150000Y-94475000D03*
X191150000Y-95275000D03*
X191150000Y-96075000D03*
D10*
X192850000Y-97775000D03*
X193650000Y-97775000D03*
X194450000Y-97775000D03*
X195250000Y-97775000D03*
X196050000Y-97775000D03*
X196850000Y-97775000D03*
X197650000Y-97775000D03*
X198450000Y-97775000D03*
X199250000Y-97775000D03*
X200050000Y-97775000D03*
X200850000Y-97775000D03*
D11*
X202550000Y-96075000D03*
X202550000Y-95275000D03*
X202550000Y-94475000D03*
X202550000Y-93675000D03*
X202550000Y-92875000D03*
X202550000Y-92075000D03*
X202550000Y-91275000D03*
X202550000Y-90475000D03*
X202550000Y-89675000D03*
X202550000Y-88875000D03*
X202550000Y-88075000D03*
D12*
G36*
X189190191Y-83707303D02*
G01*
X189211426Y-83710453D01*
X189232250Y-83715669D01*
X189252462Y-83722901D01*
X189271868Y-83732080D01*
X189290281Y-83743116D01*
X189307524Y-83755904D01*
X189323430Y-83770320D01*
X189337846Y-83786226D01*
X189350634Y-83803469D01*
X189361670Y-83821882D01*
X189370849Y-83841288D01*
X189378081Y-83861500D01*
X189383297Y-83882324D01*
X189386447Y-83903559D01*
X189387500Y-83925000D01*
X189387500Y-84362500D01*
X189386447Y-84383941D01*
X189383297Y-84405176D01*
X189378081Y-84426000D01*
X189370849Y-84446212D01*
X189361670Y-84465618D01*
X189350634Y-84484031D01*
X189337846Y-84501274D01*
X189323430Y-84517180D01*
X189307524Y-84531596D01*
X189290281Y-84544384D01*
X189271868Y-84555420D01*
X189252462Y-84564599D01*
X189232250Y-84571831D01*
X189211426Y-84577047D01*
X189190191Y-84580197D01*
X189168750Y-84581250D01*
X188656250Y-84581250D01*
X188634809Y-84580197D01*
X188613574Y-84577047D01*
X188592750Y-84571831D01*
X188572538Y-84564599D01*
X188553132Y-84555420D01*
X188534719Y-84544384D01*
X188517476Y-84531596D01*
X188501570Y-84517180D01*
X188487154Y-84501274D01*
X188474366Y-84484031D01*
X188463330Y-84465618D01*
X188454151Y-84446212D01*
X188446919Y-84426000D01*
X188441703Y-84405176D01*
X188438553Y-84383941D01*
X188437500Y-84362500D01*
X188437500Y-83925000D01*
X188438553Y-83903559D01*
X188441703Y-83882324D01*
X188446919Y-83861500D01*
X188454151Y-83841288D01*
X188463330Y-83821882D01*
X188474366Y-83803469D01*
X188487154Y-83786226D01*
X188501570Y-83770320D01*
X188517476Y-83755904D01*
X188534719Y-83743116D01*
X188553132Y-83732080D01*
X188572538Y-83722901D01*
X188592750Y-83715669D01*
X188613574Y-83710453D01*
X188634809Y-83707303D01*
X188656250Y-83706250D01*
X189168750Y-83706250D01*
X189190191Y-83707303D01*
X189190191Y-83707303D01*
G37*
D13*
X188912500Y-84143750D03*
D12*
G36*
X189190191Y-85282303D02*
G01*
X189211426Y-85285453D01*
X189232250Y-85290669D01*
X189252462Y-85297901D01*
X189271868Y-85307080D01*
X189290281Y-85318116D01*
X189307524Y-85330904D01*
X189323430Y-85345320D01*
X189337846Y-85361226D01*
X189350634Y-85378469D01*
X189361670Y-85396882D01*
X189370849Y-85416288D01*
X189378081Y-85436500D01*
X189383297Y-85457324D01*
X189386447Y-85478559D01*
X189387500Y-85500000D01*
X189387500Y-85937500D01*
X189386447Y-85958941D01*
X189383297Y-85980176D01*
X189378081Y-86001000D01*
X189370849Y-86021212D01*
X189361670Y-86040618D01*
X189350634Y-86059031D01*
X189337846Y-86076274D01*
X189323430Y-86092180D01*
X189307524Y-86106596D01*
X189290281Y-86119384D01*
X189271868Y-86130420D01*
X189252462Y-86139599D01*
X189232250Y-86146831D01*
X189211426Y-86152047D01*
X189190191Y-86155197D01*
X189168750Y-86156250D01*
X188656250Y-86156250D01*
X188634809Y-86155197D01*
X188613574Y-86152047D01*
X188592750Y-86146831D01*
X188572538Y-86139599D01*
X188553132Y-86130420D01*
X188534719Y-86119384D01*
X188517476Y-86106596D01*
X188501570Y-86092180D01*
X188487154Y-86076274D01*
X188474366Y-86059031D01*
X188463330Y-86040618D01*
X188454151Y-86021212D01*
X188446919Y-86001000D01*
X188441703Y-85980176D01*
X188438553Y-85958941D01*
X188437500Y-85937500D01*
X188437500Y-85500000D01*
X188438553Y-85478559D01*
X188441703Y-85457324D01*
X188446919Y-85436500D01*
X188454151Y-85416288D01*
X188463330Y-85396882D01*
X188474366Y-85378469D01*
X188487154Y-85361226D01*
X188501570Y-85345320D01*
X188517476Y-85330904D01*
X188534719Y-85318116D01*
X188553132Y-85307080D01*
X188572538Y-85297901D01*
X188592750Y-85290669D01*
X188613574Y-85285453D01*
X188634809Y-85282303D01*
X188656250Y-85281250D01*
X189168750Y-85281250D01*
X189190191Y-85282303D01*
X189190191Y-85282303D01*
G37*
D13*
X188912500Y-85718750D03*
D12*
G36*
X84383941Y-101126053D02*
G01*
X84405176Y-101129203D01*
X84426000Y-101134419D01*
X84446212Y-101141651D01*
X84465618Y-101150830D01*
X84484031Y-101161866D01*
X84501274Y-101174654D01*
X84517180Y-101189070D01*
X84531596Y-101204976D01*
X84544384Y-101222219D01*
X84555420Y-101240632D01*
X84564599Y-101260038D01*
X84571831Y-101280250D01*
X84577047Y-101301074D01*
X84580197Y-101322309D01*
X84581250Y-101343750D01*
X84581250Y-101856250D01*
X84580197Y-101877691D01*
X84577047Y-101898926D01*
X84571831Y-101919750D01*
X84564599Y-101939962D01*
X84555420Y-101959368D01*
X84544384Y-101977781D01*
X84531596Y-101995024D01*
X84517180Y-102010930D01*
X84501274Y-102025346D01*
X84484031Y-102038134D01*
X84465618Y-102049170D01*
X84446212Y-102058349D01*
X84426000Y-102065581D01*
X84405176Y-102070797D01*
X84383941Y-102073947D01*
X84362500Y-102075000D01*
X83925000Y-102075000D01*
X83903559Y-102073947D01*
X83882324Y-102070797D01*
X83861500Y-102065581D01*
X83841288Y-102058349D01*
X83821882Y-102049170D01*
X83803469Y-102038134D01*
X83786226Y-102025346D01*
X83770320Y-102010930D01*
X83755904Y-101995024D01*
X83743116Y-101977781D01*
X83732080Y-101959368D01*
X83722901Y-101939962D01*
X83715669Y-101919750D01*
X83710453Y-101898926D01*
X83707303Y-101877691D01*
X83706250Y-101856250D01*
X83706250Y-101343750D01*
X83707303Y-101322309D01*
X83710453Y-101301074D01*
X83715669Y-101280250D01*
X83722901Y-101260038D01*
X83732080Y-101240632D01*
X83743116Y-101222219D01*
X83755904Y-101204976D01*
X83770320Y-101189070D01*
X83786226Y-101174654D01*
X83803469Y-101161866D01*
X83821882Y-101150830D01*
X83841288Y-101141651D01*
X83861500Y-101134419D01*
X83882324Y-101129203D01*
X83903559Y-101126053D01*
X83925000Y-101125000D01*
X84362500Y-101125000D01*
X84383941Y-101126053D01*
X84383941Y-101126053D01*
G37*
D13*
X84143750Y-101600000D03*
D12*
G36*
X85958941Y-101126053D02*
G01*
X85980176Y-101129203D01*
X86001000Y-101134419D01*
X86021212Y-101141651D01*
X86040618Y-101150830D01*
X86059031Y-101161866D01*
X86076274Y-101174654D01*
X86092180Y-101189070D01*
X86106596Y-101204976D01*
X86119384Y-101222219D01*
X86130420Y-101240632D01*
X86139599Y-101260038D01*
X86146831Y-101280250D01*
X86152047Y-101301074D01*
X86155197Y-101322309D01*
X86156250Y-101343750D01*
X86156250Y-101856250D01*
X86155197Y-101877691D01*
X86152047Y-101898926D01*
X86146831Y-101919750D01*
X86139599Y-101939962D01*
X86130420Y-101959368D01*
X86119384Y-101977781D01*
X86106596Y-101995024D01*
X86092180Y-102010930D01*
X86076274Y-102025346D01*
X86059031Y-102038134D01*
X86040618Y-102049170D01*
X86021212Y-102058349D01*
X86001000Y-102065581D01*
X85980176Y-102070797D01*
X85958941Y-102073947D01*
X85937500Y-102075000D01*
X85500000Y-102075000D01*
X85478559Y-102073947D01*
X85457324Y-102070797D01*
X85436500Y-102065581D01*
X85416288Y-102058349D01*
X85396882Y-102049170D01*
X85378469Y-102038134D01*
X85361226Y-102025346D01*
X85345320Y-102010930D01*
X85330904Y-101995024D01*
X85318116Y-101977781D01*
X85307080Y-101959368D01*
X85297901Y-101939962D01*
X85290669Y-101919750D01*
X85285453Y-101898926D01*
X85282303Y-101877691D01*
X85281250Y-101856250D01*
X85281250Y-101343750D01*
X85282303Y-101322309D01*
X85285453Y-101301074D01*
X85290669Y-101280250D01*
X85297901Y-101260038D01*
X85307080Y-101240632D01*
X85318116Y-101222219D01*
X85330904Y-101204976D01*
X85345320Y-101189070D01*
X85361226Y-101174654D01*
X85378469Y-101161866D01*
X85396882Y-101150830D01*
X85416288Y-101141651D01*
X85436500Y-101134419D01*
X85457324Y-101129203D01*
X85478559Y-101126053D01*
X85500000Y-101125000D01*
X85937500Y-101125000D01*
X85958941Y-101126053D01*
X85958941Y-101126053D01*
G37*
D13*
X85718750Y-101600000D03*
D10*
X91250000Y-102537500D03*
X92050000Y-102537500D03*
X92850000Y-102537500D03*
X93650000Y-102537500D03*
X94450000Y-102537500D03*
X95250000Y-102537500D03*
X96050000Y-102537500D03*
X96850000Y-102537500D03*
X97650000Y-102537500D03*
X98450000Y-102537500D03*
X99250000Y-102537500D03*
D11*
X100950000Y-100837500D03*
X100950000Y-100037500D03*
X100950000Y-99237500D03*
X100950000Y-98437500D03*
X100950000Y-97637500D03*
X100950000Y-96837500D03*
X100950000Y-96037500D03*
X100950000Y-95237500D03*
X100950000Y-94437500D03*
X100950000Y-93637500D03*
X100950000Y-92837500D03*
D10*
X99250000Y-91137500D03*
X98450000Y-91137500D03*
X97650000Y-91137500D03*
X96850000Y-91137500D03*
X96050000Y-91137500D03*
X95250000Y-91137500D03*
X94450000Y-91137500D03*
X93650000Y-91137500D03*
X92850000Y-91137500D03*
X92050000Y-91137500D03*
X91250000Y-91137500D03*
D11*
X89550000Y-92837500D03*
X89550000Y-93637500D03*
X89550000Y-94437500D03*
X89550000Y-95237500D03*
X89550000Y-96037500D03*
X89550000Y-96837500D03*
X89550000Y-97637500D03*
X89550000Y-98437500D03*
X89550000Y-99237500D03*
X89550000Y-100037500D03*
X89550000Y-100837500D03*
D14*
X196131000Y-104037500D03*
X198331000Y-104037500D03*
X198331000Y-102337500D03*
X196131000Y-102337500D03*
X95969000Y-84875000D03*
X93769000Y-84875000D03*
X93769000Y-86575000D03*
X95969000Y-86575000D03*
D15*
X252918252Y-37677661D03*
D12*
G36*
X252496915Y-38339552D02*
G01*
X252748705Y-36911581D01*
X253339589Y-37015770D01*
X253087799Y-38443741D01*
X252496915Y-38339552D01*
X252496915Y-38339552D01*
G37*
D15*
X246566242Y-36557630D03*
D12*
G36*
X246144905Y-37219521D02*
G01*
X246396695Y-35791550D01*
X246987579Y-35895739D01*
X246735789Y-37323710D01*
X246144905Y-37219521D01*
X246144905Y-37219521D01*
G37*
D15*
X252155026Y-37543084D03*
D12*
G36*
X251733689Y-38204975D02*
G01*
X251985479Y-36777004D01*
X252576363Y-36881193D01*
X252324573Y-38309164D01*
X251733689Y-38204975D01*
X251733689Y-38204975D01*
G37*
D15*
X247329468Y-36692208D03*
D12*
G36*
X246908131Y-37354099D02*
G01*
X247159921Y-35926128D01*
X247750805Y-36030317D01*
X247499015Y-37458288D01*
X246908131Y-37354099D01*
X246908131Y-37354099D01*
G37*
D16*
X248018834Y-36813761D03*
D12*
G36*
X247745218Y-37501699D02*
G01*
X247997008Y-36073728D01*
X248292450Y-36125823D01*
X248040660Y-37553794D01*
X247745218Y-37501699D01*
X247745218Y-37501699D01*
G37*
D16*
X251465661Y-37421530D03*
D12*
G36*
X251192045Y-38109468D02*
G01*
X251443835Y-36681497D01*
X251739277Y-36733592D01*
X251487487Y-38161563D01*
X251192045Y-38109468D01*
X251192045Y-38109468D01*
G37*
D16*
X248511238Y-36900585D03*
D12*
G36*
X248237622Y-37588523D02*
G01*
X248489412Y-36160552D01*
X248784854Y-36212647D01*
X248533064Y-37640618D01*
X248237622Y-37588523D01*
X248237622Y-37588523D01*
G37*
D16*
X250973257Y-37334706D03*
D12*
G36*
X250699641Y-38022644D02*
G01*
X250951431Y-36594673D01*
X251246873Y-36646768D01*
X250995083Y-38074739D01*
X250699641Y-38022644D01*
X250699641Y-38022644D01*
G37*
D16*
X249003641Y-36987410D03*
D12*
G36*
X248730025Y-37675348D02*
G01*
X248981815Y-36247377D01*
X249277257Y-36299472D01*
X249025467Y-37727443D01*
X248730025Y-37675348D01*
X248730025Y-37675348D01*
G37*
D16*
X250480853Y-37247882D03*
D12*
G36*
X250207237Y-37935820D02*
G01*
X250459027Y-36507849D01*
X250754469Y-36559944D01*
X250502679Y-37987915D01*
X250207237Y-37935820D01*
X250207237Y-37935820D01*
G37*
D16*
X249988449Y-37161058D03*
D12*
G36*
X249714833Y-37848996D02*
G01*
X249966623Y-36421025D01*
X250262065Y-36473120D01*
X250010275Y-37901091D01*
X249714833Y-37848996D01*
X249714833Y-37848996D01*
G37*
D16*
X249496045Y-37074234D03*
D12*
G36*
X249222429Y-37762172D02*
G01*
X249474219Y-36334201D01*
X249769661Y-36386296D01*
X249517871Y-37814267D01*
X249222429Y-37762172D01*
X249222429Y-37762172D01*
G37*
D15*
X46327508Y-36557630D03*
D12*
G36*
X46157961Y-37323710D02*
G01*
X45906171Y-35895739D01*
X46497055Y-35791550D01*
X46748845Y-37219521D01*
X46157961Y-37323710D01*
X46157961Y-37323710D01*
G37*
D15*
X39975498Y-37677661D03*
D12*
G36*
X39805951Y-38443741D02*
G01*
X39554161Y-37015770D01*
X40145045Y-36911581D01*
X40396835Y-38339552D01*
X39805951Y-38443741D01*
X39805951Y-38443741D01*
G37*
D15*
X45564282Y-36692208D03*
D12*
G36*
X45394735Y-37458288D02*
G01*
X45142945Y-36030317D01*
X45733829Y-35926128D01*
X45985619Y-37354099D01*
X45394735Y-37458288D01*
X45394735Y-37458288D01*
G37*
D15*
X40738724Y-37543084D03*
D12*
G36*
X40569177Y-38309164D02*
G01*
X40317387Y-36881193D01*
X40908271Y-36777004D01*
X41160061Y-38204975D01*
X40569177Y-38309164D01*
X40569177Y-38309164D01*
G37*
D16*
X41428089Y-37421530D03*
D12*
G36*
X41406263Y-38161563D02*
G01*
X41154473Y-36733592D01*
X41449915Y-36681497D01*
X41701705Y-38109468D01*
X41406263Y-38161563D01*
X41406263Y-38161563D01*
G37*
D16*
X44874916Y-36813761D03*
D12*
G36*
X44853090Y-37553794D02*
G01*
X44601300Y-36125823D01*
X44896742Y-36073728D01*
X45148532Y-37501699D01*
X44853090Y-37553794D01*
X44853090Y-37553794D01*
G37*
D16*
X41920493Y-37334706D03*
D12*
G36*
X41898667Y-38074739D02*
G01*
X41646877Y-36646768D01*
X41942319Y-36594673D01*
X42194109Y-38022644D01*
X41898667Y-38074739D01*
X41898667Y-38074739D01*
G37*
D16*
X44382512Y-36900585D03*
D12*
G36*
X44360686Y-37640618D02*
G01*
X44108896Y-36212647D01*
X44404338Y-36160552D01*
X44656128Y-37588523D01*
X44360686Y-37640618D01*
X44360686Y-37640618D01*
G37*
D16*
X42412897Y-37247882D03*
D12*
G36*
X42391071Y-37987915D02*
G01*
X42139281Y-36559944D01*
X42434723Y-36507849D01*
X42686513Y-37935820D01*
X42391071Y-37987915D01*
X42391071Y-37987915D01*
G37*
D16*
X43890109Y-36987410D03*
D12*
G36*
X43868283Y-37727443D02*
G01*
X43616493Y-36299472D01*
X43911935Y-36247377D01*
X44163725Y-37675348D01*
X43868283Y-37727443D01*
X43868283Y-37727443D01*
G37*
D16*
X43397705Y-37074234D03*
D12*
G36*
X43375879Y-37814267D02*
G01*
X43124089Y-36386296D01*
X43419531Y-36334201D01*
X43671321Y-37762172D01*
X43375879Y-37814267D01*
X43375879Y-37814267D01*
G37*
D16*
X42905301Y-37161058D03*
D12*
G36*
X42883475Y-37901091D02*
G01*
X42631685Y-36473120D01*
X42927127Y-36421025D01*
X43178917Y-37848996D01*
X42883475Y-37901091D01*
X42883475Y-37901091D01*
G37*
D17*
X241506250Y-47668750D03*
D18*
X239506250Y-47468750D03*
X241506250Y-49368750D03*
X239506250Y-49368750D03*
D17*
X53387500Y-47668750D03*
D18*
X51387500Y-47468750D03*
X53387500Y-49368750D03*
X51387500Y-49368750D03*
D19*
X168350000Y-94193750D03*
X174550000Y-97893750D03*
X168350000Y-97893750D03*
X174550000Y-94193750D03*
X124543750Y-97893750D03*
X118343750Y-94193750D03*
X124543750Y-94193750D03*
X118343750Y-97893750D03*
D12*
G36*
X189146441Y-104301053D02*
G01*
X189167676Y-104304203D01*
X189188500Y-104309419D01*
X189208712Y-104316651D01*
X189228118Y-104325830D01*
X189246531Y-104336866D01*
X189263774Y-104349654D01*
X189279680Y-104364070D01*
X189294096Y-104379976D01*
X189306884Y-104397219D01*
X189317920Y-104415632D01*
X189327099Y-104435038D01*
X189334331Y-104455250D01*
X189339547Y-104476074D01*
X189342697Y-104497309D01*
X189343750Y-104518750D01*
X189343750Y-105031250D01*
X189342697Y-105052691D01*
X189339547Y-105073926D01*
X189334331Y-105094750D01*
X189327099Y-105114962D01*
X189317920Y-105134368D01*
X189306884Y-105152781D01*
X189294096Y-105170024D01*
X189279680Y-105185930D01*
X189263774Y-105200346D01*
X189246531Y-105213134D01*
X189228118Y-105224170D01*
X189208712Y-105233349D01*
X189188500Y-105240581D01*
X189167676Y-105245797D01*
X189146441Y-105248947D01*
X189125000Y-105250000D01*
X188687500Y-105250000D01*
X188666059Y-105248947D01*
X188644824Y-105245797D01*
X188624000Y-105240581D01*
X188603788Y-105233349D01*
X188584382Y-105224170D01*
X188565969Y-105213134D01*
X188548726Y-105200346D01*
X188532820Y-105185930D01*
X188518404Y-105170024D01*
X188505616Y-105152781D01*
X188494580Y-105134368D01*
X188485401Y-105114962D01*
X188478169Y-105094750D01*
X188472953Y-105073926D01*
X188469803Y-105052691D01*
X188468750Y-105031250D01*
X188468750Y-104518750D01*
X188469803Y-104497309D01*
X188472953Y-104476074D01*
X188478169Y-104455250D01*
X188485401Y-104435038D01*
X188494580Y-104415632D01*
X188505616Y-104397219D01*
X188518404Y-104379976D01*
X188532820Y-104364070D01*
X188548726Y-104349654D01*
X188565969Y-104336866D01*
X188584382Y-104325830D01*
X188603788Y-104316651D01*
X188624000Y-104309419D01*
X188644824Y-104304203D01*
X188666059Y-104301053D01*
X188687500Y-104300000D01*
X189125000Y-104300000D01*
X189146441Y-104301053D01*
X189146441Y-104301053D01*
G37*
D13*
X188906250Y-104775000D03*
D12*
G36*
X187571441Y-104301053D02*
G01*
X187592676Y-104304203D01*
X187613500Y-104309419D01*
X187633712Y-104316651D01*
X187653118Y-104325830D01*
X187671531Y-104336866D01*
X187688774Y-104349654D01*
X187704680Y-104364070D01*
X187719096Y-104379976D01*
X187731884Y-104397219D01*
X187742920Y-104415632D01*
X187752099Y-104435038D01*
X187759331Y-104455250D01*
X187764547Y-104476074D01*
X187767697Y-104497309D01*
X187768750Y-104518750D01*
X187768750Y-105031250D01*
X187767697Y-105052691D01*
X187764547Y-105073926D01*
X187759331Y-105094750D01*
X187752099Y-105114962D01*
X187742920Y-105134368D01*
X187731884Y-105152781D01*
X187719096Y-105170024D01*
X187704680Y-105185930D01*
X187688774Y-105200346D01*
X187671531Y-105213134D01*
X187653118Y-105224170D01*
X187633712Y-105233349D01*
X187613500Y-105240581D01*
X187592676Y-105245797D01*
X187571441Y-105248947D01*
X187550000Y-105250000D01*
X187112500Y-105250000D01*
X187091059Y-105248947D01*
X187069824Y-105245797D01*
X187049000Y-105240581D01*
X187028788Y-105233349D01*
X187009382Y-105224170D01*
X186990969Y-105213134D01*
X186973726Y-105200346D01*
X186957820Y-105185930D01*
X186943404Y-105170024D01*
X186930616Y-105152781D01*
X186919580Y-105134368D01*
X186910401Y-105114962D01*
X186903169Y-105094750D01*
X186897953Y-105073926D01*
X186894803Y-105052691D01*
X186893750Y-105031250D01*
X186893750Y-104518750D01*
X186894803Y-104497309D01*
X186897953Y-104476074D01*
X186903169Y-104455250D01*
X186910401Y-104435038D01*
X186919580Y-104415632D01*
X186930616Y-104397219D01*
X186943404Y-104379976D01*
X186957820Y-104364070D01*
X186973726Y-104349654D01*
X186990969Y-104336866D01*
X187009382Y-104325830D01*
X187028788Y-104316651D01*
X187049000Y-104309419D01*
X187069824Y-104304203D01*
X187091059Y-104301053D01*
X187112500Y-104300000D01*
X187550000Y-104300000D01*
X187571441Y-104301053D01*
X187571441Y-104301053D01*
G37*
D13*
X187331250Y-104775000D03*
D12*
G36*
X102640191Y-88426053D02*
G01*
X102661426Y-88429203D01*
X102682250Y-88434419D01*
X102702462Y-88441651D01*
X102721868Y-88450830D01*
X102740281Y-88461866D01*
X102757524Y-88474654D01*
X102773430Y-88489070D01*
X102787846Y-88504976D01*
X102800634Y-88522219D01*
X102811670Y-88540632D01*
X102820849Y-88560038D01*
X102828081Y-88580250D01*
X102833297Y-88601074D01*
X102836447Y-88622309D01*
X102837500Y-88643750D01*
X102837500Y-89156250D01*
X102836447Y-89177691D01*
X102833297Y-89198926D01*
X102828081Y-89219750D01*
X102820849Y-89239962D01*
X102811670Y-89259368D01*
X102800634Y-89277781D01*
X102787846Y-89295024D01*
X102773430Y-89310930D01*
X102757524Y-89325346D01*
X102740281Y-89338134D01*
X102721868Y-89349170D01*
X102702462Y-89358349D01*
X102682250Y-89365581D01*
X102661426Y-89370797D01*
X102640191Y-89373947D01*
X102618750Y-89375000D01*
X102181250Y-89375000D01*
X102159809Y-89373947D01*
X102138574Y-89370797D01*
X102117750Y-89365581D01*
X102097538Y-89358349D01*
X102078132Y-89349170D01*
X102059719Y-89338134D01*
X102042476Y-89325346D01*
X102026570Y-89310930D01*
X102012154Y-89295024D01*
X101999366Y-89277781D01*
X101988330Y-89259368D01*
X101979151Y-89239962D01*
X101971919Y-89219750D01*
X101966703Y-89198926D01*
X101963553Y-89177691D01*
X101962500Y-89156250D01*
X101962500Y-88643750D01*
X101963553Y-88622309D01*
X101966703Y-88601074D01*
X101971919Y-88580250D01*
X101979151Y-88560038D01*
X101988330Y-88540632D01*
X101999366Y-88522219D01*
X102012154Y-88504976D01*
X102026570Y-88489070D01*
X102042476Y-88474654D01*
X102059719Y-88461866D01*
X102078132Y-88450830D01*
X102097538Y-88441651D01*
X102117750Y-88434419D01*
X102138574Y-88429203D01*
X102159809Y-88426053D01*
X102181250Y-88425000D01*
X102618750Y-88425000D01*
X102640191Y-88426053D01*
X102640191Y-88426053D01*
G37*
D13*
X102400000Y-88900000D03*
D12*
G36*
X104215191Y-88426053D02*
G01*
X104236426Y-88429203D01*
X104257250Y-88434419D01*
X104277462Y-88441651D01*
X104296868Y-88450830D01*
X104315281Y-88461866D01*
X104332524Y-88474654D01*
X104348430Y-88489070D01*
X104362846Y-88504976D01*
X104375634Y-88522219D01*
X104386670Y-88540632D01*
X104395849Y-88560038D01*
X104403081Y-88580250D01*
X104408297Y-88601074D01*
X104411447Y-88622309D01*
X104412500Y-88643750D01*
X104412500Y-89156250D01*
X104411447Y-89177691D01*
X104408297Y-89198926D01*
X104403081Y-89219750D01*
X104395849Y-89239962D01*
X104386670Y-89259368D01*
X104375634Y-89277781D01*
X104362846Y-89295024D01*
X104348430Y-89310930D01*
X104332524Y-89325346D01*
X104315281Y-89338134D01*
X104296868Y-89349170D01*
X104277462Y-89358349D01*
X104257250Y-89365581D01*
X104236426Y-89370797D01*
X104215191Y-89373947D01*
X104193750Y-89375000D01*
X103756250Y-89375000D01*
X103734809Y-89373947D01*
X103713574Y-89370797D01*
X103692750Y-89365581D01*
X103672538Y-89358349D01*
X103653132Y-89349170D01*
X103634719Y-89338134D01*
X103617476Y-89325346D01*
X103601570Y-89310930D01*
X103587154Y-89295024D01*
X103574366Y-89277781D01*
X103563330Y-89259368D01*
X103554151Y-89239962D01*
X103546919Y-89219750D01*
X103541703Y-89198926D01*
X103538553Y-89177691D01*
X103537500Y-89156250D01*
X103537500Y-88643750D01*
X103538553Y-88622309D01*
X103541703Y-88601074D01*
X103546919Y-88580250D01*
X103554151Y-88560038D01*
X103563330Y-88540632D01*
X103574366Y-88522219D01*
X103587154Y-88504976D01*
X103601570Y-88489070D01*
X103617476Y-88474654D01*
X103634719Y-88461866D01*
X103653132Y-88450830D01*
X103672538Y-88441651D01*
X103692750Y-88434419D01*
X103713574Y-88429203D01*
X103734809Y-88426053D01*
X103756250Y-88425000D01*
X104193750Y-88425000D01*
X104215191Y-88426053D01*
X104215191Y-88426053D01*
G37*
D13*
X103975000Y-88900000D03*
D12*
G36*
X260583941Y-43976053D02*
G01*
X260605176Y-43979203D01*
X260626000Y-43984419D01*
X260646212Y-43991651D01*
X260665618Y-44000830D01*
X260684031Y-44011866D01*
X260701274Y-44024654D01*
X260717180Y-44039070D01*
X260731596Y-44054976D01*
X260744384Y-44072219D01*
X260755420Y-44090632D01*
X260764599Y-44110038D01*
X260771831Y-44130250D01*
X260777047Y-44151074D01*
X260780197Y-44172309D01*
X260781250Y-44193750D01*
X260781250Y-44706250D01*
X260780197Y-44727691D01*
X260777047Y-44748926D01*
X260771831Y-44769750D01*
X260764599Y-44789962D01*
X260755420Y-44809368D01*
X260744384Y-44827781D01*
X260731596Y-44845024D01*
X260717180Y-44860930D01*
X260701274Y-44875346D01*
X260684031Y-44888134D01*
X260665618Y-44899170D01*
X260646212Y-44908349D01*
X260626000Y-44915581D01*
X260605176Y-44920797D01*
X260583941Y-44923947D01*
X260562500Y-44925000D01*
X260125000Y-44925000D01*
X260103559Y-44923947D01*
X260082324Y-44920797D01*
X260061500Y-44915581D01*
X260041288Y-44908349D01*
X260021882Y-44899170D01*
X260003469Y-44888134D01*
X259986226Y-44875346D01*
X259970320Y-44860930D01*
X259955904Y-44845024D01*
X259943116Y-44827781D01*
X259932080Y-44809368D01*
X259922901Y-44789962D01*
X259915669Y-44769750D01*
X259910453Y-44748926D01*
X259907303Y-44727691D01*
X259906250Y-44706250D01*
X259906250Y-44193750D01*
X259907303Y-44172309D01*
X259910453Y-44151074D01*
X259915669Y-44130250D01*
X259922901Y-44110038D01*
X259932080Y-44090632D01*
X259943116Y-44072219D01*
X259955904Y-44054976D01*
X259970320Y-44039070D01*
X259986226Y-44024654D01*
X260003469Y-44011866D01*
X260021882Y-44000830D01*
X260041288Y-43991651D01*
X260061500Y-43984419D01*
X260082324Y-43979203D01*
X260103559Y-43976053D01*
X260125000Y-43975000D01*
X260562500Y-43975000D01*
X260583941Y-43976053D01*
X260583941Y-43976053D01*
G37*
D13*
X260343750Y-44450000D03*
D12*
G36*
X259008941Y-43976053D02*
G01*
X259030176Y-43979203D01*
X259051000Y-43984419D01*
X259071212Y-43991651D01*
X259090618Y-44000830D01*
X259109031Y-44011866D01*
X259126274Y-44024654D01*
X259142180Y-44039070D01*
X259156596Y-44054976D01*
X259169384Y-44072219D01*
X259180420Y-44090632D01*
X259189599Y-44110038D01*
X259196831Y-44130250D01*
X259202047Y-44151074D01*
X259205197Y-44172309D01*
X259206250Y-44193750D01*
X259206250Y-44706250D01*
X259205197Y-44727691D01*
X259202047Y-44748926D01*
X259196831Y-44769750D01*
X259189599Y-44789962D01*
X259180420Y-44809368D01*
X259169384Y-44827781D01*
X259156596Y-44845024D01*
X259142180Y-44860930D01*
X259126274Y-44875346D01*
X259109031Y-44888134D01*
X259090618Y-44899170D01*
X259071212Y-44908349D01*
X259051000Y-44915581D01*
X259030176Y-44920797D01*
X259008941Y-44923947D01*
X258987500Y-44925000D01*
X258550000Y-44925000D01*
X258528559Y-44923947D01*
X258507324Y-44920797D01*
X258486500Y-44915581D01*
X258466288Y-44908349D01*
X258446882Y-44899170D01*
X258428469Y-44888134D01*
X258411226Y-44875346D01*
X258395320Y-44860930D01*
X258380904Y-44845024D01*
X258368116Y-44827781D01*
X258357080Y-44809368D01*
X258347901Y-44789962D01*
X258340669Y-44769750D01*
X258335453Y-44748926D01*
X258332303Y-44727691D01*
X258331250Y-44706250D01*
X258331250Y-44193750D01*
X258332303Y-44172309D01*
X258335453Y-44151074D01*
X258340669Y-44130250D01*
X258347901Y-44110038D01*
X258357080Y-44090632D01*
X258368116Y-44072219D01*
X258380904Y-44054976D01*
X258395320Y-44039070D01*
X258411226Y-44024654D01*
X258428469Y-44011866D01*
X258446882Y-44000830D01*
X258466288Y-43991651D01*
X258486500Y-43984419D01*
X258507324Y-43979203D01*
X258528559Y-43976053D01*
X258550000Y-43975000D01*
X258987500Y-43975000D01*
X259008941Y-43976053D01*
X259008941Y-43976053D01*
G37*
D13*
X258768750Y-44450000D03*
D12*
G36*
X260583941Y-41594803D02*
G01*
X260605176Y-41597953D01*
X260626000Y-41603169D01*
X260646212Y-41610401D01*
X260665618Y-41619580D01*
X260684031Y-41630616D01*
X260701274Y-41643404D01*
X260717180Y-41657820D01*
X260731596Y-41673726D01*
X260744384Y-41690969D01*
X260755420Y-41709382D01*
X260764599Y-41728788D01*
X260771831Y-41749000D01*
X260777047Y-41769824D01*
X260780197Y-41791059D01*
X260781250Y-41812500D01*
X260781250Y-42325000D01*
X260780197Y-42346441D01*
X260777047Y-42367676D01*
X260771831Y-42388500D01*
X260764599Y-42408712D01*
X260755420Y-42428118D01*
X260744384Y-42446531D01*
X260731596Y-42463774D01*
X260717180Y-42479680D01*
X260701274Y-42494096D01*
X260684031Y-42506884D01*
X260665618Y-42517920D01*
X260646212Y-42527099D01*
X260626000Y-42534331D01*
X260605176Y-42539547D01*
X260583941Y-42542697D01*
X260562500Y-42543750D01*
X260125000Y-42543750D01*
X260103559Y-42542697D01*
X260082324Y-42539547D01*
X260061500Y-42534331D01*
X260041288Y-42527099D01*
X260021882Y-42517920D01*
X260003469Y-42506884D01*
X259986226Y-42494096D01*
X259970320Y-42479680D01*
X259955904Y-42463774D01*
X259943116Y-42446531D01*
X259932080Y-42428118D01*
X259922901Y-42408712D01*
X259915669Y-42388500D01*
X259910453Y-42367676D01*
X259907303Y-42346441D01*
X259906250Y-42325000D01*
X259906250Y-41812500D01*
X259907303Y-41791059D01*
X259910453Y-41769824D01*
X259915669Y-41749000D01*
X259922901Y-41728788D01*
X259932080Y-41709382D01*
X259943116Y-41690969D01*
X259955904Y-41673726D01*
X259970320Y-41657820D01*
X259986226Y-41643404D01*
X260003469Y-41630616D01*
X260021882Y-41619580D01*
X260041288Y-41610401D01*
X260061500Y-41603169D01*
X260082324Y-41597953D01*
X260103559Y-41594803D01*
X260125000Y-41593750D01*
X260562500Y-41593750D01*
X260583941Y-41594803D01*
X260583941Y-41594803D01*
G37*
D13*
X260343750Y-42068750D03*
D12*
G36*
X259008941Y-41594803D02*
G01*
X259030176Y-41597953D01*
X259051000Y-41603169D01*
X259071212Y-41610401D01*
X259090618Y-41619580D01*
X259109031Y-41630616D01*
X259126274Y-41643404D01*
X259142180Y-41657820D01*
X259156596Y-41673726D01*
X259169384Y-41690969D01*
X259180420Y-41709382D01*
X259189599Y-41728788D01*
X259196831Y-41749000D01*
X259202047Y-41769824D01*
X259205197Y-41791059D01*
X259206250Y-41812500D01*
X259206250Y-42325000D01*
X259205197Y-42346441D01*
X259202047Y-42367676D01*
X259196831Y-42388500D01*
X259189599Y-42408712D01*
X259180420Y-42428118D01*
X259169384Y-42446531D01*
X259156596Y-42463774D01*
X259142180Y-42479680D01*
X259126274Y-42494096D01*
X259109031Y-42506884D01*
X259090618Y-42517920D01*
X259071212Y-42527099D01*
X259051000Y-42534331D01*
X259030176Y-42539547D01*
X259008941Y-42542697D01*
X258987500Y-42543750D01*
X258550000Y-42543750D01*
X258528559Y-42542697D01*
X258507324Y-42539547D01*
X258486500Y-42534331D01*
X258466288Y-42527099D01*
X258446882Y-42517920D01*
X258428469Y-42506884D01*
X258411226Y-42494096D01*
X258395320Y-42479680D01*
X258380904Y-42463774D01*
X258368116Y-42446531D01*
X258357080Y-42428118D01*
X258347901Y-42408712D01*
X258340669Y-42388500D01*
X258335453Y-42367676D01*
X258332303Y-42346441D01*
X258331250Y-42325000D01*
X258331250Y-41812500D01*
X258332303Y-41791059D01*
X258335453Y-41769824D01*
X258340669Y-41749000D01*
X258347901Y-41728788D01*
X258357080Y-41709382D01*
X258368116Y-41690969D01*
X258380904Y-41673726D01*
X258395320Y-41657820D01*
X258411226Y-41643404D01*
X258428469Y-41630616D01*
X258446882Y-41619580D01*
X258466288Y-41610401D01*
X258486500Y-41603169D01*
X258507324Y-41597953D01*
X258528559Y-41594803D01*
X258550000Y-41593750D01*
X258987500Y-41593750D01*
X259008941Y-41594803D01*
X259008941Y-41594803D01*
G37*
D13*
X258768750Y-42068750D03*
D12*
G36*
X222483941Y-86838553D02*
G01*
X222505176Y-86841703D01*
X222526000Y-86846919D01*
X222546212Y-86854151D01*
X222565618Y-86863330D01*
X222584031Y-86874366D01*
X222601274Y-86887154D01*
X222617180Y-86901570D01*
X222631596Y-86917476D01*
X222644384Y-86934719D01*
X222655420Y-86953132D01*
X222664599Y-86972538D01*
X222671831Y-86992750D01*
X222677047Y-87013574D01*
X222680197Y-87034809D01*
X222681250Y-87056250D01*
X222681250Y-87568750D01*
X222680197Y-87590191D01*
X222677047Y-87611426D01*
X222671831Y-87632250D01*
X222664599Y-87652462D01*
X222655420Y-87671868D01*
X222644384Y-87690281D01*
X222631596Y-87707524D01*
X222617180Y-87723430D01*
X222601274Y-87737846D01*
X222584031Y-87750634D01*
X222565618Y-87761670D01*
X222546212Y-87770849D01*
X222526000Y-87778081D01*
X222505176Y-87783297D01*
X222483941Y-87786447D01*
X222462500Y-87787500D01*
X222025000Y-87787500D01*
X222003559Y-87786447D01*
X221982324Y-87783297D01*
X221961500Y-87778081D01*
X221941288Y-87770849D01*
X221921882Y-87761670D01*
X221903469Y-87750634D01*
X221886226Y-87737846D01*
X221870320Y-87723430D01*
X221855904Y-87707524D01*
X221843116Y-87690281D01*
X221832080Y-87671868D01*
X221822901Y-87652462D01*
X221815669Y-87632250D01*
X221810453Y-87611426D01*
X221807303Y-87590191D01*
X221806250Y-87568750D01*
X221806250Y-87056250D01*
X221807303Y-87034809D01*
X221810453Y-87013574D01*
X221815669Y-86992750D01*
X221822901Y-86972538D01*
X221832080Y-86953132D01*
X221843116Y-86934719D01*
X221855904Y-86917476D01*
X221870320Y-86901570D01*
X221886226Y-86887154D01*
X221903469Y-86874366D01*
X221921882Y-86863330D01*
X221941288Y-86854151D01*
X221961500Y-86846919D01*
X221982324Y-86841703D01*
X222003559Y-86838553D01*
X222025000Y-86837500D01*
X222462500Y-86837500D01*
X222483941Y-86838553D01*
X222483941Y-86838553D01*
G37*
D13*
X222243750Y-87312500D03*
D12*
G36*
X220908941Y-86838553D02*
G01*
X220930176Y-86841703D01*
X220951000Y-86846919D01*
X220971212Y-86854151D01*
X220990618Y-86863330D01*
X221009031Y-86874366D01*
X221026274Y-86887154D01*
X221042180Y-86901570D01*
X221056596Y-86917476D01*
X221069384Y-86934719D01*
X221080420Y-86953132D01*
X221089599Y-86972538D01*
X221096831Y-86992750D01*
X221102047Y-87013574D01*
X221105197Y-87034809D01*
X221106250Y-87056250D01*
X221106250Y-87568750D01*
X221105197Y-87590191D01*
X221102047Y-87611426D01*
X221096831Y-87632250D01*
X221089599Y-87652462D01*
X221080420Y-87671868D01*
X221069384Y-87690281D01*
X221056596Y-87707524D01*
X221042180Y-87723430D01*
X221026274Y-87737846D01*
X221009031Y-87750634D01*
X220990618Y-87761670D01*
X220971212Y-87770849D01*
X220951000Y-87778081D01*
X220930176Y-87783297D01*
X220908941Y-87786447D01*
X220887500Y-87787500D01*
X220450000Y-87787500D01*
X220428559Y-87786447D01*
X220407324Y-87783297D01*
X220386500Y-87778081D01*
X220366288Y-87770849D01*
X220346882Y-87761670D01*
X220328469Y-87750634D01*
X220311226Y-87737846D01*
X220295320Y-87723430D01*
X220280904Y-87707524D01*
X220268116Y-87690281D01*
X220257080Y-87671868D01*
X220247901Y-87652462D01*
X220240669Y-87632250D01*
X220235453Y-87611426D01*
X220232303Y-87590191D01*
X220231250Y-87568750D01*
X220231250Y-87056250D01*
X220232303Y-87034809D01*
X220235453Y-87013574D01*
X220240669Y-86992750D01*
X220247901Y-86972538D01*
X220257080Y-86953132D01*
X220268116Y-86934719D01*
X220280904Y-86917476D01*
X220295320Y-86901570D01*
X220311226Y-86887154D01*
X220328469Y-86874366D01*
X220346882Y-86863330D01*
X220366288Y-86854151D01*
X220386500Y-86846919D01*
X220407324Y-86841703D01*
X220428559Y-86838553D01*
X220450000Y-86837500D01*
X220887500Y-86837500D01*
X220908941Y-86838553D01*
X220908941Y-86838553D01*
G37*
D13*
X220668750Y-87312500D03*
D12*
G36*
X222483941Y-89219803D02*
G01*
X222505176Y-89222953D01*
X222526000Y-89228169D01*
X222546212Y-89235401D01*
X222565618Y-89244580D01*
X222584031Y-89255616D01*
X222601274Y-89268404D01*
X222617180Y-89282820D01*
X222631596Y-89298726D01*
X222644384Y-89315969D01*
X222655420Y-89334382D01*
X222664599Y-89353788D01*
X222671831Y-89374000D01*
X222677047Y-89394824D01*
X222680197Y-89416059D01*
X222681250Y-89437500D01*
X222681250Y-89950000D01*
X222680197Y-89971441D01*
X222677047Y-89992676D01*
X222671831Y-90013500D01*
X222664599Y-90033712D01*
X222655420Y-90053118D01*
X222644384Y-90071531D01*
X222631596Y-90088774D01*
X222617180Y-90104680D01*
X222601274Y-90119096D01*
X222584031Y-90131884D01*
X222565618Y-90142920D01*
X222546212Y-90152099D01*
X222526000Y-90159331D01*
X222505176Y-90164547D01*
X222483941Y-90167697D01*
X222462500Y-90168750D01*
X222025000Y-90168750D01*
X222003559Y-90167697D01*
X221982324Y-90164547D01*
X221961500Y-90159331D01*
X221941288Y-90152099D01*
X221921882Y-90142920D01*
X221903469Y-90131884D01*
X221886226Y-90119096D01*
X221870320Y-90104680D01*
X221855904Y-90088774D01*
X221843116Y-90071531D01*
X221832080Y-90053118D01*
X221822901Y-90033712D01*
X221815669Y-90013500D01*
X221810453Y-89992676D01*
X221807303Y-89971441D01*
X221806250Y-89950000D01*
X221806250Y-89437500D01*
X221807303Y-89416059D01*
X221810453Y-89394824D01*
X221815669Y-89374000D01*
X221822901Y-89353788D01*
X221832080Y-89334382D01*
X221843116Y-89315969D01*
X221855904Y-89298726D01*
X221870320Y-89282820D01*
X221886226Y-89268404D01*
X221903469Y-89255616D01*
X221921882Y-89244580D01*
X221941288Y-89235401D01*
X221961500Y-89228169D01*
X221982324Y-89222953D01*
X222003559Y-89219803D01*
X222025000Y-89218750D01*
X222462500Y-89218750D01*
X222483941Y-89219803D01*
X222483941Y-89219803D01*
G37*
D13*
X222243750Y-89693750D03*
D12*
G36*
X220908941Y-89219803D02*
G01*
X220930176Y-89222953D01*
X220951000Y-89228169D01*
X220971212Y-89235401D01*
X220990618Y-89244580D01*
X221009031Y-89255616D01*
X221026274Y-89268404D01*
X221042180Y-89282820D01*
X221056596Y-89298726D01*
X221069384Y-89315969D01*
X221080420Y-89334382D01*
X221089599Y-89353788D01*
X221096831Y-89374000D01*
X221102047Y-89394824D01*
X221105197Y-89416059D01*
X221106250Y-89437500D01*
X221106250Y-89950000D01*
X221105197Y-89971441D01*
X221102047Y-89992676D01*
X221096831Y-90013500D01*
X221089599Y-90033712D01*
X221080420Y-90053118D01*
X221069384Y-90071531D01*
X221056596Y-90088774D01*
X221042180Y-90104680D01*
X221026274Y-90119096D01*
X221009031Y-90131884D01*
X220990618Y-90142920D01*
X220971212Y-90152099D01*
X220951000Y-90159331D01*
X220930176Y-90164547D01*
X220908941Y-90167697D01*
X220887500Y-90168750D01*
X220450000Y-90168750D01*
X220428559Y-90167697D01*
X220407324Y-90164547D01*
X220386500Y-90159331D01*
X220366288Y-90152099D01*
X220346882Y-90142920D01*
X220328469Y-90131884D01*
X220311226Y-90119096D01*
X220295320Y-90104680D01*
X220280904Y-90088774D01*
X220268116Y-90071531D01*
X220257080Y-90053118D01*
X220247901Y-90033712D01*
X220240669Y-90013500D01*
X220235453Y-89992676D01*
X220232303Y-89971441D01*
X220231250Y-89950000D01*
X220231250Y-89437500D01*
X220232303Y-89416059D01*
X220235453Y-89394824D01*
X220240669Y-89374000D01*
X220247901Y-89353788D01*
X220257080Y-89334382D01*
X220268116Y-89315969D01*
X220280904Y-89298726D01*
X220295320Y-89282820D01*
X220311226Y-89268404D01*
X220328469Y-89255616D01*
X220346882Y-89244580D01*
X220366288Y-89235401D01*
X220386500Y-89228169D01*
X220407324Y-89222953D01*
X220428559Y-89219803D01*
X220450000Y-89218750D01*
X220887500Y-89218750D01*
X220908941Y-89219803D01*
X220908941Y-89219803D01*
G37*
D13*
X220668750Y-89693750D03*
D12*
G36*
X188352691Y-88426053D02*
G01*
X188373926Y-88429203D01*
X188394750Y-88434419D01*
X188414962Y-88441651D01*
X188434368Y-88450830D01*
X188452781Y-88461866D01*
X188470024Y-88474654D01*
X188485930Y-88489070D01*
X188500346Y-88504976D01*
X188513134Y-88522219D01*
X188524170Y-88540632D01*
X188533349Y-88560038D01*
X188540581Y-88580250D01*
X188545797Y-88601074D01*
X188548947Y-88622309D01*
X188550000Y-88643750D01*
X188550000Y-89156250D01*
X188548947Y-89177691D01*
X188545797Y-89198926D01*
X188540581Y-89219750D01*
X188533349Y-89239962D01*
X188524170Y-89259368D01*
X188513134Y-89277781D01*
X188500346Y-89295024D01*
X188485930Y-89310930D01*
X188470024Y-89325346D01*
X188452781Y-89338134D01*
X188434368Y-89349170D01*
X188414962Y-89358349D01*
X188394750Y-89365581D01*
X188373926Y-89370797D01*
X188352691Y-89373947D01*
X188331250Y-89375000D01*
X187893750Y-89375000D01*
X187872309Y-89373947D01*
X187851074Y-89370797D01*
X187830250Y-89365581D01*
X187810038Y-89358349D01*
X187790632Y-89349170D01*
X187772219Y-89338134D01*
X187754976Y-89325346D01*
X187739070Y-89310930D01*
X187724654Y-89295024D01*
X187711866Y-89277781D01*
X187700830Y-89259368D01*
X187691651Y-89239962D01*
X187684419Y-89219750D01*
X187679203Y-89198926D01*
X187676053Y-89177691D01*
X187675000Y-89156250D01*
X187675000Y-88643750D01*
X187676053Y-88622309D01*
X187679203Y-88601074D01*
X187684419Y-88580250D01*
X187691651Y-88560038D01*
X187700830Y-88540632D01*
X187711866Y-88522219D01*
X187724654Y-88504976D01*
X187739070Y-88489070D01*
X187754976Y-88474654D01*
X187772219Y-88461866D01*
X187790632Y-88450830D01*
X187810038Y-88441651D01*
X187830250Y-88434419D01*
X187851074Y-88429203D01*
X187872309Y-88426053D01*
X187893750Y-88425000D01*
X188331250Y-88425000D01*
X188352691Y-88426053D01*
X188352691Y-88426053D01*
G37*
D13*
X188112500Y-88900000D03*
D12*
G36*
X186777691Y-88426053D02*
G01*
X186798926Y-88429203D01*
X186819750Y-88434419D01*
X186839962Y-88441651D01*
X186859368Y-88450830D01*
X186877781Y-88461866D01*
X186895024Y-88474654D01*
X186910930Y-88489070D01*
X186925346Y-88504976D01*
X186938134Y-88522219D01*
X186949170Y-88540632D01*
X186958349Y-88560038D01*
X186965581Y-88580250D01*
X186970797Y-88601074D01*
X186973947Y-88622309D01*
X186975000Y-88643750D01*
X186975000Y-89156250D01*
X186973947Y-89177691D01*
X186970797Y-89198926D01*
X186965581Y-89219750D01*
X186958349Y-89239962D01*
X186949170Y-89259368D01*
X186938134Y-89277781D01*
X186925346Y-89295024D01*
X186910930Y-89310930D01*
X186895024Y-89325346D01*
X186877781Y-89338134D01*
X186859368Y-89349170D01*
X186839962Y-89358349D01*
X186819750Y-89365581D01*
X186798926Y-89370797D01*
X186777691Y-89373947D01*
X186756250Y-89375000D01*
X186318750Y-89375000D01*
X186297309Y-89373947D01*
X186276074Y-89370797D01*
X186255250Y-89365581D01*
X186235038Y-89358349D01*
X186215632Y-89349170D01*
X186197219Y-89338134D01*
X186179976Y-89325346D01*
X186164070Y-89310930D01*
X186149654Y-89295024D01*
X186136866Y-89277781D01*
X186125830Y-89259368D01*
X186116651Y-89239962D01*
X186109419Y-89219750D01*
X186104203Y-89198926D01*
X186101053Y-89177691D01*
X186100000Y-89156250D01*
X186100000Y-88643750D01*
X186101053Y-88622309D01*
X186104203Y-88601074D01*
X186109419Y-88580250D01*
X186116651Y-88560038D01*
X186125830Y-88540632D01*
X186136866Y-88522219D01*
X186149654Y-88504976D01*
X186164070Y-88489070D01*
X186179976Y-88474654D01*
X186197219Y-88461866D01*
X186215632Y-88450830D01*
X186235038Y-88441651D01*
X186255250Y-88434419D01*
X186276074Y-88429203D01*
X186297309Y-88426053D01*
X186318750Y-88425000D01*
X186756250Y-88425000D01*
X186777691Y-88426053D01*
X186777691Y-88426053D01*
G37*
D13*
X186537500Y-88900000D03*
D12*
G36*
X32790191Y-41594803D02*
G01*
X32811426Y-41597953D01*
X32832250Y-41603169D01*
X32852462Y-41610401D01*
X32871868Y-41619580D01*
X32890281Y-41630616D01*
X32907524Y-41643404D01*
X32923430Y-41657820D01*
X32937846Y-41673726D01*
X32950634Y-41690969D01*
X32961670Y-41709382D01*
X32970849Y-41728788D01*
X32978081Y-41749000D01*
X32983297Y-41769824D01*
X32986447Y-41791059D01*
X32987500Y-41812500D01*
X32987500Y-42325000D01*
X32986447Y-42346441D01*
X32983297Y-42367676D01*
X32978081Y-42388500D01*
X32970849Y-42408712D01*
X32961670Y-42428118D01*
X32950634Y-42446531D01*
X32937846Y-42463774D01*
X32923430Y-42479680D01*
X32907524Y-42494096D01*
X32890281Y-42506884D01*
X32871868Y-42517920D01*
X32852462Y-42527099D01*
X32832250Y-42534331D01*
X32811426Y-42539547D01*
X32790191Y-42542697D01*
X32768750Y-42543750D01*
X32331250Y-42543750D01*
X32309809Y-42542697D01*
X32288574Y-42539547D01*
X32267750Y-42534331D01*
X32247538Y-42527099D01*
X32228132Y-42517920D01*
X32209719Y-42506884D01*
X32192476Y-42494096D01*
X32176570Y-42479680D01*
X32162154Y-42463774D01*
X32149366Y-42446531D01*
X32138330Y-42428118D01*
X32129151Y-42408712D01*
X32121919Y-42388500D01*
X32116703Y-42367676D01*
X32113553Y-42346441D01*
X32112500Y-42325000D01*
X32112500Y-41812500D01*
X32113553Y-41791059D01*
X32116703Y-41769824D01*
X32121919Y-41749000D01*
X32129151Y-41728788D01*
X32138330Y-41709382D01*
X32149366Y-41690969D01*
X32162154Y-41673726D01*
X32176570Y-41657820D01*
X32192476Y-41643404D01*
X32209719Y-41630616D01*
X32228132Y-41619580D01*
X32247538Y-41610401D01*
X32267750Y-41603169D01*
X32288574Y-41597953D01*
X32309809Y-41594803D01*
X32331250Y-41593750D01*
X32768750Y-41593750D01*
X32790191Y-41594803D01*
X32790191Y-41594803D01*
G37*
D13*
X32550000Y-42068750D03*
D12*
G36*
X34365191Y-41594803D02*
G01*
X34386426Y-41597953D01*
X34407250Y-41603169D01*
X34427462Y-41610401D01*
X34446868Y-41619580D01*
X34465281Y-41630616D01*
X34482524Y-41643404D01*
X34498430Y-41657820D01*
X34512846Y-41673726D01*
X34525634Y-41690969D01*
X34536670Y-41709382D01*
X34545849Y-41728788D01*
X34553081Y-41749000D01*
X34558297Y-41769824D01*
X34561447Y-41791059D01*
X34562500Y-41812500D01*
X34562500Y-42325000D01*
X34561447Y-42346441D01*
X34558297Y-42367676D01*
X34553081Y-42388500D01*
X34545849Y-42408712D01*
X34536670Y-42428118D01*
X34525634Y-42446531D01*
X34512846Y-42463774D01*
X34498430Y-42479680D01*
X34482524Y-42494096D01*
X34465281Y-42506884D01*
X34446868Y-42517920D01*
X34427462Y-42527099D01*
X34407250Y-42534331D01*
X34386426Y-42539547D01*
X34365191Y-42542697D01*
X34343750Y-42543750D01*
X33906250Y-42543750D01*
X33884809Y-42542697D01*
X33863574Y-42539547D01*
X33842750Y-42534331D01*
X33822538Y-42527099D01*
X33803132Y-42517920D01*
X33784719Y-42506884D01*
X33767476Y-42494096D01*
X33751570Y-42479680D01*
X33737154Y-42463774D01*
X33724366Y-42446531D01*
X33713330Y-42428118D01*
X33704151Y-42408712D01*
X33696919Y-42388500D01*
X33691703Y-42367676D01*
X33688553Y-42346441D01*
X33687500Y-42325000D01*
X33687500Y-41812500D01*
X33688553Y-41791059D01*
X33691703Y-41769824D01*
X33696919Y-41749000D01*
X33704151Y-41728788D01*
X33713330Y-41709382D01*
X33724366Y-41690969D01*
X33737154Y-41673726D01*
X33751570Y-41657820D01*
X33767476Y-41643404D01*
X33784719Y-41630616D01*
X33803132Y-41619580D01*
X33822538Y-41610401D01*
X33842750Y-41603169D01*
X33863574Y-41597953D01*
X33884809Y-41594803D01*
X33906250Y-41593750D01*
X34343750Y-41593750D01*
X34365191Y-41594803D01*
X34365191Y-41594803D01*
G37*
D13*
X34125000Y-42068750D03*
D12*
G36*
X32790191Y-43976053D02*
G01*
X32811426Y-43979203D01*
X32832250Y-43984419D01*
X32852462Y-43991651D01*
X32871868Y-44000830D01*
X32890281Y-44011866D01*
X32907524Y-44024654D01*
X32923430Y-44039070D01*
X32937846Y-44054976D01*
X32950634Y-44072219D01*
X32961670Y-44090632D01*
X32970849Y-44110038D01*
X32978081Y-44130250D01*
X32983297Y-44151074D01*
X32986447Y-44172309D01*
X32987500Y-44193750D01*
X32987500Y-44706250D01*
X32986447Y-44727691D01*
X32983297Y-44748926D01*
X32978081Y-44769750D01*
X32970849Y-44789962D01*
X32961670Y-44809368D01*
X32950634Y-44827781D01*
X32937846Y-44845024D01*
X32923430Y-44860930D01*
X32907524Y-44875346D01*
X32890281Y-44888134D01*
X32871868Y-44899170D01*
X32852462Y-44908349D01*
X32832250Y-44915581D01*
X32811426Y-44920797D01*
X32790191Y-44923947D01*
X32768750Y-44925000D01*
X32331250Y-44925000D01*
X32309809Y-44923947D01*
X32288574Y-44920797D01*
X32267750Y-44915581D01*
X32247538Y-44908349D01*
X32228132Y-44899170D01*
X32209719Y-44888134D01*
X32192476Y-44875346D01*
X32176570Y-44860930D01*
X32162154Y-44845024D01*
X32149366Y-44827781D01*
X32138330Y-44809368D01*
X32129151Y-44789962D01*
X32121919Y-44769750D01*
X32116703Y-44748926D01*
X32113553Y-44727691D01*
X32112500Y-44706250D01*
X32112500Y-44193750D01*
X32113553Y-44172309D01*
X32116703Y-44151074D01*
X32121919Y-44130250D01*
X32129151Y-44110038D01*
X32138330Y-44090632D01*
X32149366Y-44072219D01*
X32162154Y-44054976D01*
X32176570Y-44039070D01*
X32192476Y-44024654D01*
X32209719Y-44011866D01*
X32228132Y-44000830D01*
X32247538Y-43991651D01*
X32267750Y-43984419D01*
X32288574Y-43979203D01*
X32309809Y-43976053D01*
X32331250Y-43975000D01*
X32768750Y-43975000D01*
X32790191Y-43976053D01*
X32790191Y-43976053D01*
G37*
D13*
X32550000Y-44450000D03*
D12*
G36*
X34365191Y-43976053D02*
G01*
X34386426Y-43979203D01*
X34407250Y-43984419D01*
X34427462Y-43991651D01*
X34446868Y-44000830D01*
X34465281Y-44011866D01*
X34482524Y-44024654D01*
X34498430Y-44039070D01*
X34512846Y-44054976D01*
X34525634Y-44072219D01*
X34536670Y-44090632D01*
X34545849Y-44110038D01*
X34553081Y-44130250D01*
X34558297Y-44151074D01*
X34561447Y-44172309D01*
X34562500Y-44193750D01*
X34562500Y-44706250D01*
X34561447Y-44727691D01*
X34558297Y-44748926D01*
X34553081Y-44769750D01*
X34545849Y-44789962D01*
X34536670Y-44809368D01*
X34525634Y-44827781D01*
X34512846Y-44845024D01*
X34498430Y-44860930D01*
X34482524Y-44875346D01*
X34465281Y-44888134D01*
X34446868Y-44899170D01*
X34427462Y-44908349D01*
X34407250Y-44915581D01*
X34386426Y-44920797D01*
X34365191Y-44923947D01*
X34343750Y-44925000D01*
X33906250Y-44925000D01*
X33884809Y-44923947D01*
X33863574Y-44920797D01*
X33842750Y-44915581D01*
X33822538Y-44908349D01*
X33803132Y-44899170D01*
X33784719Y-44888134D01*
X33767476Y-44875346D01*
X33751570Y-44860930D01*
X33737154Y-44845024D01*
X33724366Y-44827781D01*
X33713330Y-44809368D01*
X33704151Y-44789962D01*
X33696919Y-44769750D01*
X33691703Y-44748926D01*
X33688553Y-44727691D01*
X33687500Y-44706250D01*
X33687500Y-44193750D01*
X33688553Y-44172309D01*
X33691703Y-44151074D01*
X33696919Y-44130250D01*
X33704151Y-44110038D01*
X33713330Y-44090632D01*
X33724366Y-44072219D01*
X33737154Y-44054976D01*
X33751570Y-44039070D01*
X33767476Y-44024654D01*
X33784719Y-44011866D01*
X33803132Y-44000830D01*
X33822538Y-43991651D01*
X33842750Y-43984419D01*
X33863574Y-43979203D01*
X33884809Y-43976053D01*
X33906250Y-43975000D01*
X34343750Y-43975000D01*
X34365191Y-43976053D01*
X34365191Y-43976053D01*
G37*
D13*
X34125000Y-44450000D03*
D12*
G36*
X70890191Y-96363553D02*
G01*
X70911426Y-96366703D01*
X70932250Y-96371919D01*
X70952462Y-96379151D01*
X70971868Y-96388330D01*
X70990281Y-96399366D01*
X71007524Y-96412154D01*
X71023430Y-96426570D01*
X71037846Y-96442476D01*
X71050634Y-96459719D01*
X71061670Y-96478132D01*
X71070849Y-96497538D01*
X71078081Y-96517750D01*
X71083297Y-96538574D01*
X71086447Y-96559809D01*
X71087500Y-96581250D01*
X71087500Y-97093750D01*
X71086447Y-97115191D01*
X71083297Y-97136426D01*
X71078081Y-97157250D01*
X71070849Y-97177462D01*
X71061670Y-97196868D01*
X71050634Y-97215281D01*
X71037846Y-97232524D01*
X71023430Y-97248430D01*
X71007524Y-97262846D01*
X70990281Y-97275634D01*
X70971868Y-97286670D01*
X70952462Y-97295849D01*
X70932250Y-97303081D01*
X70911426Y-97308297D01*
X70890191Y-97311447D01*
X70868750Y-97312500D01*
X70431250Y-97312500D01*
X70409809Y-97311447D01*
X70388574Y-97308297D01*
X70367750Y-97303081D01*
X70347538Y-97295849D01*
X70328132Y-97286670D01*
X70309719Y-97275634D01*
X70292476Y-97262846D01*
X70276570Y-97248430D01*
X70262154Y-97232524D01*
X70249366Y-97215281D01*
X70238330Y-97196868D01*
X70229151Y-97177462D01*
X70221919Y-97157250D01*
X70216703Y-97136426D01*
X70213553Y-97115191D01*
X70212500Y-97093750D01*
X70212500Y-96581250D01*
X70213553Y-96559809D01*
X70216703Y-96538574D01*
X70221919Y-96517750D01*
X70229151Y-96497538D01*
X70238330Y-96478132D01*
X70249366Y-96459719D01*
X70262154Y-96442476D01*
X70276570Y-96426570D01*
X70292476Y-96412154D01*
X70309719Y-96399366D01*
X70328132Y-96388330D01*
X70347538Y-96379151D01*
X70367750Y-96371919D01*
X70388574Y-96366703D01*
X70409809Y-96363553D01*
X70431250Y-96362500D01*
X70868750Y-96362500D01*
X70890191Y-96363553D01*
X70890191Y-96363553D01*
G37*
D13*
X70650000Y-96837500D03*
D12*
G36*
X72465191Y-96363553D02*
G01*
X72486426Y-96366703D01*
X72507250Y-96371919D01*
X72527462Y-96379151D01*
X72546868Y-96388330D01*
X72565281Y-96399366D01*
X72582524Y-96412154D01*
X72598430Y-96426570D01*
X72612846Y-96442476D01*
X72625634Y-96459719D01*
X72636670Y-96478132D01*
X72645849Y-96497538D01*
X72653081Y-96517750D01*
X72658297Y-96538574D01*
X72661447Y-96559809D01*
X72662500Y-96581250D01*
X72662500Y-97093750D01*
X72661447Y-97115191D01*
X72658297Y-97136426D01*
X72653081Y-97157250D01*
X72645849Y-97177462D01*
X72636670Y-97196868D01*
X72625634Y-97215281D01*
X72612846Y-97232524D01*
X72598430Y-97248430D01*
X72582524Y-97262846D01*
X72565281Y-97275634D01*
X72546868Y-97286670D01*
X72527462Y-97295849D01*
X72507250Y-97303081D01*
X72486426Y-97308297D01*
X72465191Y-97311447D01*
X72443750Y-97312500D01*
X72006250Y-97312500D01*
X71984809Y-97311447D01*
X71963574Y-97308297D01*
X71942750Y-97303081D01*
X71922538Y-97295849D01*
X71903132Y-97286670D01*
X71884719Y-97275634D01*
X71867476Y-97262846D01*
X71851570Y-97248430D01*
X71837154Y-97232524D01*
X71824366Y-97215281D01*
X71813330Y-97196868D01*
X71804151Y-97177462D01*
X71796919Y-97157250D01*
X71791703Y-97136426D01*
X71788553Y-97115191D01*
X71787500Y-97093750D01*
X71787500Y-96581250D01*
X71788553Y-96559809D01*
X71791703Y-96538574D01*
X71796919Y-96517750D01*
X71804151Y-96497538D01*
X71813330Y-96478132D01*
X71824366Y-96459719D01*
X71837154Y-96442476D01*
X71851570Y-96426570D01*
X71867476Y-96412154D01*
X71884719Y-96399366D01*
X71903132Y-96388330D01*
X71922538Y-96379151D01*
X71942750Y-96371919D01*
X71963574Y-96366703D01*
X71984809Y-96363553D01*
X72006250Y-96362500D01*
X72443750Y-96362500D01*
X72465191Y-96363553D01*
X72465191Y-96363553D01*
G37*
D13*
X72225000Y-96837500D03*
D12*
G36*
X70890191Y-93982303D02*
G01*
X70911426Y-93985453D01*
X70932250Y-93990669D01*
X70952462Y-93997901D01*
X70971868Y-94007080D01*
X70990281Y-94018116D01*
X71007524Y-94030904D01*
X71023430Y-94045320D01*
X71037846Y-94061226D01*
X71050634Y-94078469D01*
X71061670Y-94096882D01*
X71070849Y-94116288D01*
X71078081Y-94136500D01*
X71083297Y-94157324D01*
X71086447Y-94178559D01*
X71087500Y-94200000D01*
X71087500Y-94712500D01*
X71086447Y-94733941D01*
X71083297Y-94755176D01*
X71078081Y-94776000D01*
X71070849Y-94796212D01*
X71061670Y-94815618D01*
X71050634Y-94834031D01*
X71037846Y-94851274D01*
X71023430Y-94867180D01*
X71007524Y-94881596D01*
X70990281Y-94894384D01*
X70971868Y-94905420D01*
X70952462Y-94914599D01*
X70932250Y-94921831D01*
X70911426Y-94927047D01*
X70890191Y-94930197D01*
X70868750Y-94931250D01*
X70431250Y-94931250D01*
X70409809Y-94930197D01*
X70388574Y-94927047D01*
X70367750Y-94921831D01*
X70347538Y-94914599D01*
X70328132Y-94905420D01*
X70309719Y-94894384D01*
X70292476Y-94881596D01*
X70276570Y-94867180D01*
X70262154Y-94851274D01*
X70249366Y-94834031D01*
X70238330Y-94815618D01*
X70229151Y-94796212D01*
X70221919Y-94776000D01*
X70216703Y-94755176D01*
X70213553Y-94733941D01*
X70212500Y-94712500D01*
X70212500Y-94200000D01*
X70213553Y-94178559D01*
X70216703Y-94157324D01*
X70221919Y-94136500D01*
X70229151Y-94116288D01*
X70238330Y-94096882D01*
X70249366Y-94078469D01*
X70262154Y-94061226D01*
X70276570Y-94045320D01*
X70292476Y-94030904D01*
X70309719Y-94018116D01*
X70328132Y-94007080D01*
X70347538Y-93997901D01*
X70367750Y-93990669D01*
X70388574Y-93985453D01*
X70409809Y-93982303D01*
X70431250Y-93981250D01*
X70868750Y-93981250D01*
X70890191Y-93982303D01*
X70890191Y-93982303D01*
G37*
D13*
X70650000Y-94456250D03*
D12*
G36*
X72465191Y-93982303D02*
G01*
X72486426Y-93985453D01*
X72507250Y-93990669D01*
X72527462Y-93997901D01*
X72546868Y-94007080D01*
X72565281Y-94018116D01*
X72582524Y-94030904D01*
X72598430Y-94045320D01*
X72612846Y-94061226D01*
X72625634Y-94078469D01*
X72636670Y-94096882D01*
X72645849Y-94116288D01*
X72653081Y-94136500D01*
X72658297Y-94157324D01*
X72661447Y-94178559D01*
X72662500Y-94200000D01*
X72662500Y-94712500D01*
X72661447Y-94733941D01*
X72658297Y-94755176D01*
X72653081Y-94776000D01*
X72645849Y-94796212D01*
X72636670Y-94815618D01*
X72625634Y-94834031D01*
X72612846Y-94851274D01*
X72598430Y-94867180D01*
X72582524Y-94881596D01*
X72565281Y-94894384D01*
X72546868Y-94905420D01*
X72527462Y-94914599D01*
X72507250Y-94921831D01*
X72486426Y-94927047D01*
X72465191Y-94930197D01*
X72443750Y-94931250D01*
X72006250Y-94931250D01*
X71984809Y-94930197D01*
X71963574Y-94927047D01*
X71942750Y-94921831D01*
X71922538Y-94914599D01*
X71903132Y-94905420D01*
X71884719Y-94894384D01*
X71867476Y-94881596D01*
X71851570Y-94867180D01*
X71837154Y-94851274D01*
X71824366Y-94834031D01*
X71813330Y-94815618D01*
X71804151Y-94796212D01*
X71796919Y-94776000D01*
X71791703Y-94755176D01*
X71788553Y-94733941D01*
X71787500Y-94712500D01*
X71787500Y-94200000D01*
X71788553Y-94178559D01*
X71791703Y-94157324D01*
X71796919Y-94136500D01*
X71804151Y-94116288D01*
X71813330Y-94096882D01*
X71824366Y-94078469D01*
X71837154Y-94061226D01*
X71851570Y-94045320D01*
X71867476Y-94030904D01*
X71884719Y-94018116D01*
X71903132Y-94007080D01*
X71922538Y-93997901D01*
X71942750Y-93990669D01*
X71963574Y-93985453D01*
X71984809Y-93982303D01*
X72006250Y-93981250D01*
X72443750Y-93981250D01*
X72465191Y-93982303D01*
X72465191Y-93982303D01*
G37*
D13*
X72225000Y-94456250D03*
D12*
G36*
X104258941Y-103551053D02*
G01*
X104280176Y-103554203D01*
X104301000Y-103559419D01*
X104321212Y-103566651D01*
X104340618Y-103575830D01*
X104359031Y-103586866D01*
X104376274Y-103599654D01*
X104392180Y-103614070D01*
X104406596Y-103629976D01*
X104419384Y-103647219D01*
X104430420Y-103665632D01*
X104439599Y-103685038D01*
X104446831Y-103705250D01*
X104452047Y-103726074D01*
X104455197Y-103747309D01*
X104456250Y-103768750D01*
X104456250Y-104206250D01*
X104455197Y-104227691D01*
X104452047Y-104248926D01*
X104446831Y-104269750D01*
X104439599Y-104289962D01*
X104430420Y-104309368D01*
X104419384Y-104327781D01*
X104406596Y-104345024D01*
X104392180Y-104360930D01*
X104376274Y-104375346D01*
X104359031Y-104388134D01*
X104340618Y-104399170D01*
X104321212Y-104408349D01*
X104301000Y-104415581D01*
X104280176Y-104420797D01*
X104258941Y-104423947D01*
X104237500Y-104425000D01*
X103725000Y-104425000D01*
X103703559Y-104423947D01*
X103682324Y-104420797D01*
X103661500Y-104415581D01*
X103641288Y-104408349D01*
X103621882Y-104399170D01*
X103603469Y-104388134D01*
X103586226Y-104375346D01*
X103570320Y-104360930D01*
X103555904Y-104345024D01*
X103543116Y-104327781D01*
X103532080Y-104309368D01*
X103522901Y-104289962D01*
X103515669Y-104269750D01*
X103510453Y-104248926D01*
X103507303Y-104227691D01*
X103506250Y-104206250D01*
X103506250Y-103768750D01*
X103507303Y-103747309D01*
X103510453Y-103726074D01*
X103515669Y-103705250D01*
X103522901Y-103685038D01*
X103532080Y-103665632D01*
X103543116Y-103647219D01*
X103555904Y-103629976D01*
X103570320Y-103614070D01*
X103586226Y-103599654D01*
X103603469Y-103586866D01*
X103621882Y-103575830D01*
X103641288Y-103566651D01*
X103661500Y-103559419D01*
X103682324Y-103554203D01*
X103703559Y-103551053D01*
X103725000Y-103550000D01*
X104237500Y-103550000D01*
X104258941Y-103551053D01*
X104258941Y-103551053D01*
G37*
D13*
X103981250Y-103987500D03*
D12*
G36*
X104258941Y-105126053D02*
G01*
X104280176Y-105129203D01*
X104301000Y-105134419D01*
X104321212Y-105141651D01*
X104340618Y-105150830D01*
X104359031Y-105161866D01*
X104376274Y-105174654D01*
X104392180Y-105189070D01*
X104406596Y-105204976D01*
X104419384Y-105222219D01*
X104430420Y-105240632D01*
X104439599Y-105260038D01*
X104446831Y-105280250D01*
X104452047Y-105301074D01*
X104455197Y-105322309D01*
X104456250Y-105343750D01*
X104456250Y-105781250D01*
X104455197Y-105802691D01*
X104452047Y-105823926D01*
X104446831Y-105844750D01*
X104439599Y-105864962D01*
X104430420Y-105884368D01*
X104419384Y-105902781D01*
X104406596Y-105920024D01*
X104392180Y-105935930D01*
X104376274Y-105950346D01*
X104359031Y-105963134D01*
X104340618Y-105974170D01*
X104321212Y-105983349D01*
X104301000Y-105990581D01*
X104280176Y-105995797D01*
X104258941Y-105998947D01*
X104237500Y-106000000D01*
X103725000Y-106000000D01*
X103703559Y-105998947D01*
X103682324Y-105995797D01*
X103661500Y-105990581D01*
X103641288Y-105983349D01*
X103621882Y-105974170D01*
X103603469Y-105963134D01*
X103586226Y-105950346D01*
X103570320Y-105935930D01*
X103555904Y-105920024D01*
X103543116Y-105902781D01*
X103532080Y-105884368D01*
X103522901Y-105864962D01*
X103515669Y-105844750D01*
X103510453Y-105823926D01*
X103507303Y-105802691D01*
X103506250Y-105781250D01*
X103506250Y-105343750D01*
X103507303Y-105322309D01*
X103510453Y-105301074D01*
X103515669Y-105280250D01*
X103522901Y-105260038D01*
X103532080Y-105240632D01*
X103543116Y-105222219D01*
X103555904Y-105204976D01*
X103570320Y-105189070D01*
X103586226Y-105174654D01*
X103603469Y-105161866D01*
X103621882Y-105150830D01*
X103641288Y-105141651D01*
X103661500Y-105134419D01*
X103682324Y-105129203D01*
X103703559Y-105126053D01*
X103725000Y-105125000D01*
X104237500Y-105125000D01*
X104258941Y-105126053D01*
X104258941Y-105126053D01*
G37*
D13*
X103981250Y-105562500D03*
D12*
G36*
X86002691Y-81326053D02*
G01*
X86023926Y-81329203D01*
X86044750Y-81334419D01*
X86064962Y-81341651D01*
X86084368Y-81350830D01*
X86102781Y-81361866D01*
X86120024Y-81374654D01*
X86135930Y-81389070D01*
X86150346Y-81404976D01*
X86163134Y-81422219D01*
X86174170Y-81440632D01*
X86183349Y-81460038D01*
X86190581Y-81480250D01*
X86195797Y-81501074D01*
X86198947Y-81522309D01*
X86200000Y-81543750D01*
X86200000Y-81981250D01*
X86198947Y-82002691D01*
X86195797Y-82023926D01*
X86190581Y-82044750D01*
X86183349Y-82064962D01*
X86174170Y-82084368D01*
X86163134Y-82102781D01*
X86150346Y-82120024D01*
X86135930Y-82135930D01*
X86120024Y-82150346D01*
X86102781Y-82163134D01*
X86084368Y-82174170D01*
X86064962Y-82183349D01*
X86044750Y-82190581D01*
X86023926Y-82195797D01*
X86002691Y-82198947D01*
X85981250Y-82200000D01*
X85468750Y-82200000D01*
X85447309Y-82198947D01*
X85426074Y-82195797D01*
X85405250Y-82190581D01*
X85385038Y-82183349D01*
X85365632Y-82174170D01*
X85347219Y-82163134D01*
X85329976Y-82150346D01*
X85314070Y-82135930D01*
X85299654Y-82120024D01*
X85286866Y-82102781D01*
X85275830Y-82084368D01*
X85266651Y-82064962D01*
X85259419Y-82044750D01*
X85254203Y-82023926D01*
X85251053Y-82002691D01*
X85250000Y-81981250D01*
X85250000Y-81543750D01*
X85251053Y-81522309D01*
X85254203Y-81501074D01*
X85259419Y-81480250D01*
X85266651Y-81460038D01*
X85275830Y-81440632D01*
X85286866Y-81422219D01*
X85299654Y-81404976D01*
X85314070Y-81389070D01*
X85329976Y-81374654D01*
X85347219Y-81361866D01*
X85365632Y-81350830D01*
X85385038Y-81341651D01*
X85405250Y-81334419D01*
X85426074Y-81329203D01*
X85447309Y-81326053D01*
X85468750Y-81325000D01*
X85981250Y-81325000D01*
X86002691Y-81326053D01*
X86002691Y-81326053D01*
G37*
D13*
X85725000Y-81762500D03*
D12*
G36*
X86002691Y-82901053D02*
G01*
X86023926Y-82904203D01*
X86044750Y-82909419D01*
X86064962Y-82916651D01*
X86084368Y-82925830D01*
X86102781Y-82936866D01*
X86120024Y-82949654D01*
X86135930Y-82964070D01*
X86150346Y-82979976D01*
X86163134Y-82997219D01*
X86174170Y-83015632D01*
X86183349Y-83035038D01*
X86190581Y-83055250D01*
X86195797Y-83076074D01*
X86198947Y-83097309D01*
X86200000Y-83118750D01*
X86200000Y-83556250D01*
X86198947Y-83577691D01*
X86195797Y-83598926D01*
X86190581Y-83619750D01*
X86183349Y-83639962D01*
X86174170Y-83659368D01*
X86163134Y-83677781D01*
X86150346Y-83695024D01*
X86135930Y-83710930D01*
X86120024Y-83725346D01*
X86102781Y-83738134D01*
X86084368Y-83749170D01*
X86064962Y-83758349D01*
X86044750Y-83765581D01*
X86023926Y-83770797D01*
X86002691Y-83773947D01*
X85981250Y-83775000D01*
X85468750Y-83775000D01*
X85447309Y-83773947D01*
X85426074Y-83770797D01*
X85405250Y-83765581D01*
X85385038Y-83758349D01*
X85365632Y-83749170D01*
X85347219Y-83738134D01*
X85329976Y-83725346D01*
X85314070Y-83710930D01*
X85299654Y-83695024D01*
X85286866Y-83677781D01*
X85275830Y-83659368D01*
X85266651Y-83639962D01*
X85259419Y-83619750D01*
X85254203Y-83598926D01*
X85251053Y-83577691D01*
X85250000Y-83556250D01*
X85250000Y-83118750D01*
X85251053Y-83097309D01*
X85254203Y-83076074D01*
X85259419Y-83055250D01*
X85266651Y-83035038D01*
X85275830Y-83015632D01*
X85286866Y-82997219D01*
X85299654Y-82979976D01*
X85314070Y-82964070D01*
X85329976Y-82949654D01*
X85347219Y-82936866D01*
X85365632Y-82925830D01*
X85385038Y-82916651D01*
X85405250Y-82909419D01*
X85426074Y-82904203D01*
X85447309Y-82901053D01*
X85468750Y-82900000D01*
X85981250Y-82900000D01*
X86002691Y-82901053D01*
X86002691Y-82901053D01*
G37*
D13*
X85725000Y-83337500D03*
D12*
G36*
X83621441Y-81326053D02*
G01*
X83642676Y-81329203D01*
X83663500Y-81334419D01*
X83683712Y-81341651D01*
X83703118Y-81350830D01*
X83721531Y-81361866D01*
X83738774Y-81374654D01*
X83754680Y-81389070D01*
X83769096Y-81404976D01*
X83781884Y-81422219D01*
X83792920Y-81440632D01*
X83802099Y-81460038D01*
X83809331Y-81480250D01*
X83814547Y-81501074D01*
X83817697Y-81522309D01*
X83818750Y-81543750D01*
X83818750Y-81981250D01*
X83817697Y-82002691D01*
X83814547Y-82023926D01*
X83809331Y-82044750D01*
X83802099Y-82064962D01*
X83792920Y-82084368D01*
X83781884Y-82102781D01*
X83769096Y-82120024D01*
X83754680Y-82135930D01*
X83738774Y-82150346D01*
X83721531Y-82163134D01*
X83703118Y-82174170D01*
X83683712Y-82183349D01*
X83663500Y-82190581D01*
X83642676Y-82195797D01*
X83621441Y-82198947D01*
X83600000Y-82200000D01*
X83087500Y-82200000D01*
X83066059Y-82198947D01*
X83044824Y-82195797D01*
X83024000Y-82190581D01*
X83003788Y-82183349D01*
X82984382Y-82174170D01*
X82965969Y-82163134D01*
X82948726Y-82150346D01*
X82932820Y-82135930D01*
X82918404Y-82120024D01*
X82905616Y-82102781D01*
X82894580Y-82084368D01*
X82885401Y-82064962D01*
X82878169Y-82044750D01*
X82872953Y-82023926D01*
X82869803Y-82002691D01*
X82868750Y-81981250D01*
X82868750Y-81543750D01*
X82869803Y-81522309D01*
X82872953Y-81501074D01*
X82878169Y-81480250D01*
X82885401Y-81460038D01*
X82894580Y-81440632D01*
X82905616Y-81422219D01*
X82918404Y-81404976D01*
X82932820Y-81389070D01*
X82948726Y-81374654D01*
X82965969Y-81361866D01*
X82984382Y-81350830D01*
X83003788Y-81341651D01*
X83024000Y-81334419D01*
X83044824Y-81329203D01*
X83066059Y-81326053D01*
X83087500Y-81325000D01*
X83600000Y-81325000D01*
X83621441Y-81326053D01*
X83621441Y-81326053D01*
G37*
D13*
X83343750Y-81762500D03*
D12*
G36*
X83621441Y-82901053D02*
G01*
X83642676Y-82904203D01*
X83663500Y-82909419D01*
X83683712Y-82916651D01*
X83703118Y-82925830D01*
X83721531Y-82936866D01*
X83738774Y-82949654D01*
X83754680Y-82964070D01*
X83769096Y-82979976D01*
X83781884Y-82997219D01*
X83792920Y-83015632D01*
X83802099Y-83035038D01*
X83809331Y-83055250D01*
X83814547Y-83076074D01*
X83817697Y-83097309D01*
X83818750Y-83118750D01*
X83818750Y-83556250D01*
X83817697Y-83577691D01*
X83814547Y-83598926D01*
X83809331Y-83619750D01*
X83802099Y-83639962D01*
X83792920Y-83659368D01*
X83781884Y-83677781D01*
X83769096Y-83695024D01*
X83754680Y-83710930D01*
X83738774Y-83725346D01*
X83721531Y-83738134D01*
X83703118Y-83749170D01*
X83683712Y-83758349D01*
X83663500Y-83765581D01*
X83642676Y-83770797D01*
X83621441Y-83773947D01*
X83600000Y-83775000D01*
X83087500Y-83775000D01*
X83066059Y-83773947D01*
X83044824Y-83770797D01*
X83024000Y-83765581D01*
X83003788Y-83758349D01*
X82984382Y-83749170D01*
X82965969Y-83738134D01*
X82948726Y-83725346D01*
X82932820Y-83710930D01*
X82918404Y-83695024D01*
X82905616Y-83677781D01*
X82894580Y-83659368D01*
X82885401Y-83639962D01*
X82878169Y-83619750D01*
X82872953Y-83598926D01*
X82869803Y-83577691D01*
X82868750Y-83556250D01*
X82868750Y-83118750D01*
X82869803Y-83097309D01*
X82872953Y-83076074D01*
X82878169Y-83055250D01*
X82885401Y-83035038D01*
X82894580Y-83015632D01*
X82905616Y-82997219D01*
X82918404Y-82979976D01*
X82932820Y-82964070D01*
X82948726Y-82949654D01*
X82965969Y-82936866D01*
X82984382Y-82925830D01*
X83003788Y-82916651D01*
X83024000Y-82909419D01*
X83044824Y-82904203D01*
X83066059Y-82901053D01*
X83087500Y-82900000D01*
X83600000Y-82900000D01*
X83621441Y-82901053D01*
X83621441Y-82901053D01*
G37*
D13*
X83343750Y-83337500D03*
D12*
G36*
X237187004Y-46394954D02*
G01*
X237211273Y-46398554D01*
X237235071Y-46404515D01*
X237258171Y-46412780D01*
X237280349Y-46423270D01*
X237301393Y-46435883D01*
X237321098Y-46450497D01*
X237339277Y-46466973D01*
X237355753Y-46485152D01*
X237370367Y-46504857D01*
X237382980Y-46525901D01*
X237393470Y-46548079D01*
X237401735Y-46571179D01*
X237407696Y-46594977D01*
X237411296Y-46619246D01*
X237412500Y-46643750D01*
X237412500Y-47393750D01*
X237411296Y-47418254D01*
X237407696Y-47442523D01*
X237401735Y-47466321D01*
X237393470Y-47489421D01*
X237382980Y-47511599D01*
X237370367Y-47532643D01*
X237355753Y-47552348D01*
X237339277Y-47570527D01*
X237321098Y-47587003D01*
X237301393Y-47601617D01*
X237280349Y-47614230D01*
X237258171Y-47624720D01*
X237235071Y-47632985D01*
X237211273Y-47638946D01*
X237187004Y-47642546D01*
X237162500Y-47643750D01*
X235912500Y-47643750D01*
X235887996Y-47642546D01*
X235863727Y-47638946D01*
X235839929Y-47632985D01*
X235816829Y-47624720D01*
X235794651Y-47614230D01*
X235773607Y-47601617D01*
X235753902Y-47587003D01*
X235735723Y-47570527D01*
X235719247Y-47552348D01*
X235704633Y-47532643D01*
X235692020Y-47511599D01*
X235681530Y-47489421D01*
X235673265Y-47466321D01*
X235667304Y-47442523D01*
X235663704Y-47418254D01*
X235662500Y-47393750D01*
X235662500Y-46643750D01*
X235663704Y-46619246D01*
X235667304Y-46594977D01*
X235673265Y-46571179D01*
X235681530Y-46548079D01*
X235692020Y-46525901D01*
X235704633Y-46504857D01*
X235719247Y-46485152D01*
X235735723Y-46466973D01*
X235753902Y-46450497D01*
X235773607Y-46435883D01*
X235794651Y-46423270D01*
X235816829Y-46412780D01*
X235839929Y-46404515D01*
X235863727Y-46398554D01*
X235887996Y-46394954D01*
X235912500Y-46393750D01*
X237162500Y-46393750D01*
X237187004Y-46394954D01*
X237187004Y-46394954D01*
G37*
D20*
X236537500Y-47018750D03*
D12*
G36*
X237187004Y-49194954D02*
G01*
X237211273Y-49198554D01*
X237235071Y-49204515D01*
X237258171Y-49212780D01*
X237280349Y-49223270D01*
X237301393Y-49235883D01*
X237321098Y-49250497D01*
X237339277Y-49266973D01*
X237355753Y-49285152D01*
X237370367Y-49304857D01*
X237382980Y-49325901D01*
X237393470Y-49348079D01*
X237401735Y-49371179D01*
X237407696Y-49394977D01*
X237411296Y-49419246D01*
X237412500Y-49443750D01*
X237412500Y-50193750D01*
X237411296Y-50218254D01*
X237407696Y-50242523D01*
X237401735Y-50266321D01*
X237393470Y-50289421D01*
X237382980Y-50311599D01*
X237370367Y-50332643D01*
X237355753Y-50352348D01*
X237339277Y-50370527D01*
X237321098Y-50387003D01*
X237301393Y-50401617D01*
X237280349Y-50414230D01*
X237258171Y-50424720D01*
X237235071Y-50432985D01*
X237211273Y-50438946D01*
X237187004Y-50442546D01*
X237162500Y-50443750D01*
X235912500Y-50443750D01*
X235887996Y-50442546D01*
X235863727Y-50438946D01*
X235839929Y-50432985D01*
X235816829Y-50424720D01*
X235794651Y-50414230D01*
X235773607Y-50401617D01*
X235753902Y-50387003D01*
X235735723Y-50370527D01*
X235719247Y-50352348D01*
X235704633Y-50332643D01*
X235692020Y-50311599D01*
X235681530Y-50289421D01*
X235673265Y-50266321D01*
X235667304Y-50242523D01*
X235663704Y-50218254D01*
X235662500Y-50193750D01*
X235662500Y-49443750D01*
X235663704Y-49419246D01*
X235667304Y-49394977D01*
X235673265Y-49371179D01*
X235681530Y-49348079D01*
X235692020Y-49325901D01*
X235704633Y-49304857D01*
X235719247Y-49285152D01*
X235735723Y-49266973D01*
X235753902Y-49250497D01*
X235773607Y-49235883D01*
X235794651Y-49223270D01*
X235816829Y-49212780D01*
X235839929Y-49204515D01*
X235863727Y-49198554D01*
X235887996Y-49194954D01*
X235912500Y-49193750D01*
X237162500Y-49193750D01*
X237187004Y-49194954D01*
X237187004Y-49194954D01*
G37*
D20*
X236537500Y-49818750D03*
D12*
G36*
X50655754Y-51951204D02*
G01*
X50680023Y-51954804D01*
X50703821Y-51960765D01*
X50726921Y-51969030D01*
X50749099Y-51979520D01*
X50770143Y-51992133D01*
X50789848Y-52006747D01*
X50808027Y-52023223D01*
X50824503Y-52041402D01*
X50839117Y-52061107D01*
X50851730Y-52082151D01*
X50862220Y-52104329D01*
X50870485Y-52127429D01*
X50876446Y-52151227D01*
X50880046Y-52175496D01*
X50881250Y-52200000D01*
X50881250Y-52950000D01*
X50880046Y-52974504D01*
X50876446Y-52998773D01*
X50870485Y-53022571D01*
X50862220Y-53045671D01*
X50851730Y-53067849D01*
X50839117Y-53088893D01*
X50824503Y-53108598D01*
X50808027Y-53126777D01*
X50789848Y-53143253D01*
X50770143Y-53157867D01*
X50749099Y-53170480D01*
X50726921Y-53180970D01*
X50703821Y-53189235D01*
X50680023Y-53195196D01*
X50655754Y-53198796D01*
X50631250Y-53200000D01*
X49381250Y-53200000D01*
X49356746Y-53198796D01*
X49332477Y-53195196D01*
X49308679Y-53189235D01*
X49285579Y-53180970D01*
X49263401Y-53170480D01*
X49242357Y-53157867D01*
X49222652Y-53143253D01*
X49204473Y-53126777D01*
X49187997Y-53108598D01*
X49173383Y-53088893D01*
X49160770Y-53067849D01*
X49150280Y-53045671D01*
X49142015Y-53022571D01*
X49136054Y-52998773D01*
X49132454Y-52974504D01*
X49131250Y-52950000D01*
X49131250Y-52200000D01*
X49132454Y-52175496D01*
X49136054Y-52151227D01*
X49142015Y-52127429D01*
X49150280Y-52104329D01*
X49160770Y-52082151D01*
X49173383Y-52061107D01*
X49187997Y-52041402D01*
X49204473Y-52023223D01*
X49222652Y-52006747D01*
X49242357Y-51992133D01*
X49263401Y-51979520D01*
X49285579Y-51969030D01*
X49308679Y-51960765D01*
X49332477Y-51954804D01*
X49356746Y-51951204D01*
X49381250Y-51950000D01*
X50631250Y-51950000D01*
X50655754Y-51951204D01*
X50655754Y-51951204D01*
G37*
D20*
X50006250Y-52575000D03*
D12*
G36*
X50655754Y-54751204D02*
G01*
X50680023Y-54754804D01*
X50703821Y-54760765D01*
X50726921Y-54769030D01*
X50749099Y-54779520D01*
X50770143Y-54792133D01*
X50789848Y-54806747D01*
X50808027Y-54823223D01*
X50824503Y-54841402D01*
X50839117Y-54861107D01*
X50851730Y-54882151D01*
X50862220Y-54904329D01*
X50870485Y-54927429D01*
X50876446Y-54951227D01*
X50880046Y-54975496D01*
X50881250Y-55000000D01*
X50881250Y-55750000D01*
X50880046Y-55774504D01*
X50876446Y-55798773D01*
X50870485Y-55822571D01*
X50862220Y-55845671D01*
X50851730Y-55867849D01*
X50839117Y-55888893D01*
X50824503Y-55908598D01*
X50808027Y-55926777D01*
X50789848Y-55943253D01*
X50770143Y-55957867D01*
X50749099Y-55970480D01*
X50726921Y-55980970D01*
X50703821Y-55989235D01*
X50680023Y-55995196D01*
X50655754Y-55998796D01*
X50631250Y-56000000D01*
X49381250Y-56000000D01*
X49356746Y-55998796D01*
X49332477Y-55995196D01*
X49308679Y-55989235D01*
X49285579Y-55980970D01*
X49263401Y-55970480D01*
X49242357Y-55957867D01*
X49222652Y-55943253D01*
X49204473Y-55926777D01*
X49187997Y-55908598D01*
X49173383Y-55888893D01*
X49160770Y-55867849D01*
X49150280Y-55845671D01*
X49142015Y-55822571D01*
X49136054Y-55798773D01*
X49132454Y-55774504D01*
X49131250Y-55750000D01*
X49131250Y-55000000D01*
X49132454Y-54975496D01*
X49136054Y-54951227D01*
X49142015Y-54927429D01*
X49150280Y-54904329D01*
X49160770Y-54882151D01*
X49173383Y-54861107D01*
X49187997Y-54841402D01*
X49204473Y-54823223D01*
X49222652Y-54806747D01*
X49242357Y-54792133D01*
X49263401Y-54779520D01*
X49285579Y-54769030D01*
X49308679Y-54760765D01*
X49332477Y-54754804D01*
X49356746Y-54751204D01*
X49381250Y-54750000D01*
X50631250Y-54750000D01*
X50655754Y-54751204D01*
X50655754Y-54751204D01*
G37*
D20*
X50006250Y-55375000D03*
D21*
X207962500Y-81693750D03*
X207962500Y-84993750D03*
X80168750Y-83281250D03*
X80168750Y-86581250D03*
X261143750Y-104712500D03*
X261143750Y-108012500D03*
X261143750Y-85662500D03*
X261143750Y-88962500D03*
X261143750Y-66612500D03*
X261143750Y-69912500D03*
X261143750Y-47562500D03*
X261143750Y-50862500D03*
X257968750Y-104712500D03*
X257968750Y-108012500D03*
X257968750Y-85662500D03*
X257968750Y-88962500D03*
X257968750Y-66612500D03*
X257968750Y-69912500D03*
X257968750Y-47562500D03*
X257968750Y-50862500D03*
X120650000Y-88043750D03*
X120650000Y-91343750D03*
X111125000Y-83281250D03*
X111125000Y-86581250D03*
X111125000Y-64231250D03*
X111125000Y-67531250D03*
X111125000Y-45181250D03*
X111125000Y-48481250D03*
X223043750Y-99950000D03*
X223043750Y-103250000D03*
X223043750Y-80900000D03*
X223043750Y-84200000D03*
X223043750Y-61850000D03*
X223043750Y-65150000D03*
X223043750Y-42800000D03*
X223043750Y-46100000D03*
X117475000Y-88043750D03*
X117475000Y-91343750D03*
X107950000Y-83281250D03*
X107950000Y-86581250D03*
X107950000Y-64231250D03*
X107950000Y-67531250D03*
X107950000Y-45181250D03*
X107950000Y-48481250D03*
X219868750Y-99950000D03*
X219868750Y-103250000D03*
X219868750Y-80900000D03*
X219868750Y-84200000D03*
X219868750Y-61850000D03*
X219868750Y-65150000D03*
X219868750Y-42800000D03*
X219868750Y-46100000D03*
X73025000Y-99950000D03*
X73025000Y-103250000D03*
X73025000Y-80900000D03*
X73025000Y-84200000D03*
X73025000Y-61850000D03*
X73025000Y-65150000D03*
X73025000Y-42800000D03*
X73025000Y-46100000D03*
X175418750Y-87250000D03*
X175418750Y-90550000D03*
X184943750Y-83281250D03*
X184943750Y-86581250D03*
X184943750Y-64231250D03*
X184943750Y-67531250D03*
X184943750Y-45181250D03*
X184943750Y-48481250D03*
X69850000Y-99950000D03*
X69850000Y-103250000D03*
X69850000Y-80900000D03*
X69850000Y-84200000D03*
X69850000Y-61850000D03*
X69850000Y-65150000D03*
X69850000Y-42800000D03*
X69850000Y-46100000D03*
X172243750Y-87250000D03*
X172243750Y-90550000D03*
X181768750Y-83281250D03*
X181768750Y-86581250D03*
X181768750Y-64231250D03*
X181768750Y-67531250D03*
X181768750Y-45181250D03*
X181768750Y-48481250D03*
X34925000Y-104712500D03*
X34925000Y-108012500D03*
X34925000Y-85662500D03*
X34925000Y-88962500D03*
X34925000Y-66612500D03*
X34925000Y-69912500D03*
X34925000Y-47562500D03*
X34925000Y-50862500D03*
X31750000Y-104712500D03*
X31750000Y-108012500D03*
X31750000Y-85662500D03*
X31750000Y-88962500D03*
X31750000Y-66612500D03*
X31750000Y-69912500D03*
X31750000Y-47562500D03*
X31750000Y-50862500D03*
D12*
G36*
X205065191Y-82913553D02*
G01*
X205086426Y-82916703D01*
X205107250Y-82921919D01*
X205127462Y-82929151D01*
X205146868Y-82938330D01*
X205165281Y-82949366D01*
X205182524Y-82962154D01*
X205198430Y-82976570D01*
X205212846Y-82992476D01*
X205225634Y-83009719D01*
X205236670Y-83028132D01*
X205245849Y-83047538D01*
X205253081Y-83067750D01*
X205258297Y-83088574D01*
X205261447Y-83109809D01*
X205262500Y-83131250D01*
X205262500Y-83568750D01*
X205261447Y-83590191D01*
X205258297Y-83611426D01*
X205253081Y-83632250D01*
X205245849Y-83652462D01*
X205236670Y-83671868D01*
X205225634Y-83690281D01*
X205212846Y-83707524D01*
X205198430Y-83723430D01*
X205182524Y-83737846D01*
X205165281Y-83750634D01*
X205146868Y-83761670D01*
X205127462Y-83770849D01*
X205107250Y-83778081D01*
X205086426Y-83783297D01*
X205065191Y-83786447D01*
X205043750Y-83787500D01*
X204531250Y-83787500D01*
X204509809Y-83786447D01*
X204488574Y-83783297D01*
X204467750Y-83778081D01*
X204447538Y-83770849D01*
X204428132Y-83761670D01*
X204409719Y-83750634D01*
X204392476Y-83737846D01*
X204376570Y-83723430D01*
X204362154Y-83707524D01*
X204349366Y-83690281D01*
X204338330Y-83671868D01*
X204329151Y-83652462D01*
X204321919Y-83632250D01*
X204316703Y-83611426D01*
X204313553Y-83590191D01*
X204312500Y-83568750D01*
X204312500Y-83131250D01*
X204313553Y-83109809D01*
X204316703Y-83088574D01*
X204321919Y-83067750D01*
X204329151Y-83047538D01*
X204338330Y-83028132D01*
X204349366Y-83009719D01*
X204362154Y-82992476D01*
X204376570Y-82976570D01*
X204392476Y-82962154D01*
X204409719Y-82949366D01*
X204428132Y-82938330D01*
X204447538Y-82929151D01*
X204467750Y-82921919D01*
X204488574Y-82916703D01*
X204509809Y-82913553D01*
X204531250Y-82912500D01*
X205043750Y-82912500D01*
X205065191Y-82913553D01*
X205065191Y-82913553D01*
G37*
D13*
X204787500Y-83350000D03*
D12*
G36*
X205065191Y-84488553D02*
G01*
X205086426Y-84491703D01*
X205107250Y-84496919D01*
X205127462Y-84504151D01*
X205146868Y-84513330D01*
X205165281Y-84524366D01*
X205182524Y-84537154D01*
X205198430Y-84551570D01*
X205212846Y-84567476D01*
X205225634Y-84584719D01*
X205236670Y-84603132D01*
X205245849Y-84622538D01*
X205253081Y-84642750D01*
X205258297Y-84663574D01*
X205261447Y-84684809D01*
X205262500Y-84706250D01*
X205262500Y-85143750D01*
X205261447Y-85165191D01*
X205258297Y-85186426D01*
X205253081Y-85207250D01*
X205245849Y-85227462D01*
X205236670Y-85246868D01*
X205225634Y-85265281D01*
X205212846Y-85282524D01*
X205198430Y-85298430D01*
X205182524Y-85312846D01*
X205165281Y-85325634D01*
X205146868Y-85336670D01*
X205127462Y-85345849D01*
X205107250Y-85353081D01*
X205086426Y-85358297D01*
X205065191Y-85361447D01*
X205043750Y-85362500D01*
X204531250Y-85362500D01*
X204509809Y-85361447D01*
X204488574Y-85358297D01*
X204467750Y-85353081D01*
X204447538Y-85345849D01*
X204428132Y-85336670D01*
X204409719Y-85325634D01*
X204392476Y-85312846D01*
X204376570Y-85298430D01*
X204362154Y-85282524D01*
X204349366Y-85265281D01*
X204338330Y-85246868D01*
X204329151Y-85227462D01*
X204321919Y-85207250D01*
X204316703Y-85186426D01*
X204313553Y-85165191D01*
X204312500Y-85143750D01*
X204312500Y-84706250D01*
X204313553Y-84684809D01*
X204316703Y-84663574D01*
X204321919Y-84642750D01*
X204329151Y-84622538D01*
X204338330Y-84603132D01*
X204349366Y-84584719D01*
X204362154Y-84567476D01*
X204376570Y-84551570D01*
X204392476Y-84537154D01*
X204409719Y-84524366D01*
X204428132Y-84513330D01*
X204447538Y-84504151D01*
X204467750Y-84496919D01*
X204488574Y-84491703D01*
X204509809Y-84488553D01*
X204531250Y-84487500D01*
X205043750Y-84487500D01*
X205065191Y-84488553D01*
X205065191Y-84488553D01*
G37*
D13*
X204787500Y-84925000D03*
D12*
G36*
X190733941Y-97951053D02*
G01*
X190755176Y-97954203D01*
X190776000Y-97959419D01*
X190796212Y-97966651D01*
X190815618Y-97975830D01*
X190834031Y-97986866D01*
X190851274Y-97999654D01*
X190867180Y-98014070D01*
X190881596Y-98029976D01*
X190894384Y-98047219D01*
X190905420Y-98065632D01*
X190914599Y-98085038D01*
X190921831Y-98105250D01*
X190927047Y-98126074D01*
X190930197Y-98147309D01*
X190931250Y-98168750D01*
X190931250Y-98681250D01*
X190930197Y-98702691D01*
X190927047Y-98723926D01*
X190921831Y-98744750D01*
X190914599Y-98764962D01*
X190905420Y-98784368D01*
X190894384Y-98802781D01*
X190881596Y-98820024D01*
X190867180Y-98835930D01*
X190851274Y-98850346D01*
X190834031Y-98863134D01*
X190815618Y-98874170D01*
X190796212Y-98883349D01*
X190776000Y-98890581D01*
X190755176Y-98895797D01*
X190733941Y-98898947D01*
X190712500Y-98900000D01*
X190275000Y-98900000D01*
X190253559Y-98898947D01*
X190232324Y-98895797D01*
X190211500Y-98890581D01*
X190191288Y-98883349D01*
X190171882Y-98874170D01*
X190153469Y-98863134D01*
X190136226Y-98850346D01*
X190120320Y-98835930D01*
X190105904Y-98820024D01*
X190093116Y-98802781D01*
X190082080Y-98784368D01*
X190072901Y-98764962D01*
X190065669Y-98744750D01*
X190060453Y-98723926D01*
X190057303Y-98702691D01*
X190056250Y-98681250D01*
X190056250Y-98168750D01*
X190057303Y-98147309D01*
X190060453Y-98126074D01*
X190065669Y-98105250D01*
X190072901Y-98085038D01*
X190082080Y-98065632D01*
X190093116Y-98047219D01*
X190105904Y-98029976D01*
X190120320Y-98014070D01*
X190136226Y-97999654D01*
X190153469Y-97986866D01*
X190171882Y-97975830D01*
X190191288Y-97966651D01*
X190211500Y-97959419D01*
X190232324Y-97954203D01*
X190253559Y-97951053D01*
X190275000Y-97950000D01*
X190712500Y-97950000D01*
X190733941Y-97951053D01*
X190733941Y-97951053D01*
G37*
D13*
X190493750Y-98425000D03*
D12*
G36*
X189158941Y-97951053D02*
G01*
X189180176Y-97954203D01*
X189201000Y-97959419D01*
X189221212Y-97966651D01*
X189240618Y-97975830D01*
X189259031Y-97986866D01*
X189276274Y-97999654D01*
X189292180Y-98014070D01*
X189306596Y-98029976D01*
X189319384Y-98047219D01*
X189330420Y-98065632D01*
X189339599Y-98085038D01*
X189346831Y-98105250D01*
X189352047Y-98126074D01*
X189355197Y-98147309D01*
X189356250Y-98168750D01*
X189356250Y-98681250D01*
X189355197Y-98702691D01*
X189352047Y-98723926D01*
X189346831Y-98744750D01*
X189339599Y-98764962D01*
X189330420Y-98784368D01*
X189319384Y-98802781D01*
X189306596Y-98820024D01*
X189292180Y-98835930D01*
X189276274Y-98850346D01*
X189259031Y-98863134D01*
X189240618Y-98874170D01*
X189221212Y-98883349D01*
X189201000Y-98890581D01*
X189180176Y-98895797D01*
X189158941Y-98898947D01*
X189137500Y-98900000D01*
X188700000Y-98900000D01*
X188678559Y-98898947D01*
X188657324Y-98895797D01*
X188636500Y-98890581D01*
X188616288Y-98883349D01*
X188596882Y-98874170D01*
X188578469Y-98863134D01*
X188561226Y-98850346D01*
X188545320Y-98835930D01*
X188530904Y-98820024D01*
X188518116Y-98802781D01*
X188507080Y-98784368D01*
X188497901Y-98764962D01*
X188490669Y-98744750D01*
X188485453Y-98723926D01*
X188482303Y-98702691D01*
X188481250Y-98681250D01*
X188481250Y-98168750D01*
X188482303Y-98147309D01*
X188485453Y-98126074D01*
X188490669Y-98105250D01*
X188497901Y-98085038D01*
X188507080Y-98065632D01*
X188518116Y-98047219D01*
X188530904Y-98029976D01*
X188545320Y-98014070D01*
X188561226Y-97999654D01*
X188578469Y-97986866D01*
X188596882Y-97975830D01*
X188616288Y-97966651D01*
X188636500Y-97959419D01*
X188657324Y-97954203D01*
X188678559Y-97951053D01*
X188700000Y-97950000D01*
X189137500Y-97950000D01*
X189158941Y-97951053D01*
X189158941Y-97951053D01*
G37*
D13*
X188918750Y-98425000D03*
D12*
G36*
X201065191Y-82869803D02*
G01*
X201086426Y-82872953D01*
X201107250Y-82878169D01*
X201127462Y-82885401D01*
X201146868Y-82894580D01*
X201165281Y-82905616D01*
X201182524Y-82918404D01*
X201198430Y-82932820D01*
X201212846Y-82948726D01*
X201225634Y-82965969D01*
X201236670Y-82984382D01*
X201245849Y-83003788D01*
X201253081Y-83024000D01*
X201258297Y-83044824D01*
X201261447Y-83066059D01*
X201262500Y-83087500D01*
X201262500Y-83600000D01*
X201261447Y-83621441D01*
X201258297Y-83642676D01*
X201253081Y-83663500D01*
X201245849Y-83683712D01*
X201236670Y-83703118D01*
X201225634Y-83721531D01*
X201212846Y-83738774D01*
X201198430Y-83754680D01*
X201182524Y-83769096D01*
X201165281Y-83781884D01*
X201146868Y-83792920D01*
X201127462Y-83802099D01*
X201107250Y-83809331D01*
X201086426Y-83814547D01*
X201065191Y-83817697D01*
X201043750Y-83818750D01*
X200606250Y-83818750D01*
X200584809Y-83817697D01*
X200563574Y-83814547D01*
X200542750Y-83809331D01*
X200522538Y-83802099D01*
X200503132Y-83792920D01*
X200484719Y-83781884D01*
X200467476Y-83769096D01*
X200451570Y-83754680D01*
X200437154Y-83738774D01*
X200424366Y-83721531D01*
X200413330Y-83703118D01*
X200404151Y-83683712D01*
X200396919Y-83663500D01*
X200391703Y-83642676D01*
X200388553Y-83621441D01*
X200387500Y-83600000D01*
X200387500Y-83087500D01*
X200388553Y-83066059D01*
X200391703Y-83044824D01*
X200396919Y-83024000D01*
X200404151Y-83003788D01*
X200413330Y-82984382D01*
X200424366Y-82965969D01*
X200437154Y-82948726D01*
X200451570Y-82932820D01*
X200467476Y-82918404D01*
X200484719Y-82905616D01*
X200503132Y-82894580D01*
X200522538Y-82885401D01*
X200542750Y-82878169D01*
X200563574Y-82872953D01*
X200584809Y-82869803D01*
X200606250Y-82868750D01*
X201043750Y-82868750D01*
X201065191Y-82869803D01*
X201065191Y-82869803D01*
G37*
D13*
X200825000Y-83343750D03*
D12*
G36*
X202640191Y-82869803D02*
G01*
X202661426Y-82872953D01*
X202682250Y-82878169D01*
X202702462Y-82885401D01*
X202721868Y-82894580D01*
X202740281Y-82905616D01*
X202757524Y-82918404D01*
X202773430Y-82932820D01*
X202787846Y-82948726D01*
X202800634Y-82965969D01*
X202811670Y-82984382D01*
X202820849Y-83003788D01*
X202828081Y-83024000D01*
X202833297Y-83044824D01*
X202836447Y-83066059D01*
X202837500Y-83087500D01*
X202837500Y-83600000D01*
X202836447Y-83621441D01*
X202833297Y-83642676D01*
X202828081Y-83663500D01*
X202820849Y-83683712D01*
X202811670Y-83703118D01*
X202800634Y-83721531D01*
X202787846Y-83738774D01*
X202773430Y-83754680D01*
X202757524Y-83769096D01*
X202740281Y-83781884D01*
X202721868Y-83792920D01*
X202702462Y-83802099D01*
X202682250Y-83809331D01*
X202661426Y-83814547D01*
X202640191Y-83817697D01*
X202618750Y-83818750D01*
X202181250Y-83818750D01*
X202159809Y-83817697D01*
X202138574Y-83814547D01*
X202117750Y-83809331D01*
X202097538Y-83802099D01*
X202078132Y-83792920D01*
X202059719Y-83781884D01*
X202042476Y-83769096D01*
X202026570Y-83754680D01*
X202012154Y-83738774D01*
X201999366Y-83721531D01*
X201988330Y-83703118D01*
X201979151Y-83683712D01*
X201971919Y-83663500D01*
X201966703Y-83642676D01*
X201963553Y-83621441D01*
X201962500Y-83600000D01*
X201962500Y-83087500D01*
X201963553Y-83066059D01*
X201966703Y-83044824D01*
X201971919Y-83024000D01*
X201979151Y-83003788D01*
X201988330Y-82984382D01*
X201999366Y-82965969D01*
X202012154Y-82948726D01*
X202026570Y-82932820D01*
X202042476Y-82918404D01*
X202059719Y-82905616D01*
X202078132Y-82894580D01*
X202097538Y-82885401D01*
X202117750Y-82878169D01*
X202138574Y-82872953D01*
X202159809Y-82869803D01*
X202181250Y-82868750D01*
X202618750Y-82868750D01*
X202640191Y-82869803D01*
X202640191Y-82869803D01*
G37*
D13*
X202400000Y-83343750D03*
D12*
G36*
X204271441Y-101157303D02*
G01*
X204292676Y-101160453D01*
X204313500Y-101165669D01*
X204333712Y-101172901D01*
X204353118Y-101182080D01*
X204371531Y-101193116D01*
X204388774Y-101205904D01*
X204404680Y-101220320D01*
X204419096Y-101236226D01*
X204431884Y-101253469D01*
X204442920Y-101271882D01*
X204452099Y-101291288D01*
X204459331Y-101311500D01*
X204464547Y-101332324D01*
X204467697Y-101353559D01*
X204468750Y-101375000D01*
X204468750Y-101812500D01*
X204467697Y-101833941D01*
X204464547Y-101855176D01*
X204459331Y-101876000D01*
X204452099Y-101896212D01*
X204442920Y-101915618D01*
X204431884Y-101934031D01*
X204419096Y-101951274D01*
X204404680Y-101967180D01*
X204388774Y-101981596D01*
X204371531Y-101994384D01*
X204353118Y-102005420D01*
X204333712Y-102014599D01*
X204313500Y-102021831D01*
X204292676Y-102027047D01*
X204271441Y-102030197D01*
X204250000Y-102031250D01*
X203737500Y-102031250D01*
X203716059Y-102030197D01*
X203694824Y-102027047D01*
X203674000Y-102021831D01*
X203653788Y-102014599D01*
X203634382Y-102005420D01*
X203615969Y-101994384D01*
X203598726Y-101981596D01*
X203582820Y-101967180D01*
X203568404Y-101951274D01*
X203555616Y-101934031D01*
X203544580Y-101915618D01*
X203535401Y-101896212D01*
X203528169Y-101876000D01*
X203522953Y-101855176D01*
X203519803Y-101833941D01*
X203518750Y-101812500D01*
X203518750Y-101375000D01*
X203519803Y-101353559D01*
X203522953Y-101332324D01*
X203528169Y-101311500D01*
X203535401Y-101291288D01*
X203544580Y-101271882D01*
X203555616Y-101253469D01*
X203568404Y-101236226D01*
X203582820Y-101220320D01*
X203598726Y-101205904D01*
X203615969Y-101193116D01*
X203634382Y-101182080D01*
X203653788Y-101172901D01*
X203674000Y-101165669D01*
X203694824Y-101160453D01*
X203716059Y-101157303D01*
X203737500Y-101156250D01*
X204250000Y-101156250D01*
X204271441Y-101157303D01*
X204271441Y-101157303D01*
G37*
D13*
X203993750Y-101593750D03*
D12*
G36*
X204271441Y-99582303D02*
G01*
X204292676Y-99585453D01*
X204313500Y-99590669D01*
X204333712Y-99597901D01*
X204353118Y-99607080D01*
X204371531Y-99618116D01*
X204388774Y-99630904D01*
X204404680Y-99645320D01*
X204419096Y-99661226D01*
X204431884Y-99678469D01*
X204442920Y-99696882D01*
X204452099Y-99716288D01*
X204459331Y-99736500D01*
X204464547Y-99757324D01*
X204467697Y-99778559D01*
X204468750Y-99800000D01*
X204468750Y-100237500D01*
X204467697Y-100258941D01*
X204464547Y-100280176D01*
X204459331Y-100301000D01*
X204452099Y-100321212D01*
X204442920Y-100340618D01*
X204431884Y-100359031D01*
X204419096Y-100376274D01*
X204404680Y-100392180D01*
X204388774Y-100406596D01*
X204371531Y-100419384D01*
X204353118Y-100430420D01*
X204333712Y-100439599D01*
X204313500Y-100446831D01*
X204292676Y-100452047D01*
X204271441Y-100455197D01*
X204250000Y-100456250D01*
X203737500Y-100456250D01*
X203716059Y-100455197D01*
X203694824Y-100452047D01*
X203674000Y-100446831D01*
X203653788Y-100439599D01*
X203634382Y-100430420D01*
X203615969Y-100419384D01*
X203598726Y-100406596D01*
X203582820Y-100392180D01*
X203568404Y-100376274D01*
X203555616Y-100359031D01*
X203544580Y-100340618D01*
X203535401Y-100321212D01*
X203528169Y-100301000D01*
X203522953Y-100280176D01*
X203519803Y-100258941D01*
X203518750Y-100237500D01*
X203518750Y-99800000D01*
X203519803Y-99778559D01*
X203522953Y-99757324D01*
X203528169Y-99736500D01*
X203535401Y-99716288D01*
X203544580Y-99696882D01*
X203555616Y-99678469D01*
X203568404Y-99661226D01*
X203582820Y-99645320D01*
X203598726Y-99630904D01*
X203615969Y-99618116D01*
X203634382Y-99607080D01*
X203653788Y-99597901D01*
X203674000Y-99590669D01*
X203694824Y-99585453D01*
X203716059Y-99582303D01*
X203737500Y-99581250D01*
X204250000Y-99581250D01*
X204271441Y-99582303D01*
X204271441Y-99582303D01*
G37*
D13*
X203993750Y-100018750D03*
D12*
G36*
X206621441Y-90013553D02*
G01*
X206642676Y-90016703D01*
X206663500Y-90021919D01*
X206683712Y-90029151D01*
X206703118Y-90038330D01*
X206721531Y-90049366D01*
X206738774Y-90062154D01*
X206754680Y-90076570D01*
X206769096Y-90092476D01*
X206781884Y-90109719D01*
X206792920Y-90128132D01*
X206802099Y-90147538D01*
X206809331Y-90167750D01*
X206814547Y-90188574D01*
X206817697Y-90209809D01*
X206818750Y-90231250D01*
X206818750Y-90743750D01*
X206817697Y-90765191D01*
X206814547Y-90786426D01*
X206809331Y-90807250D01*
X206802099Y-90827462D01*
X206792920Y-90846868D01*
X206781884Y-90865281D01*
X206769096Y-90882524D01*
X206754680Y-90898430D01*
X206738774Y-90912846D01*
X206721531Y-90925634D01*
X206703118Y-90936670D01*
X206683712Y-90945849D01*
X206663500Y-90953081D01*
X206642676Y-90958297D01*
X206621441Y-90961447D01*
X206600000Y-90962500D01*
X206162500Y-90962500D01*
X206141059Y-90961447D01*
X206119824Y-90958297D01*
X206099000Y-90953081D01*
X206078788Y-90945849D01*
X206059382Y-90936670D01*
X206040969Y-90925634D01*
X206023726Y-90912846D01*
X206007820Y-90898430D01*
X205993404Y-90882524D01*
X205980616Y-90865281D01*
X205969580Y-90846868D01*
X205960401Y-90827462D01*
X205953169Y-90807250D01*
X205947953Y-90786426D01*
X205944803Y-90765191D01*
X205943750Y-90743750D01*
X205943750Y-90231250D01*
X205944803Y-90209809D01*
X205947953Y-90188574D01*
X205953169Y-90167750D01*
X205960401Y-90147538D01*
X205969580Y-90128132D01*
X205980616Y-90109719D01*
X205993404Y-90092476D01*
X206007820Y-90076570D01*
X206023726Y-90062154D01*
X206040969Y-90049366D01*
X206059382Y-90038330D01*
X206078788Y-90029151D01*
X206099000Y-90021919D01*
X206119824Y-90016703D01*
X206141059Y-90013553D01*
X206162500Y-90012500D01*
X206600000Y-90012500D01*
X206621441Y-90013553D01*
X206621441Y-90013553D01*
G37*
D13*
X206381250Y-90487500D03*
D12*
G36*
X208196441Y-90013553D02*
G01*
X208217676Y-90016703D01*
X208238500Y-90021919D01*
X208258712Y-90029151D01*
X208278118Y-90038330D01*
X208296531Y-90049366D01*
X208313774Y-90062154D01*
X208329680Y-90076570D01*
X208344096Y-90092476D01*
X208356884Y-90109719D01*
X208367920Y-90128132D01*
X208377099Y-90147538D01*
X208384331Y-90167750D01*
X208389547Y-90188574D01*
X208392697Y-90209809D01*
X208393750Y-90231250D01*
X208393750Y-90743750D01*
X208392697Y-90765191D01*
X208389547Y-90786426D01*
X208384331Y-90807250D01*
X208377099Y-90827462D01*
X208367920Y-90846868D01*
X208356884Y-90865281D01*
X208344096Y-90882524D01*
X208329680Y-90898430D01*
X208313774Y-90912846D01*
X208296531Y-90925634D01*
X208278118Y-90936670D01*
X208258712Y-90945849D01*
X208238500Y-90953081D01*
X208217676Y-90958297D01*
X208196441Y-90961447D01*
X208175000Y-90962500D01*
X207737500Y-90962500D01*
X207716059Y-90961447D01*
X207694824Y-90958297D01*
X207674000Y-90953081D01*
X207653788Y-90945849D01*
X207634382Y-90936670D01*
X207615969Y-90925634D01*
X207598726Y-90912846D01*
X207582820Y-90898430D01*
X207568404Y-90882524D01*
X207555616Y-90865281D01*
X207544580Y-90846868D01*
X207535401Y-90827462D01*
X207528169Y-90807250D01*
X207522953Y-90786426D01*
X207519803Y-90765191D01*
X207518750Y-90743750D01*
X207518750Y-90231250D01*
X207519803Y-90209809D01*
X207522953Y-90188574D01*
X207528169Y-90167750D01*
X207535401Y-90147538D01*
X207544580Y-90128132D01*
X207555616Y-90109719D01*
X207568404Y-90092476D01*
X207582820Y-90076570D01*
X207598726Y-90062154D01*
X207615969Y-90049366D01*
X207634382Y-90038330D01*
X207653788Y-90029151D01*
X207674000Y-90021919D01*
X207694824Y-90016703D01*
X207716059Y-90013553D01*
X207737500Y-90012500D01*
X208175000Y-90012500D01*
X208196441Y-90013553D01*
X208196441Y-90013553D01*
G37*
D13*
X207956250Y-90487500D03*
D12*
G36*
X201096441Y-101963553D02*
G01*
X201117676Y-101966703D01*
X201138500Y-101971919D01*
X201158712Y-101979151D01*
X201178118Y-101988330D01*
X201196531Y-101999366D01*
X201213774Y-102012154D01*
X201229680Y-102026570D01*
X201244096Y-102042476D01*
X201256884Y-102059719D01*
X201267920Y-102078132D01*
X201277099Y-102097538D01*
X201284331Y-102117750D01*
X201289547Y-102138574D01*
X201292697Y-102159809D01*
X201293750Y-102181250D01*
X201293750Y-102618750D01*
X201292697Y-102640191D01*
X201289547Y-102661426D01*
X201284331Y-102682250D01*
X201277099Y-102702462D01*
X201267920Y-102721868D01*
X201256884Y-102740281D01*
X201244096Y-102757524D01*
X201229680Y-102773430D01*
X201213774Y-102787846D01*
X201196531Y-102800634D01*
X201178118Y-102811670D01*
X201158712Y-102820849D01*
X201138500Y-102828081D01*
X201117676Y-102833297D01*
X201096441Y-102836447D01*
X201075000Y-102837500D01*
X200562500Y-102837500D01*
X200541059Y-102836447D01*
X200519824Y-102833297D01*
X200499000Y-102828081D01*
X200478788Y-102820849D01*
X200459382Y-102811670D01*
X200440969Y-102800634D01*
X200423726Y-102787846D01*
X200407820Y-102773430D01*
X200393404Y-102757524D01*
X200380616Y-102740281D01*
X200369580Y-102721868D01*
X200360401Y-102702462D01*
X200353169Y-102682250D01*
X200347953Y-102661426D01*
X200344803Y-102640191D01*
X200343750Y-102618750D01*
X200343750Y-102181250D01*
X200344803Y-102159809D01*
X200347953Y-102138574D01*
X200353169Y-102117750D01*
X200360401Y-102097538D01*
X200369580Y-102078132D01*
X200380616Y-102059719D01*
X200393404Y-102042476D01*
X200407820Y-102026570D01*
X200423726Y-102012154D01*
X200440969Y-101999366D01*
X200459382Y-101988330D01*
X200478788Y-101979151D01*
X200499000Y-101971919D01*
X200519824Y-101966703D01*
X200541059Y-101963553D01*
X200562500Y-101962500D01*
X201075000Y-101962500D01*
X201096441Y-101963553D01*
X201096441Y-101963553D01*
G37*
D13*
X200818750Y-102400000D03*
D12*
G36*
X201096441Y-103538553D02*
G01*
X201117676Y-103541703D01*
X201138500Y-103546919D01*
X201158712Y-103554151D01*
X201178118Y-103563330D01*
X201196531Y-103574366D01*
X201213774Y-103587154D01*
X201229680Y-103601570D01*
X201244096Y-103617476D01*
X201256884Y-103634719D01*
X201267920Y-103653132D01*
X201277099Y-103672538D01*
X201284331Y-103692750D01*
X201289547Y-103713574D01*
X201292697Y-103734809D01*
X201293750Y-103756250D01*
X201293750Y-104193750D01*
X201292697Y-104215191D01*
X201289547Y-104236426D01*
X201284331Y-104257250D01*
X201277099Y-104277462D01*
X201267920Y-104296868D01*
X201256884Y-104315281D01*
X201244096Y-104332524D01*
X201229680Y-104348430D01*
X201213774Y-104362846D01*
X201196531Y-104375634D01*
X201178118Y-104386670D01*
X201158712Y-104395849D01*
X201138500Y-104403081D01*
X201117676Y-104408297D01*
X201096441Y-104411447D01*
X201075000Y-104412500D01*
X200562500Y-104412500D01*
X200541059Y-104411447D01*
X200519824Y-104408297D01*
X200499000Y-104403081D01*
X200478788Y-104395849D01*
X200459382Y-104386670D01*
X200440969Y-104375634D01*
X200423726Y-104362846D01*
X200407820Y-104348430D01*
X200393404Y-104332524D01*
X200380616Y-104315281D01*
X200369580Y-104296868D01*
X200360401Y-104277462D01*
X200353169Y-104257250D01*
X200347953Y-104236426D01*
X200344803Y-104215191D01*
X200343750Y-104193750D01*
X200343750Y-103756250D01*
X200344803Y-103734809D01*
X200347953Y-103713574D01*
X200353169Y-103692750D01*
X200360401Y-103672538D01*
X200369580Y-103653132D01*
X200380616Y-103634719D01*
X200393404Y-103617476D01*
X200407820Y-103601570D01*
X200423726Y-103587154D01*
X200440969Y-103574366D01*
X200459382Y-103563330D01*
X200478788Y-103554151D01*
X200499000Y-103546919D01*
X200519824Y-103541703D01*
X200541059Y-103538553D01*
X200562500Y-103537500D01*
X201075000Y-103537500D01*
X201096441Y-103538553D01*
X201096441Y-103538553D01*
G37*
D13*
X200818750Y-103975000D03*
D12*
G36*
X193952691Y-103538553D02*
G01*
X193973926Y-103541703D01*
X193994750Y-103546919D01*
X194014962Y-103554151D01*
X194034368Y-103563330D01*
X194052781Y-103574366D01*
X194070024Y-103587154D01*
X194085930Y-103601570D01*
X194100346Y-103617476D01*
X194113134Y-103634719D01*
X194124170Y-103653132D01*
X194133349Y-103672538D01*
X194140581Y-103692750D01*
X194145797Y-103713574D01*
X194148947Y-103734809D01*
X194150000Y-103756250D01*
X194150000Y-104193750D01*
X194148947Y-104215191D01*
X194145797Y-104236426D01*
X194140581Y-104257250D01*
X194133349Y-104277462D01*
X194124170Y-104296868D01*
X194113134Y-104315281D01*
X194100346Y-104332524D01*
X194085930Y-104348430D01*
X194070024Y-104362846D01*
X194052781Y-104375634D01*
X194034368Y-104386670D01*
X194014962Y-104395849D01*
X193994750Y-104403081D01*
X193973926Y-104408297D01*
X193952691Y-104411447D01*
X193931250Y-104412500D01*
X193418750Y-104412500D01*
X193397309Y-104411447D01*
X193376074Y-104408297D01*
X193355250Y-104403081D01*
X193335038Y-104395849D01*
X193315632Y-104386670D01*
X193297219Y-104375634D01*
X193279976Y-104362846D01*
X193264070Y-104348430D01*
X193249654Y-104332524D01*
X193236866Y-104315281D01*
X193225830Y-104296868D01*
X193216651Y-104277462D01*
X193209419Y-104257250D01*
X193204203Y-104236426D01*
X193201053Y-104215191D01*
X193200000Y-104193750D01*
X193200000Y-103756250D01*
X193201053Y-103734809D01*
X193204203Y-103713574D01*
X193209419Y-103692750D01*
X193216651Y-103672538D01*
X193225830Y-103653132D01*
X193236866Y-103634719D01*
X193249654Y-103617476D01*
X193264070Y-103601570D01*
X193279976Y-103587154D01*
X193297219Y-103574366D01*
X193315632Y-103563330D01*
X193335038Y-103554151D01*
X193355250Y-103546919D01*
X193376074Y-103541703D01*
X193397309Y-103538553D01*
X193418750Y-103537500D01*
X193931250Y-103537500D01*
X193952691Y-103538553D01*
X193952691Y-103538553D01*
G37*
D13*
X193675000Y-103975000D03*
D12*
G36*
X193952691Y-101963553D02*
G01*
X193973926Y-101966703D01*
X193994750Y-101971919D01*
X194014962Y-101979151D01*
X194034368Y-101988330D01*
X194052781Y-101999366D01*
X194070024Y-102012154D01*
X194085930Y-102026570D01*
X194100346Y-102042476D01*
X194113134Y-102059719D01*
X194124170Y-102078132D01*
X194133349Y-102097538D01*
X194140581Y-102117750D01*
X194145797Y-102138574D01*
X194148947Y-102159809D01*
X194150000Y-102181250D01*
X194150000Y-102618750D01*
X194148947Y-102640191D01*
X194145797Y-102661426D01*
X194140581Y-102682250D01*
X194133349Y-102702462D01*
X194124170Y-102721868D01*
X194113134Y-102740281D01*
X194100346Y-102757524D01*
X194085930Y-102773430D01*
X194070024Y-102787846D01*
X194052781Y-102800634D01*
X194034368Y-102811670D01*
X194014962Y-102820849D01*
X193994750Y-102828081D01*
X193973926Y-102833297D01*
X193952691Y-102836447D01*
X193931250Y-102837500D01*
X193418750Y-102837500D01*
X193397309Y-102836447D01*
X193376074Y-102833297D01*
X193355250Y-102828081D01*
X193335038Y-102820849D01*
X193315632Y-102811670D01*
X193297219Y-102800634D01*
X193279976Y-102787846D01*
X193264070Y-102773430D01*
X193249654Y-102757524D01*
X193236866Y-102740281D01*
X193225830Y-102721868D01*
X193216651Y-102702462D01*
X193209419Y-102682250D01*
X193204203Y-102661426D01*
X193201053Y-102640191D01*
X193200000Y-102618750D01*
X193200000Y-102181250D01*
X193201053Y-102159809D01*
X193204203Y-102138574D01*
X193209419Y-102117750D01*
X193216651Y-102097538D01*
X193225830Y-102078132D01*
X193236866Y-102059719D01*
X193249654Y-102042476D01*
X193264070Y-102026570D01*
X193279976Y-102012154D01*
X193297219Y-101999366D01*
X193315632Y-101988330D01*
X193335038Y-101979151D01*
X193355250Y-101971919D01*
X193376074Y-101966703D01*
X193397309Y-101963553D01*
X193418750Y-101962500D01*
X193931250Y-101962500D01*
X193952691Y-101963553D01*
X193952691Y-101963553D01*
G37*
D13*
X193675000Y-102400000D03*
D12*
G36*
X86002691Y-86088553D02*
G01*
X86023926Y-86091703D01*
X86044750Y-86096919D01*
X86064962Y-86104151D01*
X86084368Y-86113330D01*
X86102781Y-86124366D01*
X86120024Y-86137154D01*
X86135930Y-86151570D01*
X86150346Y-86167476D01*
X86163134Y-86184719D01*
X86174170Y-86203132D01*
X86183349Y-86222538D01*
X86190581Y-86242750D01*
X86195797Y-86263574D01*
X86198947Y-86284809D01*
X86200000Y-86306250D01*
X86200000Y-86743750D01*
X86198947Y-86765191D01*
X86195797Y-86786426D01*
X86190581Y-86807250D01*
X86183349Y-86827462D01*
X86174170Y-86846868D01*
X86163134Y-86865281D01*
X86150346Y-86882524D01*
X86135930Y-86898430D01*
X86120024Y-86912846D01*
X86102781Y-86925634D01*
X86084368Y-86936670D01*
X86064962Y-86945849D01*
X86044750Y-86953081D01*
X86023926Y-86958297D01*
X86002691Y-86961447D01*
X85981250Y-86962500D01*
X85468750Y-86962500D01*
X85447309Y-86961447D01*
X85426074Y-86958297D01*
X85405250Y-86953081D01*
X85385038Y-86945849D01*
X85365632Y-86936670D01*
X85347219Y-86925634D01*
X85329976Y-86912846D01*
X85314070Y-86898430D01*
X85299654Y-86882524D01*
X85286866Y-86865281D01*
X85275830Y-86846868D01*
X85266651Y-86827462D01*
X85259419Y-86807250D01*
X85254203Y-86786426D01*
X85251053Y-86765191D01*
X85250000Y-86743750D01*
X85250000Y-86306250D01*
X85251053Y-86284809D01*
X85254203Y-86263574D01*
X85259419Y-86242750D01*
X85266651Y-86222538D01*
X85275830Y-86203132D01*
X85286866Y-86184719D01*
X85299654Y-86167476D01*
X85314070Y-86151570D01*
X85329976Y-86137154D01*
X85347219Y-86124366D01*
X85365632Y-86113330D01*
X85385038Y-86104151D01*
X85405250Y-86096919D01*
X85426074Y-86091703D01*
X85447309Y-86088553D01*
X85468750Y-86087500D01*
X85981250Y-86087500D01*
X86002691Y-86088553D01*
X86002691Y-86088553D01*
G37*
D13*
X85725000Y-86525000D03*
D12*
G36*
X86002691Y-87663553D02*
G01*
X86023926Y-87666703D01*
X86044750Y-87671919D01*
X86064962Y-87679151D01*
X86084368Y-87688330D01*
X86102781Y-87699366D01*
X86120024Y-87712154D01*
X86135930Y-87726570D01*
X86150346Y-87742476D01*
X86163134Y-87759719D01*
X86174170Y-87778132D01*
X86183349Y-87797538D01*
X86190581Y-87817750D01*
X86195797Y-87838574D01*
X86198947Y-87859809D01*
X86200000Y-87881250D01*
X86200000Y-88318750D01*
X86198947Y-88340191D01*
X86195797Y-88361426D01*
X86190581Y-88382250D01*
X86183349Y-88402462D01*
X86174170Y-88421868D01*
X86163134Y-88440281D01*
X86150346Y-88457524D01*
X86135930Y-88473430D01*
X86120024Y-88487846D01*
X86102781Y-88500634D01*
X86084368Y-88511670D01*
X86064962Y-88520849D01*
X86044750Y-88528081D01*
X86023926Y-88533297D01*
X86002691Y-88536447D01*
X85981250Y-88537500D01*
X85468750Y-88537500D01*
X85447309Y-88536447D01*
X85426074Y-88533297D01*
X85405250Y-88528081D01*
X85385038Y-88520849D01*
X85365632Y-88511670D01*
X85347219Y-88500634D01*
X85329976Y-88487846D01*
X85314070Y-88473430D01*
X85299654Y-88457524D01*
X85286866Y-88440281D01*
X85275830Y-88421868D01*
X85266651Y-88402462D01*
X85259419Y-88382250D01*
X85254203Y-88361426D01*
X85251053Y-88340191D01*
X85250000Y-88318750D01*
X85250000Y-87881250D01*
X85251053Y-87859809D01*
X85254203Y-87838574D01*
X85259419Y-87817750D01*
X85266651Y-87797538D01*
X85275830Y-87778132D01*
X85286866Y-87759719D01*
X85299654Y-87742476D01*
X85314070Y-87726570D01*
X85329976Y-87712154D01*
X85347219Y-87699366D01*
X85365632Y-87688330D01*
X85385038Y-87679151D01*
X85405250Y-87671919D01*
X85426074Y-87666703D01*
X85447309Y-87663553D01*
X85468750Y-87662500D01*
X85981250Y-87662500D01*
X86002691Y-87663553D01*
X86002691Y-87663553D01*
G37*
D13*
X85725000Y-88100000D03*
D12*
G36*
X104258941Y-90851053D02*
G01*
X104280176Y-90854203D01*
X104301000Y-90859419D01*
X104321212Y-90866651D01*
X104340618Y-90875830D01*
X104359031Y-90886866D01*
X104376274Y-90899654D01*
X104392180Y-90914070D01*
X104406596Y-90929976D01*
X104419384Y-90947219D01*
X104430420Y-90965632D01*
X104439599Y-90985038D01*
X104446831Y-91005250D01*
X104452047Y-91026074D01*
X104455197Y-91047309D01*
X104456250Y-91068750D01*
X104456250Y-91506250D01*
X104455197Y-91527691D01*
X104452047Y-91548926D01*
X104446831Y-91569750D01*
X104439599Y-91589962D01*
X104430420Y-91609368D01*
X104419384Y-91627781D01*
X104406596Y-91645024D01*
X104392180Y-91660930D01*
X104376274Y-91675346D01*
X104359031Y-91688134D01*
X104340618Y-91699170D01*
X104321212Y-91708349D01*
X104301000Y-91715581D01*
X104280176Y-91720797D01*
X104258941Y-91723947D01*
X104237500Y-91725000D01*
X103725000Y-91725000D01*
X103703559Y-91723947D01*
X103682324Y-91720797D01*
X103661500Y-91715581D01*
X103641288Y-91708349D01*
X103621882Y-91699170D01*
X103603469Y-91688134D01*
X103586226Y-91675346D01*
X103570320Y-91660930D01*
X103555904Y-91645024D01*
X103543116Y-91627781D01*
X103532080Y-91609368D01*
X103522901Y-91589962D01*
X103515669Y-91569750D01*
X103510453Y-91548926D01*
X103507303Y-91527691D01*
X103506250Y-91506250D01*
X103506250Y-91068750D01*
X103507303Y-91047309D01*
X103510453Y-91026074D01*
X103515669Y-91005250D01*
X103522901Y-90985038D01*
X103532080Y-90965632D01*
X103543116Y-90947219D01*
X103555904Y-90929976D01*
X103570320Y-90914070D01*
X103586226Y-90899654D01*
X103603469Y-90886866D01*
X103621882Y-90875830D01*
X103641288Y-90866651D01*
X103661500Y-90859419D01*
X103682324Y-90854203D01*
X103703559Y-90851053D01*
X103725000Y-90850000D01*
X104237500Y-90850000D01*
X104258941Y-90851053D01*
X104258941Y-90851053D01*
G37*
D13*
X103981250Y-91287500D03*
D12*
G36*
X104258941Y-92426053D02*
G01*
X104280176Y-92429203D01*
X104301000Y-92434419D01*
X104321212Y-92441651D01*
X104340618Y-92450830D01*
X104359031Y-92461866D01*
X104376274Y-92474654D01*
X104392180Y-92489070D01*
X104406596Y-92504976D01*
X104419384Y-92522219D01*
X104430420Y-92540632D01*
X104439599Y-92560038D01*
X104446831Y-92580250D01*
X104452047Y-92601074D01*
X104455197Y-92622309D01*
X104456250Y-92643750D01*
X104456250Y-93081250D01*
X104455197Y-93102691D01*
X104452047Y-93123926D01*
X104446831Y-93144750D01*
X104439599Y-93164962D01*
X104430420Y-93184368D01*
X104419384Y-93202781D01*
X104406596Y-93220024D01*
X104392180Y-93235930D01*
X104376274Y-93250346D01*
X104359031Y-93263134D01*
X104340618Y-93274170D01*
X104321212Y-93283349D01*
X104301000Y-93290581D01*
X104280176Y-93295797D01*
X104258941Y-93298947D01*
X104237500Y-93300000D01*
X103725000Y-93300000D01*
X103703559Y-93298947D01*
X103682324Y-93295797D01*
X103661500Y-93290581D01*
X103641288Y-93283349D01*
X103621882Y-93274170D01*
X103603469Y-93263134D01*
X103586226Y-93250346D01*
X103570320Y-93235930D01*
X103555904Y-93220024D01*
X103543116Y-93202781D01*
X103532080Y-93184368D01*
X103522901Y-93164962D01*
X103515669Y-93144750D01*
X103510453Y-93123926D01*
X103507303Y-93102691D01*
X103506250Y-93081250D01*
X103506250Y-92643750D01*
X103507303Y-92622309D01*
X103510453Y-92601074D01*
X103515669Y-92580250D01*
X103522901Y-92560038D01*
X103532080Y-92540632D01*
X103543116Y-92522219D01*
X103555904Y-92504976D01*
X103570320Y-92489070D01*
X103586226Y-92474654D01*
X103603469Y-92461866D01*
X103621882Y-92450830D01*
X103641288Y-92441651D01*
X103661500Y-92434419D01*
X103682324Y-92429203D01*
X103703559Y-92426053D01*
X103725000Y-92425000D01*
X104237500Y-92425000D01*
X104258941Y-92426053D01*
X104258941Y-92426053D01*
G37*
D13*
X103981250Y-92862500D03*
D12*
G36*
X99465191Y-105094803D02*
G01*
X99486426Y-105097953D01*
X99507250Y-105103169D01*
X99527462Y-105110401D01*
X99546868Y-105119580D01*
X99565281Y-105130616D01*
X99582524Y-105143404D01*
X99598430Y-105157820D01*
X99612846Y-105173726D01*
X99625634Y-105190969D01*
X99636670Y-105209382D01*
X99645849Y-105228788D01*
X99653081Y-105249000D01*
X99658297Y-105269824D01*
X99661447Y-105291059D01*
X99662500Y-105312500D01*
X99662500Y-105825000D01*
X99661447Y-105846441D01*
X99658297Y-105867676D01*
X99653081Y-105888500D01*
X99645849Y-105908712D01*
X99636670Y-105928118D01*
X99625634Y-105946531D01*
X99612846Y-105963774D01*
X99598430Y-105979680D01*
X99582524Y-105994096D01*
X99565281Y-106006884D01*
X99546868Y-106017920D01*
X99527462Y-106027099D01*
X99507250Y-106034331D01*
X99486426Y-106039547D01*
X99465191Y-106042697D01*
X99443750Y-106043750D01*
X99006250Y-106043750D01*
X98984809Y-106042697D01*
X98963574Y-106039547D01*
X98942750Y-106034331D01*
X98922538Y-106027099D01*
X98903132Y-106017920D01*
X98884719Y-106006884D01*
X98867476Y-105994096D01*
X98851570Y-105979680D01*
X98837154Y-105963774D01*
X98824366Y-105946531D01*
X98813330Y-105928118D01*
X98804151Y-105908712D01*
X98796919Y-105888500D01*
X98791703Y-105867676D01*
X98788553Y-105846441D01*
X98787500Y-105825000D01*
X98787500Y-105312500D01*
X98788553Y-105291059D01*
X98791703Y-105269824D01*
X98796919Y-105249000D01*
X98804151Y-105228788D01*
X98813330Y-105209382D01*
X98824366Y-105190969D01*
X98837154Y-105173726D01*
X98851570Y-105157820D01*
X98867476Y-105143404D01*
X98884719Y-105130616D01*
X98903132Y-105119580D01*
X98922538Y-105110401D01*
X98942750Y-105103169D01*
X98963574Y-105097953D01*
X98984809Y-105094803D01*
X99006250Y-105093750D01*
X99443750Y-105093750D01*
X99465191Y-105094803D01*
X99465191Y-105094803D01*
G37*
D13*
X99225000Y-105568750D03*
D12*
G36*
X101040191Y-105094803D02*
G01*
X101061426Y-105097953D01*
X101082250Y-105103169D01*
X101102462Y-105110401D01*
X101121868Y-105119580D01*
X101140281Y-105130616D01*
X101157524Y-105143404D01*
X101173430Y-105157820D01*
X101187846Y-105173726D01*
X101200634Y-105190969D01*
X101211670Y-105209382D01*
X101220849Y-105228788D01*
X101228081Y-105249000D01*
X101233297Y-105269824D01*
X101236447Y-105291059D01*
X101237500Y-105312500D01*
X101237500Y-105825000D01*
X101236447Y-105846441D01*
X101233297Y-105867676D01*
X101228081Y-105888500D01*
X101220849Y-105908712D01*
X101211670Y-105928118D01*
X101200634Y-105946531D01*
X101187846Y-105963774D01*
X101173430Y-105979680D01*
X101157524Y-105994096D01*
X101140281Y-106006884D01*
X101121868Y-106017920D01*
X101102462Y-106027099D01*
X101082250Y-106034331D01*
X101061426Y-106039547D01*
X101040191Y-106042697D01*
X101018750Y-106043750D01*
X100581250Y-106043750D01*
X100559809Y-106042697D01*
X100538574Y-106039547D01*
X100517750Y-106034331D01*
X100497538Y-106027099D01*
X100478132Y-106017920D01*
X100459719Y-106006884D01*
X100442476Y-105994096D01*
X100426570Y-105979680D01*
X100412154Y-105963774D01*
X100399366Y-105946531D01*
X100388330Y-105928118D01*
X100379151Y-105908712D01*
X100371919Y-105888500D01*
X100366703Y-105867676D01*
X100363553Y-105846441D01*
X100362500Y-105825000D01*
X100362500Y-105312500D01*
X100363553Y-105291059D01*
X100366703Y-105269824D01*
X100371919Y-105249000D01*
X100379151Y-105228788D01*
X100388330Y-105209382D01*
X100399366Y-105190969D01*
X100412154Y-105173726D01*
X100426570Y-105157820D01*
X100442476Y-105143404D01*
X100459719Y-105130616D01*
X100478132Y-105119580D01*
X100497538Y-105110401D01*
X100517750Y-105103169D01*
X100538574Y-105097953D01*
X100559809Y-105094803D01*
X100581250Y-105093750D01*
X101018750Y-105093750D01*
X101040191Y-105094803D01*
X101040191Y-105094803D01*
G37*
D13*
X100800000Y-105568750D03*
D12*
G36*
X88383941Y-86088553D02*
G01*
X88405176Y-86091703D01*
X88426000Y-86096919D01*
X88446212Y-86104151D01*
X88465618Y-86113330D01*
X88484031Y-86124366D01*
X88501274Y-86137154D01*
X88517180Y-86151570D01*
X88531596Y-86167476D01*
X88544384Y-86184719D01*
X88555420Y-86203132D01*
X88564599Y-86222538D01*
X88571831Y-86242750D01*
X88577047Y-86263574D01*
X88580197Y-86284809D01*
X88581250Y-86306250D01*
X88581250Y-86743750D01*
X88580197Y-86765191D01*
X88577047Y-86786426D01*
X88571831Y-86807250D01*
X88564599Y-86827462D01*
X88555420Y-86846868D01*
X88544384Y-86865281D01*
X88531596Y-86882524D01*
X88517180Y-86898430D01*
X88501274Y-86912846D01*
X88484031Y-86925634D01*
X88465618Y-86936670D01*
X88446212Y-86945849D01*
X88426000Y-86953081D01*
X88405176Y-86958297D01*
X88383941Y-86961447D01*
X88362500Y-86962500D01*
X87850000Y-86962500D01*
X87828559Y-86961447D01*
X87807324Y-86958297D01*
X87786500Y-86953081D01*
X87766288Y-86945849D01*
X87746882Y-86936670D01*
X87728469Y-86925634D01*
X87711226Y-86912846D01*
X87695320Y-86898430D01*
X87680904Y-86882524D01*
X87668116Y-86865281D01*
X87657080Y-86846868D01*
X87647901Y-86827462D01*
X87640669Y-86807250D01*
X87635453Y-86786426D01*
X87632303Y-86765191D01*
X87631250Y-86743750D01*
X87631250Y-86306250D01*
X87632303Y-86284809D01*
X87635453Y-86263574D01*
X87640669Y-86242750D01*
X87647901Y-86222538D01*
X87657080Y-86203132D01*
X87668116Y-86184719D01*
X87680904Y-86167476D01*
X87695320Y-86151570D01*
X87711226Y-86137154D01*
X87728469Y-86124366D01*
X87746882Y-86113330D01*
X87766288Y-86104151D01*
X87786500Y-86096919D01*
X87807324Y-86091703D01*
X87828559Y-86088553D01*
X87850000Y-86087500D01*
X88362500Y-86087500D01*
X88383941Y-86088553D01*
X88383941Y-86088553D01*
G37*
D13*
X88106250Y-86525000D03*
D12*
G36*
X88383941Y-87663553D02*
G01*
X88405176Y-87666703D01*
X88426000Y-87671919D01*
X88446212Y-87679151D01*
X88465618Y-87688330D01*
X88484031Y-87699366D01*
X88501274Y-87712154D01*
X88517180Y-87726570D01*
X88531596Y-87742476D01*
X88544384Y-87759719D01*
X88555420Y-87778132D01*
X88564599Y-87797538D01*
X88571831Y-87817750D01*
X88577047Y-87838574D01*
X88580197Y-87859809D01*
X88581250Y-87881250D01*
X88581250Y-88318750D01*
X88580197Y-88340191D01*
X88577047Y-88361426D01*
X88571831Y-88382250D01*
X88564599Y-88402462D01*
X88555420Y-88421868D01*
X88544384Y-88440281D01*
X88531596Y-88457524D01*
X88517180Y-88473430D01*
X88501274Y-88487846D01*
X88484031Y-88500634D01*
X88465618Y-88511670D01*
X88446212Y-88520849D01*
X88426000Y-88528081D01*
X88405176Y-88533297D01*
X88383941Y-88536447D01*
X88362500Y-88537500D01*
X87850000Y-88537500D01*
X87828559Y-88536447D01*
X87807324Y-88533297D01*
X87786500Y-88528081D01*
X87766288Y-88520849D01*
X87746882Y-88511670D01*
X87728469Y-88500634D01*
X87711226Y-88487846D01*
X87695320Y-88473430D01*
X87680904Y-88457524D01*
X87668116Y-88440281D01*
X87657080Y-88421868D01*
X87647901Y-88402462D01*
X87640669Y-88382250D01*
X87635453Y-88361426D01*
X87632303Y-88340191D01*
X87631250Y-88318750D01*
X87631250Y-87881250D01*
X87632303Y-87859809D01*
X87635453Y-87838574D01*
X87640669Y-87817750D01*
X87647901Y-87797538D01*
X87657080Y-87778132D01*
X87668116Y-87759719D01*
X87680904Y-87742476D01*
X87695320Y-87726570D01*
X87711226Y-87712154D01*
X87728469Y-87699366D01*
X87746882Y-87688330D01*
X87766288Y-87679151D01*
X87786500Y-87671919D01*
X87807324Y-87666703D01*
X87828559Y-87663553D01*
X87850000Y-87662500D01*
X88362500Y-87662500D01*
X88383941Y-87663553D01*
X88383941Y-87663553D01*
G37*
D13*
X88106250Y-88100000D03*
D12*
G36*
X84415191Y-97982303D02*
G01*
X84436426Y-97985453D01*
X84457250Y-97990669D01*
X84477462Y-97997901D01*
X84496868Y-98007080D01*
X84515281Y-98018116D01*
X84532524Y-98030904D01*
X84548430Y-98045320D01*
X84562846Y-98061226D01*
X84575634Y-98078469D01*
X84586670Y-98096882D01*
X84595849Y-98116288D01*
X84603081Y-98136500D01*
X84608297Y-98157324D01*
X84611447Y-98178559D01*
X84612500Y-98200000D01*
X84612500Y-98637500D01*
X84611447Y-98658941D01*
X84608297Y-98680176D01*
X84603081Y-98701000D01*
X84595849Y-98721212D01*
X84586670Y-98740618D01*
X84575634Y-98759031D01*
X84562846Y-98776274D01*
X84548430Y-98792180D01*
X84532524Y-98806596D01*
X84515281Y-98819384D01*
X84496868Y-98830420D01*
X84477462Y-98839599D01*
X84457250Y-98846831D01*
X84436426Y-98852047D01*
X84415191Y-98855197D01*
X84393750Y-98856250D01*
X83881250Y-98856250D01*
X83859809Y-98855197D01*
X83838574Y-98852047D01*
X83817750Y-98846831D01*
X83797538Y-98839599D01*
X83778132Y-98830420D01*
X83759719Y-98819384D01*
X83742476Y-98806596D01*
X83726570Y-98792180D01*
X83712154Y-98776274D01*
X83699366Y-98759031D01*
X83688330Y-98740618D01*
X83679151Y-98721212D01*
X83671919Y-98701000D01*
X83666703Y-98680176D01*
X83663553Y-98658941D01*
X83662500Y-98637500D01*
X83662500Y-98200000D01*
X83663553Y-98178559D01*
X83666703Y-98157324D01*
X83671919Y-98136500D01*
X83679151Y-98116288D01*
X83688330Y-98096882D01*
X83699366Y-98078469D01*
X83712154Y-98061226D01*
X83726570Y-98045320D01*
X83742476Y-98030904D01*
X83759719Y-98018116D01*
X83778132Y-98007080D01*
X83797538Y-97997901D01*
X83817750Y-97990669D01*
X83838574Y-97985453D01*
X83859809Y-97982303D01*
X83881250Y-97981250D01*
X84393750Y-97981250D01*
X84415191Y-97982303D01*
X84415191Y-97982303D01*
G37*
D13*
X84137500Y-98418750D03*
D12*
G36*
X84415191Y-96407303D02*
G01*
X84436426Y-96410453D01*
X84457250Y-96415669D01*
X84477462Y-96422901D01*
X84496868Y-96432080D01*
X84515281Y-96443116D01*
X84532524Y-96455904D01*
X84548430Y-96470320D01*
X84562846Y-96486226D01*
X84575634Y-96503469D01*
X84586670Y-96521882D01*
X84595849Y-96541288D01*
X84603081Y-96561500D01*
X84608297Y-96582324D01*
X84611447Y-96603559D01*
X84612500Y-96625000D01*
X84612500Y-97062500D01*
X84611447Y-97083941D01*
X84608297Y-97105176D01*
X84603081Y-97126000D01*
X84595849Y-97146212D01*
X84586670Y-97165618D01*
X84575634Y-97184031D01*
X84562846Y-97201274D01*
X84548430Y-97217180D01*
X84532524Y-97231596D01*
X84515281Y-97244384D01*
X84496868Y-97255420D01*
X84477462Y-97264599D01*
X84457250Y-97271831D01*
X84436426Y-97277047D01*
X84415191Y-97280197D01*
X84393750Y-97281250D01*
X83881250Y-97281250D01*
X83859809Y-97280197D01*
X83838574Y-97277047D01*
X83817750Y-97271831D01*
X83797538Y-97264599D01*
X83778132Y-97255420D01*
X83759719Y-97244384D01*
X83742476Y-97231596D01*
X83726570Y-97217180D01*
X83712154Y-97201274D01*
X83699366Y-97184031D01*
X83688330Y-97165618D01*
X83679151Y-97146212D01*
X83671919Y-97126000D01*
X83666703Y-97105176D01*
X83663553Y-97083941D01*
X83662500Y-97062500D01*
X83662500Y-96625000D01*
X83663553Y-96603559D01*
X83666703Y-96582324D01*
X83671919Y-96561500D01*
X83679151Y-96541288D01*
X83688330Y-96521882D01*
X83699366Y-96503469D01*
X83712154Y-96486226D01*
X83726570Y-96470320D01*
X83742476Y-96455904D01*
X83759719Y-96443116D01*
X83778132Y-96432080D01*
X83797538Y-96422901D01*
X83817750Y-96415669D01*
X83838574Y-96410453D01*
X83859809Y-96407303D01*
X83881250Y-96406250D01*
X84393750Y-96406250D01*
X84415191Y-96407303D01*
X84415191Y-96407303D01*
G37*
D13*
X84137500Y-96843750D03*
D12*
G36*
X91558941Y-86076053D02*
G01*
X91580176Y-86079203D01*
X91601000Y-86084419D01*
X91621212Y-86091651D01*
X91640618Y-86100830D01*
X91659031Y-86111866D01*
X91676274Y-86124654D01*
X91692180Y-86139070D01*
X91706596Y-86154976D01*
X91719384Y-86172219D01*
X91730420Y-86190632D01*
X91739599Y-86210038D01*
X91746831Y-86230250D01*
X91752047Y-86251074D01*
X91755197Y-86272309D01*
X91756250Y-86293750D01*
X91756250Y-86731250D01*
X91755197Y-86752691D01*
X91752047Y-86773926D01*
X91746831Y-86794750D01*
X91739599Y-86814962D01*
X91730420Y-86834368D01*
X91719384Y-86852781D01*
X91706596Y-86870024D01*
X91692180Y-86885930D01*
X91676274Y-86900346D01*
X91659031Y-86913134D01*
X91640618Y-86924170D01*
X91621212Y-86933349D01*
X91601000Y-86940581D01*
X91580176Y-86945797D01*
X91558941Y-86948947D01*
X91537500Y-86950000D01*
X91025000Y-86950000D01*
X91003559Y-86948947D01*
X90982324Y-86945797D01*
X90961500Y-86940581D01*
X90941288Y-86933349D01*
X90921882Y-86924170D01*
X90903469Y-86913134D01*
X90886226Y-86900346D01*
X90870320Y-86885930D01*
X90855904Y-86870024D01*
X90843116Y-86852781D01*
X90832080Y-86834368D01*
X90822901Y-86814962D01*
X90815669Y-86794750D01*
X90810453Y-86773926D01*
X90807303Y-86752691D01*
X90806250Y-86731250D01*
X90806250Y-86293750D01*
X90807303Y-86272309D01*
X90810453Y-86251074D01*
X90815669Y-86230250D01*
X90822901Y-86210038D01*
X90832080Y-86190632D01*
X90843116Y-86172219D01*
X90855904Y-86154976D01*
X90870320Y-86139070D01*
X90886226Y-86124654D01*
X90903469Y-86111866D01*
X90921882Y-86100830D01*
X90941288Y-86091651D01*
X90961500Y-86084419D01*
X90982324Y-86079203D01*
X91003559Y-86076053D01*
X91025000Y-86075000D01*
X91537500Y-86075000D01*
X91558941Y-86076053D01*
X91558941Y-86076053D01*
G37*
D13*
X91281250Y-86512500D03*
D12*
G36*
X91558941Y-84501053D02*
G01*
X91580176Y-84504203D01*
X91601000Y-84509419D01*
X91621212Y-84516651D01*
X91640618Y-84525830D01*
X91659031Y-84536866D01*
X91676274Y-84549654D01*
X91692180Y-84564070D01*
X91706596Y-84579976D01*
X91719384Y-84597219D01*
X91730420Y-84615632D01*
X91739599Y-84635038D01*
X91746831Y-84655250D01*
X91752047Y-84676074D01*
X91755197Y-84697309D01*
X91756250Y-84718750D01*
X91756250Y-85156250D01*
X91755197Y-85177691D01*
X91752047Y-85198926D01*
X91746831Y-85219750D01*
X91739599Y-85239962D01*
X91730420Y-85259368D01*
X91719384Y-85277781D01*
X91706596Y-85295024D01*
X91692180Y-85310930D01*
X91676274Y-85325346D01*
X91659031Y-85338134D01*
X91640618Y-85349170D01*
X91621212Y-85358349D01*
X91601000Y-85365581D01*
X91580176Y-85370797D01*
X91558941Y-85373947D01*
X91537500Y-85375000D01*
X91025000Y-85375000D01*
X91003559Y-85373947D01*
X90982324Y-85370797D01*
X90961500Y-85365581D01*
X90941288Y-85358349D01*
X90921882Y-85349170D01*
X90903469Y-85338134D01*
X90886226Y-85325346D01*
X90870320Y-85310930D01*
X90855904Y-85295024D01*
X90843116Y-85277781D01*
X90832080Y-85259368D01*
X90822901Y-85239962D01*
X90815669Y-85219750D01*
X90810453Y-85198926D01*
X90807303Y-85177691D01*
X90806250Y-85156250D01*
X90806250Y-84718750D01*
X90807303Y-84697309D01*
X90810453Y-84676074D01*
X90815669Y-84655250D01*
X90822901Y-84635038D01*
X90832080Y-84615632D01*
X90843116Y-84597219D01*
X90855904Y-84579976D01*
X90870320Y-84564070D01*
X90886226Y-84549654D01*
X90903469Y-84536866D01*
X90921882Y-84525830D01*
X90941288Y-84516651D01*
X90961500Y-84509419D01*
X90982324Y-84504203D01*
X91003559Y-84501053D01*
X91025000Y-84500000D01*
X91537500Y-84500000D01*
X91558941Y-84501053D01*
X91558941Y-84501053D01*
G37*
D13*
X91281250Y-84937500D03*
D12*
G36*
X98702691Y-84501053D02*
G01*
X98723926Y-84504203D01*
X98744750Y-84509419D01*
X98764962Y-84516651D01*
X98784368Y-84525830D01*
X98802781Y-84536866D01*
X98820024Y-84549654D01*
X98835930Y-84564070D01*
X98850346Y-84579976D01*
X98863134Y-84597219D01*
X98874170Y-84615632D01*
X98883349Y-84635038D01*
X98890581Y-84655250D01*
X98895797Y-84676074D01*
X98898947Y-84697309D01*
X98900000Y-84718750D01*
X98900000Y-85156250D01*
X98898947Y-85177691D01*
X98895797Y-85198926D01*
X98890581Y-85219750D01*
X98883349Y-85239962D01*
X98874170Y-85259368D01*
X98863134Y-85277781D01*
X98850346Y-85295024D01*
X98835930Y-85310930D01*
X98820024Y-85325346D01*
X98802781Y-85338134D01*
X98784368Y-85349170D01*
X98764962Y-85358349D01*
X98744750Y-85365581D01*
X98723926Y-85370797D01*
X98702691Y-85373947D01*
X98681250Y-85375000D01*
X98168750Y-85375000D01*
X98147309Y-85373947D01*
X98126074Y-85370797D01*
X98105250Y-85365581D01*
X98085038Y-85358349D01*
X98065632Y-85349170D01*
X98047219Y-85338134D01*
X98029976Y-85325346D01*
X98014070Y-85310930D01*
X97999654Y-85295024D01*
X97986866Y-85277781D01*
X97975830Y-85259368D01*
X97966651Y-85239962D01*
X97959419Y-85219750D01*
X97954203Y-85198926D01*
X97951053Y-85177691D01*
X97950000Y-85156250D01*
X97950000Y-84718750D01*
X97951053Y-84697309D01*
X97954203Y-84676074D01*
X97959419Y-84655250D01*
X97966651Y-84635038D01*
X97975830Y-84615632D01*
X97986866Y-84597219D01*
X97999654Y-84579976D01*
X98014070Y-84564070D01*
X98029976Y-84549654D01*
X98047219Y-84536866D01*
X98065632Y-84525830D01*
X98085038Y-84516651D01*
X98105250Y-84509419D01*
X98126074Y-84504203D01*
X98147309Y-84501053D01*
X98168750Y-84500000D01*
X98681250Y-84500000D01*
X98702691Y-84501053D01*
X98702691Y-84501053D01*
G37*
D13*
X98425000Y-84937500D03*
D12*
G36*
X98702691Y-86076053D02*
G01*
X98723926Y-86079203D01*
X98744750Y-86084419D01*
X98764962Y-86091651D01*
X98784368Y-86100830D01*
X98802781Y-86111866D01*
X98820024Y-86124654D01*
X98835930Y-86139070D01*
X98850346Y-86154976D01*
X98863134Y-86172219D01*
X98874170Y-86190632D01*
X98883349Y-86210038D01*
X98890581Y-86230250D01*
X98895797Y-86251074D01*
X98898947Y-86272309D01*
X98900000Y-86293750D01*
X98900000Y-86731250D01*
X98898947Y-86752691D01*
X98895797Y-86773926D01*
X98890581Y-86794750D01*
X98883349Y-86814962D01*
X98874170Y-86834368D01*
X98863134Y-86852781D01*
X98850346Y-86870024D01*
X98835930Y-86885930D01*
X98820024Y-86900346D01*
X98802781Y-86913134D01*
X98784368Y-86924170D01*
X98764962Y-86933349D01*
X98744750Y-86940581D01*
X98723926Y-86945797D01*
X98702691Y-86948947D01*
X98681250Y-86950000D01*
X98168750Y-86950000D01*
X98147309Y-86948947D01*
X98126074Y-86945797D01*
X98105250Y-86940581D01*
X98085038Y-86933349D01*
X98065632Y-86924170D01*
X98047219Y-86913134D01*
X98029976Y-86900346D01*
X98014070Y-86885930D01*
X97999654Y-86870024D01*
X97986866Y-86852781D01*
X97975830Y-86834368D01*
X97966651Y-86814962D01*
X97959419Y-86794750D01*
X97954203Y-86773926D01*
X97951053Y-86752691D01*
X97950000Y-86731250D01*
X97950000Y-86293750D01*
X97951053Y-86272309D01*
X97954203Y-86251074D01*
X97959419Y-86230250D01*
X97966651Y-86210038D01*
X97975830Y-86190632D01*
X97986866Y-86172219D01*
X97999654Y-86154976D01*
X98014070Y-86139070D01*
X98029976Y-86124654D01*
X98047219Y-86111866D01*
X98065632Y-86100830D01*
X98085038Y-86091651D01*
X98105250Y-86084419D01*
X98126074Y-86079203D01*
X98147309Y-86076053D01*
X98168750Y-86075000D01*
X98681250Y-86075000D01*
X98702691Y-86076053D01*
X98702691Y-86076053D01*
G37*
D13*
X98425000Y-86512500D03*
M02*
