G04 #@! TF.GenerationSoftware,KiCad,Pcbnew,5.1.5*
G04 #@! TF.CreationDate,2020-02-16T02:09:05+01:00*
G04 #@! TF.ProjectId,k8split,6b387370-6c69-4742-9e6b-696361645f70,rev?*
G04 #@! TF.SameCoordinates,Original*
G04 #@! TF.FileFunction,Legend,Top*
G04 #@! TF.FilePolarity,Positive*
%FSLAX46Y46*%
G04 Gerber Fmt 4.6, Leading zero omitted, Abs format (unit mm)*
G04 Created by KiCad (PCBNEW 5.1.5) date 2020-02-16 02:09:05*
%MOMM*%
%LPD*%
G04 APERTURE LIST*
%ADD10C,0.500000*%
%ADD11C,0.800000*%
%ADD12C,0.150000*%
%ADD13C,0.010000*%
G04 APERTURE END LIST*
D10*
X105983523Y-54641523D02*
X105983523Y-51974857D01*
X105983523Y-50641523D02*
X105793047Y-50832000D01*
X105983523Y-51022476D01*
X106174000Y-50832000D01*
X105983523Y-50641523D01*
X105983523Y-51022476D01*
X107888285Y-51974857D02*
X107888285Y-54641523D01*
X107888285Y-52355809D02*
X108078761Y-52165333D01*
X108459714Y-51974857D01*
X109031142Y-51974857D01*
X109412095Y-52165333D01*
X109602571Y-52546285D01*
X109602571Y-54641523D01*
X111507333Y-54641523D02*
X111507333Y-51974857D01*
X111507333Y-50641523D02*
X111316857Y-50832000D01*
X111507333Y-51022476D01*
X111697809Y-50832000D01*
X111507333Y-50641523D01*
X111507333Y-51022476D01*
X112840666Y-51974857D02*
X114364476Y-51974857D01*
X113412095Y-50641523D02*
X113412095Y-54070095D01*
X113602571Y-54451047D01*
X113983523Y-54641523D01*
X114364476Y-54641523D01*
X115697809Y-54641523D02*
X115697809Y-51974857D01*
X115697809Y-50641523D02*
X115507333Y-50832000D01*
X115697809Y-51022476D01*
X115888285Y-50832000D01*
X115697809Y-50641523D01*
X115697809Y-51022476D01*
X119316857Y-54641523D02*
X119316857Y-52546285D01*
X119126380Y-52165333D01*
X118745428Y-51974857D01*
X117983523Y-51974857D01*
X117602571Y-52165333D01*
X119316857Y-54451047D02*
X118935904Y-54641523D01*
X117983523Y-54641523D01*
X117602571Y-54451047D01*
X117412095Y-54070095D01*
X117412095Y-53689142D01*
X117602571Y-53308190D01*
X117983523Y-53117714D01*
X118935904Y-53117714D01*
X119316857Y-52927238D01*
X121793047Y-54641523D02*
X121412095Y-54451047D01*
X121221619Y-54070095D01*
X121221619Y-50641523D01*
X126364476Y-51974857D02*
X126364476Y-55974857D01*
X126364476Y-52165333D02*
X126745428Y-51974857D01*
X127507333Y-51974857D01*
X127888285Y-52165333D01*
X128078761Y-52355809D01*
X128269238Y-52736761D01*
X128269238Y-53879619D01*
X128078761Y-54260571D01*
X127888285Y-54451047D01*
X127507333Y-54641523D01*
X126745428Y-54641523D01*
X126364476Y-54451047D01*
X129983523Y-54641523D02*
X129983523Y-51974857D01*
X129983523Y-52736761D02*
X130174000Y-52355809D01*
X130364476Y-52165333D01*
X130745428Y-51974857D01*
X131126380Y-51974857D01*
X132459714Y-54641523D02*
X132459714Y-51974857D01*
X132459714Y-50641523D02*
X132269238Y-50832000D01*
X132459714Y-51022476D01*
X132650190Y-50832000D01*
X132459714Y-50641523D01*
X132459714Y-51022476D01*
X134364476Y-51974857D02*
X134364476Y-54641523D01*
X134364476Y-52355809D02*
X134554952Y-52165333D01*
X134935904Y-51974857D01*
X135507333Y-51974857D01*
X135888285Y-52165333D01*
X136078761Y-52546285D01*
X136078761Y-54641523D01*
X137412095Y-51974857D02*
X138935904Y-51974857D01*
X137983523Y-50641523D02*
X137983523Y-54070095D01*
X138174000Y-54451047D01*
X138554952Y-54641523D01*
X138935904Y-54641523D01*
D11*
X100175238Y-28733523D02*
X100175238Y-24733523D01*
X102460952Y-28733523D02*
X100746666Y-26447809D01*
X102460952Y-24733523D02*
X100175238Y-27019238D01*
X107794285Y-26447809D02*
X107413333Y-26257333D01*
X107222857Y-26066857D01*
X107032380Y-25685904D01*
X107032380Y-25495428D01*
X107222857Y-25114476D01*
X107413333Y-24924000D01*
X107794285Y-24733523D01*
X108556190Y-24733523D01*
X108937142Y-24924000D01*
X109127619Y-25114476D01*
X109318095Y-25495428D01*
X109318095Y-25685904D01*
X109127619Y-26066857D01*
X108937142Y-26257333D01*
X108556190Y-26447809D01*
X107794285Y-26447809D01*
X107413333Y-26638285D01*
X107222857Y-26828761D01*
X107032380Y-27209714D01*
X107032380Y-27971619D01*
X107222857Y-28352571D01*
X107413333Y-28543047D01*
X107794285Y-28733523D01*
X108556190Y-28733523D01*
X108937142Y-28543047D01*
X109127619Y-28352571D01*
X109318095Y-27971619D01*
X109318095Y-27209714D01*
X109127619Y-26828761D01*
X108937142Y-26638285D01*
X108556190Y-26447809D01*
X113889523Y-28543047D02*
X114460952Y-28733523D01*
X115413333Y-28733523D01*
X115794285Y-28543047D01*
X115984761Y-28352571D01*
X116175238Y-27971619D01*
X116175238Y-27590666D01*
X115984761Y-27209714D01*
X115794285Y-27019238D01*
X115413333Y-26828761D01*
X114651428Y-26638285D01*
X114270476Y-26447809D01*
X114079999Y-26257333D01*
X113889523Y-25876380D01*
X113889523Y-25495428D01*
X114079999Y-25114476D01*
X114270476Y-24924000D01*
X114651428Y-24733523D01*
X115603809Y-24733523D01*
X116175238Y-24924000D01*
X120937142Y-28733523D02*
X120937142Y-24733523D01*
X122460952Y-24733523D01*
X122841904Y-24924000D01*
X123032380Y-25114476D01*
X123222857Y-25495428D01*
X123222857Y-26066857D01*
X123032380Y-26447809D01*
X122841904Y-26638285D01*
X122460952Y-26828761D01*
X120937142Y-26828761D01*
X129889523Y-28733523D02*
X127984761Y-28733523D01*
X127984761Y-24733523D01*
X134270476Y-28733523D02*
X134270476Y-24733523D01*
X138651428Y-24733523D02*
X140937142Y-24733523D01*
X139794285Y-28733523D02*
X139794285Y-24733523D01*
X147603809Y-28733523D02*
X146270476Y-26828761D01*
X145318095Y-28733523D02*
X145318095Y-24733523D01*
X146841904Y-24733523D01*
X147222857Y-24924000D01*
X147413333Y-25114476D01*
X147603809Y-25495428D01*
X147603809Y-26066857D01*
X147413333Y-26447809D01*
X147222857Y-26638285D01*
X146841904Y-26828761D01*
X145318095Y-26828761D01*
X149318095Y-26638285D02*
X150651428Y-26638285D01*
X151222857Y-28733523D02*
X149318095Y-28733523D01*
X149318095Y-24733523D01*
X151222857Y-24733523D01*
X152365714Y-24733523D02*
X153699047Y-28733523D01*
X155032380Y-24733523D01*
X157127619Y-24733523D02*
X157508571Y-24733523D01*
X157889523Y-24924000D01*
X158079999Y-25114476D01*
X158270476Y-25495428D01*
X158460952Y-26257333D01*
X158460952Y-27209714D01*
X158270476Y-27971619D01*
X158079999Y-28352571D01*
X157889523Y-28543047D01*
X157508571Y-28733523D01*
X157127619Y-28733523D01*
X156746666Y-28543047D01*
X156556190Y-28352571D01*
X156365714Y-27971619D01*
X156175238Y-27209714D01*
X156175238Y-26257333D01*
X156365714Y-25495428D01*
X156556190Y-25114476D01*
X156746666Y-24924000D01*
X157127619Y-24733523D01*
X160175238Y-28352571D02*
X160365714Y-28543047D01*
X160175238Y-28733523D01*
X159984761Y-28543047D01*
X160175238Y-28352571D01*
X160175238Y-28733523D01*
X164175238Y-28733523D02*
X161889523Y-28733523D01*
X163032380Y-28733523D02*
X163032380Y-24733523D01*
X162651428Y-25304952D01*
X162270476Y-25685904D01*
X161889523Y-25876380D01*
D10*
X113650857Y-89035142D02*
X113650857Y-91178000D01*
X113508000Y-91606571D01*
X113222285Y-91892285D01*
X112793714Y-92035142D01*
X112508000Y-92035142D01*
X116508000Y-92035142D02*
X115079428Y-92035142D01*
X115079428Y-89035142D01*
X119222285Y-91749428D02*
X119079428Y-91892285D01*
X118650857Y-92035142D01*
X118365142Y-92035142D01*
X117936571Y-91892285D01*
X117650857Y-91606571D01*
X117508000Y-91320857D01*
X117365142Y-90749428D01*
X117365142Y-90320857D01*
X117508000Y-89749428D01*
X117650857Y-89463714D01*
X117936571Y-89178000D01*
X118365142Y-89035142D01*
X118650857Y-89035142D01*
X119079428Y-89178000D01*
X119222285Y-89320857D01*
X121365142Y-89035142D02*
X121365142Y-91178000D01*
X121222285Y-91606571D01*
X120936571Y-91892285D01*
X120508000Y-92035142D01*
X120222285Y-92035142D01*
X124222285Y-92035142D02*
X122793714Y-92035142D01*
X122793714Y-89035142D01*
X126936571Y-91749428D02*
X126793714Y-91892285D01*
X126365142Y-92035142D01*
X126079428Y-92035142D01*
X125650857Y-91892285D01*
X125365142Y-91606571D01*
X125222285Y-91320857D01*
X125079428Y-90749428D01*
X125079428Y-90320857D01*
X125222285Y-89749428D01*
X125365142Y-89463714D01*
X125650857Y-89178000D01*
X126079428Y-89035142D01*
X126365142Y-89035142D01*
X126793714Y-89178000D01*
X126936571Y-89320857D01*
X129079428Y-89035142D02*
X129079428Y-91178000D01*
X128936571Y-91606571D01*
X128650857Y-91892285D01*
X128222285Y-92035142D01*
X127936571Y-92035142D01*
X131936571Y-92035142D02*
X130508000Y-92035142D01*
X130508000Y-89035142D01*
X134650857Y-91749428D02*
X134508000Y-91892285D01*
X134079428Y-92035142D01*
X133793714Y-92035142D01*
X133365142Y-91892285D01*
X133079428Y-91606571D01*
X132936571Y-91320857D01*
X132793714Y-90749428D01*
X132793714Y-90320857D01*
X132936571Y-89749428D01*
X133079428Y-89463714D01*
X133365142Y-89178000D01*
X133793714Y-89035142D01*
X134079428Y-89035142D01*
X134508000Y-89178000D01*
X134650857Y-89320857D01*
X136793714Y-89035142D02*
X136793714Y-91178000D01*
X136650857Y-91606571D01*
X136365142Y-91892285D01*
X135936571Y-92035142D01*
X135650857Y-92035142D01*
X139650857Y-92035142D02*
X138222285Y-92035142D01*
X138222285Y-89035142D01*
X142365142Y-91749428D02*
X142222285Y-91892285D01*
X141793714Y-92035142D01*
X141508000Y-92035142D01*
X141079428Y-91892285D01*
X140793714Y-91606571D01*
X140650857Y-91320857D01*
X140508000Y-90749428D01*
X140508000Y-90320857D01*
X140650857Y-89749428D01*
X140793714Y-89463714D01*
X141079428Y-89178000D01*
X141508000Y-89035142D01*
X141793714Y-89035142D01*
X142222285Y-89178000D01*
X142365142Y-89320857D01*
D12*
X151384000Y-50038000D02*
X151384000Y-56642000D01*
X93980000Y-56642000D02*
X93980000Y-50038000D01*
X93980000Y-23368000D02*
X93980000Y-29972000D01*
X170688000Y-29972000D02*
X170688000Y-23368000D01*
X132334000Y-138684000D02*
X132334000Y-145288000D01*
X108712000Y-87376000D02*
X108712000Y-93980000D01*
X146812000Y-87376000D02*
X146812000Y-93980000D01*
D13*
G36*
X119994475Y-111314056D02*
G01*
X120139244Y-111351124D01*
X120285917Y-111415720D01*
X120426189Y-111501145D01*
X120551753Y-111600701D01*
X120654302Y-111707690D01*
X120725531Y-111815415D01*
X120757134Y-111917176D01*
X120757899Y-111929661D01*
X120748285Y-111991052D01*
X120721214Y-112076918D01*
X120689663Y-112152766D01*
X120660780Y-112218544D01*
X120617100Y-112323235D01*
X120562084Y-112458293D01*
X120499193Y-112615169D01*
X120431887Y-112785317D01*
X120383625Y-112908699D01*
X120147893Y-113514312D01*
X120240419Y-113499493D01*
X120288718Y-113492839D01*
X120380343Y-113481223D01*
X120508106Y-113465518D01*
X120664819Y-113446596D01*
X120843293Y-113425331D01*
X121036340Y-113402594D01*
X121095708Y-113395653D01*
X121359241Y-113364536D01*
X121580739Y-113337368D01*
X121768742Y-113312800D01*
X121931788Y-113289483D01*
X122078419Y-113266068D01*
X122217171Y-113241206D01*
X122356586Y-113213548D01*
X122505203Y-113181744D01*
X122638966Y-113151842D01*
X122987230Y-113072989D01*
X123129569Y-113117760D01*
X123266815Y-113174449D01*
X123395964Y-113252028D01*
X123503561Y-113340864D01*
X123576154Y-113431323D01*
X123581708Y-113441509D01*
X123611882Y-113510002D01*
X123616047Y-113561390D01*
X123599034Y-113615100D01*
X123572522Y-113670266D01*
X123540310Y-113710669D01*
X123494871Y-113738207D01*
X123428681Y-113754779D01*
X123334214Y-113762284D01*
X123203944Y-113762619D01*
X123033404Y-113757791D01*
X122815922Y-113755288D01*
X122554889Y-113760974D01*
X122256856Y-113774347D01*
X121928375Y-113794905D01*
X121575997Y-113822146D01*
X121206273Y-113855567D01*
X120825755Y-113894667D01*
X120440995Y-113938944D01*
X120095821Y-113982894D01*
X119985824Y-113997575D01*
X119709016Y-114562318D01*
X119582280Y-114814694D01*
X119467525Y-115029211D01*
X119359161Y-115215731D01*
X119251597Y-115384114D01*
X119202447Y-115455909D01*
X119124105Y-115568949D01*
X119057240Y-115667172D01*
X119006810Y-115743154D01*
X118977774Y-115789468D01*
X118972685Y-115799923D01*
X118995675Y-115826466D01*
X119055989Y-115856059D01*
X119140644Y-115884344D01*
X119236653Y-115906963D01*
X119328641Y-115919390D01*
X119414605Y-115920110D01*
X119543855Y-115913827D01*
X119709433Y-115901394D01*
X119904386Y-115883667D01*
X120121758Y-115861500D01*
X120354593Y-115835746D01*
X120595937Y-115807262D01*
X120838834Y-115776901D01*
X121076329Y-115745517D01*
X121301466Y-115713966D01*
X121507291Y-115683101D01*
X121686848Y-115653778D01*
X121833181Y-115626850D01*
X121939337Y-115603173D01*
X121967895Y-115595143D01*
X122175949Y-115550105D01*
X122366708Y-115550328D01*
X122546532Y-115596062D01*
X122601768Y-115619857D01*
X122736157Y-115699766D01*
X122821248Y-115788754D01*
X122856724Y-115886275D01*
X122842266Y-115991784D01*
X122832400Y-116015909D01*
X122806359Y-116061975D01*
X122771220Y-116096755D01*
X122720074Y-116121798D01*
X122646012Y-116138653D01*
X122542124Y-116148869D01*
X122401501Y-116153995D01*
X122217234Y-116155581D01*
X122209333Y-116155592D01*
X122080279Y-116157741D01*
X121928949Y-116163482D01*
X121763267Y-116172174D01*
X121591156Y-116183178D01*
X121420536Y-116195855D01*
X121259332Y-116209564D01*
X121115465Y-116223667D01*
X120996859Y-116237523D01*
X120911435Y-116250494D01*
X120867116Y-116261939D01*
X120863634Y-116264223D01*
X120876266Y-116282948D01*
X120920293Y-116318336D01*
X120948998Y-116338165D01*
X121024024Y-116393605D01*
X121071716Y-116448658D01*
X121095123Y-116514521D01*
X121097291Y-116602391D01*
X121081270Y-116723468D01*
X121070380Y-116784087D01*
X121052257Y-116900018D01*
X121037904Y-117036933D01*
X121026825Y-117202267D01*
X121018523Y-117403457D01*
X121012501Y-117647940D01*
X121012439Y-117651238D01*
X121000884Y-118270261D01*
X121594943Y-118253604D01*
X121811472Y-118247206D01*
X122059074Y-118239353D01*
X122318011Y-118230705D01*
X122568551Y-118221922D01*
X122790956Y-118213664D01*
X122799340Y-118213340D01*
X123025603Y-118205654D01*
X123205152Y-118202024D01*
X123341965Y-118202474D01*
X123440020Y-118207030D01*
X123503295Y-118215714D01*
X123511252Y-118217706D01*
X123666656Y-118274372D01*
X123802225Y-118350510D01*
X123909110Y-118439479D01*
X123978464Y-118534640D01*
X123996064Y-118581515D01*
X123994561Y-118670034D01*
X123955073Y-118759897D01*
X123886951Y-118833873D01*
X123845228Y-118859447D01*
X123807039Y-118875937D01*
X123769006Y-118885977D01*
X123721623Y-118889405D01*
X123655383Y-118886061D01*
X123560778Y-118875785D01*
X123428303Y-118858417D01*
X123378086Y-118851572D01*
X123117646Y-118817157D01*
X122889502Y-118790214D01*
X122680852Y-118769907D01*
X122478895Y-118755401D01*
X122270830Y-118745859D01*
X122043856Y-118740446D01*
X121785171Y-118738326D01*
X121642355Y-118738236D01*
X121247221Y-118744085D01*
X120841147Y-118760167D01*
X120432376Y-118785649D01*
X120029156Y-118819696D01*
X119639732Y-118861474D01*
X119272348Y-118910150D01*
X118935252Y-118964890D01*
X118636687Y-119024860D01*
X118510791Y-119054927D01*
X118409306Y-119078731D01*
X118319945Y-119096263D01*
X118259823Y-119104223D01*
X118254122Y-119104388D01*
X118203220Y-119090958D01*
X118126396Y-119055549D01*
X118039293Y-119005482D01*
X118029530Y-118999248D01*
X117934588Y-118931047D01*
X117830120Y-118844800D01*
X117724507Y-118748789D01*
X117626128Y-118651294D01*
X117543363Y-118560597D01*
X117484592Y-118484979D01*
X117458749Y-118435190D01*
X117459237Y-118364022D01*
X117487582Y-118296231D01*
X117533742Y-118249730D01*
X117568516Y-118239406D01*
X117608941Y-118250244D01*
X117682297Y-118279841D01*
X117776598Y-118323115D01*
X117841254Y-118355054D01*
X117927829Y-118398363D01*
X118004991Y-118433837D01*
X118078285Y-118461629D01*
X118153255Y-118481893D01*
X118235445Y-118494784D01*
X118330400Y-118500455D01*
X118443663Y-118499060D01*
X118580780Y-118490753D01*
X118747293Y-118475688D01*
X118948748Y-118454018D01*
X119190689Y-118425898D01*
X119417630Y-118398800D01*
X120434647Y-118276869D01*
X120450744Y-118112200D01*
X120455433Y-118039734D01*
X120459840Y-117925918D01*
X120463736Y-117780252D01*
X120466890Y-117612235D01*
X120469075Y-117431369D01*
X120469813Y-117322867D01*
X120469662Y-117085837D01*
X120466180Y-116894162D01*
X120458555Y-116742407D01*
X120445975Y-116625138D01*
X120427629Y-116536920D01*
X120402704Y-116472319D01*
X120370390Y-116425902D01*
X120330906Y-116392906D01*
X120297521Y-116376216D01*
X120253479Y-116365981D01*
X120192161Y-116362464D01*
X120106950Y-116365928D01*
X119991227Y-116376637D01*
X119838373Y-116394854D01*
X119646888Y-116420149D01*
X119367637Y-116458029D01*
X119265507Y-116397957D01*
X119198474Y-116351782D01*
X119111566Y-116282755D01*
X119020957Y-116203887D01*
X118998849Y-116183432D01*
X118924357Y-116116956D01*
X118863677Y-116069239D01*
X118825908Y-116047145D01*
X118818701Y-116047514D01*
X118798293Y-116072699D01*
X118751763Y-116130593D01*
X118684737Y-116214180D01*
X118602841Y-116316446D01*
X118538728Y-116396580D01*
X118268317Y-116715622D01*
X117977142Y-117024251D01*
X117671435Y-117317299D01*
X117357426Y-117589597D01*
X117041348Y-117835976D01*
X116729433Y-118051267D01*
X116427913Y-118230301D01*
X116182311Y-118351051D01*
X116060228Y-118396205D01*
X115956727Y-118413489D01*
X115902860Y-118412941D01*
X115830929Y-118404792D01*
X115788570Y-118389222D01*
X115777879Y-118362960D01*
X115800953Y-118322734D01*
X115859888Y-118265273D01*
X115956779Y-118187305D01*
X116093723Y-118085560D01*
X116129024Y-118059957D01*
X116596636Y-117698718D01*
X117035223Y-117311248D01*
X117449099Y-116892843D01*
X117842576Y-116438803D01*
X118219967Y-115944425D01*
X118585583Y-115405007D01*
X118634793Y-115327656D01*
X118745163Y-115148783D01*
X118852219Y-114967625D01*
X118953095Y-114789757D01*
X119044922Y-114620750D01*
X119124833Y-114466179D01*
X119189961Y-114331617D01*
X119237439Y-114222637D01*
X119264397Y-114144812D01*
X119267969Y-114103717D01*
X119266041Y-114100780D01*
X119233412Y-114096925D01*
X119158407Y-114102501D01*
X119048357Y-114116232D01*
X118910596Y-114136843D01*
X118752458Y-114163059D01*
X118581277Y-114193604D01*
X118404386Y-114227203D01*
X118229118Y-114262581D01*
X118062806Y-114298463D01*
X117912786Y-114333573D01*
X117879281Y-114341930D01*
X117408799Y-114460981D01*
X117269071Y-114396329D01*
X117192998Y-114352622D01*
X117093699Y-114283567D01*
X116984643Y-114199017D01*
X116893370Y-114121468D01*
X116739964Y-113975996D01*
X116630151Y-113850642D01*
X116562282Y-113742310D01*
X116534711Y-113647900D01*
X116545787Y-113564316D01*
X116571424Y-113516452D01*
X116612802Y-113473662D01*
X116660868Y-113464548D01*
X116726271Y-113489888D01*
X116794230Y-113532741D01*
X116971648Y-113638079D01*
X117162558Y-113723412D01*
X117352641Y-113783605D01*
X117527580Y-113813527D01*
X117584080Y-113815900D01*
X117687446Y-113811700D01*
X117835929Y-113799027D01*
X118030502Y-113777763D01*
X118272141Y-113747795D01*
X118561821Y-113709008D01*
X118900515Y-113661286D01*
X118918577Y-113658689D01*
X119487392Y-113576826D01*
X119535543Y-113464494D01*
X119569402Y-113375789D01*
X119612008Y-113249675D01*
X119659805Y-113098083D01*
X119709239Y-112932946D01*
X119756754Y-112766196D01*
X119798795Y-112609764D01*
X119831807Y-112475581D01*
X119836841Y-112453244D01*
X119864821Y-112296924D01*
X119881554Y-112139125D01*
X119886548Y-111992814D01*
X119879313Y-111870955D01*
X119861877Y-111792743D01*
X119829711Y-111737865D01*
X119773446Y-111666801D01*
X119722038Y-111611926D01*
X119662347Y-111547814D01*
X119621166Y-111493518D01*
X119608321Y-111464680D01*
X119631740Y-111407816D01*
X119694389Y-111360016D01*
X119784857Y-111325732D01*
X119891735Y-111309414D01*
X119994475Y-111314056D01*
G37*
X119994475Y-111314056D02*
X120139244Y-111351124D01*
X120285917Y-111415720D01*
X120426189Y-111501145D01*
X120551753Y-111600701D01*
X120654302Y-111707690D01*
X120725531Y-111815415D01*
X120757134Y-111917176D01*
X120757899Y-111929661D01*
X120748285Y-111991052D01*
X120721214Y-112076918D01*
X120689663Y-112152766D01*
X120660780Y-112218544D01*
X120617100Y-112323235D01*
X120562084Y-112458293D01*
X120499193Y-112615169D01*
X120431887Y-112785317D01*
X120383625Y-112908699D01*
X120147893Y-113514312D01*
X120240419Y-113499493D01*
X120288718Y-113492839D01*
X120380343Y-113481223D01*
X120508106Y-113465518D01*
X120664819Y-113446596D01*
X120843293Y-113425331D01*
X121036340Y-113402594D01*
X121095708Y-113395653D01*
X121359241Y-113364536D01*
X121580739Y-113337368D01*
X121768742Y-113312800D01*
X121931788Y-113289483D01*
X122078419Y-113266068D01*
X122217171Y-113241206D01*
X122356586Y-113213548D01*
X122505203Y-113181744D01*
X122638966Y-113151842D01*
X122987230Y-113072989D01*
X123129569Y-113117760D01*
X123266815Y-113174449D01*
X123395964Y-113252028D01*
X123503561Y-113340864D01*
X123576154Y-113431323D01*
X123581708Y-113441509D01*
X123611882Y-113510002D01*
X123616047Y-113561390D01*
X123599034Y-113615100D01*
X123572522Y-113670266D01*
X123540310Y-113710669D01*
X123494871Y-113738207D01*
X123428681Y-113754779D01*
X123334214Y-113762284D01*
X123203944Y-113762619D01*
X123033404Y-113757791D01*
X122815922Y-113755288D01*
X122554889Y-113760974D01*
X122256856Y-113774347D01*
X121928375Y-113794905D01*
X121575997Y-113822146D01*
X121206273Y-113855567D01*
X120825755Y-113894667D01*
X120440995Y-113938944D01*
X120095821Y-113982894D01*
X119985824Y-113997575D01*
X119709016Y-114562318D01*
X119582280Y-114814694D01*
X119467525Y-115029211D01*
X119359161Y-115215731D01*
X119251597Y-115384114D01*
X119202447Y-115455909D01*
X119124105Y-115568949D01*
X119057240Y-115667172D01*
X119006810Y-115743154D01*
X118977774Y-115789468D01*
X118972685Y-115799923D01*
X118995675Y-115826466D01*
X119055989Y-115856059D01*
X119140644Y-115884344D01*
X119236653Y-115906963D01*
X119328641Y-115919390D01*
X119414605Y-115920110D01*
X119543855Y-115913827D01*
X119709433Y-115901394D01*
X119904386Y-115883667D01*
X120121758Y-115861500D01*
X120354593Y-115835746D01*
X120595937Y-115807262D01*
X120838834Y-115776901D01*
X121076329Y-115745517D01*
X121301466Y-115713966D01*
X121507291Y-115683101D01*
X121686848Y-115653778D01*
X121833181Y-115626850D01*
X121939337Y-115603173D01*
X121967895Y-115595143D01*
X122175949Y-115550105D01*
X122366708Y-115550328D01*
X122546532Y-115596062D01*
X122601768Y-115619857D01*
X122736157Y-115699766D01*
X122821248Y-115788754D01*
X122856724Y-115886275D01*
X122842266Y-115991784D01*
X122832400Y-116015909D01*
X122806359Y-116061975D01*
X122771220Y-116096755D01*
X122720074Y-116121798D01*
X122646012Y-116138653D01*
X122542124Y-116148869D01*
X122401501Y-116153995D01*
X122217234Y-116155581D01*
X122209333Y-116155592D01*
X122080279Y-116157741D01*
X121928949Y-116163482D01*
X121763267Y-116172174D01*
X121591156Y-116183178D01*
X121420536Y-116195855D01*
X121259332Y-116209564D01*
X121115465Y-116223667D01*
X120996859Y-116237523D01*
X120911435Y-116250494D01*
X120867116Y-116261939D01*
X120863634Y-116264223D01*
X120876266Y-116282948D01*
X120920293Y-116318336D01*
X120948998Y-116338165D01*
X121024024Y-116393605D01*
X121071716Y-116448658D01*
X121095123Y-116514521D01*
X121097291Y-116602391D01*
X121081270Y-116723468D01*
X121070380Y-116784087D01*
X121052257Y-116900018D01*
X121037904Y-117036933D01*
X121026825Y-117202267D01*
X121018523Y-117403457D01*
X121012501Y-117647940D01*
X121012439Y-117651238D01*
X121000884Y-118270261D01*
X121594943Y-118253604D01*
X121811472Y-118247206D01*
X122059074Y-118239353D01*
X122318011Y-118230705D01*
X122568551Y-118221922D01*
X122790956Y-118213664D01*
X122799340Y-118213340D01*
X123025603Y-118205654D01*
X123205152Y-118202024D01*
X123341965Y-118202474D01*
X123440020Y-118207030D01*
X123503295Y-118215714D01*
X123511252Y-118217706D01*
X123666656Y-118274372D01*
X123802225Y-118350510D01*
X123909110Y-118439479D01*
X123978464Y-118534640D01*
X123996064Y-118581515D01*
X123994561Y-118670034D01*
X123955073Y-118759897D01*
X123886951Y-118833873D01*
X123845228Y-118859447D01*
X123807039Y-118875937D01*
X123769006Y-118885977D01*
X123721623Y-118889405D01*
X123655383Y-118886061D01*
X123560778Y-118875785D01*
X123428303Y-118858417D01*
X123378086Y-118851572D01*
X123117646Y-118817157D01*
X122889502Y-118790214D01*
X122680852Y-118769907D01*
X122478895Y-118755401D01*
X122270830Y-118745859D01*
X122043856Y-118740446D01*
X121785171Y-118738326D01*
X121642355Y-118738236D01*
X121247221Y-118744085D01*
X120841147Y-118760167D01*
X120432376Y-118785649D01*
X120029156Y-118819696D01*
X119639732Y-118861474D01*
X119272348Y-118910150D01*
X118935252Y-118964890D01*
X118636687Y-119024860D01*
X118510791Y-119054927D01*
X118409306Y-119078731D01*
X118319945Y-119096263D01*
X118259823Y-119104223D01*
X118254122Y-119104388D01*
X118203220Y-119090958D01*
X118126396Y-119055549D01*
X118039293Y-119005482D01*
X118029530Y-118999248D01*
X117934588Y-118931047D01*
X117830120Y-118844800D01*
X117724507Y-118748789D01*
X117626128Y-118651294D01*
X117543363Y-118560597D01*
X117484592Y-118484979D01*
X117458749Y-118435190D01*
X117459237Y-118364022D01*
X117487582Y-118296231D01*
X117533742Y-118249730D01*
X117568516Y-118239406D01*
X117608941Y-118250244D01*
X117682297Y-118279841D01*
X117776598Y-118323115D01*
X117841254Y-118355054D01*
X117927829Y-118398363D01*
X118004991Y-118433837D01*
X118078285Y-118461629D01*
X118153255Y-118481893D01*
X118235445Y-118494784D01*
X118330400Y-118500455D01*
X118443663Y-118499060D01*
X118580780Y-118490753D01*
X118747293Y-118475688D01*
X118948748Y-118454018D01*
X119190689Y-118425898D01*
X119417630Y-118398800D01*
X120434647Y-118276869D01*
X120450744Y-118112200D01*
X120455433Y-118039734D01*
X120459840Y-117925918D01*
X120463736Y-117780252D01*
X120466890Y-117612235D01*
X120469075Y-117431369D01*
X120469813Y-117322867D01*
X120469662Y-117085837D01*
X120466180Y-116894162D01*
X120458555Y-116742407D01*
X120445975Y-116625138D01*
X120427629Y-116536920D01*
X120402704Y-116472319D01*
X120370390Y-116425902D01*
X120330906Y-116392906D01*
X120297521Y-116376216D01*
X120253479Y-116365981D01*
X120192161Y-116362464D01*
X120106950Y-116365928D01*
X119991227Y-116376637D01*
X119838373Y-116394854D01*
X119646888Y-116420149D01*
X119367637Y-116458029D01*
X119265507Y-116397957D01*
X119198474Y-116351782D01*
X119111566Y-116282755D01*
X119020957Y-116203887D01*
X118998849Y-116183432D01*
X118924357Y-116116956D01*
X118863677Y-116069239D01*
X118825908Y-116047145D01*
X118818701Y-116047514D01*
X118798293Y-116072699D01*
X118751763Y-116130593D01*
X118684737Y-116214180D01*
X118602841Y-116316446D01*
X118538728Y-116396580D01*
X118268317Y-116715622D01*
X117977142Y-117024251D01*
X117671435Y-117317299D01*
X117357426Y-117589597D01*
X117041348Y-117835976D01*
X116729433Y-118051267D01*
X116427913Y-118230301D01*
X116182311Y-118351051D01*
X116060228Y-118396205D01*
X115956727Y-118413489D01*
X115902860Y-118412941D01*
X115830929Y-118404792D01*
X115788570Y-118389222D01*
X115777879Y-118362960D01*
X115800953Y-118322734D01*
X115859888Y-118265273D01*
X115956779Y-118187305D01*
X116093723Y-118085560D01*
X116129024Y-118059957D01*
X116596636Y-117698718D01*
X117035223Y-117311248D01*
X117449099Y-116892843D01*
X117842576Y-116438803D01*
X118219967Y-115944425D01*
X118585583Y-115405007D01*
X118634793Y-115327656D01*
X118745163Y-115148783D01*
X118852219Y-114967625D01*
X118953095Y-114789757D01*
X119044922Y-114620750D01*
X119124833Y-114466179D01*
X119189961Y-114331617D01*
X119237439Y-114222637D01*
X119264397Y-114144812D01*
X119267969Y-114103717D01*
X119266041Y-114100780D01*
X119233412Y-114096925D01*
X119158407Y-114102501D01*
X119048357Y-114116232D01*
X118910596Y-114136843D01*
X118752458Y-114163059D01*
X118581277Y-114193604D01*
X118404386Y-114227203D01*
X118229118Y-114262581D01*
X118062806Y-114298463D01*
X117912786Y-114333573D01*
X117879281Y-114341930D01*
X117408799Y-114460981D01*
X117269071Y-114396329D01*
X117192998Y-114352622D01*
X117093699Y-114283567D01*
X116984643Y-114199017D01*
X116893370Y-114121468D01*
X116739964Y-113975996D01*
X116630151Y-113850642D01*
X116562282Y-113742310D01*
X116534711Y-113647900D01*
X116545787Y-113564316D01*
X116571424Y-113516452D01*
X116612802Y-113473662D01*
X116660868Y-113464548D01*
X116726271Y-113489888D01*
X116794230Y-113532741D01*
X116971648Y-113638079D01*
X117162558Y-113723412D01*
X117352641Y-113783605D01*
X117527580Y-113813527D01*
X117584080Y-113815900D01*
X117687446Y-113811700D01*
X117835929Y-113799027D01*
X118030502Y-113777763D01*
X118272141Y-113747795D01*
X118561821Y-113709008D01*
X118900515Y-113661286D01*
X118918577Y-113658689D01*
X119487392Y-113576826D01*
X119535543Y-113464494D01*
X119569402Y-113375789D01*
X119612008Y-113249675D01*
X119659805Y-113098083D01*
X119709239Y-112932946D01*
X119756754Y-112766196D01*
X119798795Y-112609764D01*
X119831807Y-112475581D01*
X119836841Y-112453244D01*
X119864821Y-112296924D01*
X119881554Y-112139125D01*
X119886548Y-111992814D01*
X119879313Y-111870955D01*
X119861877Y-111792743D01*
X119829711Y-111737865D01*
X119773446Y-111666801D01*
X119722038Y-111611926D01*
X119662347Y-111547814D01*
X119621166Y-111493518D01*
X119608321Y-111464680D01*
X119631740Y-111407816D01*
X119694389Y-111360016D01*
X119784857Y-111325732D01*
X119891735Y-111309414D01*
X119994475Y-111314056D01*
G36*
X158785278Y-73997163D02*
G01*
X158882248Y-74022191D01*
X158999678Y-74067781D01*
X159122928Y-74126515D01*
X159237353Y-74190975D01*
X159328312Y-74253744D01*
X159371313Y-74294036D01*
X159421685Y-74368472D01*
X159441449Y-74443552D01*
X159430311Y-74530739D01*
X159387974Y-74641491D01*
X159360905Y-74697620D01*
X159331833Y-74761439D01*
X159288528Y-74864217D01*
X159234495Y-74997257D01*
X159173239Y-75151860D01*
X159108264Y-75319329D01*
X159069743Y-75420282D01*
X159006369Y-75586355D01*
X158946869Y-75740235D01*
X158894241Y-75874326D01*
X158851484Y-75981035D01*
X158821595Y-76052767D01*
X158810329Y-76077349D01*
X158786867Y-76130929D01*
X158781416Y-76161479D01*
X158782123Y-76162541D01*
X158808713Y-76162399D01*
X158881207Y-76158108D01*
X158994858Y-76150043D01*
X159144920Y-76138577D01*
X159326647Y-76124086D01*
X159535293Y-76106942D01*
X159766112Y-76087521D01*
X160014358Y-76066197D01*
X160112476Y-76057654D01*
X160483866Y-76024474D01*
X160805037Y-75994217D01*
X161076534Y-75966825D01*
X161298903Y-75942237D01*
X161472687Y-75920395D01*
X161598432Y-75901239D01*
X161659112Y-75889175D01*
X161812057Y-75859132D01*
X161945198Y-75848727D01*
X162075546Y-75859045D01*
X162220112Y-75891167D01*
X162358740Y-75933724D01*
X162538503Y-76007232D01*
X162671110Y-76092924D01*
X162755704Y-76190032D01*
X162791427Y-76297787D01*
X162792643Y-76322945D01*
X162782802Y-76409218D01*
X162745496Y-76475795D01*
X162718323Y-76505281D01*
X162692824Y-76530614D01*
X162668885Y-76550042D01*
X162640187Y-76563864D01*
X162600409Y-76572379D01*
X162543233Y-76575886D01*
X162462337Y-76574684D01*
X162351404Y-76569071D01*
X162204112Y-76559348D01*
X162014141Y-76545812D01*
X161953604Y-76541463D01*
X161392116Y-76513083D01*
X160811146Y-76506082D01*
X160226109Y-76520007D01*
X159652419Y-76554404D01*
X159105493Y-76608823D01*
X158942583Y-76629852D01*
X158809854Y-76648494D01*
X158696163Y-76665387D01*
X158610482Y-76679125D01*
X158561785Y-76688303D01*
X158554120Y-76690730D01*
X158539752Y-76716155D01*
X158508992Y-76776468D01*
X158467393Y-76860683D01*
X158447714Y-76901184D01*
X158394570Y-77004887D01*
X158319994Y-77141882D01*
X158229671Y-77302444D01*
X158129284Y-77476847D01*
X158024519Y-77655365D01*
X157921060Y-77828274D01*
X157824591Y-77985847D01*
X157740798Y-78118360D01*
X157700509Y-78179513D01*
X157426477Y-78557603D01*
X157126438Y-78919177D01*
X156811884Y-79250892D01*
X156632334Y-79419845D01*
X156372692Y-79644455D01*
X156133145Y-79832047D01*
X155905713Y-79988005D01*
X155682419Y-80117714D01*
X155455285Y-80226555D01*
X155405817Y-80247486D01*
X155283357Y-80295771D01*
X155197274Y-80322694D01*
X155138534Y-80329776D01*
X155098102Y-80318535D01*
X155077865Y-80302633D01*
X155045759Y-80258012D01*
X155038311Y-80232690D01*
X155058123Y-80206587D01*
X155111384Y-80159339D01*
X155189386Y-80098237D01*
X155261224Y-80046057D01*
X155404471Y-79939817D01*
X155569118Y-79809007D01*
X155742503Y-79664415D01*
X155911960Y-79516830D01*
X156064825Y-79377041D01*
X156186293Y-79258043D01*
X156341235Y-79090504D01*
X156513938Y-78890454D01*
X156695704Y-78668809D01*
X156877837Y-78436482D01*
X157051641Y-78204390D01*
X157208419Y-77983448D01*
X157246683Y-77927149D01*
X157338212Y-77787640D01*
X157432712Y-77637589D01*
X157526605Y-77483325D01*
X157616311Y-77331175D01*
X157698253Y-77187466D01*
X157768852Y-77058527D01*
X157824530Y-76950683D01*
X157861709Y-76870264D01*
X157876810Y-76823597D01*
X157875453Y-76815298D01*
X157842820Y-76811198D01*
X157768616Y-76816224D01*
X157661026Y-76829010D01*
X157528235Y-76848189D01*
X157378428Y-76872394D01*
X157219791Y-76900258D01*
X157060509Y-76930415D01*
X156908766Y-76961497D01*
X156772749Y-76992138D01*
X156686847Y-77013775D01*
X156509859Y-77059672D01*
X156372726Y-77090511D01*
X156266825Y-77106591D01*
X156183535Y-77108214D01*
X156114234Y-77095678D01*
X156050300Y-77069284D01*
X155996281Y-77037794D01*
X155918117Y-76981415D01*
X155823777Y-76903157D01*
X155722249Y-76811721D01*
X155622522Y-76715805D01*
X155533582Y-76624108D01*
X155464418Y-76545330D01*
X155424018Y-76488169D01*
X155420251Y-76480269D01*
X155400273Y-76397784D01*
X155399873Y-76309338D01*
X155417228Y-76233441D01*
X155448905Y-76189566D01*
X155484542Y-76180701D01*
X155537551Y-76194516D01*
X155618782Y-76234203D01*
X155639596Y-76245651D01*
X155773785Y-76319408D01*
X155876988Y-76371748D01*
X155962297Y-76406614D01*
X156042803Y-76427943D01*
X156131600Y-76439679D01*
X156241778Y-76445760D01*
X156311875Y-76447996D01*
X156424387Y-76448986D01*
X156548628Y-76445224D01*
X156692060Y-76436120D01*
X156862149Y-76421085D01*
X157066355Y-76399530D01*
X157312144Y-76370866D01*
X157356231Y-76365531D01*
X157545849Y-76342558D01*
X157718927Y-76321712D01*
X157869081Y-76303755D01*
X157989926Y-76289444D01*
X158075077Y-76279539D01*
X158118149Y-76274798D01*
X158121982Y-76274496D01*
X158140369Y-76261223D01*
X158166117Y-76218798D01*
X158200905Y-76143313D01*
X158246410Y-76030860D01*
X158304310Y-75877529D01*
X158370189Y-75696390D01*
X158458233Y-75440798D01*
X158533487Y-75200802D01*
X158594298Y-74982720D01*
X158639014Y-74792873D01*
X158665983Y-74637580D01*
X158673724Y-74535303D01*
X158671717Y-74463580D01*
X158661011Y-74409866D01*
X158634578Y-74359232D01*
X158585392Y-74296749D01*
X158533884Y-74238216D01*
X158469402Y-74163636D01*
X158420643Y-74102839D01*
X158395685Y-74066055D01*
X158394044Y-74061100D01*
X158417132Y-74040813D01*
X158477076Y-74021604D01*
X158559893Y-74005756D01*
X158651603Y-73995555D01*
X158738224Y-73993286D01*
X158785278Y-73997163D01*
G37*
X158785278Y-73997163D02*
X158882248Y-74022191D01*
X158999678Y-74067781D01*
X159122928Y-74126515D01*
X159237353Y-74190975D01*
X159328312Y-74253744D01*
X159371313Y-74294036D01*
X159421685Y-74368472D01*
X159441449Y-74443552D01*
X159430311Y-74530739D01*
X159387974Y-74641491D01*
X159360905Y-74697620D01*
X159331833Y-74761439D01*
X159288528Y-74864217D01*
X159234495Y-74997257D01*
X159173239Y-75151860D01*
X159108264Y-75319329D01*
X159069743Y-75420282D01*
X159006369Y-75586355D01*
X158946869Y-75740235D01*
X158894241Y-75874326D01*
X158851484Y-75981035D01*
X158821595Y-76052767D01*
X158810329Y-76077349D01*
X158786867Y-76130929D01*
X158781416Y-76161479D01*
X158782123Y-76162541D01*
X158808713Y-76162399D01*
X158881207Y-76158108D01*
X158994858Y-76150043D01*
X159144920Y-76138577D01*
X159326647Y-76124086D01*
X159535293Y-76106942D01*
X159766112Y-76087521D01*
X160014358Y-76066197D01*
X160112476Y-76057654D01*
X160483866Y-76024474D01*
X160805037Y-75994217D01*
X161076534Y-75966825D01*
X161298903Y-75942237D01*
X161472687Y-75920395D01*
X161598432Y-75901239D01*
X161659112Y-75889175D01*
X161812057Y-75859132D01*
X161945198Y-75848727D01*
X162075546Y-75859045D01*
X162220112Y-75891167D01*
X162358740Y-75933724D01*
X162538503Y-76007232D01*
X162671110Y-76092924D01*
X162755704Y-76190032D01*
X162791427Y-76297787D01*
X162792643Y-76322945D01*
X162782802Y-76409218D01*
X162745496Y-76475795D01*
X162718323Y-76505281D01*
X162692824Y-76530614D01*
X162668885Y-76550042D01*
X162640187Y-76563864D01*
X162600409Y-76572379D01*
X162543233Y-76575886D01*
X162462337Y-76574684D01*
X162351404Y-76569071D01*
X162204112Y-76559348D01*
X162014141Y-76545812D01*
X161953604Y-76541463D01*
X161392116Y-76513083D01*
X160811146Y-76506082D01*
X160226109Y-76520007D01*
X159652419Y-76554404D01*
X159105493Y-76608823D01*
X158942583Y-76629852D01*
X158809854Y-76648494D01*
X158696163Y-76665387D01*
X158610482Y-76679125D01*
X158561785Y-76688303D01*
X158554120Y-76690730D01*
X158539752Y-76716155D01*
X158508992Y-76776468D01*
X158467393Y-76860683D01*
X158447714Y-76901184D01*
X158394570Y-77004887D01*
X158319994Y-77141882D01*
X158229671Y-77302444D01*
X158129284Y-77476847D01*
X158024519Y-77655365D01*
X157921060Y-77828274D01*
X157824591Y-77985847D01*
X157740798Y-78118360D01*
X157700509Y-78179513D01*
X157426477Y-78557603D01*
X157126438Y-78919177D01*
X156811884Y-79250892D01*
X156632334Y-79419845D01*
X156372692Y-79644455D01*
X156133145Y-79832047D01*
X155905713Y-79988005D01*
X155682419Y-80117714D01*
X155455285Y-80226555D01*
X155405817Y-80247486D01*
X155283357Y-80295771D01*
X155197274Y-80322694D01*
X155138534Y-80329776D01*
X155098102Y-80318535D01*
X155077865Y-80302633D01*
X155045759Y-80258012D01*
X155038311Y-80232690D01*
X155058123Y-80206587D01*
X155111384Y-80159339D01*
X155189386Y-80098237D01*
X155261224Y-80046057D01*
X155404471Y-79939817D01*
X155569118Y-79809007D01*
X155742503Y-79664415D01*
X155911960Y-79516830D01*
X156064825Y-79377041D01*
X156186293Y-79258043D01*
X156341235Y-79090504D01*
X156513938Y-78890454D01*
X156695704Y-78668809D01*
X156877837Y-78436482D01*
X157051641Y-78204390D01*
X157208419Y-77983448D01*
X157246683Y-77927149D01*
X157338212Y-77787640D01*
X157432712Y-77637589D01*
X157526605Y-77483325D01*
X157616311Y-77331175D01*
X157698253Y-77187466D01*
X157768852Y-77058527D01*
X157824530Y-76950683D01*
X157861709Y-76870264D01*
X157876810Y-76823597D01*
X157875453Y-76815298D01*
X157842820Y-76811198D01*
X157768616Y-76816224D01*
X157661026Y-76829010D01*
X157528235Y-76848189D01*
X157378428Y-76872394D01*
X157219791Y-76900258D01*
X157060509Y-76930415D01*
X156908766Y-76961497D01*
X156772749Y-76992138D01*
X156686847Y-77013775D01*
X156509859Y-77059672D01*
X156372726Y-77090511D01*
X156266825Y-77106591D01*
X156183535Y-77108214D01*
X156114234Y-77095678D01*
X156050300Y-77069284D01*
X155996281Y-77037794D01*
X155918117Y-76981415D01*
X155823777Y-76903157D01*
X155722249Y-76811721D01*
X155622522Y-76715805D01*
X155533582Y-76624108D01*
X155464418Y-76545330D01*
X155424018Y-76488169D01*
X155420251Y-76480269D01*
X155400273Y-76397784D01*
X155399873Y-76309338D01*
X155417228Y-76233441D01*
X155448905Y-76189566D01*
X155484542Y-76180701D01*
X155537551Y-76194516D01*
X155618782Y-76234203D01*
X155639596Y-76245651D01*
X155773785Y-76319408D01*
X155876988Y-76371748D01*
X155962297Y-76406614D01*
X156042803Y-76427943D01*
X156131600Y-76439679D01*
X156241778Y-76445760D01*
X156311875Y-76447996D01*
X156424387Y-76448986D01*
X156548628Y-76445224D01*
X156692060Y-76436120D01*
X156862149Y-76421085D01*
X157066355Y-76399530D01*
X157312144Y-76370866D01*
X157356231Y-76365531D01*
X157545849Y-76342558D01*
X157718927Y-76321712D01*
X157869081Y-76303755D01*
X157989926Y-76289444D01*
X158075077Y-76279539D01*
X158118149Y-76274798D01*
X158121982Y-76274496D01*
X158140369Y-76261223D01*
X158166117Y-76218798D01*
X158200905Y-76143313D01*
X158246410Y-76030860D01*
X158304310Y-75877529D01*
X158370189Y-75696390D01*
X158458233Y-75440798D01*
X158533487Y-75200802D01*
X158594298Y-74982720D01*
X158639014Y-74792873D01*
X158665983Y-74637580D01*
X158673724Y-74535303D01*
X158671717Y-74463580D01*
X158661011Y-74409866D01*
X158634578Y-74359232D01*
X158585392Y-74296749D01*
X158533884Y-74238216D01*
X158469402Y-74163636D01*
X158420643Y-74102839D01*
X158395685Y-74066055D01*
X158394044Y-74061100D01*
X158417132Y-74040813D01*
X158477076Y-74021604D01*
X158559893Y-74005756D01*
X158651603Y-73995555D01*
X158738224Y-73993286D01*
X158785278Y-73997163D01*
G36*
X161265447Y-78455408D02*
G01*
X161363462Y-78507179D01*
X161473538Y-78583819D01*
X161587450Y-78677691D01*
X161696971Y-78781161D01*
X161793878Y-78886592D01*
X161869944Y-78986348D01*
X161916946Y-79072795D01*
X161928179Y-79123543D01*
X161916712Y-79167280D01*
X161886894Y-79238479D01*
X161852028Y-79308540D01*
X161825968Y-79368399D01*
X161788302Y-79470307D01*
X161741300Y-79607391D01*
X161687232Y-79772779D01*
X161628367Y-79959598D01*
X161566974Y-80160976D01*
X161534831Y-80269075D01*
X161469491Y-80491227D01*
X161417298Y-80670649D01*
X161376902Y-80813353D01*
X161346950Y-80925349D01*
X161326091Y-81012650D01*
X161312974Y-81081265D01*
X161306247Y-81137206D01*
X161304559Y-81186484D01*
X161306558Y-81235109D01*
X161309406Y-81271721D01*
X161316241Y-81369155D01*
X161314563Y-81430910D01*
X161301587Y-81471836D01*
X161274527Y-81506780D01*
X161263117Y-81518446D01*
X161201205Y-81580358D01*
X160363340Y-81568744D01*
X160116783Y-81565756D01*
X159911534Y-81564488D01*
X159738073Y-81565241D01*
X159586876Y-81568314D01*
X159448423Y-81574007D01*
X159313190Y-81582621D01*
X159171656Y-81594456D01*
X159014300Y-81609812D01*
X158993850Y-81611910D01*
X158833190Y-81629220D01*
X158688546Y-81646235D01*
X158567994Y-81661887D01*
X158479609Y-81675112D01*
X158431465Y-81684844D01*
X158426240Y-81686829D01*
X158392346Y-81717046D01*
X158341240Y-81774812D01*
X158295955Y-81832023D01*
X158209916Y-81924429D01*
X158129040Y-81966368D01*
X158053006Y-81957928D01*
X157994263Y-81913706D01*
X157953205Y-81857979D01*
X157905603Y-81776346D01*
X157875128Y-81715003D01*
X157858105Y-81675423D01*
X157843683Y-81633959D01*
X157831184Y-81584985D01*
X157819934Y-81522870D01*
X157809255Y-81441986D01*
X157798472Y-81336703D01*
X157786908Y-81201393D01*
X157773887Y-81030427D01*
X157758734Y-80818176D01*
X157746853Y-80647210D01*
X157721827Y-80298944D01*
X157698003Y-79997738D01*
X157674952Y-79739828D01*
X157652246Y-79521448D01*
X157629453Y-79338835D01*
X157621355Y-79286500D01*
X158196589Y-79286500D01*
X158196590Y-79312383D01*
X158200019Y-79382360D01*
X158206458Y-79489821D01*
X158215491Y-79628153D01*
X158226702Y-79790747D01*
X158239674Y-79970990D01*
X158240073Y-79976423D01*
X158254599Y-80175680D01*
X158268884Y-80374440D01*
X158282186Y-80562150D01*
X158293759Y-80728258D01*
X158302861Y-80862210D01*
X158307660Y-80935872D01*
X158324998Y-81211362D01*
X158772684Y-81194359D01*
X158923957Y-81187795D01*
X159113126Y-81178308D01*
X159327367Y-81166617D01*
X159553856Y-81153440D01*
X159779770Y-81139495D01*
X159944995Y-81128703D01*
X160133498Y-81116143D01*
X160306776Y-81104781D01*
X160457961Y-81095052D01*
X160580180Y-81087393D01*
X160666565Y-81082240D01*
X160710245Y-81080028D01*
X160712913Y-81079976D01*
X160742945Y-81063326D01*
X160773265Y-81009244D01*
X160807405Y-80911375D01*
X160808348Y-80908280D01*
X160836517Y-80805426D01*
X160869861Y-80667357D01*
X160906686Y-80502778D01*
X160945298Y-80320395D01*
X160984005Y-80128913D01*
X161021112Y-79937038D01*
X161054927Y-79753475D01*
X161083755Y-79586929D01*
X161105904Y-79446105D01*
X161119680Y-79339710D01*
X161123487Y-79288263D01*
X161124335Y-79213034D01*
X161119610Y-79154549D01*
X161103814Y-79111195D01*
X161071448Y-79081357D01*
X161017015Y-79063422D01*
X160935016Y-79055775D01*
X160819951Y-79056802D01*
X160666324Y-79064889D01*
X160468634Y-79078422D01*
X160420335Y-79081853D01*
X160288981Y-79091699D01*
X160129033Y-79104521D01*
X159946583Y-79119759D01*
X159747721Y-79136851D01*
X159538541Y-79155238D01*
X159325132Y-79174359D01*
X159113587Y-79193653D01*
X158909997Y-79212559D01*
X158720453Y-79230517D01*
X158551047Y-79246967D01*
X158407870Y-79261347D01*
X158297014Y-79273098D01*
X158224569Y-79281658D01*
X158196629Y-79286468D01*
X158196589Y-79286500D01*
X157621355Y-79286500D01*
X157606146Y-79188224D01*
X157581893Y-79065850D01*
X157556266Y-78967949D01*
X157554665Y-78962736D01*
X157532159Y-78875297D01*
X157521093Y-78801178D01*
X157522344Y-78765689D01*
X157548022Y-78731801D01*
X157605277Y-78716857D01*
X157698453Y-78720865D01*
X157831893Y-78743831D01*
X157931641Y-78766366D01*
X158046418Y-78790497D01*
X158158426Y-78808391D01*
X158246584Y-78816786D01*
X158259240Y-78817039D01*
X158319611Y-78814339D01*
X158423749Y-78806698D01*
X158564883Y-78794801D01*
X158736243Y-78779336D01*
X158931055Y-78760986D01*
X159142551Y-78740440D01*
X159363957Y-78718384D01*
X159588504Y-78695502D01*
X159809420Y-78672482D01*
X160019933Y-78650010D01*
X160213274Y-78628771D01*
X160382669Y-78609453D01*
X160521349Y-78592741D01*
X160622541Y-78579321D01*
X160656907Y-78574069D01*
X160777427Y-78550821D01*
X160892622Y-78522925D01*
X160983771Y-78495114D01*
X161009739Y-78484882D01*
X161091628Y-78454936D01*
X161166122Y-78437769D01*
X161187717Y-78436140D01*
X161265447Y-78455408D01*
G37*
X161265447Y-78455408D02*
X161363462Y-78507179D01*
X161473538Y-78583819D01*
X161587450Y-78677691D01*
X161696971Y-78781161D01*
X161793878Y-78886592D01*
X161869944Y-78986348D01*
X161916946Y-79072795D01*
X161928179Y-79123543D01*
X161916712Y-79167280D01*
X161886894Y-79238479D01*
X161852028Y-79308540D01*
X161825968Y-79368399D01*
X161788302Y-79470307D01*
X161741300Y-79607391D01*
X161687232Y-79772779D01*
X161628367Y-79959598D01*
X161566974Y-80160976D01*
X161534831Y-80269075D01*
X161469491Y-80491227D01*
X161417298Y-80670649D01*
X161376902Y-80813353D01*
X161346950Y-80925349D01*
X161326091Y-81012650D01*
X161312974Y-81081265D01*
X161306247Y-81137206D01*
X161304559Y-81186484D01*
X161306558Y-81235109D01*
X161309406Y-81271721D01*
X161316241Y-81369155D01*
X161314563Y-81430910D01*
X161301587Y-81471836D01*
X161274527Y-81506780D01*
X161263117Y-81518446D01*
X161201205Y-81580358D01*
X160363340Y-81568744D01*
X160116783Y-81565756D01*
X159911534Y-81564488D01*
X159738073Y-81565241D01*
X159586876Y-81568314D01*
X159448423Y-81574007D01*
X159313190Y-81582621D01*
X159171656Y-81594456D01*
X159014300Y-81609812D01*
X158993850Y-81611910D01*
X158833190Y-81629220D01*
X158688546Y-81646235D01*
X158567994Y-81661887D01*
X158479609Y-81675112D01*
X158431465Y-81684844D01*
X158426240Y-81686829D01*
X158392346Y-81717046D01*
X158341240Y-81774812D01*
X158295955Y-81832023D01*
X158209916Y-81924429D01*
X158129040Y-81966368D01*
X158053006Y-81957928D01*
X157994263Y-81913706D01*
X157953205Y-81857979D01*
X157905603Y-81776346D01*
X157875128Y-81715003D01*
X157858105Y-81675423D01*
X157843683Y-81633959D01*
X157831184Y-81584985D01*
X157819934Y-81522870D01*
X157809255Y-81441986D01*
X157798472Y-81336703D01*
X157786908Y-81201393D01*
X157773887Y-81030427D01*
X157758734Y-80818176D01*
X157746853Y-80647210D01*
X157721827Y-80298944D01*
X157698003Y-79997738D01*
X157674952Y-79739828D01*
X157652246Y-79521448D01*
X157629453Y-79338835D01*
X157621355Y-79286500D01*
X158196589Y-79286500D01*
X158196590Y-79312383D01*
X158200019Y-79382360D01*
X158206458Y-79489821D01*
X158215491Y-79628153D01*
X158226702Y-79790747D01*
X158239674Y-79970990D01*
X158240073Y-79976423D01*
X158254599Y-80175680D01*
X158268884Y-80374440D01*
X158282186Y-80562150D01*
X158293759Y-80728258D01*
X158302861Y-80862210D01*
X158307660Y-80935872D01*
X158324998Y-81211362D01*
X158772684Y-81194359D01*
X158923957Y-81187795D01*
X159113126Y-81178308D01*
X159327367Y-81166617D01*
X159553856Y-81153440D01*
X159779770Y-81139495D01*
X159944995Y-81128703D01*
X160133498Y-81116143D01*
X160306776Y-81104781D01*
X160457961Y-81095052D01*
X160580180Y-81087393D01*
X160666565Y-81082240D01*
X160710245Y-81080028D01*
X160712913Y-81079976D01*
X160742945Y-81063326D01*
X160773265Y-81009244D01*
X160807405Y-80911375D01*
X160808348Y-80908280D01*
X160836517Y-80805426D01*
X160869861Y-80667357D01*
X160906686Y-80502778D01*
X160945298Y-80320395D01*
X160984005Y-80128913D01*
X161021112Y-79937038D01*
X161054927Y-79753475D01*
X161083755Y-79586929D01*
X161105904Y-79446105D01*
X161119680Y-79339710D01*
X161123487Y-79288263D01*
X161124335Y-79213034D01*
X161119610Y-79154549D01*
X161103814Y-79111195D01*
X161071448Y-79081357D01*
X161017015Y-79063422D01*
X160935016Y-79055775D01*
X160819951Y-79056802D01*
X160666324Y-79064889D01*
X160468634Y-79078422D01*
X160420335Y-79081853D01*
X160288981Y-79091699D01*
X160129033Y-79104521D01*
X159946583Y-79119759D01*
X159747721Y-79136851D01*
X159538541Y-79155238D01*
X159325132Y-79174359D01*
X159113587Y-79193653D01*
X158909997Y-79212559D01*
X158720453Y-79230517D01*
X158551047Y-79246967D01*
X158407870Y-79261347D01*
X158297014Y-79273098D01*
X158224569Y-79281658D01*
X158196629Y-79286468D01*
X158196589Y-79286500D01*
X157621355Y-79286500D01*
X157606146Y-79188224D01*
X157581893Y-79065850D01*
X157556266Y-78967949D01*
X157554665Y-78962736D01*
X157532159Y-78875297D01*
X157521093Y-78801178D01*
X157522344Y-78765689D01*
X157548022Y-78731801D01*
X157605277Y-78716857D01*
X157698453Y-78720865D01*
X157831893Y-78743831D01*
X157931641Y-78766366D01*
X158046418Y-78790497D01*
X158158426Y-78808391D01*
X158246584Y-78816786D01*
X158259240Y-78817039D01*
X158319611Y-78814339D01*
X158423749Y-78806698D01*
X158564883Y-78794801D01*
X158736243Y-78779336D01*
X158931055Y-78760986D01*
X159142551Y-78740440D01*
X159363957Y-78718384D01*
X159588504Y-78695502D01*
X159809420Y-78672482D01*
X160019933Y-78650010D01*
X160213274Y-78628771D01*
X160382669Y-78609453D01*
X160521349Y-78592741D01*
X160622541Y-78579321D01*
X160656907Y-78574069D01*
X160777427Y-78550821D01*
X160892622Y-78522925D01*
X160983771Y-78495114D01*
X161009739Y-78484882D01*
X161091628Y-78454936D01*
X161166122Y-78437769D01*
X161187717Y-78436140D01*
X161265447Y-78455408D01*
M02*
