M48
; DRILL file {KiCad 5.1.5} date Sun 26 Jan 2020 07:39:08 PM CET
; FORMAT={-:-/ absolute / metric / decimal}
; #@! TF.CreationDate,2020-01-26T19:39:08+01:00
; #@! TF.GenerationSoftware,Kicad,Pcbnew,5.1.5
FMAT,2
METRIC
T1C0.400
T2C1.000
T3C1.470
T4C0.787
T5C1.300
T6C1.750
T7C3.048
T8C3.200
T9C3.988
%
G90
G05
T1
X-40.132Y-27.432
X6.604Y-44.196
X15.239Y-47.245
X16.001Y-28.195
X17.017Y-66.295
X20.828Y-129.032
X21.844Y-129.54
X22.352Y-130.556
X23.851Y-124.866
X24.891Y-85.345
X25.4Y-115.824
X25.4Y-116.84
X25.4Y-122.936
X25.908Y-105.156
X25.908Y-117.856
X25.908Y-121.92
X26.416Y-128.524
X26.924Y-118.364
X28.956Y-140.208
X29.464Y-132.588
X29.972Y-141.732
X30.48Y-124.968
X31.368Y-103.76
X31.496Y-124.968
X32.512Y-124.968
X33.528Y-124.968
X33.528Y-133.096
X33.528Y-134.112
X33.528Y-135.128
X33.528Y-136.144
X34.544Y-124.968
X37.592Y-134.62
X38.608Y-131.064
X76.708Y-136.144
X95.504Y-135.128
X115.316Y-117.348
X156.21Y-85.598
X156.464Y-87.884
X184.912Y-124.968
X189.484Y-119.888
X191.516Y-79.756
X191.516Y-126.492
X193.04Y-133.985
X193.04Y-135.255
X193.04Y-136.652
X193.155Y-130.671
X194.056Y-116.332
X195.58Y-123.444
X195.58Y-141.732
X196.596Y-106.172
X196.596Y-140.208
X197.612Y-106.172
X197.612Y-116.332
X197.612Y-124.46
X198.628Y-106.172
X198.628Y-116.332
X198.628Y-124.46
X199.644Y-106.172
X199.644Y-116.332
X199.644Y-124.46
X200.66Y-116.332
X200.66Y-124.46
X202.692Y-120.396
X204.216Y-130.302
X204.978Y-136.144
X205.74Y-127.508
X205.74Y-139.192
X210.82Y-85.98
X212.344Y-118.364
X212.851Y-47.245
X220.217Y-28.195
X220.725Y-66.295
X228.6Y-138.176
X237.744Y-46.228
X239.776Y-78.232
X247.396Y-137.16
X266.192Y-136.144
X312.42Y-31.496
T2
X118.745Y-104.521
X118.745Y-107.061
X118.745Y-109.601
X121.285Y-104.521
X121.285Y-107.061
X121.285Y-109.601
X157.226Y-69.215
X157.226Y-71.755
X157.226Y-74.295
X159.766Y-69.215
X159.766Y-71.755
X159.766Y-74.295
T3
X47.613Y-72.396
X53.963Y-69.856
X12.226Y-129.546
X18.576Y-127.006
X-52.388Y-72.381
X-46.038Y-69.841
X166.281Y-110.526
X172.631Y-107.986
X256.77Y-34.289
X263.12Y-31.749
X-14.136Y-110.475
X-7.786Y-107.935
X209.144Y-72.434
X215.494Y-69.894
X237.72Y-34.289
X244.07Y-31.749
X213.852Y-91.469
X220.202Y-88.929
X171.044Y-72.434
X177.394Y-69.894
X57.15Y-34.29
X63.5Y-31.75
X142.419Y-129.592
X148.769Y-127.052
X14.248Y-91.426
X20.598Y-88.886
X71.398Y-91.426
X77.748Y-88.886
X304.416Y-53.373
X310.766Y-50.833
X275.816Y-53.35
X282.166Y-50.81
X33.298Y-91.426
X39.648Y-88.886
X-19.05Y-34.29
X-12.7Y-31.75
X90.448Y-91.426
X96.798Y-88.886
X261.531Y-110.526
X267.881Y-107.986
X206.703Y-129.578
X213.053Y-127.038
X275.82Y-34.289
X282.17Y-31.749
X38.1Y-53.34
X44.45Y-50.8
X190.094Y-72.434
X196.444Y-69.894
X-57.15Y-34.29
X-50.8Y-31.75
X251.952Y-91.469
X258.302Y-88.929
X-28.587Y-72.396
X-22.237Y-69.856
X0.0Y-53.34
X6.35Y-50.8
X19.05Y-53.34
X25.4Y-50.8
X309.158Y-72.423
X315.508Y-69.883
X313.924Y-34.29
X320.274Y-31.75
X-38.1Y-34.29
X-31.75Y-31.75
X223.431Y-110.526
X229.781Y-107.986
X-4.802Y-91.426
X1.548Y-88.886
X180.57Y-34.289
X186.92Y-31.749
X204.381Y-110.526
X210.731Y-107.986
X309.102Y-129.569
X315.452Y-127.029
X-52.07Y-129.54
X-45.72Y-127.0
X-49.986Y-91.429
X-43.636Y-88.889
X218.67Y-34.289
X225.02Y-31.749
X237.716Y-53.35
X244.066Y-50.81
X194.802Y-91.469
X201.152Y-88.929
X19.05Y-34.29
X25.4Y-31.75
X294.87Y-34.289
X301.22Y-31.749
X218.666Y-53.35
X225.016Y-50.81
X173.379Y-129.591
X179.729Y-127.051
X52.348Y-91.426
X58.698Y-88.886
X180.566Y-53.35
X186.916Y-50.81
X85.713Y-72.396
X92.063Y-69.856
X-28.262Y-129.539
X-21.912Y-126.999
X242.481Y-110.526
X248.831Y-107.986
X81.114Y-110.475
X87.464Y-107.935
X285.344Y-72.434
X291.694Y-69.894
X43.014Y-110.475
X49.364Y-107.935
X285.276Y-129.575
X291.626Y-127.035
X23.964Y-110.475
X30.314Y-107.935
X256.766Y-53.35
X263.116Y-50.81
X57.15Y-53.34
X63.5Y-50.8
X-9.212Y-129.539
X-2.862Y-126.999
X-45.085Y-110.49
X-38.735Y-107.95
X-23.852Y-91.426
X-17.502Y-88.886
X301.99Y-91.469
X308.34Y-88.929
X247.244Y-72.434
X253.594Y-69.894
X-19.05Y-53.34
X-12.7Y-50.8
X100.164Y-110.475
X106.514Y-107.935
X4.914Y-110.475
X11.264Y-107.935
X161.516Y-53.35
X167.866Y-50.81
X175.752Y-91.469
X182.102Y-88.929
X228.126Y-129.575
X234.476Y-127.035
X156.702Y-91.469
X163.052Y-88.929
X199.616Y-53.35
X205.966Y-50.81
X9.513Y-72.396
X15.863Y-69.856
X-57.15Y-53.34
X-50.8Y-50.8
X185.331Y-110.526
X191.681Y-107.986
X28.563Y-72.396
X34.913Y-69.856
X297.254Y-110.51
X303.604Y-107.97
X228.194Y-72.434
X234.544Y-69.894
X-38.1Y-53.34
X-31.75Y-50.8
X62.064Y-110.475
X68.414Y-107.935
X95.556Y-129.557
X101.906Y-127.017
X266.226Y-129.575
X272.576Y-127.035
X76.2Y-34.29
X82.55Y-31.75
X271.002Y-91.469
X277.352Y-88.929
X38.1Y-34.29
X44.45Y-31.75
X247.176Y-129.575
X253.526Y-127.035
X147.231Y-110.526
X153.581Y-107.986
X266.294Y-72.434
X272.644Y-69.894
X66.663Y-72.396
X73.013Y-69.856
X0.0Y-34.29
X6.35Y-31.75
X76.506Y-129.557
X82.856Y-127.017
X76.2Y-53.34
X82.55Y-50.8
X232.902Y-91.469
X239.252Y-88.929
X-9.537Y-72.396
X-3.187Y-69.856
X45.548Y-129.556
X51.898Y-127.016
X114.606Y-129.557
X120.956Y-127.017
X199.62Y-34.289
X205.97Y-31.749
T4
X93.472Y-50.8
X93.472Y-52.07
X93.472Y-53.34
X93.472Y-54.61
X93.472Y-55.88
X132.334Y-139.446
X132.334Y-140.716
X132.334Y-141.986
X132.334Y-143.256
X132.334Y-144.526
X171.196Y-24.13
X171.196Y-25.4
X171.196Y-26.67
X171.196Y-27.94
X171.196Y-29.21
X151.892Y-50.8
X151.892Y-52.07
X151.892Y-53.34
X151.892Y-54.61
X151.892Y-55.88
X108.204Y-88.138
X108.204Y-89.408
X108.204Y-90.678
X108.204Y-91.948
X108.204Y-93.218
X147.32Y-88.138
X147.32Y-89.408
X147.32Y-90.678
X147.32Y-91.948
X147.32Y-93.218
X93.472Y-24.13
X93.472Y-25.4
X93.472Y-26.67
X93.472Y-27.94
X93.472Y-29.21
T5
X306.308Y-25.384
X311.308Y-25.384
X-46.244Y-25.384
X-41.244Y-25.384
T6
X155.432Y-94.009
X165.592Y-94.009
X198.346Y-55.89
X208.506Y-55.89
X8.243Y-74.936
X18.403Y-74.936
X-58.42Y-55.88
X-48.26Y-55.88
X184.061Y-113.066
X194.221Y-113.066
X27.293Y-74.936
X37.453Y-74.936
X295.984Y-113.05
X306.144Y-113.05
X226.924Y-74.974
X237.084Y-74.974
X-39.37Y-55.88
X-29.21Y-55.88
X60.794Y-113.015
X70.954Y-113.015
X94.286Y-132.097
X104.446Y-132.097
X264.956Y-132.115
X275.116Y-132.115
X74.93Y-36.83
X85.09Y-36.83
X269.732Y-94.009
X279.892Y-94.009
X36.83Y-36.83
X46.99Y-36.83
X245.906Y-132.115
X256.066Y-132.115
X145.961Y-113.066
X156.121Y-113.066
X265.024Y-74.974
X275.184Y-74.974
X65.393Y-74.936
X75.553Y-74.936
X-1.27Y-36.83
X8.89Y-36.83
X75.236Y-132.097
X85.396Y-132.097
X74.93Y-55.88
X85.09Y-55.88
X231.632Y-94.009
X241.792Y-94.009
X-10.807Y-74.936
X-0.647Y-74.936
X44.278Y-132.096
X54.438Y-132.096
X113.336Y-132.097
X123.496Y-132.097
X198.35Y-36.829
X208.51Y-36.829
X46.343Y-74.936
X56.503Y-74.936
X10.956Y-132.086
X21.116Y-132.086
X-53.658Y-74.921
X-43.498Y-74.921
X165.011Y-113.066
X175.171Y-113.066
X255.5Y-36.829
X265.66Y-36.829
X-15.406Y-113.015
X-5.246Y-113.015
X207.874Y-74.974
X218.034Y-74.974
X236.45Y-36.829
X246.61Y-36.829
X212.582Y-94.009
X222.742Y-94.009
X169.774Y-74.974
X179.934Y-74.974
X55.88Y-36.83
X66.04Y-36.83
X141.149Y-132.132
X151.309Y-132.132
X12.978Y-93.966
X23.138Y-93.966
X70.128Y-93.966
X80.288Y-93.966
X303.146Y-55.913
X313.306Y-55.913
X274.546Y-55.89
X284.706Y-55.89
X32.028Y-93.966
X42.188Y-93.966
X-20.32Y-36.83
X-10.16Y-36.83
X89.178Y-93.966
X99.338Y-93.966
X260.261Y-113.066
X270.421Y-113.066
X205.433Y-132.118
X215.593Y-132.118
X274.55Y-36.829
X284.71Y-36.829
X36.83Y-55.88
X46.99Y-55.88
X188.824Y-74.974
X198.984Y-74.974
X-58.42Y-36.83
X-48.26Y-36.83
X250.682Y-94.009
X260.842Y-94.009
X-29.857Y-74.936
X-19.697Y-74.936
X-1.27Y-55.88
X8.89Y-55.88
X17.78Y-55.88
X27.94Y-55.88
X307.888Y-74.963
X318.048Y-74.963
X312.654Y-36.83
X322.814Y-36.83
X-39.37Y-36.83
X-29.21Y-36.83
X222.161Y-113.066
X232.321Y-113.066
X-6.072Y-93.966
X4.088Y-93.966
X179.3Y-36.829
X189.46Y-36.829
X203.111Y-113.066
X213.271Y-113.066
X307.832Y-132.109
X317.992Y-132.109
X-53.34Y-132.08
X-43.18Y-132.08
X-51.256Y-93.969
X-41.096Y-93.969
X217.4Y-36.829
X227.56Y-36.829
X236.446Y-55.89
X246.606Y-55.89
X193.532Y-94.009
X203.692Y-94.009
X17.78Y-36.83
X27.94Y-36.83
X293.6Y-36.829
X303.76Y-36.829
X217.396Y-55.89
X227.556Y-55.89
X172.109Y-132.131
X182.269Y-132.131
X51.078Y-93.966
X61.238Y-93.966
X179.296Y-55.89
X189.456Y-55.89
X84.443Y-74.936
X94.603Y-74.936
X-29.532Y-132.079
X-19.372Y-132.079
X241.211Y-113.066
X251.371Y-113.066
X79.844Y-113.015
X90.004Y-113.015
X284.074Y-74.974
X294.234Y-74.974
X41.744Y-113.015
X51.904Y-113.015
X284.006Y-132.115
X294.166Y-132.115
X22.694Y-113.015
X32.854Y-113.015
X255.496Y-55.89
X265.656Y-55.89
X55.88Y-55.88
X66.04Y-55.88
X-10.482Y-132.079
X-0.322Y-132.079
X-46.355Y-113.03
X-36.195Y-113.03
X-25.122Y-93.966
X-14.962Y-93.966
X300.72Y-94.009
X310.88Y-94.009
X245.974Y-74.974
X256.134Y-74.974
X-20.32Y-55.88
X-10.16Y-55.88
X98.894Y-113.015
X109.054Y-113.015
X3.644Y-113.015
X13.804Y-113.015
X160.246Y-55.89
X170.406Y-55.89
X174.482Y-94.009
X184.642Y-94.009
X226.856Y-132.115
X237.016Y-132.115
T7
X296.32Y-48.928
X320.133Y-48.928
X165.283Y-125.146
X189.095Y-125.146
X-53.181Y-106.045
X-29.369Y-106.045
X293.894Y-87.024
X317.707Y-87.024
X289.157Y-106.065
X312.97Y-106.065
X37.452Y-125.111
X61.264Y-125.111
T8
X-62.992Y-26.924
X-62.992Y-141.732
X89.408Y-26.924
X327.152Y-26.924
X327.152Y-141.732
X136.144Y-141.732
X128.524Y-141.732
X175.26Y-26.924
T9
X160.512Y-94.009
X203.426Y-55.89
X13.323Y-74.936
X-53.34Y-55.88
X189.141Y-113.066
X32.373Y-74.936
X289.157Y-121.305
X301.064Y-113.05
X312.97Y-121.305
X232.004Y-74.974
X-34.29Y-55.88
X65.874Y-113.015
X99.366Y-132.097
X270.036Y-132.115
X80.01Y-36.83
X274.812Y-94.009
X41.91Y-36.83
X250.986Y-132.115
X151.041Y-113.066
X270.104Y-74.974
X70.473Y-74.936
X3.81Y-36.83
X80.316Y-132.097
X80.01Y-55.88
X236.712Y-94.009
X-5.727Y-74.936
X37.452Y-140.351
X49.358Y-132.096
X61.264Y-140.351
X118.416Y-132.097
X203.43Y-36.829
X51.423Y-74.936
X16.036Y-132.086
X-48.578Y-74.921
X170.091Y-113.066
X260.58Y-36.829
X-10.326Y-113.015
X212.954Y-74.974
X241.53Y-36.829
X217.662Y-94.009
X174.854Y-74.974
X60.96Y-36.83
X146.229Y-132.132
X18.058Y-93.966
X75.208Y-93.966
X296.32Y-64.168
X308.226Y-55.913
X320.133Y-64.168
X279.626Y-55.89
X37.108Y-93.966
X-15.24Y-36.83
X94.258Y-93.966
X265.341Y-113.066
X210.513Y-132.118
X279.63Y-36.829
X41.91Y-55.88
X193.904Y-74.974
X-53.34Y-36.83
X255.762Y-94.009
X-24.777Y-74.936
X3.81Y-55.88
X22.86Y-55.88
X312.968Y-74.963
X317.734Y-36.83
X-34.29Y-36.83
X227.241Y-113.066
X-0.992Y-93.966
X184.38Y-36.829
X208.191Y-113.066
X312.912Y-132.109
X-48.26Y-132.08
X-46.176Y-93.969
X222.48Y-36.829
X241.526Y-55.89
X198.612Y-94.009
X22.86Y-36.83
X298.68Y-36.829
X222.476Y-55.89
X165.283Y-140.386
X177.189Y-132.131
X189.095Y-140.386
X56.158Y-93.966
X184.376Y-55.89
X89.523Y-74.936
X-24.452Y-132.079
X246.291Y-113.066
X84.924Y-113.015
X289.154Y-74.974
X46.824Y-113.015
X289.086Y-132.115
X27.774Y-113.015
X260.576Y-55.89
X60.96Y-55.88
X-5.402Y-132.079
X-53.181Y-121.285
X-41.275Y-113.03
X-29.369Y-121.285
X-20.042Y-93.966
X293.894Y-102.264
X305.8Y-94.009
X317.707Y-102.264
X251.054Y-74.974
X-15.24Y-55.88
X103.974Y-113.015
X8.724Y-113.015
X165.326Y-55.89
X179.562Y-94.009
X231.936Y-132.115
T0
M30
