M48
; DRILL file {KiCad (5.1.4)-1} date 09/30/19 23:05:34
; FORMAT={-:-/ absolute / inch / decimal}
; #@! TF.CreationDate,2019-09-30T23:05:34-07:00
; #@! TF.GenerationSoftware,Kicad,Pcbnew,(5.1.4)-1
; #@! TF.FileFunction,NonPlated,1,2,NPTH
FMAT,2
INCH
T1C0.0256
T2C0.0310
T3C0.0591
T4C0.0689
T5C0.1570
%
G90
G05
T1
X1.5769Y-1.4251
X1.8011Y-1.3855
X9.7302Y-1.3855
X9.9543Y-1.4251
T2
X1.2125Y-4.48
X1.2625Y-4.48
X1.3125Y-4.48
X1.3625Y-4.48
X1.4125Y-4.48
X3.8375Y-1.33
X3.8875Y-1.33
X3.9375Y-1.33
X3.9875Y-1.33
X4.0375Y-1.33
X8.2438Y-4.48
X8.2937Y-4.48
X8.3438Y-4.48
X8.3937Y-4.48
X8.4437Y-4.48
X3.0875Y-4.2
X3.1375Y-4.2
X3.1875Y-4.2
X3.2375Y-4.2
X3.2875Y-4.2
X7.4937Y-1.33
X7.5438Y-1.33
X7.5938Y-1.33
X7.6437Y-1.33
X7.6937Y-1.33
X8.2438Y-4.2
X8.2937Y-4.2
X8.3438Y-4.2
X8.3937Y-4.2
X8.4437Y-4.2
X10.1188Y-4.48
X10.1687Y-4.48
X10.2188Y-4.48
X10.2687Y-4.48
X10.3187Y-4.48
X3.0875Y-4.48
X3.1375Y-4.48
X3.1875Y-4.48
X3.2375Y-4.48
X3.2875Y-4.48
X8.995Y-1.33
X9.045Y-1.33
X9.095Y-1.33
X9.145Y-1.33
X9.195Y-1.33
X2.3375Y-1.33
X2.3875Y-1.33
X2.4375Y-1.33
X2.4875Y-1.33
X2.5375Y-1.33
T3
X7.9688Y-1.1777
X7.9688Y-1.4532
X3.5625Y-1.1777
X3.5625Y-1.4532
T4
X9.6437Y-3.375
X10.0437Y-3.375
X10.3937Y-4.125
X10.7937Y-4.125
X6.3252Y-4.1577
X6.5252Y-4.5041
X0.7375Y-3.375
X1.1375Y-3.375
X2.2375Y-2.4375
X2.6375Y-2.4375
X1.4875Y-3.375
X1.8875Y-3.375
X8.8937Y-3.9375
X9.2937Y-3.9375
X2.9875Y-2.3438
X3.3875Y-2.3438
X8.1437Y-3.8438
X8.5437Y-3.8438
X7.3937Y-1.6875
X7.7938Y-1.6875
X10.3937Y-3.375
X10.7937Y-3.375
X8.1437Y-3.0938
X8.5437Y-3.0938
X8.1437Y-2.3438
X8.5437Y-2.3438
X3.7375Y-2.4375
X4.1375Y-2.4375
X8.8937Y-2.4375
X9.2937Y-2.4375
X8.8937Y-1.6875
X9.2937Y-1.6875
X3.7375Y-1.6875
X4.1375Y-1.6875
X6.6437Y-3.2812
X7.0438Y-3.2812
X0.7375Y-2.625
X1.1375Y-2.625
X4.4875Y-1.7812
X4.8875Y-1.7812
X10.3937Y-2.625
X10.7937Y-2.625
X0.7375Y-4.125
X1.1375Y-4.125
X1.4875Y-4.125
X1.8875Y-4.125
X7.3937Y-3.1875
X7.7938Y-3.1875
X2.2375Y-3.1875
X2.6375Y-3.1875
X2.9875Y-1.5938
X3.3875Y-1.5938
X1.4875Y-1.875
X1.8875Y-1.875
X6.6437Y-2.5312
X7.0438Y-2.5312
X8.1437Y-1.5938
X8.5437Y-1.5938
X4.4875Y-3.2812
X4.8875Y-3.2812
X3.7375Y-3.1875
X4.1375Y-3.1875
X7.3937Y-2.4375
X7.7938Y-2.4375
X4.4875Y-2.5312
X4.8875Y-2.5312
X9.6437Y-2.625
X10.0437Y-2.625
X0.7375Y-1.875
X1.1375Y-1.875
X6.6437Y-1.7812
X7.0438Y-1.7812
X9.6437Y-4.125
X10.0437Y-4.125
X2.2375Y-3.9375
X2.6375Y-3.9375
X10.3937Y-1.875
X10.7937Y-1.875
X8.8937Y-3.1875
X9.2937Y-3.1875
X2.9875Y-3.8438
X3.3875Y-3.8438
X2.2375Y-1.6875
X2.6375Y-1.6875
X7.0294Y-4.0952
X7.4158Y-3.9917
X1.4875Y-2.625
X1.8875Y-2.625
X2.9875Y-3.0938
X3.3875Y-3.0938
X5.006Y-4.5041
X5.206Y-4.1577
X4.1154Y-3.9917
X4.5018Y-4.0952
X9.6437Y-1.875
X10.0437Y-1.875
T5
X7.5938Y-3.1875
X2.4375Y-3.1875
X3.1875Y-1.5938
X1.6875Y-1.875
X6.8438Y-2.5312
X8.3438Y-1.5938
X4.6875Y-3.2812
X3.9375Y-3.1875
X7.5938Y-2.4375
X4.6875Y-2.5312
X9.8438Y-2.625
X0.9375Y-1.875
X6.8438Y-1.7812
X9.8438Y-4.125
X2.4375Y-3.9375
X10.5938Y-1.875
X9.0938Y-3.1875
X3.1875Y-3.8438
X2.4375Y-1.6875
X7.2226Y-4.0434
X1.6875Y-2.625
X3.1875Y-3.0938
X5.106Y-4.3309
X4.3086Y-4.0434
X9.8438Y-1.875
X9.8438Y-3.375
X10.5938Y-4.125
X6.4252Y-4.3309
X0.9375Y-3.375
X2.4375Y-2.4375
X1.6875Y-3.375
X9.0938Y-3.9375
X3.1875Y-2.3438
X8.3438Y-3.8438
X7.5938Y-1.6875
X10.5938Y-3.375
X8.3438Y-3.0938
X8.3438Y-2.3438
X3.9375Y-2.4375
X9.0938Y-2.4375
X9.0938Y-1.6875
X3.9375Y-1.6875
X6.8438Y-3.2812
X0.9375Y-2.625
X4.6875Y-1.7812
X10.5938Y-2.625
X0.9375Y-4.125
X1.6875Y-4.125
T0
M30
