M48
; DRILL file {KiCad 5.1.5} date Sun 16 Feb 2020 02:09:02 AM CET
; FORMAT={-:-/ absolute / metric / decimal}
; #@! TF.CreationDate,2020-02-16T02:09:02+01:00
; #@! TF.GenerationSoftware,Kicad,Pcbnew,5.1.5
; #@! TF.FileFunction,Plated,1,2,PTH
FMAT,2
METRIC
T1C0.400
T2C1.000
T3C1.470
%
G90
G05
T1
X-40.132Y-27.432
X12.954Y-45.466
X15.239Y-47.245
X16.001Y-28.195
X17.017Y-66.295
X20.574Y-129.025
X21.647Y-129.54
X22.352Y-130.556
X24.638Y-124.968
X24.891Y-85.345
X25.4Y-115.824
X25.4Y-116.84
X25.908Y-105.156
X25.908Y-117.856
X25.908Y-121.92
X26.416Y-128.524
X26.924Y-118.364
X29.464Y-132.588
X29.464Y-140.208
X29.718Y-141.732
X30.48Y-124.968
X31.368Y-103.76
X31.496Y-124.968
X32.512Y-124.968
X33.528Y-124.968
X33.528Y-133.096
X33.528Y-134.112
X33.528Y-135.128
X33.528Y-136.144
X34.544Y-124.968
X37.592Y-134.62
X38.862Y-130.81
X76.708Y-136.144
X95.504Y-135.325
X119.38Y-116.586
X154.355Y-87.765
X155.194Y-85.09
X184.912Y-124.968
X189.484Y-119.888
X191.516Y-79.756
X191.516Y-126.492
X193.04Y-133.985
X193.04Y-135.255
X193.04Y-136.652
X193.155Y-130.671
X194.056Y-116.135
X195.58Y-123.444
X195.58Y-141.732
X196.596Y-106.172
X196.596Y-140.208
X197.612Y-106.172
X197.612Y-116.135
X197.612Y-124.46
X198.628Y-106.172
X198.628Y-116.135
X198.628Y-124.46
X199.39Y-130.302
X199.644Y-106.172
X199.644Y-116.135
X199.644Y-124.46
X200.66Y-116.135
X200.66Y-124.46
X202.692Y-120.396
X204.47Y-130.048
X204.978Y-136.144
X205.74Y-139.192
X210.82Y-85.98
X212.344Y-118.364
X212.851Y-47.245
X220.217Y-28.195
X220.725Y-66.295
X228.346Y-137.922
X237.744Y-46.228
X239.776Y-78.232
X247.396Y-137.16
X266.446Y-136.398
X312.42Y-27.432
T2
X118.745Y-104.521
X118.745Y-107.061
X118.745Y-109.601
X121.285Y-104.521
X121.285Y-107.061
X121.285Y-109.601
X157.734Y-67.056
X157.734Y-69.596
X157.734Y-72.136
X160.274Y-67.056
X160.274Y-69.596
X160.274Y-72.136
T3
X206.703Y-129.578
X213.053Y-127.038
X156.702Y-91.469
X163.052Y-88.929
X4.914Y-110.475
X11.264Y-107.935
X81.114Y-110.475
X87.464Y-107.935
X199.616Y-53.35
X205.966Y-50.81
X247.244Y-72.434
X253.594Y-69.894
X185.331Y-110.526
X191.681Y-107.986
X247.176Y-129.575
X253.526Y-127.035
X-19.05Y-53.34
X-12.7Y-50.8
X-52.07Y-129.54
X-45.72Y-127.0
X161.516Y-53.35
X167.866Y-50.81
X228.126Y-129.575
X234.476Y-127.035
X266.226Y-129.575
X272.576Y-127.035
X-38.1Y-53.34
X-31.75Y-50.8
X76.2Y-53.34
X82.55Y-50.8
X271.002Y-91.469
X277.352Y-88.929
X100.164Y-110.475
X106.514Y-107.935
X28.563Y-72.396
X34.913Y-69.856
X-52.388Y-72.381
X-46.038Y-69.841
X-57.15Y-53.34
X-50.8Y-50.8
X313.924Y-34.29
X320.274Y-31.75
X228.194Y-72.434
X234.544Y-69.894
X173.379Y-129.591
X179.729Y-127.051
X266.294Y-72.434
X272.644Y-69.894
X180.566Y-53.35
X186.916Y-50.81
X62.064Y-110.475
X68.414Y-107.935
X66.663Y-72.396
X73.013Y-69.856
X166.281Y-110.526
X172.631Y-107.986
X38.1Y-34.29
X44.45Y-31.75
X-14.136Y-110.475
X-7.786Y-107.935
X23.964Y-110.475
X30.314Y-107.935
X76.506Y-129.557
X82.856Y-127.017
X199.62Y-34.289
X205.97Y-31.749
X-9.212Y-129.539
X-2.862Y-126.999
X76.2Y-34.29
X82.55Y-31.75
X209.144Y-72.434
X215.494Y-69.894
X14.248Y-91.426
X20.598Y-88.886
X232.902Y-91.469
X239.252Y-88.929
X275.82Y-34.289
X282.17Y-31.749
X-9.537Y-72.396
X-3.187Y-69.856
X213.852Y-91.469
X220.202Y-88.929
X304.416Y-53.373
X310.766Y-50.833
X256.77Y-34.289
X263.12Y-31.749
X275.816Y-53.35
X282.166Y-50.81
X261.531Y-110.526
X267.881Y-107.986
X114.606Y-129.557
X120.956Y-127.017
X237.72Y-34.289
X244.07Y-31.749
X33.298Y-91.426
X39.648Y-88.886
X-49.986Y-91.429
X-43.636Y-88.889
X95.556Y-129.557
X101.906Y-127.017
X47.613Y-72.396
X53.963Y-69.856
X147.231Y-110.526
X153.581Y-107.986
X251.952Y-91.469
X258.302Y-88.929
X57.15Y-34.29
X63.5Y-31.75
X85.713Y-72.396
X92.063Y-69.856
X142.419Y-129.592
X148.769Y-127.052
X71.398Y-91.426
X77.748Y-88.886
X0.0Y-34.29
X6.35Y-31.75
X218.67Y-34.289
X225.02Y-31.749
X-28.587Y-72.396
X-22.237Y-69.856
X-19.05Y-34.29
X-12.7Y-31.75
X0.0Y-53.34
X6.35Y-50.8
X297.254Y-110.51
X303.604Y-107.97
X-38.1Y-34.29
X-31.75Y-31.75
X309.158Y-72.423
X315.508Y-69.883
X190.094Y-72.434
X196.444Y-69.894
X237.716Y-53.35
X244.066Y-50.81
X285.344Y-72.434
X291.694Y-69.894
X45.548Y-129.556
X51.898Y-127.016
X194.802Y-91.469
X201.152Y-88.929
X19.05Y-34.29
X25.4Y-31.75
X12.226Y-129.546
X18.576Y-127.006
X223.431Y-110.526
X229.781Y-107.986
X-45.085Y-110.49
X-38.735Y-107.95
X180.57Y-34.289
X186.92Y-31.749
X301.99Y-91.469
X308.34Y-88.929
X-4.802Y-91.426
X1.548Y-88.886
X204.381Y-110.526
X210.731Y-107.986
X52.348Y-91.426
X58.698Y-88.886
X294.87Y-34.289
X301.22Y-31.749
X38.1Y-53.34
X44.45Y-50.8
X-57.15Y-34.29
X-50.8Y-31.75
X90.448Y-91.426
X96.798Y-88.886
X285.276Y-129.575
X291.626Y-127.035
X309.102Y-129.569
X315.452Y-127.029
X218.666Y-53.35
X225.016Y-50.81
X256.766Y-53.35
X263.116Y-50.81
X171.044Y-72.434
X177.394Y-69.894
X242.481Y-110.526
X248.831Y-107.986
X57.15Y-53.34
X63.5Y-50.8
X175.752Y-91.469
X182.102Y-88.929
X19.05Y-53.34
X25.4Y-50.8
X-28.262Y-129.539
X-21.912Y-126.999
X9.513Y-72.396
X15.863Y-69.856
X43.014Y-110.475
X49.364Y-107.935
X-23.852Y-91.426
X-17.502Y-88.886
T0
M30
