G04 #@! TF.GenerationSoftware,KiCad,Pcbnew,(5.1.4)-1*
G04 #@! TF.CreationDate,2019-09-30T23:05:28-07:00*
G04 #@! TF.ProjectId,Orbit,4f726269-742e-46b6-9963-61645f706362,rev?*
G04 #@! TF.SameCoordinates,Original*
G04 #@! TF.FileFunction,Soldermask,Top*
G04 #@! TF.FilePolarity,Negative*
%FSLAX46Y46*%
G04 Gerber Fmt 4.6, Leading zero omitted, Abs format (unit mm)*
G04 Created by KiCad (PCBNEW (5.1.4)-1) date 2019-09-30 23:05:28*
%MOMM*%
%LPD*%
G04 APERTURE LIST*
%ADD10C,0.010000*%
%ADD11C,4.387800*%
%ADD12C,2.150000*%
%ADD13C,1.050000*%
%ADD14C,1.400000*%
%ADD15C,1.400000*%
%ADD16C,1.187400*%
%ADD17C,1.900000*%
%ADD18O,1.600000X2.200000*%
G04 APERTURE END LIST*
D10*
G36*
X31161632Y-136001644D02*
G01*
X31329247Y-136006165D01*
X31445379Y-136014001D01*
X31514135Y-136025398D01*
X31536715Y-136036050D01*
X31569493Y-136103327D01*
X31562658Y-136179219D01*
X31519261Y-136235621D01*
X31514773Y-136238199D01*
X31464528Y-136249194D01*
X31364288Y-136258279D01*
X31223808Y-136264920D01*
X31052841Y-136268582D01*
X30950319Y-136269132D01*
X30761824Y-136268507D01*
X30623542Y-136266011D01*
X30525927Y-136260712D01*
X30459435Y-136251677D01*
X30414520Y-136237976D01*
X30381637Y-136218675D01*
X30374194Y-136212878D01*
X30327517Y-136165428D01*
X30324695Y-136118133D01*
X30340360Y-136078407D01*
X30375998Y-136000191D01*
X30938427Y-136000191D01*
X31161632Y-136001644D01*
X31161632Y-136001644D01*
G37*
X31161632Y-136001644D02*
X31329247Y-136006165D01*
X31445379Y-136014001D01*
X31514135Y-136025398D01*
X31536715Y-136036050D01*
X31569493Y-136103327D01*
X31562658Y-136179219D01*
X31519261Y-136235621D01*
X31514773Y-136238199D01*
X31464528Y-136249194D01*
X31364288Y-136258279D01*
X31223808Y-136264920D01*
X31052841Y-136268582D01*
X30950319Y-136269132D01*
X30761824Y-136268507D01*
X30623542Y-136266011D01*
X30525927Y-136260712D01*
X30459435Y-136251677D01*
X30414520Y-136237976D01*
X30381637Y-136218675D01*
X30374194Y-136212878D01*
X30327517Y-136165428D01*
X30324695Y-136118133D01*
X30340360Y-136078407D01*
X30375998Y-136000191D01*
X30938427Y-136000191D01*
X31161632Y-136001644D01*
G36*
X34082658Y-134268314D02*
G01*
X34112091Y-134317278D01*
X34112573Y-134326188D01*
X34097284Y-134366031D01*
X34054144Y-134449246D01*
X33987247Y-134568694D01*
X33900688Y-134717235D01*
X33798560Y-134887730D01*
X33684956Y-135073038D01*
X33676779Y-135086220D01*
X33240986Y-135788219D01*
X33679739Y-136492472D01*
X33795076Y-136678693D01*
X33900083Y-136850321D01*
X33990528Y-137000270D01*
X34062176Y-137121453D01*
X34110795Y-137206785D01*
X34132152Y-137249178D01*
X34132552Y-137250487D01*
X34123264Y-137311403D01*
X34097249Y-137345215D01*
X34056423Y-137368393D01*
X34004243Y-137367252D01*
X33923348Y-137343128D01*
X33883082Y-137327449D01*
X33846846Y-137306452D01*
X33809827Y-137273681D01*
X33767212Y-137222680D01*
X33714187Y-137146994D01*
X33645941Y-137040167D01*
X33557659Y-136895743D01*
X33444530Y-136707266D01*
X33425279Y-136675062D01*
X33320579Y-136502032D01*
X33224766Y-136347784D01*
X33142355Y-136219256D01*
X33077858Y-136123384D01*
X33035788Y-136067105D01*
X33021867Y-136055002D01*
X32998776Y-136081112D01*
X32950383Y-136151613D01*
X32881339Y-136259175D01*
X32796295Y-136396470D01*
X32699901Y-136556172D01*
X32644186Y-136650131D01*
X32506385Y-136879874D01*
X32393677Y-137058616D01*
X32304406Y-137188800D01*
X32236917Y-137272869D01*
X32199002Y-137307544D01*
X32095317Y-137363403D01*
X32015823Y-137368754D01*
X31967020Y-137338921D01*
X31935067Y-137283986D01*
X31931162Y-137261093D01*
X31946418Y-137225547D01*
X31989458Y-137146423D01*
X32056190Y-137030695D01*
X32142521Y-136885337D01*
X32244359Y-136717325D01*
X32357611Y-136533634D01*
X32364456Y-136522626D01*
X32478239Y-136338265D01*
X32580847Y-136169204D01*
X32668189Y-136022415D01*
X32736172Y-135904866D01*
X32780705Y-135823527D01*
X32797696Y-135785368D01*
X32797750Y-135784621D01*
X32782456Y-135748703D01*
X32739466Y-135669724D01*
X32673117Y-135555077D01*
X32587746Y-135412154D01*
X32487691Y-135248349D01*
X32406232Y-135117216D01*
X32270224Y-134899734D01*
X32162831Y-134727236D01*
X32081068Y-134593974D01*
X32021953Y-134494203D01*
X31982503Y-134422175D01*
X31959734Y-134372145D01*
X31950663Y-134338367D01*
X31952307Y-134315093D01*
X31961684Y-134296578D01*
X31972482Y-134281693D01*
X32030879Y-134247272D01*
X32115599Y-134247293D01*
X32206715Y-134278346D01*
X32282193Y-134334708D01*
X32316423Y-134380597D01*
X32375133Y-134468806D01*
X32452477Y-134590152D01*
X32542612Y-134735456D01*
X32639693Y-134895533D01*
X32648053Y-134909485D01*
X32744535Y-135070418D01*
X32833118Y-135217719D01*
X32908241Y-135342177D01*
X32964342Y-135434580D01*
X32995860Y-135485714D01*
X32997300Y-135487976D01*
X33012767Y-135509021D01*
X33029135Y-135517272D01*
X33050600Y-135507280D01*
X33081356Y-135473597D01*
X33125598Y-135410775D01*
X33187523Y-135313368D01*
X33271325Y-135175926D01*
X33381200Y-134993002D01*
X33390748Y-134977064D01*
X33493412Y-134806560D01*
X33588005Y-134651098D01*
X33669503Y-134518804D01*
X33732884Y-134417801D01*
X33773124Y-134356214D01*
X33782639Y-134343166D01*
X33853047Y-134285490D01*
X33937166Y-134253241D01*
X34019027Y-134247242D01*
X34082658Y-134268314D01*
X34082658Y-134268314D01*
G37*
X34082658Y-134268314D02*
X34112091Y-134317278D01*
X34112573Y-134326188D01*
X34097284Y-134366031D01*
X34054144Y-134449246D01*
X33987247Y-134568694D01*
X33900688Y-134717235D01*
X33798560Y-134887730D01*
X33684956Y-135073038D01*
X33676779Y-135086220D01*
X33240986Y-135788219D01*
X33679739Y-136492472D01*
X33795076Y-136678693D01*
X33900083Y-136850321D01*
X33990528Y-137000270D01*
X34062176Y-137121453D01*
X34110795Y-137206785D01*
X34132152Y-137249178D01*
X34132552Y-137250487D01*
X34123264Y-137311403D01*
X34097249Y-137345215D01*
X34056423Y-137368393D01*
X34004243Y-137367252D01*
X33923348Y-137343128D01*
X33883082Y-137327449D01*
X33846846Y-137306452D01*
X33809827Y-137273681D01*
X33767212Y-137222680D01*
X33714187Y-137146994D01*
X33645941Y-137040167D01*
X33557659Y-136895743D01*
X33444530Y-136707266D01*
X33425279Y-136675062D01*
X33320579Y-136502032D01*
X33224766Y-136347784D01*
X33142355Y-136219256D01*
X33077858Y-136123384D01*
X33035788Y-136067105D01*
X33021867Y-136055002D01*
X32998776Y-136081112D01*
X32950383Y-136151613D01*
X32881339Y-136259175D01*
X32796295Y-136396470D01*
X32699901Y-136556172D01*
X32644186Y-136650131D01*
X32506385Y-136879874D01*
X32393677Y-137058616D01*
X32304406Y-137188800D01*
X32236917Y-137272869D01*
X32199002Y-137307544D01*
X32095317Y-137363403D01*
X32015823Y-137368754D01*
X31967020Y-137338921D01*
X31935067Y-137283986D01*
X31931162Y-137261093D01*
X31946418Y-137225547D01*
X31989458Y-137146423D01*
X32056190Y-137030695D01*
X32142521Y-136885337D01*
X32244359Y-136717325D01*
X32357611Y-136533634D01*
X32364456Y-136522626D01*
X32478239Y-136338265D01*
X32580847Y-136169204D01*
X32668189Y-136022415D01*
X32736172Y-135904866D01*
X32780705Y-135823527D01*
X32797696Y-135785368D01*
X32797750Y-135784621D01*
X32782456Y-135748703D01*
X32739466Y-135669724D01*
X32673117Y-135555077D01*
X32587746Y-135412154D01*
X32487691Y-135248349D01*
X32406232Y-135117216D01*
X32270224Y-134899734D01*
X32162831Y-134727236D01*
X32081068Y-134593974D01*
X32021953Y-134494203D01*
X31982503Y-134422175D01*
X31959734Y-134372145D01*
X31950663Y-134338367D01*
X31952307Y-134315093D01*
X31961684Y-134296578D01*
X31972482Y-134281693D01*
X32030879Y-134247272D01*
X32115599Y-134247293D01*
X32206715Y-134278346D01*
X32282193Y-134334708D01*
X32316423Y-134380597D01*
X32375133Y-134468806D01*
X32452477Y-134590152D01*
X32542612Y-134735456D01*
X32639693Y-134895533D01*
X32648053Y-134909485D01*
X32744535Y-135070418D01*
X32833118Y-135217719D01*
X32908241Y-135342177D01*
X32964342Y-135434580D01*
X32995860Y-135485714D01*
X32997300Y-135487976D01*
X33012767Y-135509021D01*
X33029135Y-135517272D01*
X33050600Y-135507280D01*
X33081356Y-135473597D01*
X33125598Y-135410775D01*
X33187523Y-135313368D01*
X33271325Y-135175926D01*
X33381200Y-134993002D01*
X33390748Y-134977064D01*
X33493412Y-134806560D01*
X33588005Y-134651098D01*
X33669503Y-134518804D01*
X33732884Y-134417801D01*
X33773124Y-134356214D01*
X33782639Y-134343166D01*
X33853047Y-134285490D01*
X33937166Y-134253241D01*
X34019027Y-134247242D01*
X34082658Y-134268314D01*
G36*
X29237475Y-134237228D02*
G01*
X29462920Y-134237742D01*
X29640686Y-134239012D01*
X29776816Y-134241378D01*
X29877352Y-134245178D01*
X29948336Y-134250751D01*
X29995813Y-134258436D01*
X30025823Y-134268572D01*
X30044411Y-134281498D01*
X30057618Y-134297552D01*
X30058517Y-134298830D01*
X30088164Y-134382919D01*
X30064791Y-134458928D01*
X29997720Y-134508366D01*
X29941430Y-134518668D01*
X29839085Y-134527221D01*
X29704388Y-134533229D01*
X29551041Y-134535893D01*
X29523687Y-134535956D01*
X29122220Y-134535956D01*
X29122220Y-135895603D01*
X29122142Y-136216135D01*
X29121757Y-136482245D01*
X29120839Y-136699278D01*
X29119165Y-136872578D01*
X29116509Y-137007486D01*
X29112647Y-137109349D01*
X29107352Y-137183508D01*
X29100401Y-137235307D01*
X29091567Y-137270091D01*
X29080627Y-137293202D01*
X29067355Y-137309985D01*
X29062456Y-137315015D01*
X28993296Y-137365793D01*
X28926202Y-137365216D01*
X28859928Y-137328261D01*
X28793515Y-137281743D01*
X28793515Y-134535956D01*
X28382632Y-134535515D01*
X28181051Y-134532497D01*
X28031747Y-134522753D01*
X27927439Y-134504513D01*
X27860843Y-134476004D01*
X27824680Y-134435455D01*
X27813277Y-134396991D01*
X27825950Y-134326330D01*
X27852765Y-134285681D01*
X27871160Y-134272711D01*
X27901693Y-134262245D01*
X27950308Y-134254021D01*
X28022950Y-134247777D01*
X28125563Y-134243253D01*
X28264091Y-134240187D01*
X28444479Y-134238319D01*
X28672671Y-134237388D01*
X28954611Y-134237132D01*
X28958307Y-134237132D01*
X29237475Y-134237228D01*
X29237475Y-134237228D01*
G37*
X29237475Y-134237228D02*
X29462920Y-134237742D01*
X29640686Y-134239012D01*
X29776816Y-134241378D01*
X29877352Y-134245178D01*
X29948336Y-134250751D01*
X29995813Y-134258436D01*
X30025823Y-134268572D01*
X30044411Y-134281498D01*
X30057618Y-134297552D01*
X30058517Y-134298830D01*
X30088164Y-134382919D01*
X30064791Y-134458928D01*
X29997720Y-134508366D01*
X29941430Y-134518668D01*
X29839085Y-134527221D01*
X29704388Y-134533229D01*
X29551041Y-134535893D01*
X29523687Y-134535956D01*
X29122220Y-134535956D01*
X29122220Y-135895603D01*
X29122142Y-136216135D01*
X29121757Y-136482245D01*
X29120839Y-136699278D01*
X29119165Y-136872578D01*
X29116509Y-137007486D01*
X29112647Y-137109349D01*
X29107352Y-137183508D01*
X29100401Y-137235307D01*
X29091567Y-137270091D01*
X29080627Y-137293202D01*
X29067355Y-137309985D01*
X29062456Y-137315015D01*
X28993296Y-137365793D01*
X28926202Y-137365216D01*
X28859928Y-137328261D01*
X28793515Y-137281743D01*
X28793515Y-134535956D01*
X28382632Y-134535515D01*
X28181051Y-134532497D01*
X28031747Y-134522753D01*
X27927439Y-134504513D01*
X27860843Y-134476004D01*
X27824680Y-134435455D01*
X27813277Y-134396991D01*
X27825950Y-134326330D01*
X27852765Y-134285681D01*
X27871160Y-134272711D01*
X27901693Y-134262245D01*
X27950308Y-134254021D01*
X28022950Y-134247777D01*
X28125563Y-134243253D01*
X28264091Y-134240187D01*
X28444479Y-134238319D01*
X28672671Y-134237388D01*
X28954611Y-134237132D01*
X28958307Y-134237132D01*
X29237475Y-134237228D01*
G36*
X26981001Y-134291779D02*
G01*
X26992340Y-134308780D01*
X27001820Y-134335904D01*
X27009604Y-134378187D01*
X27015855Y-134440664D01*
X27020738Y-134528371D01*
X27024416Y-134646342D01*
X27027052Y-134799612D01*
X27028811Y-134993218D01*
X27029854Y-135232195D01*
X27030347Y-135521577D01*
X27030456Y-135814085D01*
X27030456Y-137281743D01*
X26964042Y-137328261D01*
X26889170Y-137368311D01*
X26825881Y-137363010D01*
X26757354Y-137317655D01*
X26686809Y-137260530D01*
X26686809Y-135811733D01*
X26686900Y-135479561D01*
X26687304Y-135201984D01*
X26688215Y-134973834D01*
X26689829Y-134789943D01*
X26692338Y-134645142D01*
X26695939Y-134534263D01*
X26700826Y-134452137D01*
X26707193Y-134393594D01*
X26715235Y-134353468D01*
X26725147Y-134326588D01*
X26737124Y-134307787D01*
X26743734Y-134300034D01*
X26824463Y-134246456D01*
X26911090Y-134245937D01*
X26981001Y-134291779D01*
X26981001Y-134291779D01*
G37*
X26981001Y-134291779D02*
X26992340Y-134308780D01*
X27001820Y-134335904D01*
X27009604Y-134378187D01*
X27015855Y-134440664D01*
X27020738Y-134528371D01*
X27024416Y-134646342D01*
X27027052Y-134799612D01*
X27028811Y-134993218D01*
X27029854Y-135232195D01*
X27030347Y-135521577D01*
X27030456Y-135814085D01*
X27030456Y-137281743D01*
X26964042Y-137328261D01*
X26889170Y-137368311D01*
X26825881Y-137363010D01*
X26757354Y-137317655D01*
X26686809Y-137260530D01*
X26686809Y-135811733D01*
X26686900Y-135479561D01*
X26687304Y-135201984D01*
X26688215Y-134973834D01*
X26689829Y-134789943D01*
X26692338Y-134645142D01*
X26695939Y-134534263D01*
X26700826Y-134452137D01*
X26707193Y-134393594D01*
X26715235Y-134353468D01*
X26725147Y-134326588D01*
X26737124Y-134307787D01*
X26743734Y-134300034D01*
X26824463Y-134246456D01*
X26911090Y-134245937D01*
X26981001Y-134291779D01*
G36*
X22180628Y-134212673D02*
G01*
X22228927Y-134214240D01*
X22461786Y-134226935D01*
X22648160Y-134249613D01*
X22800971Y-134285699D01*
X22933137Y-134338616D01*
X23057578Y-134411791D01*
X23107631Y-134447166D01*
X23235941Y-134577170D01*
X23325378Y-134744087D01*
X23373078Y-134937133D01*
X23376179Y-135145523D01*
X23341332Y-135327627D01*
X23295788Y-135448986D01*
X23229328Y-135551429D01*
X23141807Y-135645444D01*
X23064207Y-135717877D01*
X23002184Y-135770009D01*
X22968700Y-135790978D01*
X22968113Y-135791015D01*
X22927261Y-135801667D01*
X22855408Y-135828193D01*
X22831916Y-135837793D01*
X22719961Y-135884571D01*
X22794780Y-135964793D01*
X22857798Y-136041425D01*
X22925952Y-136137217D01*
X22947003Y-136169984D01*
X22982365Y-136235797D01*
X23032401Y-136340458D01*
X23092546Y-136473162D01*
X23158231Y-136623108D01*
X23224892Y-136779492D01*
X23287960Y-136931512D01*
X23342869Y-137068365D01*
X23385052Y-137179248D01*
X23409944Y-137253357D01*
X23414691Y-137276339D01*
X23389434Y-137327260D01*
X23326396Y-137355045D01*
X23244679Y-137354895D01*
X23183997Y-137334281D01*
X23149387Y-137311121D01*
X23115650Y-137274111D01*
X23078578Y-137215411D01*
X23033966Y-137127184D01*
X22977608Y-137001592D01*
X22905297Y-136830796D01*
X22876120Y-136760528D01*
X22782817Y-136539722D01*
X22704688Y-136368527D01*
X22636680Y-136240317D01*
X22573737Y-136148465D01*
X22510807Y-136086346D01*
X22442836Y-136047333D01*
X22364769Y-136024800D01*
X22308341Y-136016109D01*
X22188024Y-136006911D01*
X22043854Y-136003515D01*
X21935515Y-136005643D01*
X21726338Y-136015132D01*
X21711397Y-136652599D01*
X21706060Y-136864730D01*
X21700766Y-137025044D01*
X21694661Y-137141480D01*
X21686894Y-137221978D01*
X21676613Y-137274480D01*
X21662965Y-137306924D01*
X21645100Y-137327251D01*
X21638450Y-137332422D01*
X21569323Y-137369598D01*
X21506612Y-137362410D01*
X21449105Y-137328261D01*
X21382691Y-137281743D01*
X21382691Y-134953567D01*
X21710895Y-134953567D01*
X21711397Y-135138552D01*
X21711397Y-135739046D01*
X22107338Y-135724992D01*
X22284017Y-135717008D01*
X22415150Y-135706140D01*
X22514951Y-135690270D01*
X22597631Y-135667282D01*
X22660379Y-135642615D01*
X22832934Y-135539770D01*
X22957702Y-135404421D01*
X23031744Y-135241315D01*
X23052122Y-135055199D01*
X23049374Y-135014325D01*
X23010085Y-134845643D01*
X22925209Y-134711487D01*
X22789995Y-134605229D01*
X22735075Y-134575917D01*
X22655186Y-134539793D01*
X22579987Y-134515132D01*
X22493851Y-134499158D01*
X22381151Y-134489091D01*
X22226260Y-134482154D01*
X22203235Y-134481371D01*
X22044253Y-134475287D01*
X21923658Y-134473714D01*
X21836176Y-134483696D01*
X21776533Y-134512281D01*
X21739457Y-134566515D01*
X21719674Y-134653443D01*
X21711911Y-134780112D01*
X21710895Y-134953567D01*
X21382691Y-134953567D01*
X21382691Y-134394694D01*
X21460037Y-134317348D01*
X21513960Y-134274364D01*
X21582954Y-134243124D01*
X21675569Y-134222482D01*
X21800353Y-134211290D01*
X21965856Y-134208402D01*
X22180628Y-134212673D01*
X22180628Y-134212673D01*
G37*
X22180628Y-134212673D02*
X22228927Y-134214240D01*
X22461786Y-134226935D01*
X22648160Y-134249613D01*
X22800971Y-134285699D01*
X22933137Y-134338616D01*
X23057578Y-134411791D01*
X23107631Y-134447166D01*
X23235941Y-134577170D01*
X23325378Y-134744087D01*
X23373078Y-134937133D01*
X23376179Y-135145523D01*
X23341332Y-135327627D01*
X23295788Y-135448986D01*
X23229328Y-135551429D01*
X23141807Y-135645444D01*
X23064207Y-135717877D01*
X23002184Y-135770009D01*
X22968700Y-135790978D01*
X22968113Y-135791015D01*
X22927261Y-135801667D01*
X22855408Y-135828193D01*
X22831916Y-135837793D01*
X22719961Y-135884571D01*
X22794780Y-135964793D01*
X22857798Y-136041425D01*
X22925952Y-136137217D01*
X22947003Y-136169984D01*
X22982365Y-136235797D01*
X23032401Y-136340458D01*
X23092546Y-136473162D01*
X23158231Y-136623108D01*
X23224892Y-136779492D01*
X23287960Y-136931512D01*
X23342869Y-137068365D01*
X23385052Y-137179248D01*
X23409944Y-137253357D01*
X23414691Y-137276339D01*
X23389434Y-137327260D01*
X23326396Y-137355045D01*
X23244679Y-137354895D01*
X23183997Y-137334281D01*
X23149387Y-137311121D01*
X23115650Y-137274111D01*
X23078578Y-137215411D01*
X23033966Y-137127184D01*
X22977608Y-137001592D01*
X22905297Y-136830796D01*
X22876120Y-136760528D01*
X22782817Y-136539722D01*
X22704688Y-136368527D01*
X22636680Y-136240317D01*
X22573737Y-136148465D01*
X22510807Y-136086346D01*
X22442836Y-136047333D01*
X22364769Y-136024800D01*
X22308341Y-136016109D01*
X22188024Y-136006911D01*
X22043854Y-136003515D01*
X21935515Y-136005643D01*
X21726338Y-136015132D01*
X21711397Y-136652599D01*
X21706060Y-136864730D01*
X21700766Y-137025044D01*
X21694661Y-137141480D01*
X21686894Y-137221978D01*
X21676613Y-137274480D01*
X21662965Y-137306924D01*
X21645100Y-137327251D01*
X21638450Y-137332422D01*
X21569323Y-137369598D01*
X21506612Y-137362410D01*
X21449105Y-137328261D01*
X21382691Y-137281743D01*
X21382691Y-134953567D01*
X21710895Y-134953567D01*
X21711397Y-135138552D01*
X21711397Y-135739046D01*
X22107338Y-135724992D01*
X22284017Y-135717008D01*
X22415150Y-135706140D01*
X22514951Y-135690270D01*
X22597631Y-135667282D01*
X22660379Y-135642615D01*
X22832934Y-135539770D01*
X22957702Y-135404421D01*
X23031744Y-135241315D01*
X23052122Y-135055199D01*
X23049374Y-135014325D01*
X23010085Y-134845643D01*
X22925209Y-134711487D01*
X22789995Y-134605229D01*
X22735075Y-134575917D01*
X22655186Y-134539793D01*
X22579987Y-134515132D01*
X22493851Y-134499158D01*
X22381151Y-134489091D01*
X22226260Y-134482154D01*
X22203235Y-134481371D01*
X22044253Y-134475287D01*
X21923658Y-134473714D01*
X21836176Y-134483696D01*
X21776533Y-134512281D01*
X21739457Y-134566515D01*
X21719674Y-134653443D01*
X21711911Y-134780112D01*
X21710895Y-134953567D01*
X21382691Y-134953567D01*
X21382691Y-134394694D01*
X21460037Y-134317348D01*
X21513960Y-134274364D01*
X21582954Y-134243124D01*
X21675569Y-134222482D01*
X21800353Y-134211290D01*
X21965856Y-134208402D01*
X22180628Y-134212673D01*
G36*
X24904890Y-134225156D02*
G01*
X25049629Y-134228641D01*
X25157630Y-134235384D01*
X25240402Y-134246528D01*
X25309453Y-134263214D01*
X25376294Y-134286584D01*
X25386926Y-134290771D01*
X25578488Y-134391308D01*
X25718938Y-134521578D01*
X25810646Y-134684641D01*
X25855984Y-134883559D01*
X25857425Y-134898280D01*
X25862128Y-135012134D01*
X25847548Y-135103716D01*
X25807559Y-135205066D01*
X25792930Y-135235568D01*
X25681980Y-135400224D01*
X25532384Y-135530695D01*
X25358191Y-135614857D01*
X25350841Y-135617110D01*
X25279984Y-135647806D01*
X25257412Y-135677597D01*
X25285679Y-135697663D01*
X25326448Y-135701368D01*
X25412977Y-135718588D01*
X25524979Y-135763433D01*
X25641674Y-135825679D01*
X25742282Y-135895101D01*
X25770545Y-135919866D01*
X25895439Y-136070061D01*
X25968587Y-136237730D01*
X25995500Y-136435793D01*
X25995747Y-136447750D01*
X25984812Y-136658014D01*
X25941052Y-136830385D01*
X25858945Y-136980133D01*
X25762214Y-137093624D01*
X25656703Y-137191363D01*
X25550334Y-137265347D01*
X25432319Y-137318895D01*
X25291872Y-137355327D01*
X25118205Y-137377961D01*
X24900531Y-137390115D01*
X24789279Y-137392975D01*
X24620080Y-137394464D01*
X24464148Y-137392531D01*
X24334913Y-137387582D01*
X24245803Y-137380026D01*
X24221987Y-137375787D01*
X24129066Y-137334462D01*
X24050764Y-137271562D01*
X24050164Y-137270868D01*
X23982456Y-137192153D01*
X23982456Y-135820897D01*
X24311162Y-135820897D01*
X24311162Y-136449389D01*
X24311320Y-136658226D01*
X24312331Y-136815149D01*
X24315001Y-136928008D01*
X24320135Y-137004654D01*
X24328537Y-137052937D01*
X24341014Y-137080708D01*
X24358370Y-137095818D01*
X24378397Y-137104907D01*
X24450361Y-137120065D01*
X24565059Y-137129377D01*
X24705747Y-137132881D01*
X24855686Y-137130618D01*
X24998134Y-137122627D01*
X25116348Y-137108948D01*
X25147681Y-137103087D01*
X25336279Y-137034987D01*
X25487284Y-136923001D01*
X25595709Y-136773234D01*
X25656563Y-136591791D01*
X25668213Y-136466164D01*
X25648805Y-136285072D01*
X25585818Y-136135482D01*
X25477421Y-136016284D01*
X25321784Y-135926367D01*
X25117076Y-135864621D01*
X24861466Y-135829934D01*
X24604497Y-135820897D01*
X24311162Y-135820897D01*
X23982456Y-135820897D01*
X23982456Y-135820637D01*
X23983097Y-135447106D01*
X23985044Y-135131821D01*
X23988330Y-134873279D01*
X23989006Y-134843768D01*
X24310909Y-134843768D01*
X24311162Y-135025086D01*
X24312327Y-135189973D01*
X24315548Y-135333468D01*
X24320414Y-135445114D01*
X24326514Y-135514455D01*
X24331083Y-135532034D01*
X24373290Y-135544035D01*
X24460158Y-135550337D01*
X24576883Y-135551213D01*
X24708659Y-135546935D01*
X24840683Y-135537777D01*
X24958150Y-135524011D01*
X24982692Y-135520024D01*
X25193153Y-135463259D01*
X25354521Y-135375382D01*
X25465678Y-135257441D01*
X25525504Y-135110483D01*
X25536338Y-135001718D01*
X25516020Y-134832811D01*
X25452096Y-134701477D01*
X25340109Y-134600137D01*
X25280293Y-134566013D01*
X25205776Y-134532258D01*
X25130444Y-134509419D01*
X25038722Y-134494814D01*
X24915034Y-134485759D01*
X24785520Y-134480799D01*
X24619457Y-134475448D01*
X24497392Y-134476263D01*
X24412579Y-134490984D01*
X24358271Y-134527354D01*
X24327722Y-134593113D01*
X24314183Y-134696004D01*
X24310909Y-134843768D01*
X23989006Y-134843768D01*
X23992992Y-134669975D01*
X23999063Y-134520404D01*
X24006577Y-134423062D01*
X24015570Y-134376445D01*
X24015639Y-134376292D01*
X24045511Y-134323995D01*
X24086441Y-134284909D01*
X24146740Y-134257213D01*
X24234719Y-134239087D01*
X24358691Y-134228711D01*
X24526966Y-134224264D01*
X24711903Y-134223788D01*
X24904890Y-134225156D01*
X24904890Y-134225156D01*
G37*
X24904890Y-134225156D02*
X25049629Y-134228641D01*
X25157630Y-134235384D01*
X25240402Y-134246528D01*
X25309453Y-134263214D01*
X25376294Y-134286584D01*
X25386926Y-134290771D01*
X25578488Y-134391308D01*
X25718938Y-134521578D01*
X25810646Y-134684641D01*
X25855984Y-134883559D01*
X25857425Y-134898280D01*
X25862128Y-135012134D01*
X25847548Y-135103716D01*
X25807559Y-135205066D01*
X25792930Y-135235568D01*
X25681980Y-135400224D01*
X25532384Y-135530695D01*
X25358191Y-135614857D01*
X25350841Y-135617110D01*
X25279984Y-135647806D01*
X25257412Y-135677597D01*
X25285679Y-135697663D01*
X25326448Y-135701368D01*
X25412977Y-135718588D01*
X25524979Y-135763433D01*
X25641674Y-135825679D01*
X25742282Y-135895101D01*
X25770545Y-135919866D01*
X25895439Y-136070061D01*
X25968587Y-136237730D01*
X25995500Y-136435793D01*
X25995747Y-136447750D01*
X25984812Y-136658014D01*
X25941052Y-136830385D01*
X25858945Y-136980133D01*
X25762214Y-137093624D01*
X25656703Y-137191363D01*
X25550334Y-137265347D01*
X25432319Y-137318895D01*
X25291872Y-137355327D01*
X25118205Y-137377961D01*
X24900531Y-137390115D01*
X24789279Y-137392975D01*
X24620080Y-137394464D01*
X24464148Y-137392531D01*
X24334913Y-137387582D01*
X24245803Y-137380026D01*
X24221987Y-137375787D01*
X24129066Y-137334462D01*
X24050764Y-137271562D01*
X24050164Y-137270868D01*
X23982456Y-137192153D01*
X23982456Y-135820897D01*
X24311162Y-135820897D01*
X24311162Y-136449389D01*
X24311320Y-136658226D01*
X24312331Y-136815149D01*
X24315001Y-136928008D01*
X24320135Y-137004654D01*
X24328537Y-137052937D01*
X24341014Y-137080708D01*
X24358370Y-137095818D01*
X24378397Y-137104907D01*
X24450361Y-137120065D01*
X24565059Y-137129377D01*
X24705747Y-137132881D01*
X24855686Y-137130618D01*
X24998134Y-137122627D01*
X25116348Y-137108948D01*
X25147681Y-137103087D01*
X25336279Y-137034987D01*
X25487284Y-136923001D01*
X25595709Y-136773234D01*
X25656563Y-136591791D01*
X25668213Y-136466164D01*
X25648805Y-136285072D01*
X25585818Y-136135482D01*
X25477421Y-136016284D01*
X25321784Y-135926367D01*
X25117076Y-135864621D01*
X24861466Y-135829934D01*
X24604497Y-135820897D01*
X24311162Y-135820897D01*
X23982456Y-135820897D01*
X23982456Y-135820637D01*
X23983097Y-135447106D01*
X23985044Y-135131821D01*
X23988330Y-134873279D01*
X23989006Y-134843768D01*
X24310909Y-134843768D01*
X24311162Y-135025086D01*
X24312327Y-135189973D01*
X24315548Y-135333468D01*
X24320414Y-135445114D01*
X24326514Y-135514455D01*
X24331083Y-135532034D01*
X24373290Y-135544035D01*
X24460158Y-135550337D01*
X24576883Y-135551213D01*
X24708659Y-135546935D01*
X24840683Y-135537777D01*
X24958150Y-135524011D01*
X24982692Y-135520024D01*
X25193153Y-135463259D01*
X25354521Y-135375382D01*
X25465678Y-135257441D01*
X25525504Y-135110483D01*
X25536338Y-135001718D01*
X25516020Y-134832811D01*
X25452096Y-134701477D01*
X25340109Y-134600137D01*
X25280293Y-134566013D01*
X25205776Y-134532258D01*
X25130444Y-134509419D01*
X25038722Y-134494814D01*
X24915034Y-134485759D01*
X24785520Y-134480799D01*
X24619457Y-134475448D01*
X24497392Y-134476263D01*
X24412579Y-134490984D01*
X24358271Y-134527354D01*
X24327722Y-134593113D01*
X24314183Y-134696004D01*
X24310909Y-134843768D01*
X23989006Y-134843768D01*
X23992992Y-134669975D01*
X23999063Y-134520404D01*
X24006577Y-134423062D01*
X24015570Y-134376445D01*
X24015639Y-134376292D01*
X24045511Y-134323995D01*
X24086441Y-134284909D01*
X24146740Y-134257213D01*
X24234719Y-134239087D01*
X24358691Y-134228711D01*
X24526966Y-134224264D01*
X24711903Y-134223788D01*
X24904890Y-134225156D01*
G36*
X19581854Y-134226217D02*
G01*
X19844046Y-134285242D01*
X20075536Y-134387509D01*
X20284488Y-134536205D01*
X20395957Y-134642249D01*
X20562453Y-134844406D01*
X20683978Y-135061078D01*
X20763375Y-135300938D01*
X20803487Y-135572661D01*
X20807155Y-135884921D01*
X20806706Y-135895603D01*
X20786314Y-136156734D01*
X20746751Y-136373538D01*
X20682838Y-136559793D01*
X20589394Y-136729276D01*
X20461240Y-136895764D01*
X20408624Y-136954369D01*
X20221298Y-137119637D01*
X19999869Y-137254567D01*
X19764265Y-137348072D01*
X19652906Y-137374816D01*
X19466375Y-137396463D01*
X19255056Y-137400594D01*
X19046323Y-137387788D01*
X18867549Y-137358622D01*
X18865780Y-137358195D01*
X18601836Y-137266419D01*
X18368741Y-137124921D01*
X18216241Y-136990303D01*
X18033492Y-136763816D01*
X17897227Y-136503859D01*
X17808902Y-136216261D01*
X17770407Y-135910287D01*
X18117851Y-135910287D01*
X18151199Y-136178993D01*
X18222949Y-136423481D01*
X18260964Y-136508191D01*
X18389640Y-136707907D01*
X18555950Y-136878687D01*
X18748052Y-137010937D01*
X18954104Y-137095066D01*
X18998752Y-137105872D01*
X19189761Y-137127809D01*
X19400538Y-137121906D01*
X19606413Y-137090488D01*
X19782714Y-137035879D01*
X19793879Y-137030992D01*
X19977471Y-136920677D01*
X20147069Y-136766856D01*
X20286770Y-136585757D01*
X20355433Y-136457906D01*
X20396450Y-136342738D01*
X20434564Y-136197459D01*
X20462159Y-136051538D01*
X20464166Y-136037152D01*
X20480419Y-135736162D01*
X20448371Y-135453572D01*
X20370564Y-135195027D01*
X20249539Y-134966172D01*
X20087839Y-134772652D01*
X19888007Y-134620112D01*
X19806038Y-134575737D01*
X19723636Y-134538096D01*
X19650279Y-134513711D01*
X19569001Y-134499730D01*
X19462838Y-134493302D01*
X19314823Y-134491575D01*
X19305239Y-134491560D01*
X19157032Y-134492446D01*
X19051073Y-134497715D01*
X18969858Y-134510599D01*
X18895880Y-134534332D01*
X18811635Y-134572147D01*
X18776775Y-134589164D01*
X18593956Y-134703513D01*
X18430236Y-134851860D01*
X18301317Y-135018529D01*
X18249503Y-135115540D01*
X18166874Y-135362893D01*
X18123033Y-135633031D01*
X18117851Y-135910287D01*
X17770407Y-135910287D01*
X17769974Y-135906851D01*
X17781898Y-135581457D01*
X17814094Y-135380847D01*
X17902052Y-135088461D01*
X18035573Y-134833017D01*
X18211180Y-134617298D01*
X18425394Y-134444086D01*
X18674740Y-134316163D01*
X18955739Y-134236312D01*
X19264915Y-134207315D01*
X19280792Y-134207250D01*
X19581854Y-134226217D01*
X19581854Y-134226217D01*
G37*
X19581854Y-134226217D02*
X19844046Y-134285242D01*
X20075536Y-134387509D01*
X20284488Y-134536205D01*
X20395957Y-134642249D01*
X20562453Y-134844406D01*
X20683978Y-135061078D01*
X20763375Y-135300938D01*
X20803487Y-135572661D01*
X20807155Y-135884921D01*
X20806706Y-135895603D01*
X20786314Y-136156734D01*
X20746751Y-136373538D01*
X20682838Y-136559793D01*
X20589394Y-136729276D01*
X20461240Y-136895764D01*
X20408624Y-136954369D01*
X20221298Y-137119637D01*
X19999869Y-137254567D01*
X19764265Y-137348072D01*
X19652906Y-137374816D01*
X19466375Y-137396463D01*
X19255056Y-137400594D01*
X19046323Y-137387788D01*
X18867549Y-137358622D01*
X18865780Y-137358195D01*
X18601836Y-137266419D01*
X18368741Y-137124921D01*
X18216241Y-136990303D01*
X18033492Y-136763816D01*
X17897227Y-136503859D01*
X17808902Y-136216261D01*
X17770407Y-135910287D01*
X18117851Y-135910287D01*
X18151199Y-136178993D01*
X18222949Y-136423481D01*
X18260964Y-136508191D01*
X18389640Y-136707907D01*
X18555950Y-136878687D01*
X18748052Y-137010937D01*
X18954104Y-137095066D01*
X18998752Y-137105872D01*
X19189761Y-137127809D01*
X19400538Y-137121906D01*
X19606413Y-137090488D01*
X19782714Y-137035879D01*
X19793879Y-137030992D01*
X19977471Y-136920677D01*
X20147069Y-136766856D01*
X20286770Y-136585757D01*
X20355433Y-136457906D01*
X20396450Y-136342738D01*
X20434564Y-136197459D01*
X20462159Y-136051538D01*
X20464166Y-136037152D01*
X20480419Y-135736162D01*
X20448371Y-135453572D01*
X20370564Y-135195027D01*
X20249539Y-134966172D01*
X20087839Y-134772652D01*
X19888007Y-134620112D01*
X19806038Y-134575737D01*
X19723636Y-134538096D01*
X19650279Y-134513711D01*
X19569001Y-134499730D01*
X19462838Y-134493302D01*
X19314823Y-134491575D01*
X19305239Y-134491560D01*
X19157032Y-134492446D01*
X19051073Y-134497715D01*
X18969858Y-134510599D01*
X18895880Y-134534332D01*
X18811635Y-134572147D01*
X18776775Y-134589164D01*
X18593956Y-134703513D01*
X18430236Y-134851860D01*
X18301317Y-135018529D01*
X18249503Y-135115540D01*
X18166874Y-135362893D01*
X18123033Y-135633031D01*
X18117851Y-135910287D01*
X17770407Y-135910287D01*
X17769974Y-135906851D01*
X17781898Y-135581457D01*
X17814094Y-135380847D01*
X17902052Y-135088461D01*
X18035573Y-134833017D01*
X18211180Y-134617298D01*
X18425394Y-134444086D01*
X18674740Y-134316163D01*
X18955739Y-134236312D01*
X19264915Y-134207315D01*
X19280792Y-134207250D01*
X19581854Y-134226217D01*
G36*
X259746750Y-103695500D02*
G01*
X259341938Y-103695500D01*
X259341938Y-103290688D01*
X259746750Y-103290688D01*
X259746750Y-103695500D01*
X259746750Y-103695500D01*
G37*
X259746750Y-103695500D02*
X259341938Y-103695500D01*
X259341938Y-103290688D01*
X259746750Y-103290688D01*
X259746750Y-103695500D01*
G36*
X260151563Y-104481313D02*
G01*
X259746750Y-104481313D01*
X259746750Y-104100313D01*
X260151563Y-104100313D01*
X260151563Y-104481313D01*
X260151563Y-104481313D01*
G37*
X260151563Y-104481313D02*
X259746750Y-104481313D01*
X259746750Y-104100313D01*
X260151563Y-104100313D01*
X260151563Y-104481313D01*
G36*
X259341938Y-104481313D02*
G01*
X258960938Y-104481313D01*
X258960938Y-104100313D01*
X259341938Y-104100313D01*
X259341938Y-104481313D01*
X259341938Y-104481313D01*
G37*
X259341938Y-104481313D02*
X258960938Y-104481313D01*
X258960938Y-104100313D01*
X259341938Y-104100313D01*
X259341938Y-104481313D01*
G36*
X260532563Y-105290938D02*
G01*
X260151563Y-105290938D01*
X260151563Y-104886125D01*
X260532563Y-104886125D01*
X260532563Y-105290938D01*
X260532563Y-105290938D01*
G37*
X260532563Y-105290938D02*
X260151563Y-105290938D01*
X260151563Y-104886125D01*
X260532563Y-104886125D01*
X260532563Y-105290938D01*
G36*
X259746750Y-105290938D02*
G01*
X259341938Y-105290938D01*
X259341938Y-104886125D01*
X259746750Y-104886125D01*
X259746750Y-105290938D01*
X259746750Y-105290938D01*
G37*
X259746750Y-105290938D02*
X259341938Y-105290938D01*
X259341938Y-104886125D01*
X259746750Y-104886125D01*
X259746750Y-105290938D01*
G36*
X258960938Y-105290938D02*
G01*
X258556125Y-105290938D01*
X258556125Y-104886125D01*
X258960938Y-104886125D01*
X258960938Y-105290938D01*
X258960938Y-105290938D01*
G37*
X258960938Y-105290938D02*
X258556125Y-105290938D01*
X258556125Y-104886125D01*
X258960938Y-104886125D01*
X258960938Y-105290938D01*
G36*
X260937375Y-106076750D02*
G01*
X260532563Y-106076750D01*
X260532563Y-105671938D01*
X260937375Y-105671938D01*
X260937375Y-106076750D01*
X260937375Y-106076750D01*
G37*
X260937375Y-106076750D02*
X260532563Y-106076750D01*
X260532563Y-105671938D01*
X260937375Y-105671938D01*
X260937375Y-106076750D01*
G36*
X258556125Y-106076750D02*
G01*
X258151313Y-106076750D01*
X258151313Y-105671938D01*
X258556125Y-105671938D01*
X258556125Y-106076750D01*
X258556125Y-106076750D01*
G37*
X258556125Y-106076750D02*
X258151313Y-106076750D01*
X258151313Y-105671938D01*
X258556125Y-105671938D01*
X258556125Y-106076750D01*
G36*
X259560219Y-101803045D02*
G01*
X259684337Y-101804415D01*
X259796049Y-101808572D01*
X259898642Y-101815919D01*
X259995406Y-101826860D01*
X260089628Y-101841798D01*
X260184597Y-101861137D01*
X260283601Y-101885281D01*
X260328880Y-101897418D01*
X260537427Y-101962656D01*
X260739515Y-102041992D01*
X260934378Y-102135028D01*
X261121249Y-102241368D01*
X261299364Y-102360616D01*
X261451510Y-102478617D01*
X261609178Y-102619342D01*
X261756515Y-102770787D01*
X261892836Y-102931885D01*
X262017458Y-103101567D01*
X262129697Y-103278766D01*
X262228870Y-103462416D01*
X262314292Y-103651447D01*
X262385280Y-103844793D01*
X262434034Y-104012803D01*
X262467105Y-104152789D01*
X262492465Y-104284725D01*
X262510857Y-104413997D01*
X262523025Y-104545993D01*
X262529711Y-104686100D01*
X262530364Y-104711500D01*
X262527645Y-104929797D01*
X262509450Y-105144580D01*
X262475785Y-105355821D01*
X262426656Y-105563489D01*
X262362069Y-105767555D01*
X262297872Y-105931487D01*
X262269789Y-105996752D01*
X262245727Y-106050910D01*
X262223858Y-106097613D01*
X262202357Y-106140513D01*
X262179396Y-106183263D01*
X262153150Y-106229515D01*
X262124025Y-106279156D01*
X262004806Y-106465427D01*
X261874702Y-106640153D01*
X261733579Y-106803465D01*
X261581305Y-106955496D01*
X261417747Y-107096380D01*
X261242774Y-107226248D01*
X261060406Y-107342775D01*
X261007577Y-107373744D01*
X260961664Y-107399721D01*
X260919015Y-107422531D01*
X260875978Y-107444001D01*
X260828901Y-107465957D01*
X260774131Y-107490225D01*
X260712737Y-107516622D01*
X260616504Y-107556169D01*
X260527786Y-107589208D01*
X260440672Y-107617695D01*
X260349248Y-107643589D01*
X260266656Y-107664322D01*
X260102140Y-107699876D01*
X259945045Y-107725553D01*
X259790817Y-107741893D01*
X259634899Y-107749436D01*
X259544344Y-107750013D01*
X259493125Y-107749498D01*
X259445004Y-107748793D01*
X259403124Y-107747960D01*
X259370628Y-107747063D01*
X259350660Y-107746165D01*
X259349875Y-107746109D01*
X259133701Y-107722157D01*
X258920944Y-107683170D01*
X258712463Y-107629467D01*
X258509118Y-107561363D01*
X258311766Y-107479176D01*
X258121268Y-107383225D01*
X257938482Y-107273826D01*
X257787526Y-107168796D01*
X257614599Y-107030449D01*
X257453915Y-106882088D01*
X257305701Y-106724039D01*
X257170179Y-106556632D01*
X257047574Y-106380194D01*
X256938111Y-106195052D01*
X256842013Y-106001535D01*
X256759506Y-105799971D01*
X256690813Y-105590688D01*
X256678668Y-105547630D01*
X256652302Y-105445835D01*
X256630917Y-105349511D01*
X256614109Y-105255367D01*
X256601475Y-105160117D01*
X256592610Y-105060470D01*
X256587112Y-104953140D01*
X256584576Y-104834836D01*
X256584295Y-104778969D01*
X256584970Y-104723608D01*
X257117044Y-104723608D01*
X257117147Y-104803746D01*
X257118813Y-104883410D01*
X257122009Y-104958537D01*
X257126706Y-105025060D01*
X257130426Y-105060750D01*
X257162300Y-105258048D01*
X257208951Y-105449663D01*
X257270201Y-105635222D01*
X257345869Y-105814349D01*
X257435777Y-105986669D01*
X257539744Y-106151809D01*
X257657591Y-106309393D01*
X257789138Y-106459047D01*
X257811474Y-106482260D01*
X257945708Y-106609334D01*
X258091410Y-106727270D01*
X258245881Y-106834090D01*
X258406419Y-106927816D01*
X258452208Y-106951504D01*
X258526616Y-106988153D01*
X258591857Y-107018372D01*
X258652354Y-107043940D01*
X258712528Y-107066634D01*
X258776801Y-107088233D01*
X258841875Y-107108227D01*
X259031088Y-107157640D01*
X259216839Y-107192091D01*
X259400577Y-107211714D01*
X259583753Y-107216642D01*
X259767814Y-107207011D01*
X259834356Y-107200031D01*
X260021688Y-107171087D01*
X260201269Y-107129278D01*
X260375607Y-107073854D01*
X260547209Y-107004064D01*
X260644166Y-106957866D01*
X260814798Y-106864447D01*
X260974214Y-106760712D01*
X261123172Y-106645974D01*
X261262429Y-106519550D01*
X261392744Y-106380754D01*
X261514874Y-106228903D01*
X261623142Y-106073259D01*
X261648268Y-106032068D01*
X261677591Y-105979940D01*
X261709291Y-105920496D01*
X261741549Y-105857356D01*
X261772543Y-105794140D01*
X261800456Y-105734467D01*
X261823465Y-105681957D01*
X261836903Y-105648125D01*
X261899770Y-105456584D01*
X261947166Y-105263845D01*
X261979050Y-105070450D01*
X261995380Y-104876940D01*
X261996118Y-104683857D01*
X261981222Y-104491742D01*
X261950652Y-104301136D01*
X261940849Y-104255094D01*
X261907200Y-104118801D01*
X261868892Y-103992618D01*
X261823954Y-103871007D01*
X261770413Y-103748432D01*
X261732754Y-103670958D01*
X261639049Y-103502110D01*
X261532224Y-103341673D01*
X261413048Y-103190368D01*
X261282287Y-103048914D01*
X261140710Y-102918031D01*
X260989084Y-102798440D01*
X260828177Y-102690860D01*
X260658757Y-102596011D01*
X260514575Y-102528480D01*
X260342947Y-102462085D01*
X260170393Y-102410087D01*
X259994906Y-102372078D01*
X259814476Y-102347651D01*
X259627095Y-102336397D01*
X259564188Y-102335507D01*
X259366093Y-102341877D01*
X259174465Y-102362522D01*
X258988531Y-102397673D01*
X258807515Y-102447567D01*
X258630644Y-102512435D01*
X258457144Y-102592513D01*
X258286241Y-102688035D01*
X258185544Y-102752244D01*
X258046111Y-102853772D01*
X257911913Y-102968278D01*
X257784591Y-103093839D01*
X257665785Y-103228531D01*
X257557136Y-103370431D01*
X257460285Y-103517615D01*
X257376872Y-103668161D01*
X257342076Y-103741080D01*
X257280673Y-103885939D01*
X257230442Y-104025178D01*
X257190185Y-104163126D01*
X257158706Y-104304114D01*
X257134806Y-104452471D01*
X257126405Y-104521000D01*
X257121642Y-104578170D01*
X257118532Y-104647061D01*
X257117044Y-104723608D01*
X256584970Y-104723608D01*
X256586040Y-104635973D01*
X256591914Y-104505106D01*
X256602488Y-104383025D01*
X256618335Y-104266385D01*
X256640027Y-104151844D01*
X256668137Y-104036059D01*
X256703236Y-103915687D01*
X256745897Y-103787384D01*
X256761591Y-103743125D01*
X256839976Y-103548406D01*
X256932816Y-103360072D01*
X257039922Y-103178385D01*
X257161102Y-103003608D01*
X257296167Y-102836003D01*
X257444924Y-102675833D01*
X257607183Y-102523360D01*
X257714021Y-102433179D01*
X257799850Y-102367686D01*
X257897389Y-102300360D01*
X258002998Y-102233412D01*
X258113036Y-102169055D01*
X258223863Y-102109500D01*
X258331839Y-102056958D01*
X258337844Y-102054215D01*
X258407804Y-102024342D01*
X258488985Y-101992956D01*
X258577017Y-101961536D01*
X258667529Y-101931562D01*
X258756151Y-101904511D01*
X258838514Y-101881864D01*
X258870400Y-101873971D01*
X258963625Y-101853203D01*
X259052599Y-101836543D01*
X259140603Y-101823652D01*
X259230919Y-101814195D01*
X259326828Y-101807832D01*
X259431610Y-101804228D01*
X259548545Y-101803044D01*
X259560219Y-101803045D01*
X259560219Y-101803045D01*
G37*
X259560219Y-101803045D02*
X259684337Y-101804415D01*
X259796049Y-101808572D01*
X259898642Y-101815919D01*
X259995406Y-101826860D01*
X260089628Y-101841798D01*
X260184597Y-101861137D01*
X260283601Y-101885281D01*
X260328880Y-101897418D01*
X260537427Y-101962656D01*
X260739515Y-102041992D01*
X260934378Y-102135028D01*
X261121249Y-102241368D01*
X261299364Y-102360616D01*
X261451510Y-102478617D01*
X261609178Y-102619342D01*
X261756515Y-102770787D01*
X261892836Y-102931885D01*
X262017458Y-103101567D01*
X262129697Y-103278766D01*
X262228870Y-103462416D01*
X262314292Y-103651447D01*
X262385280Y-103844793D01*
X262434034Y-104012803D01*
X262467105Y-104152789D01*
X262492465Y-104284725D01*
X262510857Y-104413997D01*
X262523025Y-104545993D01*
X262529711Y-104686100D01*
X262530364Y-104711500D01*
X262527645Y-104929797D01*
X262509450Y-105144580D01*
X262475785Y-105355821D01*
X262426656Y-105563489D01*
X262362069Y-105767555D01*
X262297872Y-105931487D01*
X262269789Y-105996752D01*
X262245727Y-106050910D01*
X262223858Y-106097613D01*
X262202357Y-106140513D01*
X262179396Y-106183263D01*
X262153150Y-106229515D01*
X262124025Y-106279156D01*
X262004806Y-106465427D01*
X261874702Y-106640153D01*
X261733579Y-106803465D01*
X261581305Y-106955496D01*
X261417747Y-107096380D01*
X261242774Y-107226248D01*
X261060406Y-107342775D01*
X261007577Y-107373744D01*
X260961664Y-107399721D01*
X260919015Y-107422531D01*
X260875978Y-107444001D01*
X260828901Y-107465957D01*
X260774131Y-107490225D01*
X260712737Y-107516622D01*
X260616504Y-107556169D01*
X260527786Y-107589208D01*
X260440672Y-107617695D01*
X260349248Y-107643589D01*
X260266656Y-107664322D01*
X260102140Y-107699876D01*
X259945045Y-107725553D01*
X259790817Y-107741893D01*
X259634899Y-107749436D01*
X259544344Y-107750013D01*
X259493125Y-107749498D01*
X259445004Y-107748793D01*
X259403124Y-107747960D01*
X259370628Y-107747063D01*
X259350660Y-107746165D01*
X259349875Y-107746109D01*
X259133701Y-107722157D01*
X258920944Y-107683170D01*
X258712463Y-107629467D01*
X258509118Y-107561363D01*
X258311766Y-107479176D01*
X258121268Y-107383225D01*
X257938482Y-107273826D01*
X257787526Y-107168796D01*
X257614599Y-107030449D01*
X257453915Y-106882088D01*
X257305701Y-106724039D01*
X257170179Y-106556632D01*
X257047574Y-106380194D01*
X256938111Y-106195052D01*
X256842013Y-106001535D01*
X256759506Y-105799971D01*
X256690813Y-105590688D01*
X256678668Y-105547630D01*
X256652302Y-105445835D01*
X256630917Y-105349511D01*
X256614109Y-105255367D01*
X256601475Y-105160117D01*
X256592610Y-105060470D01*
X256587112Y-104953140D01*
X256584576Y-104834836D01*
X256584295Y-104778969D01*
X256584970Y-104723608D01*
X257117044Y-104723608D01*
X257117147Y-104803746D01*
X257118813Y-104883410D01*
X257122009Y-104958537D01*
X257126706Y-105025060D01*
X257130426Y-105060750D01*
X257162300Y-105258048D01*
X257208951Y-105449663D01*
X257270201Y-105635222D01*
X257345869Y-105814349D01*
X257435777Y-105986669D01*
X257539744Y-106151809D01*
X257657591Y-106309393D01*
X257789138Y-106459047D01*
X257811474Y-106482260D01*
X257945708Y-106609334D01*
X258091410Y-106727270D01*
X258245881Y-106834090D01*
X258406419Y-106927816D01*
X258452208Y-106951504D01*
X258526616Y-106988153D01*
X258591857Y-107018372D01*
X258652354Y-107043940D01*
X258712528Y-107066634D01*
X258776801Y-107088233D01*
X258841875Y-107108227D01*
X259031088Y-107157640D01*
X259216839Y-107192091D01*
X259400577Y-107211714D01*
X259583753Y-107216642D01*
X259767814Y-107207011D01*
X259834356Y-107200031D01*
X260021688Y-107171087D01*
X260201269Y-107129278D01*
X260375607Y-107073854D01*
X260547209Y-107004064D01*
X260644166Y-106957866D01*
X260814798Y-106864447D01*
X260974214Y-106760712D01*
X261123172Y-106645974D01*
X261262429Y-106519550D01*
X261392744Y-106380754D01*
X261514874Y-106228903D01*
X261623142Y-106073259D01*
X261648268Y-106032068D01*
X261677591Y-105979940D01*
X261709291Y-105920496D01*
X261741549Y-105857356D01*
X261772543Y-105794140D01*
X261800456Y-105734467D01*
X261823465Y-105681957D01*
X261836903Y-105648125D01*
X261899770Y-105456584D01*
X261947166Y-105263845D01*
X261979050Y-105070450D01*
X261995380Y-104876940D01*
X261996118Y-104683857D01*
X261981222Y-104491742D01*
X261950652Y-104301136D01*
X261940849Y-104255094D01*
X261907200Y-104118801D01*
X261868892Y-103992618D01*
X261823954Y-103871007D01*
X261770413Y-103748432D01*
X261732754Y-103670958D01*
X261639049Y-103502110D01*
X261532224Y-103341673D01*
X261413048Y-103190368D01*
X261282287Y-103048914D01*
X261140710Y-102918031D01*
X260989084Y-102798440D01*
X260828177Y-102690860D01*
X260658757Y-102596011D01*
X260514575Y-102528480D01*
X260342947Y-102462085D01*
X260170393Y-102410087D01*
X259994906Y-102372078D01*
X259814476Y-102347651D01*
X259627095Y-102336397D01*
X259564188Y-102335507D01*
X259366093Y-102341877D01*
X259174465Y-102362522D01*
X258988531Y-102397673D01*
X258807515Y-102447567D01*
X258630644Y-102512435D01*
X258457144Y-102592513D01*
X258286241Y-102688035D01*
X258185544Y-102752244D01*
X258046111Y-102853772D01*
X257911913Y-102968278D01*
X257784591Y-103093839D01*
X257665785Y-103228531D01*
X257557136Y-103370431D01*
X257460285Y-103517615D01*
X257376872Y-103668161D01*
X257342076Y-103741080D01*
X257280673Y-103885939D01*
X257230442Y-104025178D01*
X257190185Y-104163126D01*
X257158706Y-104304114D01*
X257134806Y-104452471D01*
X257126405Y-104521000D01*
X257121642Y-104578170D01*
X257118532Y-104647061D01*
X257117044Y-104723608D01*
X256584970Y-104723608D01*
X256586040Y-104635973D01*
X256591914Y-104505106D01*
X256602488Y-104383025D01*
X256618335Y-104266385D01*
X256640027Y-104151844D01*
X256668137Y-104036059D01*
X256703236Y-103915687D01*
X256745897Y-103787384D01*
X256761591Y-103743125D01*
X256839976Y-103548406D01*
X256932816Y-103360072D01*
X257039922Y-103178385D01*
X257161102Y-103003608D01*
X257296167Y-102836003D01*
X257444924Y-102675833D01*
X257607183Y-102523360D01*
X257714021Y-102433179D01*
X257799850Y-102367686D01*
X257897389Y-102300360D01*
X258002998Y-102233412D01*
X258113036Y-102169055D01*
X258223863Y-102109500D01*
X258331839Y-102056958D01*
X258337844Y-102054215D01*
X258407804Y-102024342D01*
X258488985Y-101992956D01*
X258577017Y-101961536D01*
X258667529Y-101931562D01*
X258756151Y-101904511D01*
X258838514Y-101881864D01*
X258870400Y-101873971D01*
X258963625Y-101853203D01*
X259052599Y-101836543D01*
X259140603Y-101823652D01*
X259230919Y-101814195D01*
X259326828Y-101807832D01*
X259431610Y-101804228D01*
X259548545Y-101803044D01*
X259560219Y-101803045D01*
G36*
X33528000Y-103695500D02*
G01*
X33123188Y-103695500D01*
X33123188Y-103290688D01*
X33528000Y-103290688D01*
X33528000Y-103695500D01*
X33528000Y-103695500D01*
G37*
X33528000Y-103695500D02*
X33123188Y-103695500D01*
X33123188Y-103290688D01*
X33528000Y-103290688D01*
X33528000Y-103695500D01*
G36*
X33932813Y-104481313D02*
G01*
X33528000Y-104481313D01*
X33528000Y-104100313D01*
X33932813Y-104100313D01*
X33932813Y-104481313D01*
X33932813Y-104481313D01*
G37*
X33932813Y-104481313D02*
X33528000Y-104481313D01*
X33528000Y-104100313D01*
X33932813Y-104100313D01*
X33932813Y-104481313D01*
G36*
X33123188Y-104481313D02*
G01*
X32742188Y-104481313D01*
X32742188Y-104100313D01*
X33123188Y-104100313D01*
X33123188Y-104481313D01*
X33123188Y-104481313D01*
G37*
X33123188Y-104481313D02*
X32742188Y-104481313D01*
X32742188Y-104100313D01*
X33123188Y-104100313D01*
X33123188Y-104481313D01*
G36*
X34313813Y-105290938D02*
G01*
X33932813Y-105290938D01*
X33932813Y-104886125D01*
X34313813Y-104886125D01*
X34313813Y-105290938D01*
X34313813Y-105290938D01*
G37*
X34313813Y-105290938D02*
X33932813Y-105290938D01*
X33932813Y-104886125D01*
X34313813Y-104886125D01*
X34313813Y-105290938D01*
G36*
X33528000Y-105290938D02*
G01*
X33123188Y-105290938D01*
X33123188Y-104886125D01*
X33528000Y-104886125D01*
X33528000Y-105290938D01*
X33528000Y-105290938D01*
G37*
X33528000Y-105290938D02*
X33123188Y-105290938D01*
X33123188Y-104886125D01*
X33528000Y-104886125D01*
X33528000Y-105290938D01*
G36*
X32742188Y-105290938D02*
G01*
X32337375Y-105290938D01*
X32337375Y-104886125D01*
X32742188Y-104886125D01*
X32742188Y-105290938D01*
X32742188Y-105290938D01*
G37*
X32742188Y-105290938D02*
X32337375Y-105290938D01*
X32337375Y-104886125D01*
X32742188Y-104886125D01*
X32742188Y-105290938D01*
G36*
X34718625Y-106076750D02*
G01*
X34313813Y-106076750D01*
X34313813Y-105671938D01*
X34718625Y-105671938D01*
X34718625Y-106076750D01*
X34718625Y-106076750D01*
G37*
X34718625Y-106076750D02*
X34313813Y-106076750D01*
X34313813Y-105671938D01*
X34718625Y-105671938D01*
X34718625Y-106076750D01*
G36*
X32337375Y-106076750D02*
G01*
X31932563Y-106076750D01*
X31932563Y-105671938D01*
X32337375Y-105671938D01*
X32337375Y-106076750D01*
X32337375Y-106076750D01*
G37*
X32337375Y-106076750D02*
X31932563Y-106076750D01*
X31932563Y-105671938D01*
X32337375Y-105671938D01*
X32337375Y-106076750D01*
G36*
X33341469Y-101803045D02*
G01*
X33465587Y-101804415D01*
X33577299Y-101808572D01*
X33679892Y-101815919D01*
X33776656Y-101826860D01*
X33870878Y-101841798D01*
X33965847Y-101861137D01*
X34064851Y-101885281D01*
X34110130Y-101897418D01*
X34318677Y-101962656D01*
X34520765Y-102041992D01*
X34715628Y-102135028D01*
X34902499Y-102241368D01*
X35080614Y-102360616D01*
X35232760Y-102478617D01*
X35390428Y-102619342D01*
X35537765Y-102770787D01*
X35674086Y-102931885D01*
X35798708Y-103101567D01*
X35910947Y-103278766D01*
X36010120Y-103462416D01*
X36095542Y-103651447D01*
X36166530Y-103844793D01*
X36215284Y-104012803D01*
X36248355Y-104152789D01*
X36273715Y-104284725D01*
X36292107Y-104413997D01*
X36304275Y-104545993D01*
X36310961Y-104686100D01*
X36311614Y-104711500D01*
X36308895Y-104929797D01*
X36290700Y-105144580D01*
X36257035Y-105355821D01*
X36207906Y-105563489D01*
X36143319Y-105767555D01*
X36079122Y-105931487D01*
X36051039Y-105996752D01*
X36026977Y-106050910D01*
X36005108Y-106097613D01*
X35983607Y-106140513D01*
X35960646Y-106183263D01*
X35934400Y-106229515D01*
X35905275Y-106279156D01*
X35786056Y-106465427D01*
X35655952Y-106640153D01*
X35514829Y-106803465D01*
X35362555Y-106955496D01*
X35198997Y-107096380D01*
X35024024Y-107226248D01*
X34841656Y-107342775D01*
X34788827Y-107373744D01*
X34742914Y-107399721D01*
X34700265Y-107422531D01*
X34657228Y-107444001D01*
X34610151Y-107465957D01*
X34555381Y-107490225D01*
X34493987Y-107516622D01*
X34397754Y-107556169D01*
X34309036Y-107589208D01*
X34221922Y-107617695D01*
X34130498Y-107643589D01*
X34047906Y-107664322D01*
X33883390Y-107699876D01*
X33726295Y-107725553D01*
X33572067Y-107741893D01*
X33416149Y-107749436D01*
X33325594Y-107750013D01*
X33274375Y-107749498D01*
X33226254Y-107748793D01*
X33184374Y-107747960D01*
X33151878Y-107747063D01*
X33131910Y-107746165D01*
X33131125Y-107746109D01*
X32914951Y-107722157D01*
X32702194Y-107683170D01*
X32493713Y-107629467D01*
X32290368Y-107561363D01*
X32093016Y-107479176D01*
X31902518Y-107383225D01*
X31719732Y-107273826D01*
X31568776Y-107168796D01*
X31395849Y-107030449D01*
X31235165Y-106882088D01*
X31086951Y-106724039D01*
X30951429Y-106556632D01*
X30828824Y-106380194D01*
X30719361Y-106195052D01*
X30623263Y-106001535D01*
X30540756Y-105799971D01*
X30472063Y-105590688D01*
X30459918Y-105547630D01*
X30433552Y-105445835D01*
X30412167Y-105349511D01*
X30395359Y-105255367D01*
X30382725Y-105160117D01*
X30373860Y-105060470D01*
X30368362Y-104953140D01*
X30365826Y-104834836D01*
X30365545Y-104778969D01*
X30366220Y-104723608D01*
X30898294Y-104723608D01*
X30898397Y-104803746D01*
X30900063Y-104883410D01*
X30903259Y-104958537D01*
X30907956Y-105025060D01*
X30911676Y-105060750D01*
X30943550Y-105258048D01*
X30990201Y-105449663D01*
X31051451Y-105635222D01*
X31127119Y-105814349D01*
X31217027Y-105986669D01*
X31320994Y-106151809D01*
X31438841Y-106309393D01*
X31570388Y-106459047D01*
X31592724Y-106482260D01*
X31726958Y-106609334D01*
X31872660Y-106727270D01*
X32027131Y-106834090D01*
X32187669Y-106927816D01*
X32233458Y-106951504D01*
X32307866Y-106988153D01*
X32373107Y-107018372D01*
X32433604Y-107043940D01*
X32493778Y-107066634D01*
X32558051Y-107088233D01*
X32623125Y-107108227D01*
X32812338Y-107157640D01*
X32998089Y-107192091D01*
X33181827Y-107211714D01*
X33365003Y-107216642D01*
X33549064Y-107207011D01*
X33615606Y-107200031D01*
X33802938Y-107171087D01*
X33982519Y-107129278D01*
X34156857Y-107073854D01*
X34328459Y-107004064D01*
X34425416Y-106957866D01*
X34596048Y-106864447D01*
X34755464Y-106760712D01*
X34904422Y-106645974D01*
X35043679Y-106519550D01*
X35173994Y-106380754D01*
X35296124Y-106228903D01*
X35404392Y-106073259D01*
X35429518Y-106032068D01*
X35458841Y-105979940D01*
X35490541Y-105920496D01*
X35522799Y-105857356D01*
X35553793Y-105794140D01*
X35581706Y-105734467D01*
X35604715Y-105681957D01*
X35618153Y-105648125D01*
X35681020Y-105456584D01*
X35728416Y-105263845D01*
X35760300Y-105070450D01*
X35776630Y-104876940D01*
X35777368Y-104683857D01*
X35762472Y-104491742D01*
X35731902Y-104301136D01*
X35722099Y-104255094D01*
X35688450Y-104118801D01*
X35650142Y-103992618D01*
X35605204Y-103871007D01*
X35551663Y-103748432D01*
X35514004Y-103670958D01*
X35420299Y-103502110D01*
X35313474Y-103341673D01*
X35194298Y-103190368D01*
X35063537Y-103048914D01*
X34921960Y-102918031D01*
X34770334Y-102798440D01*
X34609427Y-102690860D01*
X34440007Y-102596011D01*
X34295825Y-102528480D01*
X34124197Y-102462085D01*
X33951643Y-102410087D01*
X33776156Y-102372078D01*
X33595726Y-102347651D01*
X33408345Y-102336397D01*
X33345438Y-102335507D01*
X33147343Y-102341877D01*
X32955715Y-102362522D01*
X32769781Y-102397673D01*
X32588765Y-102447567D01*
X32411894Y-102512435D01*
X32238394Y-102592513D01*
X32067491Y-102688035D01*
X31966794Y-102752244D01*
X31827361Y-102853772D01*
X31693163Y-102968278D01*
X31565841Y-103093839D01*
X31447035Y-103228531D01*
X31338386Y-103370431D01*
X31241535Y-103517615D01*
X31158122Y-103668161D01*
X31123326Y-103741080D01*
X31061923Y-103885939D01*
X31011692Y-104025178D01*
X30971435Y-104163126D01*
X30939956Y-104304114D01*
X30916056Y-104452471D01*
X30907655Y-104521000D01*
X30902892Y-104578170D01*
X30899782Y-104647061D01*
X30898294Y-104723608D01*
X30366220Y-104723608D01*
X30367290Y-104635973D01*
X30373164Y-104505106D01*
X30383738Y-104383025D01*
X30399585Y-104266385D01*
X30421277Y-104151844D01*
X30449387Y-104036059D01*
X30484486Y-103915687D01*
X30527147Y-103787384D01*
X30542841Y-103743125D01*
X30621226Y-103548406D01*
X30714066Y-103360072D01*
X30821172Y-103178385D01*
X30942352Y-103003608D01*
X31077417Y-102836003D01*
X31226174Y-102675833D01*
X31388433Y-102523360D01*
X31495271Y-102433179D01*
X31581100Y-102367686D01*
X31678639Y-102300360D01*
X31784248Y-102233412D01*
X31894286Y-102169055D01*
X32005113Y-102109500D01*
X32113089Y-102056958D01*
X32119094Y-102054215D01*
X32189054Y-102024342D01*
X32270235Y-101992956D01*
X32358267Y-101961536D01*
X32448779Y-101931562D01*
X32537401Y-101904511D01*
X32619764Y-101881864D01*
X32651650Y-101873971D01*
X32744875Y-101853203D01*
X32833849Y-101836543D01*
X32921853Y-101823652D01*
X33012169Y-101814195D01*
X33108078Y-101807832D01*
X33212860Y-101804228D01*
X33329795Y-101803044D01*
X33341469Y-101803045D01*
X33341469Y-101803045D01*
G37*
X33341469Y-101803045D02*
X33465587Y-101804415D01*
X33577299Y-101808572D01*
X33679892Y-101815919D01*
X33776656Y-101826860D01*
X33870878Y-101841798D01*
X33965847Y-101861137D01*
X34064851Y-101885281D01*
X34110130Y-101897418D01*
X34318677Y-101962656D01*
X34520765Y-102041992D01*
X34715628Y-102135028D01*
X34902499Y-102241368D01*
X35080614Y-102360616D01*
X35232760Y-102478617D01*
X35390428Y-102619342D01*
X35537765Y-102770787D01*
X35674086Y-102931885D01*
X35798708Y-103101567D01*
X35910947Y-103278766D01*
X36010120Y-103462416D01*
X36095542Y-103651447D01*
X36166530Y-103844793D01*
X36215284Y-104012803D01*
X36248355Y-104152789D01*
X36273715Y-104284725D01*
X36292107Y-104413997D01*
X36304275Y-104545993D01*
X36310961Y-104686100D01*
X36311614Y-104711500D01*
X36308895Y-104929797D01*
X36290700Y-105144580D01*
X36257035Y-105355821D01*
X36207906Y-105563489D01*
X36143319Y-105767555D01*
X36079122Y-105931487D01*
X36051039Y-105996752D01*
X36026977Y-106050910D01*
X36005108Y-106097613D01*
X35983607Y-106140513D01*
X35960646Y-106183263D01*
X35934400Y-106229515D01*
X35905275Y-106279156D01*
X35786056Y-106465427D01*
X35655952Y-106640153D01*
X35514829Y-106803465D01*
X35362555Y-106955496D01*
X35198997Y-107096380D01*
X35024024Y-107226248D01*
X34841656Y-107342775D01*
X34788827Y-107373744D01*
X34742914Y-107399721D01*
X34700265Y-107422531D01*
X34657228Y-107444001D01*
X34610151Y-107465957D01*
X34555381Y-107490225D01*
X34493987Y-107516622D01*
X34397754Y-107556169D01*
X34309036Y-107589208D01*
X34221922Y-107617695D01*
X34130498Y-107643589D01*
X34047906Y-107664322D01*
X33883390Y-107699876D01*
X33726295Y-107725553D01*
X33572067Y-107741893D01*
X33416149Y-107749436D01*
X33325594Y-107750013D01*
X33274375Y-107749498D01*
X33226254Y-107748793D01*
X33184374Y-107747960D01*
X33151878Y-107747063D01*
X33131910Y-107746165D01*
X33131125Y-107746109D01*
X32914951Y-107722157D01*
X32702194Y-107683170D01*
X32493713Y-107629467D01*
X32290368Y-107561363D01*
X32093016Y-107479176D01*
X31902518Y-107383225D01*
X31719732Y-107273826D01*
X31568776Y-107168796D01*
X31395849Y-107030449D01*
X31235165Y-106882088D01*
X31086951Y-106724039D01*
X30951429Y-106556632D01*
X30828824Y-106380194D01*
X30719361Y-106195052D01*
X30623263Y-106001535D01*
X30540756Y-105799971D01*
X30472063Y-105590688D01*
X30459918Y-105547630D01*
X30433552Y-105445835D01*
X30412167Y-105349511D01*
X30395359Y-105255367D01*
X30382725Y-105160117D01*
X30373860Y-105060470D01*
X30368362Y-104953140D01*
X30365826Y-104834836D01*
X30365545Y-104778969D01*
X30366220Y-104723608D01*
X30898294Y-104723608D01*
X30898397Y-104803746D01*
X30900063Y-104883410D01*
X30903259Y-104958537D01*
X30907956Y-105025060D01*
X30911676Y-105060750D01*
X30943550Y-105258048D01*
X30990201Y-105449663D01*
X31051451Y-105635222D01*
X31127119Y-105814349D01*
X31217027Y-105986669D01*
X31320994Y-106151809D01*
X31438841Y-106309393D01*
X31570388Y-106459047D01*
X31592724Y-106482260D01*
X31726958Y-106609334D01*
X31872660Y-106727270D01*
X32027131Y-106834090D01*
X32187669Y-106927816D01*
X32233458Y-106951504D01*
X32307866Y-106988153D01*
X32373107Y-107018372D01*
X32433604Y-107043940D01*
X32493778Y-107066634D01*
X32558051Y-107088233D01*
X32623125Y-107108227D01*
X32812338Y-107157640D01*
X32998089Y-107192091D01*
X33181827Y-107211714D01*
X33365003Y-107216642D01*
X33549064Y-107207011D01*
X33615606Y-107200031D01*
X33802938Y-107171087D01*
X33982519Y-107129278D01*
X34156857Y-107073854D01*
X34328459Y-107004064D01*
X34425416Y-106957866D01*
X34596048Y-106864447D01*
X34755464Y-106760712D01*
X34904422Y-106645974D01*
X35043679Y-106519550D01*
X35173994Y-106380754D01*
X35296124Y-106228903D01*
X35404392Y-106073259D01*
X35429518Y-106032068D01*
X35458841Y-105979940D01*
X35490541Y-105920496D01*
X35522799Y-105857356D01*
X35553793Y-105794140D01*
X35581706Y-105734467D01*
X35604715Y-105681957D01*
X35618153Y-105648125D01*
X35681020Y-105456584D01*
X35728416Y-105263845D01*
X35760300Y-105070450D01*
X35776630Y-104876940D01*
X35777368Y-104683857D01*
X35762472Y-104491742D01*
X35731902Y-104301136D01*
X35722099Y-104255094D01*
X35688450Y-104118801D01*
X35650142Y-103992618D01*
X35605204Y-103871007D01*
X35551663Y-103748432D01*
X35514004Y-103670958D01*
X35420299Y-103502110D01*
X35313474Y-103341673D01*
X35194298Y-103190368D01*
X35063537Y-103048914D01*
X34921960Y-102918031D01*
X34770334Y-102798440D01*
X34609427Y-102690860D01*
X34440007Y-102596011D01*
X34295825Y-102528480D01*
X34124197Y-102462085D01*
X33951643Y-102410087D01*
X33776156Y-102372078D01*
X33595726Y-102347651D01*
X33408345Y-102336397D01*
X33345438Y-102335507D01*
X33147343Y-102341877D01*
X32955715Y-102362522D01*
X32769781Y-102397673D01*
X32588765Y-102447567D01*
X32411894Y-102512435D01*
X32238394Y-102592513D01*
X32067491Y-102688035D01*
X31966794Y-102752244D01*
X31827361Y-102853772D01*
X31693163Y-102968278D01*
X31565841Y-103093839D01*
X31447035Y-103228531D01*
X31338386Y-103370431D01*
X31241535Y-103517615D01*
X31158122Y-103668161D01*
X31123326Y-103741080D01*
X31061923Y-103885939D01*
X31011692Y-104025178D01*
X30971435Y-104163126D01*
X30939956Y-104304114D01*
X30916056Y-104452471D01*
X30907655Y-104521000D01*
X30902892Y-104578170D01*
X30899782Y-104647061D01*
X30898294Y-104723608D01*
X30366220Y-104723608D01*
X30367290Y-104635973D01*
X30373164Y-104505106D01*
X30383738Y-104383025D01*
X30399585Y-104266385D01*
X30421277Y-104151844D01*
X30449387Y-104036059D01*
X30484486Y-103915687D01*
X30527147Y-103787384D01*
X30542841Y-103743125D01*
X30621226Y-103548406D01*
X30714066Y-103360072D01*
X30821172Y-103178385D01*
X30942352Y-103003608D01*
X31077417Y-102836003D01*
X31226174Y-102675833D01*
X31388433Y-102523360D01*
X31495271Y-102433179D01*
X31581100Y-102367686D01*
X31678639Y-102300360D01*
X31784248Y-102233412D01*
X31894286Y-102169055D01*
X32005113Y-102109500D01*
X32113089Y-102056958D01*
X32119094Y-102054215D01*
X32189054Y-102024342D01*
X32270235Y-101992956D01*
X32358267Y-101961536D01*
X32448779Y-101931562D01*
X32537401Y-101904511D01*
X32619764Y-101881864D01*
X32651650Y-101873971D01*
X32744875Y-101853203D01*
X32833849Y-101836543D01*
X32921853Y-101823652D01*
X33012169Y-101814195D01*
X33108078Y-101807832D01*
X33212860Y-101804228D01*
X33329795Y-101803044D01*
X33341469Y-101803045D01*
G36*
X38305382Y-95520394D02*
G01*
X38472997Y-95524915D01*
X38589129Y-95532751D01*
X38657885Y-95544148D01*
X38680465Y-95554800D01*
X38713243Y-95622077D01*
X38706408Y-95697969D01*
X38663011Y-95754371D01*
X38658523Y-95756949D01*
X38608278Y-95767944D01*
X38508038Y-95777029D01*
X38367558Y-95783670D01*
X38196591Y-95787332D01*
X38094069Y-95787882D01*
X37905574Y-95787257D01*
X37767292Y-95784761D01*
X37669677Y-95779462D01*
X37603185Y-95770427D01*
X37558270Y-95756726D01*
X37525387Y-95737425D01*
X37517944Y-95731628D01*
X37471267Y-95684178D01*
X37468445Y-95636883D01*
X37484110Y-95597157D01*
X37519748Y-95518941D01*
X38082177Y-95518941D01*
X38305382Y-95520394D01*
X38305382Y-95520394D01*
G37*
X38305382Y-95520394D02*
X38472997Y-95524915D01*
X38589129Y-95532751D01*
X38657885Y-95544148D01*
X38680465Y-95554800D01*
X38713243Y-95622077D01*
X38706408Y-95697969D01*
X38663011Y-95754371D01*
X38658523Y-95756949D01*
X38608278Y-95767944D01*
X38508038Y-95777029D01*
X38367558Y-95783670D01*
X38196591Y-95787332D01*
X38094069Y-95787882D01*
X37905574Y-95787257D01*
X37767292Y-95784761D01*
X37669677Y-95779462D01*
X37603185Y-95770427D01*
X37558270Y-95756726D01*
X37525387Y-95737425D01*
X37517944Y-95731628D01*
X37471267Y-95684178D01*
X37468445Y-95636883D01*
X37484110Y-95597157D01*
X37519748Y-95518941D01*
X38082177Y-95518941D01*
X38305382Y-95520394D01*
G36*
X41226408Y-93787064D02*
G01*
X41255841Y-93836028D01*
X41256323Y-93844938D01*
X41241034Y-93884781D01*
X41197894Y-93967996D01*
X41130997Y-94087444D01*
X41044438Y-94235985D01*
X40942310Y-94406480D01*
X40828706Y-94591788D01*
X40820529Y-94604970D01*
X40384736Y-95306969D01*
X40823489Y-96011222D01*
X40938826Y-96197443D01*
X41043833Y-96369071D01*
X41134278Y-96519020D01*
X41205926Y-96640203D01*
X41254545Y-96725535D01*
X41275902Y-96767928D01*
X41276302Y-96769237D01*
X41267014Y-96830153D01*
X41240999Y-96863965D01*
X41200173Y-96887143D01*
X41147993Y-96886002D01*
X41067098Y-96861878D01*
X41026832Y-96846199D01*
X40990596Y-96825202D01*
X40953577Y-96792431D01*
X40910962Y-96741430D01*
X40857937Y-96665744D01*
X40789691Y-96558917D01*
X40701409Y-96414493D01*
X40588280Y-96226016D01*
X40569029Y-96193812D01*
X40464329Y-96020782D01*
X40368516Y-95866534D01*
X40286105Y-95738006D01*
X40221608Y-95642134D01*
X40179538Y-95585855D01*
X40165617Y-95573752D01*
X40142526Y-95599862D01*
X40094133Y-95670363D01*
X40025089Y-95777925D01*
X39940045Y-95915220D01*
X39843651Y-96074922D01*
X39787936Y-96168881D01*
X39650135Y-96398624D01*
X39537427Y-96577366D01*
X39448156Y-96707550D01*
X39380667Y-96791619D01*
X39342752Y-96826294D01*
X39239067Y-96882153D01*
X39159573Y-96887504D01*
X39110770Y-96857671D01*
X39078817Y-96802736D01*
X39074912Y-96779843D01*
X39090168Y-96744297D01*
X39133208Y-96665173D01*
X39199940Y-96549445D01*
X39286271Y-96404087D01*
X39388109Y-96236075D01*
X39501361Y-96052384D01*
X39508206Y-96041376D01*
X39621989Y-95857015D01*
X39724597Y-95687954D01*
X39811939Y-95541165D01*
X39879922Y-95423616D01*
X39924455Y-95342277D01*
X39941446Y-95304118D01*
X39941500Y-95303371D01*
X39926206Y-95267453D01*
X39883216Y-95188474D01*
X39816867Y-95073827D01*
X39731496Y-94930904D01*
X39631441Y-94767099D01*
X39549982Y-94635966D01*
X39413974Y-94418484D01*
X39306581Y-94245986D01*
X39224818Y-94112724D01*
X39165703Y-94012953D01*
X39126253Y-93940925D01*
X39103484Y-93890895D01*
X39094413Y-93857117D01*
X39096057Y-93833843D01*
X39105434Y-93815328D01*
X39116232Y-93800443D01*
X39174629Y-93766022D01*
X39259349Y-93766043D01*
X39350465Y-93797096D01*
X39425943Y-93853458D01*
X39460173Y-93899347D01*
X39518883Y-93987556D01*
X39596227Y-94108902D01*
X39686362Y-94254206D01*
X39783443Y-94414283D01*
X39791803Y-94428235D01*
X39888285Y-94589168D01*
X39976868Y-94736469D01*
X40051991Y-94860927D01*
X40108092Y-94953330D01*
X40139610Y-95004464D01*
X40141050Y-95006726D01*
X40156517Y-95027771D01*
X40172885Y-95036022D01*
X40194350Y-95026030D01*
X40225106Y-94992347D01*
X40269348Y-94929525D01*
X40331273Y-94832118D01*
X40415075Y-94694676D01*
X40524950Y-94511752D01*
X40534498Y-94495814D01*
X40637162Y-94325310D01*
X40731755Y-94169848D01*
X40813253Y-94037554D01*
X40876634Y-93936551D01*
X40916874Y-93874964D01*
X40926389Y-93861916D01*
X40996797Y-93804240D01*
X41080916Y-93771991D01*
X41162777Y-93765992D01*
X41226408Y-93787064D01*
X41226408Y-93787064D01*
G37*
X41226408Y-93787064D02*
X41255841Y-93836028D01*
X41256323Y-93844938D01*
X41241034Y-93884781D01*
X41197894Y-93967996D01*
X41130997Y-94087444D01*
X41044438Y-94235985D01*
X40942310Y-94406480D01*
X40828706Y-94591788D01*
X40820529Y-94604970D01*
X40384736Y-95306969D01*
X40823489Y-96011222D01*
X40938826Y-96197443D01*
X41043833Y-96369071D01*
X41134278Y-96519020D01*
X41205926Y-96640203D01*
X41254545Y-96725535D01*
X41275902Y-96767928D01*
X41276302Y-96769237D01*
X41267014Y-96830153D01*
X41240999Y-96863965D01*
X41200173Y-96887143D01*
X41147993Y-96886002D01*
X41067098Y-96861878D01*
X41026832Y-96846199D01*
X40990596Y-96825202D01*
X40953577Y-96792431D01*
X40910962Y-96741430D01*
X40857937Y-96665744D01*
X40789691Y-96558917D01*
X40701409Y-96414493D01*
X40588280Y-96226016D01*
X40569029Y-96193812D01*
X40464329Y-96020782D01*
X40368516Y-95866534D01*
X40286105Y-95738006D01*
X40221608Y-95642134D01*
X40179538Y-95585855D01*
X40165617Y-95573752D01*
X40142526Y-95599862D01*
X40094133Y-95670363D01*
X40025089Y-95777925D01*
X39940045Y-95915220D01*
X39843651Y-96074922D01*
X39787936Y-96168881D01*
X39650135Y-96398624D01*
X39537427Y-96577366D01*
X39448156Y-96707550D01*
X39380667Y-96791619D01*
X39342752Y-96826294D01*
X39239067Y-96882153D01*
X39159573Y-96887504D01*
X39110770Y-96857671D01*
X39078817Y-96802736D01*
X39074912Y-96779843D01*
X39090168Y-96744297D01*
X39133208Y-96665173D01*
X39199940Y-96549445D01*
X39286271Y-96404087D01*
X39388109Y-96236075D01*
X39501361Y-96052384D01*
X39508206Y-96041376D01*
X39621989Y-95857015D01*
X39724597Y-95687954D01*
X39811939Y-95541165D01*
X39879922Y-95423616D01*
X39924455Y-95342277D01*
X39941446Y-95304118D01*
X39941500Y-95303371D01*
X39926206Y-95267453D01*
X39883216Y-95188474D01*
X39816867Y-95073827D01*
X39731496Y-94930904D01*
X39631441Y-94767099D01*
X39549982Y-94635966D01*
X39413974Y-94418484D01*
X39306581Y-94245986D01*
X39224818Y-94112724D01*
X39165703Y-94012953D01*
X39126253Y-93940925D01*
X39103484Y-93890895D01*
X39094413Y-93857117D01*
X39096057Y-93833843D01*
X39105434Y-93815328D01*
X39116232Y-93800443D01*
X39174629Y-93766022D01*
X39259349Y-93766043D01*
X39350465Y-93797096D01*
X39425943Y-93853458D01*
X39460173Y-93899347D01*
X39518883Y-93987556D01*
X39596227Y-94108902D01*
X39686362Y-94254206D01*
X39783443Y-94414283D01*
X39791803Y-94428235D01*
X39888285Y-94589168D01*
X39976868Y-94736469D01*
X40051991Y-94860927D01*
X40108092Y-94953330D01*
X40139610Y-95004464D01*
X40141050Y-95006726D01*
X40156517Y-95027771D01*
X40172885Y-95036022D01*
X40194350Y-95026030D01*
X40225106Y-94992347D01*
X40269348Y-94929525D01*
X40331273Y-94832118D01*
X40415075Y-94694676D01*
X40524950Y-94511752D01*
X40534498Y-94495814D01*
X40637162Y-94325310D01*
X40731755Y-94169848D01*
X40813253Y-94037554D01*
X40876634Y-93936551D01*
X40916874Y-93874964D01*
X40926389Y-93861916D01*
X40996797Y-93804240D01*
X41080916Y-93771991D01*
X41162777Y-93765992D01*
X41226408Y-93787064D01*
G36*
X36381225Y-93755978D02*
G01*
X36606670Y-93756492D01*
X36784436Y-93757762D01*
X36920566Y-93760128D01*
X37021102Y-93763928D01*
X37092086Y-93769501D01*
X37139563Y-93777186D01*
X37169573Y-93787322D01*
X37188161Y-93800248D01*
X37201368Y-93816302D01*
X37202267Y-93817580D01*
X37231914Y-93901669D01*
X37208541Y-93977678D01*
X37141470Y-94027116D01*
X37085180Y-94037418D01*
X36982835Y-94045971D01*
X36848138Y-94051979D01*
X36694791Y-94054643D01*
X36667437Y-94054706D01*
X36265970Y-94054706D01*
X36265970Y-95414353D01*
X36265892Y-95734885D01*
X36265507Y-96000995D01*
X36264589Y-96218028D01*
X36262915Y-96391328D01*
X36260259Y-96526236D01*
X36256397Y-96628099D01*
X36251102Y-96702258D01*
X36244151Y-96754057D01*
X36235317Y-96788841D01*
X36224377Y-96811952D01*
X36211105Y-96828735D01*
X36206206Y-96833765D01*
X36137046Y-96884543D01*
X36069952Y-96883966D01*
X36003678Y-96847011D01*
X35937265Y-96800493D01*
X35937265Y-94054706D01*
X35526382Y-94054265D01*
X35324801Y-94051247D01*
X35175497Y-94041503D01*
X35071189Y-94023263D01*
X35004593Y-93994754D01*
X34968430Y-93954205D01*
X34957027Y-93915741D01*
X34969700Y-93845080D01*
X34996515Y-93804431D01*
X35014910Y-93791461D01*
X35045443Y-93780995D01*
X35094058Y-93772771D01*
X35166700Y-93766527D01*
X35269313Y-93762003D01*
X35407841Y-93758937D01*
X35588229Y-93757069D01*
X35816421Y-93756138D01*
X36098361Y-93755882D01*
X36102057Y-93755882D01*
X36381225Y-93755978D01*
X36381225Y-93755978D01*
G37*
X36381225Y-93755978D02*
X36606670Y-93756492D01*
X36784436Y-93757762D01*
X36920566Y-93760128D01*
X37021102Y-93763928D01*
X37092086Y-93769501D01*
X37139563Y-93777186D01*
X37169573Y-93787322D01*
X37188161Y-93800248D01*
X37201368Y-93816302D01*
X37202267Y-93817580D01*
X37231914Y-93901669D01*
X37208541Y-93977678D01*
X37141470Y-94027116D01*
X37085180Y-94037418D01*
X36982835Y-94045971D01*
X36848138Y-94051979D01*
X36694791Y-94054643D01*
X36667437Y-94054706D01*
X36265970Y-94054706D01*
X36265970Y-95414353D01*
X36265892Y-95734885D01*
X36265507Y-96000995D01*
X36264589Y-96218028D01*
X36262915Y-96391328D01*
X36260259Y-96526236D01*
X36256397Y-96628099D01*
X36251102Y-96702258D01*
X36244151Y-96754057D01*
X36235317Y-96788841D01*
X36224377Y-96811952D01*
X36211105Y-96828735D01*
X36206206Y-96833765D01*
X36137046Y-96884543D01*
X36069952Y-96883966D01*
X36003678Y-96847011D01*
X35937265Y-96800493D01*
X35937265Y-94054706D01*
X35526382Y-94054265D01*
X35324801Y-94051247D01*
X35175497Y-94041503D01*
X35071189Y-94023263D01*
X35004593Y-93994754D01*
X34968430Y-93954205D01*
X34957027Y-93915741D01*
X34969700Y-93845080D01*
X34996515Y-93804431D01*
X35014910Y-93791461D01*
X35045443Y-93780995D01*
X35094058Y-93772771D01*
X35166700Y-93766527D01*
X35269313Y-93762003D01*
X35407841Y-93758937D01*
X35588229Y-93757069D01*
X35816421Y-93756138D01*
X36098361Y-93755882D01*
X36102057Y-93755882D01*
X36381225Y-93755978D01*
G36*
X34124751Y-93810529D02*
G01*
X34136090Y-93827530D01*
X34145570Y-93854654D01*
X34153354Y-93896937D01*
X34159605Y-93959414D01*
X34164488Y-94047121D01*
X34168166Y-94165092D01*
X34170802Y-94318362D01*
X34172561Y-94511968D01*
X34173604Y-94750945D01*
X34174097Y-95040327D01*
X34174206Y-95332835D01*
X34174206Y-96800493D01*
X34107792Y-96847011D01*
X34032920Y-96887061D01*
X33969631Y-96881760D01*
X33901104Y-96836405D01*
X33830559Y-96779280D01*
X33830559Y-95330483D01*
X33830650Y-94998311D01*
X33831054Y-94720734D01*
X33831965Y-94492584D01*
X33833579Y-94308693D01*
X33836088Y-94163892D01*
X33839689Y-94053013D01*
X33844576Y-93970887D01*
X33850943Y-93912344D01*
X33858985Y-93872218D01*
X33868897Y-93845338D01*
X33880874Y-93826537D01*
X33887484Y-93818784D01*
X33968213Y-93765206D01*
X34054840Y-93764687D01*
X34124751Y-93810529D01*
X34124751Y-93810529D01*
G37*
X34124751Y-93810529D02*
X34136090Y-93827530D01*
X34145570Y-93854654D01*
X34153354Y-93896937D01*
X34159605Y-93959414D01*
X34164488Y-94047121D01*
X34168166Y-94165092D01*
X34170802Y-94318362D01*
X34172561Y-94511968D01*
X34173604Y-94750945D01*
X34174097Y-95040327D01*
X34174206Y-95332835D01*
X34174206Y-96800493D01*
X34107792Y-96847011D01*
X34032920Y-96887061D01*
X33969631Y-96881760D01*
X33901104Y-96836405D01*
X33830559Y-96779280D01*
X33830559Y-95330483D01*
X33830650Y-94998311D01*
X33831054Y-94720734D01*
X33831965Y-94492584D01*
X33833579Y-94308693D01*
X33836088Y-94163892D01*
X33839689Y-94053013D01*
X33844576Y-93970887D01*
X33850943Y-93912344D01*
X33858985Y-93872218D01*
X33868897Y-93845338D01*
X33880874Y-93826537D01*
X33887484Y-93818784D01*
X33968213Y-93765206D01*
X34054840Y-93764687D01*
X34124751Y-93810529D01*
G36*
X29324378Y-93731423D02*
G01*
X29372677Y-93732990D01*
X29605536Y-93745685D01*
X29791910Y-93768363D01*
X29944721Y-93804449D01*
X30076887Y-93857366D01*
X30201328Y-93930541D01*
X30251381Y-93965916D01*
X30379691Y-94095920D01*
X30469128Y-94262837D01*
X30516828Y-94455883D01*
X30519929Y-94664273D01*
X30485082Y-94846377D01*
X30439538Y-94967736D01*
X30373078Y-95070179D01*
X30285557Y-95164194D01*
X30207957Y-95236627D01*
X30145934Y-95288759D01*
X30112450Y-95309728D01*
X30111863Y-95309765D01*
X30071011Y-95320417D01*
X29999158Y-95346943D01*
X29975666Y-95356543D01*
X29863711Y-95403321D01*
X29938530Y-95483543D01*
X30001548Y-95560175D01*
X30069702Y-95655967D01*
X30090753Y-95688734D01*
X30126115Y-95754547D01*
X30176151Y-95859208D01*
X30236296Y-95991912D01*
X30301981Y-96141858D01*
X30368642Y-96298242D01*
X30431710Y-96450262D01*
X30486619Y-96587115D01*
X30528802Y-96697998D01*
X30553694Y-96772107D01*
X30558441Y-96795089D01*
X30533184Y-96846010D01*
X30470146Y-96873795D01*
X30388429Y-96873645D01*
X30327747Y-96853031D01*
X30293137Y-96829871D01*
X30259400Y-96792861D01*
X30222328Y-96734161D01*
X30177716Y-96645934D01*
X30121358Y-96520342D01*
X30049047Y-96349546D01*
X30019870Y-96279278D01*
X29926567Y-96058472D01*
X29848438Y-95887277D01*
X29780430Y-95759067D01*
X29717487Y-95667215D01*
X29654557Y-95605096D01*
X29586586Y-95566083D01*
X29508519Y-95543550D01*
X29452091Y-95534859D01*
X29331774Y-95525661D01*
X29187604Y-95522265D01*
X29079265Y-95524393D01*
X28870088Y-95533882D01*
X28855147Y-96171349D01*
X28849810Y-96383480D01*
X28844516Y-96543794D01*
X28838411Y-96660230D01*
X28830644Y-96740728D01*
X28820363Y-96793230D01*
X28806715Y-96825674D01*
X28788850Y-96846001D01*
X28782200Y-96851172D01*
X28713073Y-96888348D01*
X28650362Y-96881160D01*
X28592855Y-96847011D01*
X28526441Y-96800493D01*
X28526441Y-94472317D01*
X28854645Y-94472317D01*
X28855147Y-94657302D01*
X28855147Y-95257796D01*
X29251088Y-95243742D01*
X29427767Y-95235758D01*
X29558900Y-95224890D01*
X29658701Y-95209020D01*
X29741381Y-95186032D01*
X29804129Y-95161365D01*
X29976684Y-95058520D01*
X30101452Y-94923171D01*
X30175494Y-94760065D01*
X30195872Y-94573949D01*
X30193124Y-94533075D01*
X30153835Y-94364393D01*
X30068959Y-94230237D01*
X29933745Y-94123979D01*
X29878825Y-94094667D01*
X29798936Y-94058543D01*
X29723737Y-94033882D01*
X29637601Y-94017908D01*
X29524901Y-94007841D01*
X29370010Y-94000904D01*
X29346985Y-94000121D01*
X29188003Y-93994037D01*
X29067408Y-93992464D01*
X28979926Y-94002446D01*
X28920283Y-94031031D01*
X28883207Y-94085265D01*
X28863424Y-94172193D01*
X28855661Y-94298862D01*
X28854645Y-94472317D01*
X28526441Y-94472317D01*
X28526441Y-93913444D01*
X28603787Y-93836098D01*
X28657710Y-93793114D01*
X28726704Y-93761874D01*
X28819319Y-93741232D01*
X28944103Y-93730040D01*
X29109606Y-93727152D01*
X29324378Y-93731423D01*
X29324378Y-93731423D01*
G37*
X29324378Y-93731423D02*
X29372677Y-93732990D01*
X29605536Y-93745685D01*
X29791910Y-93768363D01*
X29944721Y-93804449D01*
X30076887Y-93857366D01*
X30201328Y-93930541D01*
X30251381Y-93965916D01*
X30379691Y-94095920D01*
X30469128Y-94262837D01*
X30516828Y-94455883D01*
X30519929Y-94664273D01*
X30485082Y-94846377D01*
X30439538Y-94967736D01*
X30373078Y-95070179D01*
X30285557Y-95164194D01*
X30207957Y-95236627D01*
X30145934Y-95288759D01*
X30112450Y-95309728D01*
X30111863Y-95309765D01*
X30071011Y-95320417D01*
X29999158Y-95346943D01*
X29975666Y-95356543D01*
X29863711Y-95403321D01*
X29938530Y-95483543D01*
X30001548Y-95560175D01*
X30069702Y-95655967D01*
X30090753Y-95688734D01*
X30126115Y-95754547D01*
X30176151Y-95859208D01*
X30236296Y-95991912D01*
X30301981Y-96141858D01*
X30368642Y-96298242D01*
X30431710Y-96450262D01*
X30486619Y-96587115D01*
X30528802Y-96697998D01*
X30553694Y-96772107D01*
X30558441Y-96795089D01*
X30533184Y-96846010D01*
X30470146Y-96873795D01*
X30388429Y-96873645D01*
X30327747Y-96853031D01*
X30293137Y-96829871D01*
X30259400Y-96792861D01*
X30222328Y-96734161D01*
X30177716Y-96645934D01*
X30121358Y-96520342D01*
X30049047Y-96349546D01*
X30019870Y-96279278D01*
X29926567Y-96058472D01*
X29848438Y-95887277D01*
X29780430Y-95759067D01*
X29717487Y-95667215D01*
X29654557Y-95605096D01*
X29586586Y-95566083D01*
X29508519Y-95543550D01*
X29452091Y-95534859D01*
X29331774Y-95525661D01*
X29187604Y-95522265D01*
X29079265Y-95524393D01*
X28870088Y-95533882D01*
X28855147Y-96171349D01*
X28849810Y-96383480D01*
X28844516Y-96543794D01*
X28838411Y-96660230D01*
X28830644Y-96740728D01*
X28820363Y-96793230D01*
X28806715Y-96825674D01*
X28788850Y-96846001D01*
X28782200Y-96851172D01*
X28713073Y-96888348D01*
X28650362Y-96881160D01*
X28592855Y-96847011D01*
X28526441Y-96800493D01*
X28526441Y-94472317D01*
X28854645Y-94472317D01*
X28855147Y-94657302D01*
X28855147Y-95257796D01*
X29251088Y-95243742D01*
X29427767Y-95235758D01*
X29558900Y-95224890D01*
X29658701Y-95209020D01*
X29741381Y-95186032D01*
X29804129Y-95161365D01*
X29976684Y-95058520D01*
X30101452Y-94923171D01*
X30175494Y-94760065D01*
X30195872Y-94573949D01*
X30193124Y-94533075D01*
X30153835Y-94364393D01*
X30068959Y-94230237D01*
X29933745Y-94123979D01*
X29878825Y-94094667D01*
X29798936Y-94058543D01*
X29723737Y-94033882D01*
X29637601Y-94017908D01*
X29524901Y-94007841D01*
X29370010Y-94000904D01*
X29346985Y-94000121D01*
X29188003Y-93994037D01*
X29067408Y-93992464D01*
X28979926Y-94002446D01*
X28920283Y-94031031D01*
X28883207Y-94085265D01*
X28863424Y-94172193D01*
X28855661Y-94298862D01*
X28854645Y-94472317D01*
X28526441Y-94472317D01*
X28526441Y-93913444D01*
X28603787Y-93836098D01*
X28657710Y-93793114D01*
X28726704Y-93761874D01*
X28819319Y-93741232D01*
X28944103Y-93730040D01*
X29109606Y-93727152D01*
X29324378Y-93731423D01*
G36*
X32048640Y-93743906D02*
G01*
X32193379Y-93747391D01*
X32301380Y-93754134D01*
X32384152Y-93765278D01*
X32453203Y-93781964D01*
X32520044Y-93805334D01*
X32530676Y-93809521D01*
X32722238Y-93910058D01*
X32862688Y-94040328D01*
X32954396Y-94203391D01*
X32999734Y-94402309D01*
X33001175Y-94417030D01*
X33005878Y-94530884D01*
X32991298Y-94622466D01*
X32951309Y-94723816D01*
X32936680Y-94754318D01*
X32825730Y-94918974D01*
X32676134Y-95049445D01*
X32501941Y-95133607D01*
X32494591Y-95135860D01*
X32423734Y-95166556D01*
X32401162Y-95196347D01*
X32429429Y-95216413D01*
X32470198Y-95220118D01*
X32556727Y-95237338D01*
X32668729Y-95282183D01*
X32785424Y-95344429D01*
X32886032Y-95413851D01*
X32914295Y-95438616D01*
X33039189Y-95588811D01*
X33112337Y-95756480D01*
X33139250Y-95954543D01*
X33139497Y-95966500D01*
X33128562Y-96176764D01*
X33084802Y-96349135D01*
X33002695Y-96498883D01*
X32905964Y-96612374D01*
X32800453Y-96710113D01*
X32694084Y-96784097D01*
X32576069Y-96837645D01*
X32435622Y-96874077D01*
X32261955Y-96896711D01*
X32044281Y-96908865D01*
X31933029Y-96911725D01*
X31763830Y-96913214D01*
X31607898Y-96911281D01*
X31478663Y-96906332D01*
X31389553Y-96898776D01*
X31365737Y-96894537D01*
X31272816Y-96853212D01*
X31194514Y-96790312D01*
X31193914Y-96789618D01*
X31126206Y-96710903D01*
X31126206Y-95339647D01*
X31454912Y-95339647D01*
X31454912Y-95968139D01*
X31455070Y-96176976D01*
X31456081Y-96333899D01*
X31458751Y-96446758D01*
X31463885Y-96523404D01*
X31472287Y-96571687D01*
X31484764Y-96599458D01*
X31502120Y-96614568D01*
X31522147Y-96623657D01*
X31594111Y-96638815D01*
X31708809Y-96648127D01*
X31849497Y-96651631D01*
X31999436Y-96649368D01*
X32141884Y-96641377D01*
X32260098Y-96627698D01*
X32291431Y-96621837D01*
X32480029Y-96553737D01*
X32631034Y-96441751D01*
X32739459Y-96291984D01*
X32800313Y-96110541D01*
X32811963Y-95984914D01*
X32792555Y-95803822D01*
X32729568Y-95654232D01*
X32621171Y-95535034D01*
X32465534Y-95445117D01*
X32260826Y-95383371D01*
X32005216Y-95348684D01*
X31748247Y-95339647D01*
X31454912Y-95339647D01*
X31126206Y-95339647D01*
X31126206Y-95339387D01*
X31126847Y-94965856D01*
X31128794Y-94650571D01*
X31132080Y-94392029D01*
X31132756Y-94362518D01*
X31454659Y-94362518D01*
X31454912Y-94543836D01*
X31456077Y-94708723D01*
X31459298Y-94852218D01*
X31464164Y-94963864D01*
X31470264Y-95033205D01*
X31474833Y-95050784D01*
X31517040Y-95062785D01*
X31603908Y-95069087D01*
X31720633Y-95069963D01*
X31852409Y-95065685D01*
X31984433Y-95056527D01*
X32101900Y-95042761D01*
X32126442Y-95038774D01*
X32336903Y-94982009D01*
X32498271Y-94894132D01*
X32609428Y-94776191D01*
X32669254Y-94629233D01*
X32680088Y-94520468D01*
X32659770Y-94351561D01*
X32595846Y-94220227D01*
X32483859Y-94118887D01*
X32424043Y-94084763D01*
X32349526Y-94051008D01*
X32274194Y-94028169D01*
X32182472Y-94013564D01*
X32058784Y-94004509D01*
X31929270Y-93999549D01*
X31763207Y-93994198D01*
X31641142Y-93995013D01*
X31556329Y-94009734D01*
X31502021Y-94046104D01*
X31471472Y-94111863D01*
X31457933Y-94214754D01*
X31454659Y-94362518D01*
X31132756Y-94362518D01*
X31136742Y-94188725D01*
X31142813Y-94039154D01*
X31150327Y-93941812D01*
X31159320Y-93895195D01*
X31159389Y-93895042D01*
X31189261Y-93842745D01*
X31230191Y-93803659D01*
X31290490Y-93775963D01*
X31378469Y-93757837D01*
X31502441Y-93747461D01*
X31670716Y-93743014D01*
X31855653Y-93742538D01*
X32048640Y-93743906D01*
X32048640Y-93743906D01*
G37*
X32048640Y-93743906D02*
X32193379Y-93747391D01*
X32301380Y-93754134D01*
X32384152Y-93765278D01*
X32453203Y-93781964D01*
X32520044Y-93805334D01*
X32530676Y-93809521D01*
X32722238Y-93910058D01*
X32862688Y-94040328D01*
X32954396Y-94203391D01*
X32999734Y-94402309D01*
X33001175Y-94417030D01*
X33005878Y-94530884D01*
X32991298Y-94622466D01*
X32951309Y-94723816D01*
X32936680Y-94754318D01*
X32825730Y-94918974D01*
X32676134Y-95049445D01*
X32501941Y-95133607D01*
X32494591Y-95135860D01*
X32423734Y-95166556D01*
X32401162Y-95196347D01*
X32429429Y-95216413D01*
X32470198Y-95220118D01*
X32556727Y-95237338D01*
X32668729Y-95282183D01*
X32785424Y-95344429D01*
X32886032Y-95413851D01*
X32914295Y-95438616D01*
X33039189Y-95588811D01*
X33112337Y-95756480D01*
X33139250Y-95954543D01*
X33139497Y-95966500D01*
X33128562Y-96176764D01*
X33084802Y-96349135D01*
X33002695Y-96498883D01*
X32905964Y-96612374D01*
X32800453Y-96710113D01*
X32694084Y-96784097D01*
X32576069Y-96837645D01*
X32435622Y-96874077D01*
X32261955Y-96896711D01*
X32044281Y-96908865D01*
X31933029Y-96911725D01*
X31763830Y-96913214D01*
X31607898Y-96911281D01*
X31478663Y-96906332D01*
X31389553Y-96898776D01*
X31365737Y-96894537D01*
X31272816Y-96853212D01*
X31194514Y-96790312D01*
X31193914Y-96789618D01*
X31126206Y-96710903D01*
X31126206Y-95339647D01*
X31454912Y-95339647D01*
X31454912Y-95968139D01*
X31455070Y-96176976D01*
X31456081Y-96333899D01*
X31458751Y-96446758D01*
X31463885Y-96523404D01*
X31472287Y-96571687D01*
X31484764Y-96599458D01*
X31502120Y-96614568D01*
X31522147Y-96623657D01*
X31594111Y-96638815D01*
X31708809Y-96648127D01*
X31849497Y-96651631D01*
X31999436Y-96649368D01*
X32141884Y-96641377D01*
X32260098Y-96627698D01*
X32291431Y-96621837D01*
X32480029Y-96553737D01*
X32631034Y-96441751D01*
X32739459Y-96291984D01*
X32800313Y-96110541D01*
X32811963Y-95984914D01*
X32792555Y-95803822D01*
X32729568Y-95654232D01*
X32621171Y-95535034D01*
X32465534Y-95445117D01*
X32260826Y-95383371D01*
X32005216Y-95348684D01*
X31748247Y-95339647D01*
X31454912Y-95339647D01*
X31126206Y-95339647D01*
X31126206Y-95339387D01*
X31126847Y-94965856D01*
X31128794Y-94650571D01*
X31132080Y-94392029D01*
X31132756Y-94362518D01*
X31454659Y-94362518D01*
X31454912Y-94543836D01*
X31456077Y-94708723D01*
X31459298Y-94852218D01*
X31464164Y-94963864D01*
X31470264Y-95033205D01*
X31474833Y-95050784D01*
X31517040Y-95062785D01*
X31603908Y-95069087D01*
X31720633Y-95069963D01*
X31852409Y-95065685D01*
X31984433Y-95056527D01*
X32101900Y-95042761D01*
X32126442Y-95038774D01*
X32336903Y-94982009D01*
X32498271Y-94894132D01*
X32609428Y-94776191D01*
X32669254Y-94629233D01*
X32680088Y-94520468D01*
X32659770Y-94351561D01*
X32595846Y-94220227D01*
X32483859Y-94118887D01*
X32424043Y-94084763D01*
X32349526Y-94051008D01*
X32274194Y-94028169D01*
X32182472Y-94013564D01*
X32058784Y-94004509D01*
X31929270Y-93999549D01*
X31763207Y-93994198D01*
X31641142Y-93995013D01*
X31556329Y-94009734D01*
X31502021Y-94046104D01*
X31471472Y-94111863D01*
X31457933Y-94214754D01*
X31454659Y-94362518D01*
X31132756Y-94362518D01*
X31136742Y-94188725D01*
X31142813Y-94039154D01*
X31150327Y-93941812D01*
X31159320Y-93895195D01*
X31159389Y-93895042D01*
X31189261Y-93842745D01*
X31230191Y-93803659D01*
X31290490Y-93775963D01*
X31378469Y-93757837D01*
X31502441Y-93747461D01*
X31670716Y-93743014D01*
X31855653Y-93742538D01*
X32048640Y-93743906D01*
G36*
X26725604Y-93744967D02*
G01*
X26987796Y-93803992D01*
X27219286Y-93906259D01*
X27428238Y-94054955D01*
X27539707Y-94160999D01*
X27706203Y-94363156D01*
X27827728Y-94579828D01*
X27907125Y-94819688D01*
X27947237Y-95091411D01*
X27950905Y-95403671D01*
X27950456Y-95414353D01*
X27930064Y-95675484D01*
X27890501Y-95892288D01*
X27826588Y-96078543D01*
X27733144Y-96248026D01*
X27604990Y-96414514D01*
X27552374Y-96473119D01*
X27365048Y-96638387D01*
X27143619Y-96773317D01*
X26908015Y-96866822D01*
X26796656Y-96893566D01*
X26610125Y-96915213D01*
X26398806Y-96919344D01*
X26190073Y-96906538D01*
X26011299Y-96877372D01*
X26009530Y-96876945D01*
X25745586Y-96785169D01*
X25512491Y-96643671D01*
X25359991Y-96509053D01*
X25177242Y-96282566D01*
X25040977Y-96022609D01*
X24952652Y-95735011D01*
X24914157Y-95429037D01*
X25261601Y-95429037D01*
X25294949Y-95697743D01*
X25366699Y-95942231D01*
X25404714Y-96026941D01*
X25533390Y-96226657D01*
X25699700Y-96397437D01*
X25891802Y-96529687D01*
X26097854Y-96613816D01*
X26142502Y-96624622D01*
X26333511Y-96646559D01*
X26544288Y-96640656D01*
X26750163Y-96609238D01*
X26926464Y-96554629D01*
X26937629Y-96549742D01*
X27121221Y-96439427D01*
X27290819Y-96285606D01*
X27430520Y-96104507D01*
X27499183Y-95976656D01*
X27540200Y-95861488D01*
X27578314Y-95716209D01*
X27605909Y-95570288D01*
X27607916Y-95555902D01*
X27624169Y-95254912D01*
X27592121Y-94972322D01*
X27514314Y-94713777D01*
X27393289Y-94484922D01*
X27231589Y-94291402D01*
X27031757Y-94138862D01*
X26949788Y-94094487D01*
X26867386Y-94056846D01*
X26794029Y-94032461D01*
X26712751Y-94018480D01*
X26606588Y-94012052D01*
X26458573Y-94010325D01*
X26448989Y-94010310D01*
X26300782Y-94011196D01*
X26194823Y-94016465D01*
X26113608Y-94029349D01*
X26039630Y-94053082D01*
X25955385Y-94090897D01*
X25920525Y-94107914D01*
X25737706Y-94222263D01*
X25573986Y-94370610D01*
X25445067Y-94537279D01*
X25393253Y-94634290D01*
X25310624Y-94881643D01*
X25266783Y-95151781D01*
X25261601Y-95429037D01*
X24914157Y-95429037D01*
X24913724Y-95425601D01*
X24925648Y-95100207D01*
X24957844Y-94899597D01*
X25045802Y-94607211D01*
X25179323Y-94351767D01*
X25354930Y-94136048D01*
X25569144Y-93962836D01*
X25818490Y-93834913D01*
X26099489Y-93755062D01*
X26408665Y-93726065D01*
X26424542Y-93726000D01*
X26725604Y-93744967D01*
X26725604Y-93744967D01*
G37*
X26725604Y-93744967D02*
X26987796Y-93803992D01*
X27219286Y-93906259D01*
X27428238Y-94054955D01*
X27539707Y-94160999D01*
X27706203Y-94363156D01*
X27827728Y-94579828D01*
X27907125Y-94819688D01*
X27947237Y-95091411D01*
X27950905Y-95403671D01*
X27950456Y-95414353D01*
X27930064Y-95675484D01*
X27890501Y-95892288D01*
X27826588Y-96078543D01*
X27733144Y-96248026D01*
X27604990Y-96414514D01*
X27552374Y-96473119D01*
X27365048Y-96638387D01*
X27143619Y-96773317D01*
X26908015Y-96866822D01*
X26796656Y-96893566D01*
X26610125Y-96915213D01*
X26398806Y-96919344D01*
X26190073Y-96906538D01*
X26011299Y-96877372D01*
X26009530Y-96876945D01*
X25745586Y-96785169D01*
X25512491Y-96643671D01*
X25359991Y-96509053D01*
X25177242Y-96282566D01*
X25040977Y-96022609D01*
X24952652Y-95735011D01*
X24914157Y-95429037D01*
X25261601Y-95429037D01*
X25294949Y-95697743D01*
X25366699Y-95942231D01*
X25404714Y-96026941D01*
X25533390Y-96226657D01*
X25699700Y-96397437D01*
X25891802Y-96529687D01*
X26097854Y-96613816D01*
X26142502Y-96624622D01*
X26333511Y-96646559D01*
X26544288Y-96640656D01*
X26750163Y-96609238D01*
X26926464Y-96554629D01*
X26937629Y-96549742D01*
X27121221Y-96439427D01*
X27290819Y-96285606D01*
X27430520Y-96104507D01*
X27499183Y-95976656D01*
X27540200Y-95861488D01*
X27578314Y-95716209D01*
X27605909Y-95570288D01*
X27607916Y-95555902D01*
X27624169Y-95254912D01*
X27592121Y-94972322D01*
X27514314Y-94713777D01*
X27393289Y-94484922D01*
X27231589Y-94291402D01*
X27031757Y-94138862D01*
X26949788Y-94094487D01*
X26867386Y-94056846D01*
X26794029Y-94032461D01*
X26712751Y-94018480D01*
X26606588Y-94012052D01*
X26458573Y-94010325D01*
X26448989Y-94010310D01*
X26300782Y-94011196D01*
X26194823Y-94016465D01*
X26113608Y-94029349D01*
X26039630Y-94053082D01*
X25955385Y-94090897D01*
X25920525Y-94107914D01*
X25737706Y-94222263D01*
X25573986Y-94370610D01*
X25445067Y-94537279D01*
X25393253Y-94634290D01*
X25310624Y-94881643D01*
X25266783Y-95151781D01*
X25261601Y-95429037D01*
X24914157Y-95429037D01*
X24913724Y-95425601D01*
X24925648Y-95100207D01*
X24957844Y-94899597D01*
X25045802Y-94607211D01*
X25179323Y-94351767D01*
X25354930Y-94136048D01*
X25569144Y-93962836D01*
X25818490Y-93834913D01*
X26099489Y-93755062D01*
X26408665Y-93726065D01*
X26424542Y-93726000D01*
X26725604Y-93744967D01*
G36*
X264524132Y-95520394D02*
G01*
X264691747Y-95524915D01*
X264807879Y-95532751D01*
X264876635Y-95544148D01*
X264899215Y-95554800D01*
X264931993Y-95622077D01*
X264925158Y-95697969D01*
X264881761Y-95754371D01*
X264877273Y-95756949D01*
X264827028Y-95767944D01*
X264726788Y-95777029D01*
X264586308Y-95783670D01*
X264415341Y-95787332D01*
X264312819Y-95787882D01*
X264124324Y-95787257D01*
X263986042Y-95784761D01*
X263888427Y-95779462D01*
X263821935Y-95770427D01*
X263777020Y-95756726D01*
X263744137Y-95737425D01*
X263736694Y-95731628D01*
X263690017Y-95684178D01*
X263687195Y-95636883D01*
X263702860Y-95597157D01*
X263738498Y-95518941D01*
X264300927Y-95518941D01*
X264524132Y-95520394D01*
X264524132Y-95520394D01*
G37*
X264524132Y-95520394D02*
X264691747Y-95524915D01*
X264807879Y-95532751D01*
X264876635Y-95544148D01*
X264899215Y-95554800D01*
X264931993Y-95622077D01*
X264925158Y-95697969D01*
X264881761Y-95754371D01*
X264877273Y-95756949D01*
X264827028Y-95767944D01*
X264726788Y-95777029D01*
X264586308Y-95783670D01*
X264415341Y-95787332D01*
X264312819Y-95787882D01*
X264124324Y-95787257D01*
X263986042Y-95784761D01*
X263888427Y-95779462D01*
X263821935Y-95770427D01*
X263777020Y-95756726D01*
X263744137Y-95737425D01*
X263736694Y-95731628D01*
X263690017Y-95684178D01*
X263687195Y-95636883D01*
X263702860Y-95597157D01*
X263738498Y-95518941D01*
X264300927Y-95518941D01*
X264524132Y-95520394D01*
G36*
X267445158Y-93787064D02*
G01*
X267474591Y-93836028D01*
X267475073Y-93844938D01*
X267459784Y-93884781D01*
X267416644Y-93967996D01*
X267349747Y-94087444D01*
X267263188Y-94235985D01*
X267161060Y-94406480D01*
X267047456Y-94591788D01*
X267039279Y-94604970D01*
X266603486Y-95306969D01*
X267042239Y-96011222D01*
X267157576Y-96197443D01*
X267262583Y-96369071D01*
X267353028Y-96519020D01*
X267424676Y-96640203D01*
X267473295Y-96725535D01*
X267494652Y-96767928D01*
X267495052Y-96769237D01*
X267485764Y-96830153D01*
X267459749Y-96863965D01*
X267418923Y-96887143D01*
X267366743Y-96886002D01*
X267285848Y-96861878D01*
X267245582Y-96846199D01*
X267209346Y-96825202D01*
X267172327Y-96792431D01*
X267129712Y-96741430D01*
X267076687Y-96665744D01*
X267008441Y-96558917D01*
X266920159Y-96414493D01*
X266807030Y-96226016D01*
X266787779Y-96193812D01*
X266683079Y-96020782D01*
X266587266Y-95866534D01*
X266504855Y-95738006D01*
X266440358Y-95642134D01*
X266398288Y-95585855D01*
X266384367Y-95573752D01*
X266361276Y-95599862D01*
X266312883Y-95670363D01*
X266243839Y-95777925D01*
X266158795Y-95915220D01*
X266062401Y-96074922D01*
X266006686Y-96168881D01*
X265868885Y-96398624D01*
X265756177Y-96577366D01*
X265666906Y-96707550D01*
X265599417Y-96791619D01*
X265561502Y-96826294D01*
X265457817Y-96882153D01*
X265378323Y-96887504D01*
X265329520Y-96857671D01*
X265297567Y-96802736D01*
X265293662Y-96779843D01*
X265308918Y-96744297D01*
X265351958Y-96665173D01*
X265418690Y-96549445D01*
X265505021Y-96404087D01*
X265606859Y-96236075D01*
X265720111Y-96052384D01*
X265726956Y-96041376D01*
X265840739Y-95857015D01*
X265943347Y-95687954D01*
X266030689Y-95541165D01*
X266098672Y-95423616D01*
X266143205Y-95342277D01*
X266160196Y-95304118D01*
X266160250Y-95303371D01*
X266144956Y-95267453D01*
X266101966Y-95188474D01*
X266035617Y-95073827D01*
X265950246Y-94930904D01*
X265850191Y-94767099D01*
X265768732Y-94635966D01*
X265632724Y-94418484D01*
X265525331Y-94245986D01*
X265443568Y-94112724D01*
X265384453Y-94012953D01*
X265345003Y-93940925D01*
X265322234Y-93890895D01*
X265313163Y-93857117D01*
X265314807Y-93833843D01*
X265324184Y-93815328D01*
X265334982Y-93800443D01*
X265393379Y-93766022D01*
X265478099Y-93766043D01*
X265569215Y-93797096D01*
X265644693Y-93853458D01*
X265678923Y-93899347D01*
X265737633Y-93987556D01*
X265814977Y-94108902D01*
X265905112Y-94254206D01*
X266002193Y-94414283D01*
X266010553Y-94428235D01*
X266107035Y-94589168D01*
X266195618Y-94736469D01*
X266270741Y-94860927D01*
X266326842Y-94953330D01*
X266358360Y-95004464D01*
X266359800Y-95006726D01*
X266375267Y-95027771D01*
X266391635Y-95036022D01*
X266413100Y-95026030D01*
X266443856Y-94992347D01*
X266488098Y-94929525D01*
X266550023Y-94832118D01*
X266633825Y-94694676D01*
X266743700Y-94511752D01*
X266753248Y-94495814D01*
X266855912Y-94325310D01*
X266950505Y-94169848D01*
X267032003Y-94037554D01*
X267095384Y-93936551D01*
X267135624Y-93874964D01*
X267145139Y-93861916D01*
X267215547Y-93804240D01*
X267299666Y-93771991D01*
X267381527Y-93765992D01*
X267445158Y-93787064D01*
X267445158Y-93787064D01*
G37*
X267445158Y-93787064D02*
X267474591Y-93836028D01*
X267475073Y-93844938D01*
X267459784Y-93884781D01*
X267416644Y-93967996D01*
X267349747Y-94087444D01*
X267263188Y-94235985D01*
X267161060Y-94406480D01*
X267047456Y-94591788D01*
X267039279Y-94604970D01*
X266603486Y-95306969D01*
X267042239Y-96011222D01*
X267157576Y-96197443D01*
X267262583Y-96369071D01*
X267353028Y-96519020D01*
X267424676Y-96640203D01*
X267473295Y-96725535D01*
X267494652Y-96767928D01*
X267495052Y-96769237D01*
X267485764Y-96830153D01*
X267459749Y-96863965D01*
X267418923Y-96887143D01*
X267366743Y-96886002D01*
X267285848Y-96861878D01*
X267245582Y-96846199D01*
X267209346Y-96825202D01*
X267172327Y-96792431D01*
X267129712Y-96741430D01*
X267076687Y-96665744D01*
X267008441Y-96558917D01*
X266920159Y-96414493D01*
X266807030Y-96226016D01*
X266787779Y-96193812D01*
X266683079Y-96020782D01*
X266587266Y-95866534D01*
X266504855Y-95738006D01*
X266440358Y-95642134D01*
X266398288Y-95585855D01*
X266384367Y-95573752D01*
X266361276Y-95599862D01*
X266312883Y-95670363D01*
X266243839Y-95777925D01*
X266158795Y-95915220D01*
X266062401Y-96074922D01*
X266006686Y-96168881D01*
X265868885Y-96398624D01*
X265756177Y-96577366D01*
X265666906Y-96707550D01*
X265599417Y-96791619D01*
X265561502Y-96826294D01*
X265457817Y-96882153D01*
X265378323Y-96887504D01*
X265329520Y-96857671D01*
X265297567Y-96802736D01*
X265293662Y-96779843D01*
X265308918Y-96744297D01*
X265351958Y-96665173D01*
X265418690Y-96549445D01*
X265505021Y-96404087D01*
X265606859Y-96236075D01*
X265720111Y-96052384D01*
X265726956Y-96041376D01*
X265840739Y-95857015D01*
X265943347Y-95687954D01*
X266030689Y-95541165D01*
X266098672Y-95423616D01*
X266143205Y-95342277D01*
X266160196Y-95304118D01*
X266160250Y-95303371D01*
X266144956Y-95267453D01*
X266101966Y-95188474D01*
X266035617Y-95073827D01*
X265950246Y-94930904D01*
X265850191Y-94767099D01*
X265768732Y-94635966D01*
X265632724Y-94418484D01*
X265525331Y-94245986D01*
X265443568Y-94112724D01*
X265384453Y-94012953D01*
X265345003Y-93940925D01*
X265322234Y-93890895D01*
X265313163Y-93857117D01*
X265314807Y-93833843D01*
X265324184Y-93815328D01*
X265334982Y-93800443D01*
X265393379Y-93766022D01*
X265478099Y-93766043D01*
X265569215Y-93797096D01*
X265644693Y-93853458D01*
X265678923Y-93899347D01*
X265737633Y-93987556D01*
X265814977Y-94108902D01*
X265905112Y-94254206D01*
X266002193Y-94414283D01*
X266010553Y-94428235D01*
X266107035Y-94589168D01*
X266195618Y-94736469D01*
X266270741Y-94860927D01*
X266326842Y-94953330D01*
X266358360Y-95004464D01*
X266359800Y-95006726D01*
X266375267Y-95027771D01*
X266391635Y-95036022D01*
X266413100Y-95026030D01*
X266443856Y-94992347D01*
X266488098Y-94929525D01*
X266550023Y-94832118D01*
X266633825Y-94694676D01*
X266743700Y-94511752D01*
X266753248Y-94495814D01*
X266855912Y-94325310D01*
X266950505Y-94169848D01*
X267032003Y-94037554D01*
X267095384Y-93936551D01*
X267135624Y-93874964D01*
X267145139Y-93861916D01*
X267215547Y-93804240D01*
X267299666Y-93771991D01*
X267381527Y-93765992D01*
X267445158Y-93787064D01*
G36*
X262599975Y-93755978D02*
G01*
X262825420Y-93756492D01*
X263003186Y-93757762D01*
X263139316Y-93760128D01*
X263239852Y-93763928D01*
X263310836Y-93769501D01*
X263358313Y-93777186D01*
X263388323Y-93787322D01*
X263406911Y-93800248D01*
X263420118Y-93816302D01*
X263421017Y-93817580D01*
X263450664Y-93901669D01*
X263427291Y-93977678D01*
X263360220Y-94027116D01*
X263303930Y-94037418D01*
X263201585Y-94045971D01*
X263066888Y-94051979D01*
X262913541Y-94054643D01*
X262886187Y-94054706D01*
X262484720Y-94054706D01*
X262484720Y-95414353D01*
X262484642Y-95734885D01*
X262484257Y-96000995D01*
X262483339Y-96218028D01*
X262481665Y-96391328D01*
X262479009Y-96526236D01*
X262475147Y-96628099D01*
X262469852Y-96702258D01*
X262462901Y-96754057D01*
X262454067Y-96788841D01*
X262443127Y-96811952D01*
X262429855Y-96828735D01*
X262424956Y-96833765D01*
X262355796Y-96884543D01*
X262288702Y-96883966D01*
X262222428Y-96847011D01*
X262156015Y-96800493D01*
X262156015Y-94054706D01*
X261745132Y-94054265D01*
X261543551Y-94051247D01*
X261394247Y-94041503D01*
X261289939Y-94023263D01*
X261223343Y-93994754D01*
X261187180Y-93954205D01*
X261175777Y-93915741D01*
X261188450Y-93845080D01*
X261215265Y-93804431D01*
X261233660Y-93791461D01*
X261264193Y-93780995D01*
X261312808Y-93772771D01*
X261385450Y-93766527D01*
X261488063Y-93762003D01*
X261626591Y-93758937D01*
X261806979Y-93757069D01*
X262035171Y-93756138D01*
X262317111Y-93755882D01*
X262320807Y-93755882D01*
X262599975Y-93755978D01*
X262599975Y-93755978D01*
G37*
X262599975Y-93755978D02*
X262825420Y-93756492D01*
X263003186Y-93757762D01*
X263139316Y-93760128D01*
X263239852Y-93763928D01*
X263310836Y-93769501D01*
X263358313Y-93777186D01*
X263388323Y-93787322D01*
X263406911Y-93800248D01*
X263420118Y-93816302D01*
X263421017Y-93817580D01*
X263450664Y-93901669D01*
X263427291Y-93977678D01*
X263360220Y-94027116D01*
X263303930Y-94037418D01*
X263201585Y-94045971D01*
X263066888Y-94051979D01*
X262913541Y-94054643D01*
X262886187Y-94054706D01*
X262484720Y-94054706D01*
X262484720Y-95414353D01*
X262484642Y-95734885D01*
X262484257Y-96000995D01*
X262483339Y-96218028D01*
X262481665Y-96391328D01*
X262479009Y-96526236D01*
X262475147Y-96628099D01*
X262469852Y-96702258D01*
X262462901Y-96754057D01*
X262454067Y-96788841D01*
X262443127Y-96811952D01*
X262429855Y-96828735D01*
X262424956Y-96833765D01*
X262355796Y-96884543D01*
X262288702Y-96883966D01*
X262222428Y-96847011D01*
X262156015Y-96800493D01*
X262156015Y-94054706D01*
X261745132Y-94054265D01*
X261543551Y-94051247D01*
X261394247Y-94041503D01*
X261289939Y-94023263D01*
X261223343Y-93994754D01*
X261187180Y-93954205D01*
X261175777Y-93915741D01*
X261188450Y-93845080D01*
X261215265Y-93804431D01*
X261233660Y-93791461D01*
X261264193Y-93780995D01*
X261312808Y-93772771D01*
X261385450Y-93766527D01*
X261488063Y-93762003D01*
X261626591Y-93758937D01*
X261806979Y-93757069D01*
X262035171Y-93756138D01*
X262317111Y-93755882D01*
X262320807Y-93755882D01*
X262599975Y-93755978D01*
G36*
X260343501Y-93810529D02*
G01*
X260354840Y-93827530D01*
X260364320Y-93854654D01*
X260372104Y-93896937D01*
X260378355Y-93959414D01*
X260383238Y-94047121D01*
X260386916Y-94165092D01*
X260389552Y-94318362D01*
X260391311Y-94511968D01*
X260392354Y-94750945D01*
X260392847Y-95040327D01*
X260392956Y-95332835D01*
X260392956Y-96800493D01*
X260326542Y-96847011D01*
X260251670Y-96887061D01*
X260188381Y-96881760D01*
X260119854Y-96836405D01*
X260049309Y-96779280D01*
X260049309Y-95330483D01*
X260049400Y-94998311D01*
X260049804Y-94720734D01*
X260050715Y-94492584D01*
X260052329Y-94308693D01*
X260054838Y-94163892D01*
X260058439Y-94053013D01*
X260063326Y-93970887D01*
X260069693Y-93912344D01*
X260077735Y-93872218D01*
X260087647Y-93845338D01*
X260099624Y-93826537D01*
X260106234Y-93818784D01*
X260186963Y-93765206D01*
X260273590Y-93764687D01*
X260343501Y-93810529D01*
X260343501Y-93810529D01*
G37*
X260343501Y-93810529D02*
X260354840Y-93827530D01*
X260364320Y-93854654D01*
X260372104Y-93896937D01*
X260378355Y-93959414D01*
X260383238Y-94047121D01*
X260386916Y-94165092D01*
X260389552Y-94318362D01*
X260391311Y-94511968D01*
X260392354Y-94750945D01*
X260392847Y-95040327D01*
X260392956Y-95332835D01*
X260392956Y-96800493D01*
X260326542Y-96847011D01*
X260251670Y-96887061D01*
X260188381Y-96881760D01*
X260119854Y-96836405D01*
X260049309Y-96779280D01*
X260049309Y-95330483D01*
X260049400Y-94998311D01*
X260049804Y-94720734D01*
X260050715Y-94492584D01*
X260052329Y-94308693D01*
X260054838Y-94163892D01*
X260058439Y-94053013D01*
X260063326Y-93970887D01*
X260069693Y-93912344D01*
X260077735Y-93872218D01*
X260087647Y-93845338D01*
X260099624Y-93826537D01*
X260106234Y-93818784D01*
X260186963Y-93765206D01*
X260273590Y-93764687D01*
X260343501Y-93810529D01*
G36*
X255543128Y-93731423D02*
G01*
X255591427Y-93732990D01*
X255824286Y-93745685D01*
X256010660Y-93768363D01*
X256163471Y-93804449D01*
X256295637Y-93857366D01*
X256420078Y-93930541D01*
X256470131Y-93965916D01*
X256598441Y-94095920D01*
X256687878Y-94262837D01*
X256735578Y-94455883D01*
X256738679Y-94664273D01*
X256703832Y-94846377D01*
X256658288Y-94967736D01*
X256591828Y-95070179D01*
X256504307Y-95164194D01*
X256426707Y-95236627D01*
X256364684Y-95288759D01*
X256331200Y-95309728D01*
X256330613Y-95309765D01*
X256289761Y-95320417D01*
X256217908Y-95346943D01*
X256194416Y-95356543D01*
X256082461Y-95403321D01*
X256157280Y-95483543D01*
X256220298Y-95560175D01*
X256288452Y-95655967D01*
X256309503Y-95688734D01*
X256344865Y-95754547D01*
X256394901Y-95859208D01*
X256455046Y-95991912D01*
X256520731Y-96141858D01*
X256587392Y-96298242D01*
X256650460Y-96450262D01*
X256705369Y-96587115D01*
X256747552Y-96697998D01*
X256772444Y-96772107D01*
X256777191Y-96795089D01*
X256751934Y-96846010D01*
X256688896Y-96873795D01*
X256607179Y-96873645D01*
X256546497Y-96853031D01*
X256511887Y-96829871D01*
X256478150Y-96792861D01*
X256441078Y-96734161D01*
X256396466Y-96645934D01*
X256340108Y-96520342D01*
X256267797Y-96349546D01*
X256238620Y-96279278D01*
X256145317Y-96058472D01*
X256067188Y-95887277D01*
X255999180Y-95759067D01*
X255936237Y-95667215D01*
X255873307Y-95605096D01*
X255805336Y-95566083D01*
X255727269Y-95543550D01*
X255670841Y-95534859D01*
X255550524Y-95525661D01*
X255406354Y-95522265D01*
X255298015Y-95524393D01*
X255088838Y-95533882D01*
X255073897Y-96171349D01*
X255068560Y-96383480D01*
X255063266Y-96543794D01*
X255057161Y-96660230D01*
X255049394Y-96740728D01*
X255039113Y-96793230D01*
X255025465Y-96825674D01*
X255007600Y-96846001D01*
X255000950Y-96851172D01*
X254931823Y-96888348D01*
X254869112Y-96881160D01*
X254811605Y-96847011D01*
X254745191Y-96800493D01*
X254745191Y-94472317D01*
X255073395Y-94472317D01*
X255073897Y-94657302D01*
X255073897Y-95257796D01*
X255469838Y-95243742D01*
X255646517Y-95235758D01*
X255777650Y-95224890D01*
X255877451Y-95209020D01*
X255960131Y-95186032D01*
X256022879Y-95161365D01*
X256195434Y-95058520D01*
X256320202Y-94923171D01*
X256394244Y-94760065D01*
X256414622Y-94573949D01*
X256411874Y-94533075D01*
X256372585Y-94364393D01*
X256287709Y-94230237D01*
X256152495Y-94123979D01*
X256097575Y-94094667D01*
X256017686Y-94058543D01*
X255942487Y-94033882D01*
X255856351Y-94017908D01*
X255743651Y-94007841D01*
X255588760Y-94000904D01*
X255565735Y-94000121D01*
X255406753Y-93994037D01*
X255286158Y-93992464D01*
X255198676Y-94002446D01*
X255139033Y-94031031D01*
X255101957Y-94085265D01*
X255082174Y-94172193D01*
X255074411Y-94298862D01*
X255073395Y-94472317D01*
X254745191Y-94472317D01*
X254745191Y-93913444D01*
X254822537Y-93836098D01*
X254876460Y-93793114D01*
X254945454Y-93761874D01*
X255038069Y-93741232D01*
X255162853Y-93730040D01*
X255328356Y-93727152D01*
X255543128Y-93731423D01*
X255543128Y-93731423D01*
G37*
X255543128Y-93731423D02*
X255591427Y-93732990D01*
X255824286Y-93745685D01*
X256010660Y-93768363D01*
X256163471Y-93804449D01*
X256295637Y-93857366D01*
X256420078Y-93930541D01*
X256470131Y-93965916D01*
X256598441Y-94095920D01*
X256687878Y-94262837D01*
X256735578Y-94455883D01*
X256738679Y-94664273D01*
X256703832Y-94846377D01*
X256658288Y-94967736D01*
X256591828Y-95070179D01*
X256504307Y-95164194D01*
X256426707Y-95236627D01*
X256364684Y-95288759D01*
X256331200Y-95309728D01*
X256330613Y-95309765D01*
X256289761Y-95320417D01*
X256217908Y-95346943D01*
X256194416Y-95356543D01*
X256082461Y-95403321D01*
X256157280Y-95483543D01*
X256220298Y-95560175D01*
X256288452Y-95655967D01*
X256309503Y-95688734D01*
X256344865Y-95754547D01*
X256394901Y-95859208D01*
X256455046Y-95991912D01*
X256520731Y-96141858D01*
X256587392Y-96298242D01*
X256650460Y-96450262D01*
X256705369Y-96587115D01*
X256747552Y-96697998D01*
X256772444Y-96772107D01*
X256777191Y-96795089D01*
X256751934Y-96846010D01*
X256688896Y-96873795D01*
X256607179Y-96873645D01*
X256546497Y-96853031D01*
X256511887Y-96829871D01*
X256478150Y-96792861D01*
X256441078Y-96734161D01*
X256396466Y-96645934D01*
X256340108Y-96520342D01*
X256267797Y-96349546D01*
X256238620Y-96279278D01*
X256145317Y-96058472D01*
X256067188Y-95887277D01*
X255999180Y-95759067D01*
X255936237Y-95667215D01*
X255873307Y-95605096D01*
X255805336Y-95566083D01*
X255727269Y-95543550D01*
X255670841Y-95534859D01*
X255550524Y-95525661D01*
X255406354Y-95522265D01*
X255298015Y-95524393D01*
X255088838Y-95533882D01*
X255073897Y-96171349D01*
X255068560Y-96383480D01*
X255063266Y-96543794D01*
X255057161Y-96660230D01*
X255049394Y-96740728D01*
X255039113Y-96793230D01*
X255025465Y-96825674D01*
X255007600Y-96846001D01*
X255000950Y-96851172D01*
X254931823Y-96888348D01*
X254869112Y-96881160D01*
X254811605Y-96847011D01*
X254745191Y-96800493D01*
X254745191Y-94472317D01*
X255073395Y-94472317D01*
X255073897Y-94657302D01*
X255073897Y-95257796D01*
X255469838Y-95243742D01*
X255646517Y-95235758D01*
X255777650Y-95224890D01*
X255877451Y-95209020D01*
X255960131Y-95186032D01*
X256022879Y-95161365D01*
X256195434Y-95058520D01*
X256320202Y-94923171D01*
X256394244Y-94760065D01*
X256414622Y-94573949D01*
X256411874Y-94533075D01*
X256372585Y-94364393D01*
X256287709Y-94230237D01*
X256152495Y-94123979D01*
X256097575Y-94094667D01*
X256017686Y-94058543D01*
X255942487Y-94033882D01*
X255856351Y-94017908D01*
X255743651Y-94007841D01*
X255588760Y-94000904D01*
X255565735Y-94000121D01*
X255406753Y-93994037D01*
X255286158Y-93992464D01*
X255198676Y-94002446D01*
X255139033Y-94031031D01*
X255101957Y-94085265D01*
X255082174Y-94172193D01*
X255074411Y-94298862D01*
X255073395Y-94472317D01*
X254745191Y-94472317D01*
X254745191Y-93913444D01*
X254822537Y-93836098D01*
X254876460Y-93793114D01*
X254945454Y-93761874D01*
X255038069Y-93741232D01*
X255162853Y-93730040D01*
X255328356Y-93727152D01*
X255543128Y-93731423D01*
G36*
X258267390Y-93743906D02*
G01*
X258412129Y-93747391D01*
X258520130Y-93754134D01*
X258602902Y-93765278D01*
X258671953Y-93781964D01*
X258738794Y-93805334D01*
X258749426Y-93809521D01*
X258940988Y-93910058D01*
X259081438Y-94040328D01*
X259173146Y-94203391D01*
X259218484Y-94402309D01*
X259219925Y-94417030D01*
X259224628Y-94530884D01*
X259210048Y-94622466D01*
X259170059Y-94723816D01*
X259155430Y-94754318D01*
X259044480Y-94918974D01*
X258894884Y-95049445D01*
X258720691Y-95133607D01*
X258713341Y-95135860D01*
X258642484Y-95166556D01*
X258619912Y-95196347D01*
X258648179Y-95216413D01*
X258688948Y-95220118D01*
X258775477Y-95237338D01*
X258887479Y-95282183D01*
X259004174Y-95344429D01*
X259104782Y-95413851D01*
X259133045Y-95438616D01*
X259257939Y-95588811D01*
X259331087Y-95756480D01*
X259358000Y-95954543D01*
X259358247Y-95966500D01*
X259347312Y-96176764D01*
X259303552Y-96349135D01*
X259221445Y-96498883D01*
X259124714Y-96612374D01*
X259019203Y-96710113D01*
X258912834Y-96784097D01*
X258794819Y-96837645D01*
X258654372Y-96874077D01*
X258480705Y-96896711D01*
X258263031Y-96908865D01*
X258151779Y-96911725D01*
X257982580Y-96913214D01*
X257826648Y-96911281D01*
X257697413Y-96906332D01*
X257608303Y-96898776D01*
X257584487Y-96894537D01*
X257491566Y-96853212D01*
X257413264Y-96790312D01*
X257412664Y-96789618D01*
X257344956Y-96710903D01*
X257344956Y-95339647D01*
X257673662Y-95339647D01*
X257673662Y-95968139D01*
X257673820Y-96176976D01*
X257674831Y-96333899D01*
X257677501Y-96446758D01*
X257682635Y-96523404D01*
X257691037Y-96571687D01*
X257703514Y-96599458D01*
X257720870Y-96614568D01*
X257740897Y-96623657D01*
X257812861Y-96638815D01*
X257927559Y-96648127D01*
X258068247Y-96651631D01*
X258218186Y-96649368D01*
X258360634Y-96641377D01*
X258478848Y-96627698D01*
X258510181Y-96621837D01*
X258698779Y-96553737D01*
X258849784Y-96441751D01*
X258958209Y-96291984D01*
X259019063Y-96110541D01*
X259030713Y-95984914D01*
X259011305Y-95803822D01*
X258948318Y-95654232D01*
X258839921Y-95535034D01*
X258684284Y-95445117D01*
X258479576Y-95383371D01*
X258223966Y-95348684D01*
X257966997Y-95339647D01*
X257673662Y-95339647D01*
X257344956Y-95339647D01*
X257344956Y-95339387D01*
X257345597Y-94965856D01*
X257347544Y-94650571D01*
X257350830Y-94392029D01*
X257351506Y-94362518D01*
X257673409Y-94362518D01*
X257673662Y-94543836D01*
X257674827Y-94708723D01*
X257678048Y-94852218D01*
X257682914Y-94963864D01*
X257689014Y-95033205D01*
X257693583Y-95050784D01*
X257735790Y-95062785D01*
X257822658Y-95069087D01*
X257939383Y-95069963D01*
X258071159Y-95065685D01*
X258203183Y-95056527D01*
X258320650Y-95042761D01*
X258345192Y-95038774D01*
X258555653Y-94982009D01*
X258717021Y-94894132D01*
X258828178Y-94776191D01*
X258888004Y-94629233D01*
X258898838Y-94520468D01*
X258878520Y-94351561D01*
X258814596Y-94220227D01*
X258702609Y-94118887D01*
X258642793Y-94084763D01*
X258568276Y-94051008D01*
X258492944Y-94028169D01*
X258401222Y-94013564D01*
X258277534Y-94004509D01*
X258148020Y-93999549D01*
X257981957Y-93994198D01*
X257859892Y-93995013D01*
X257775079Y-94009734D01*
X257720771Y-94046104D01*
X257690222Y-94111863D01*
X257676683Y-94214754D01*
X257673409Y-94362518D01*
X257351506Y-94362518D01*
X257355492Y-94188725D01*
X257361563Y-94039154D01*
X257369077Y-93941812D01*
X257378070Y-93895195D01*
X257378139Y-93895042D01*
X257408011Y-93842745D01*
X257448941Y-93803659D01*
X257509240Y-93775963D01*
X257597219Y-93757837D01*
X257721191Y-93747461D01*
X257889466Y-93743014D01*
X258074403Y-93742538D01*
X258267390Y-93743906D01*
X258267390Y-93743906D01*
G37*
X258267390Y-93743906D02*
X258412129Y-93747391D01*
X258520130Y-93754134D01*
X258602902Y-93765278D01*
X258671953Y-93781964D01*
X258738794Y-93805334D01*
X258749426Y-93809521D01*
X258940988Y-93910058D01*
X259081438Y-94040328D01*
X259173146Y-94203391D01*
X259218484Y-94402309D01*
X259219925Y-94417030D01*
X259224628Y-94530884D01*
X259210048Y-94622466D01*
X259170059Y-94723816D01*
X259155430Y-94754318D01*
X259044480Y-94918974D01*
X258894884Y-95049445D01*
X258720691Y-95133607D01*
X258713341Y-95135860D01*
X258642484Y-95166556D01*
X258619912Y-95196347D01*
X258648179Y-95216413D01*
X258688948Y-95220118D01*
X258775477Y-95237338D01*
X258887479Y-95282183D01*
X259004174Y-95344429D01*
X259104782Y-95413851D01*
X259133045Y-95438616D01*
X259257939Y-95588811D01*
X259331087Y-95756480D01*
X259358000Y-95954543D01*
X259358247Y-95966500D01*
X259347312Y-96176764D01*
X259303552Y-96349135D01*
X259221445Y-96498883D01*
X259124714Y-96612374D01*
X259019203Y-96710113D01*
X258912834Y-96784097D01*
X258794819Y-96837645D01*
X258654372Y-96874077D01*
X258480705Y-96896711D01*
X258263031Y-96908865D01*
X258151779Y-96911725D01*
X257982580Y-96913214D01*
X257826648Y-96911281D01*
X257697413Y-96906332D01*
X257608303Y-96898776D01*
X257584487Y-96894537D01*
X257491566Y-96853212D01*
X257413264Y-96790312D01*
X257412664Y-96789618D01*
X257344956Y-96710903D01*
X257344956Y-95339647D01*
X257673662Y-95339647D01*
X257673662Y-95968139D01*
X257673820Y-96176976D01*
X257674831Y-96333899D01*
X257677501Y-96446758D01*
X257682635Y-96523404D01*
X257691037Y-96571687D01*
X257703514Y-96599458D01*
X257720870Y-96614568D01*
X257740897Y-96623657D01*
X257812861Y-96638815D01*
X257927559Y-96648127D01*
X258068247Y-96651631D01*
X258218186Y-96649368D01*
X258360634Y-96641377D01*
X258478848Y-96627698D01*
X258510181Y-96621837D01*
X258698779Y-96553737D01*
X258849784Y-96441751D01*
X258958209Y-96291984D01*
X259019063Y-96110541D01*
X259030713Y-95984914D01*
X259011305Y-95803822D01*
X258948318Y-95654232D01*
X258839921Y-95535034D01*
X258684284Y-95445117D01*
X258479576Y-95383371D01*
X258223966Y-95348684D01*
X257966997Y-95339647D01*
X257673662Y-95339647D01*
X257344956Y-95339647D01*
X257344956Y-95339387D01*
X257345597Y-94965856D01*
X257347544Y-94650571D01*
X257350830Y-94392029D01*
X257351506Y-94362518D01*
X257673409Y-94362518D01*
X257673662Y-94543836D01*
X257674827Y-94708723D01*
X257678048Y-94852218D01*
X257682914Y-94963864D01*
X257689014Y-95033205D01*
X257693583Y-95050784D01*
X257735790Y-95062785D01*
X257822658Y-95069087D01*
X257939383Y-95069963D01*
X258071159Y-95065685D01*
X258203183Y-95056527D01*
X258320650Y-95042761D01*
X258345192Y-95038774D01*
X258555653Y-94982009D01*
X258717021Y-94894132D01*
X258828178Y-94776191D01*
X258888004Y-94629233D01*
X258898838Y-94520468D01*
X258878520Y-94351561D01*
X258814596Y-94220227D01*
X258702609Y-94118887D01*
X258642793Y-94084763D01*
X258568276Y-94051008D01*
X258492944Y-94028169D01*
X258401222Y-94013564D01*
X258277534Y-94004509D01*
X258148020Y-93999549D01*
X257981957Y-93994198D01*
X257859892Y-93995013D01*
X257775079Y-94009734D01*
X257720771Y-94046104D01*
X257690222Y-94111863D01*
X257676683Y-94214754D01*
X257673409Y-94362518D01*
X257351506Y-94362518D01*
X257355492Y-94188725D01*
X257361563Y-94039154D01*
X257369077Y-93941812D01*
X257378070Y-93895195D01*
X257378139Y-93895042D01*
X257408011Y-93842745D01*
X257448941Y-93803659D01*
X257509240Y-93775963D01*
X257597219Y-93757837D01*
X257721191Y-93747461D01*
X257889466Y-93743014D01*
X258074403Y-93742538D01*
X258267390Y-93743906D01*
G36*
X252944354Y-93744967D02*
G01*
X253206546Y-93803992D01*
X253438036Y-93906259D01*
X253646988Y-94054955D01*
X253758457Y-94160999D01*
X253924953Y-94363156D01*
X254046478Y-94579828D01*
X254125875Y-94819688D01*
X254165987Y-95091411D01*
X254169655Y-95403671D01*
X254169206Y-95414353D01*
X254148814Y-95675484D01*
X254109251Y-95892288D01*
X254045338Y-96078543D01*
X253951894Y-96248026D01*
X253823740Y-96414514D01*
X253771124Y-96473119D01*
X253583798Y-96638387D01*
X253362369Y-96773317D01*
X253126765Y-96866822D01*
X253015406Y-96893566D01*
X252828875Y-96915213D01*
X252617556Y-96919344D01*
X252408823Y-96906538D01*
X252230049Y-96877372D01*
X252228280Y-96876945D01*
X251964336Y-96785169D01*
X251731241Y-96643671D01*
X251578741Y-96509053D01*
X251395992Y-96282566D01*
X251259727Y-96022609D01*
X251171402Y-95735011D01*
X251132907Y-95429037D01*
X251480351Y-95429037D01*
X251513699Y-95697743D01*
X251585449Y-95942231D01*
X251623464Y-96026941D01*
X251752140Y-96226657D01*
X251918450Y-96397437D01*
X252110552Y-96529687D01*
X252316604Y-96613816D01*
X252361252Y-96624622D01*
X252552261Y-96646559D01*
X252763038Y-96640656D01*
X252968913Y-96609238D01*
X253145214Y-96554629D01*
X253156379Y-96549742D01*
X253339971Y-96439427D01*
X253509569Y-96285606D01*
X253649270Y-96104507D01*
X253717933Y-95976656D01*
X253758950Y-95861488D01*
X253797064Y-95716209D01*
X253824659Y-95570288D01*
X253826666Y-95555902D01*
X253842919Y-95254912D01*
X253810871Y-94972322D01*
X253733064Y-94713777D01*
X253612039Y-94484922D01*
X253450339Y-94291402D01*
X253250507Y-94138862D01*
X253168538Y-94094487D01*
X253086136Y-94056846D01*
X253012779Y-94032461D01*
X252931501Y-94018480D01*
X252825338Y-94012052D01*
X252677323Y-94010325D01*
X252667739Y-94010310D01*
X252519532Y-94011196D01*
X252413573Y-94016465D01*
X252332358Y-94029349D01*
X252258380Y-94053082D01*
X252174135Y-94090897D01*
X252139275Y-94107914D01*
X251956456Y-94222263D01*
X251792736Y-94370610D01*
X251663817Y-94537279D01*
X251612003Y-94634290D01*
X251529374Y-94881643D01*
X251485533Y-95151781D01*
X251480351Y-95429037D01*
X251132907Y-95429037D01*
X251132474Y-95425601D01*
X251144398Y-95100207D01*
X251176594Y-94899597D01*
X251264552Y-94607211D01*
X251398073Y-94351767D01*
X251573680Y-94136048D01*
X251787894Y-93962836D01*
X252037240Y-93834913D01*
X252318239Y-93755062D01*
X252627415Y-93726065D01*
X252643292Y-93726000D01*
X252944354Y-93744967D01*
X252944354Y-93744967D01*
G37*
X252944354Y-93744967D02*
X253206546Y-93803992D01*
X253438036Y-93906259D01*
X253646988Y-94054955D01*
X253758457Y-94160999D01*
X253924953Y-94363156D01*
X254046478Y-94579828D01*
X254125875Y-94819688D01*
X254165987Y-95091411D01*
X254169655Y-95403671D01*
X254169206Y-95414353D01*
X254148814Y-95675484D01*
X254109251Y-95892288D01*
X254045338Y-96078543D01*
X253951894Y-96248026D01*
X253823740Y-96414514D01*
X253771124Y-96473119D01*
X253583798Y-96638387D01*
X253362369Y-96773317D01*
X253126765Y-96866822D01*
X253015406Y-96893566D01*
X252828875Y-96915213D01*
X252617556Y-96919344D01*
X252408823Y-96906538D01*
X252230049Y-96877372D01*
X252228280Y-96876945D01*
X251964336Y-96785169D01*
X251731241Y-96643671D01*
X251578741Y-96509053D01*
X251395992Y-96282566D01*
X251259727Y-96022609D01*
X251171402Y-95735011D01*
X251132907Y-95429037D01*
X251480351Y-95429037D01*
X251513699Y-95697743D01*
X251585449Y-95942231D01*
X251623464Y-96026941D01*
X251752140Y-96226657D01*
X251918450Y-96397437D01*
X252110552Y-96529687D01*
X252316604Y-96613816D01*
X252361252Y-96624622D01*
X252552261Y-96646559D01*
X252763038Y-96640656D01*
X252968913Y-96609238D01*
X253145214Y-96554629D01*
X253156379Y-96549742D01*
X253339971Y-96439427D01*
X253509569Y-96285606D01*
X253649270Y-96104507D01*
X253717933Y-95976656D01*
X253758950Y-95861488D01*
X253797064Y-95716209D01*
X253824659Y-95570288D01*
X253826666Y-95555902D01*
X253842919Y-95254912D01*
X253810871Y-94972322D01*
X253733064Y-94713777D01*
X253612039Y-94484922D01*
X253450339Y-94291402D01*
X253250507Y-94138862D01*
X253168538Y-94094487D01*
X253086136Y-94056846D01*
X253012779Y-94032461D01*
X252931501Y-94018480D01*
X252825338Y-94012052D01*
X252677323Y-94010325D01*
X252667739Y-94010310D01*
X252519532Y-94011196D01*
X252413573Y-94016465D01*
X252332358Y-94029349D01*
X252258380Y-94053082D01*
X252174135Y-94090897D01*
X252139275Y-94107914D01*
X251956456Y-94222263D01*
X251792736Y-94370610D01*
X251663817Y-94537279D01*
X251612003Y-94634290D01*
X251529374Y-94881643D01*
X251485533Y-95151781D01*
X251480351Y-95429037D01*
X251132907Y-95429037D01*
X251132474Y-95425601D01*
X251144398Y-95100207D01*
X251176594Y-94899597D01*
X251264552Y-94607211D01*
X251398073Y-94351767D01*
X251573680Y-94136048D01*
X251787894Y-93962836D01*
X252037240Y-93834913D01*
X252318239Y-93755062D01*
X252627415Y-93726065D01*
X252643292Y-93726000D01*
X252944354Y-93744967D01*
D11*
X61912500Y-100012500D03*
D12*
X56832500Y-100012500D03*
X66992500Y-100012500D03*
D11*
X269081250Y-104775000D03*
D12*
X264001250Y-104775000D03*
X274161250Y-104775000D03*
D11*
X269081250Y-85725000D03*
D12*
X264001250Y-85725000D03*
X274161250Y-85725000D03*
D11*
X269081250Y-66675000D03*
D12*
X264001250Y-66675000D03*
X274161250Y-66675000D03*
D11*
X269081250Y-47625000D03*
D12*
X264001250Y-47625000D03*
X274161250Y-47625000D03*
D11*
X250031250Y-104775000D03*
D12*
X244951250Y-104775000D03*
X255111250Y-104775000D03*
D11*
X250031250Y-85725000D03*
D12*
X244951250Y-85725000D03*
X255111250Y-85725000D03*
D11*
X250031250Y-66675000D03*
D12*
X244951250Y-66675000D03*
X255111250Y-66675000D03*
D11*
X250031250Y-47625000D03*
D12*
X244951250Y-47625000D03*
X255111250Y-47625000D03*
D11*
X129692640Y-110004590D03*
D12*
X127152640Y-114403999D03*
X132232640Y-105605181D03*
D11*
X119062500Y-83343750D03*
D12*
X113982500Y-83343750D03*
X124142500Y-83343750D03*
D11*
X119062500Y-64293750D03*
D12*
X113982500Y-64293750D03*
X124142500Y-64293750D03*
D11*
X119062500Y-45243750D03*
D12*
X113982500Y-45243750D03*
X124142500Y-45243750D03*
D11*
X230981250Y-100012500D03*
D12*
X225901250Y-100012500D03*
X236061250Y-100012500D03*
D11*
X230981250Y-80962500D03*
D12*
X225901250Y-80962500D03*
X236061250Y-80962500D03*
D11*
X230981250Y-61912500D03*
D12*
X225901250Y-61912500D03*
X236061250Y-61912500D03*
D11*
X230981250Y-42862500D03*
D12*
X225901250Y-42862500D03*
X236061250Y-42862500D03*
D11*
X109439090Y-102703390D03*
D12*
X104532187Y-101388589D03*
X114345993Y-104018191D03*
D11*
X100012500Y-80962500D03*
D12*
X94932500Y-80962500D03*
X105092500Y-80962500D03*
D11*
X100012500Y-61912500D03*
D12*
X94932500Y-61912500D03*
X105092500Y-61912500D03*
D11*
X100012500Y-42862500D03*
D12*
X94932500Y-42862500D03*
X105092500Y-42862500D03*
D11*
X211931250Y-97631250D03*
D12*
X206851250Y-97631250D03*
X217011250Y-97631250D03*
D11*
X211931250Y-78581250D03*
D12*
X206851250Y-78581250D03*
X217011250Y-78581250D03*
D11*
X211931250Y-59531250D03*
D12*
X206851250Y-59531250D03*
X217011250Y-59531250D03*
D11*
X211931250Y-40481250D03*
D12*
X206851250Y-40481250D03*
X217011250Y-40481250D03*
D11*
X80962500Y-97631250D03*
D12*
X75882500Y-97631250D03*
X86042500Y-97631250D03*
D11*
X80962500Y-78581250D03*
D12*
X75882500Y-78581250D03*
X86042500Y-78581250D03*
D11*
X80962500Y-59531250D03*
D12*
X75882500Y-59531250D03*
X86042500Y-59531250D03*
D11*
X80962500Y-40481250D03*
D12*
X75882500Y-40481250D03*
X86042500Y-40481250D03*
D11*
X183454660Y-102703390D03*
D12*
X178547757Y-104018191D03*
X188361563Y-101388589D03*
D11*
X192881250Y-80962500D03*
D12*
X187801250Y-80962500D03*
X197961250Y-80962500D03*
D11*
X192881250Y-61912500D03*
D12*
X187801250Y-61912500D03*
X197961250Y-61912500D03*
D11*
X192881250Y-42862500D03*
D12*
X187801250Y-42862500D03*
X197961250Y-42862500D03*
D11*
X61912500Y-80962500D03*
D12*
X56832500Y-80962500D03*
X66992500Y-80962500D03*
D11*
X61912500Y-61912500D03*
D12*
X56832500Y-61912500D03*
X66992500Y-61912500D03*
D11*
X61912500Y-42862500D03*
D12*
X56832500Y-42862500D03*
X66992500Y-42862500D03*
D11*
X163201110Y-110004590D03*
D12*
X160661110Y-105605181D03*
X165741110Y-114403999D03*
D11*
X173831250Y-83343750D03*
D12*
X168751250Y-83343750D03*
X178911250Y-83343750D03*
D11*
X173831250Y-64293750D03*
D12*
X168751250Y-64293750D03*
X178911250Y-64293750D03*
D11*
X173831250Y-45243750D03*
D12*
X168751250Y-45243750D03*
X178911250Y-45243750D03*
D11*
X42862500Y-104775000D03*
D12*
X37782500Y-104775000D03*
X47942500Y-104775000D03*
D11*
X42862500Y-85725000D03*
D12*
X37782500Y-85725000D03*
X47942500Y-85725000D03*
D11*
X42862500Y-66675000D03*
D12*
X37782500Y-66675000D03*
X47942500Y-66675000D03*
D11*
X42862500Y-47625000D03*
D12*
X37782500Y-47625000D03*
X47942500Y-47625000D03*
D11*
X23812500Y-104775000D03*
D12*
X18732500Y-104775000D03*
X28892500Y-104775000D03*
D11*
X23812500Y-85725000D03*
D12*
X18732500Y-85725000D03*
X28892500Y-85725000D03*
D11*
X23812500Y-66675000D03*
D12*
X18732500Y-66675000D03*
X28892500Y-66675000D03*
D11*
X23812500Y-47625000D03*
D12*
X18732500Y-47625000D03*
X28892500Y-47625000D03*
D13*
X252839263Y-36196442D03*
X247147074Y-35192755D03*
D14*
X245646766Y-35466386D03*
D15*
X245742272Y-34924742D02*
X245551260Y-36008030D01*
D14*
X254155505Y-36966707D03*
D15*
X254251011Y-36425063D02*
X254059999Y-37508351D01*
D14*
X246372615Y-31349890D03*
D15*
X246424709Y-31054448D02*
X246320521Y-31645332D01*
D14*
X254881354Y-32850210D03*
D15*
X254933448Y-32554768D02*
X254829260Y-33145652D01*
D13*
X45746676Y-35192755D03*
X40054487Y-36196442D03*
D14*
X38738245Y-36966707D03*
D15*
X38642739Y-36425063D02*
X38833751Y-37508351D01*
D14*
X47246984Y-35466386D03*
D15*
X47151478Y-34924742D02*
X47342490Y-36008030D01*
D14*
X38012396Y-32850210D03*
D15*
X37960302Y-32554768D02*
X38064490Y-33145652D01*
D14*
X46521135Y-31349890D03*
D15*
X46469041Y-31054448D02*
X46573229Y-31645332D01*
D16*
X78422500Y-113792000D03*
X79692500Y-113792000D03*
X83502500Y-113792000D03*
X82232500Y-113792000D03*
X80962500Y-113792000D03*
X78422500Y-106680000D03*
X79692500Y-106680000D03*
X83502500Y-106680000D03*
X82232500Y-106680000D03*
X80962500Y-106680000D03*
X257016250Y-113792000D03*
X258286250Y-113792000D03*
X262096250Y-113792000D03*
X260826250Y-113792000D03*
X259556250Y-113792000D03*
X209391250Y-113792000D03*
X210661250Y-113792000D03*
X214471250Y-113792000D03*
X213201250Y-113792000D03*
X211931250Y-113792000D03*
X209391250Y-106680000D03*
X210661250Y-106680000D03*
X214471250Y-106680000D03*
X213201250Y-106680000D03*
X211931250Y-106680000D03*
D17*
X202406250Y-36912500D03*
X202406250Y-29912500D03*
D18*
X204706250Y-39612500D03*
X200106250Y-38512500D03*
X200106250Y-34512500D03*
X200106250Y-31512500D03*
D16*
X233553000Y-33782000D03*
X232283000Y-33782000D03*
X228473000Y-33782000D03*
X229743000Y-33782000D03*
X231013000Y-33782000D03*
X195421250Y-33782000D03*
X194151250Y-33782000D03*
X190341250Y-33782000D03*
X191611250Y-33782000D03*
X192881250Y-33782000D03*
X102552500Y-33782000D03*
X101282500Y-33782000D03*
X97472500Y-33782000D03*
X98742500Y-33782000D03*
X100012500Y-33782000D03*
X64452500Y-33782000D03*
X63182500Y-33782000D03*
X59372500Y-33782000D03*
X60642500Y-33782000D03*
X61912500Y-33782000D03*
X30797500Y-113792000D03*
X32067500Y-113792000D03*
X35877500Y-113792000D03*
X34607500Y-113792000D03*
X33337500Y-113792000D03*
D17*
X90487500Y-36912500D03*
X90487500Y-29912500D03*
D18*
X92787500Y-39612500D03*
X88187500Y-38512500D03*
X88187500Y-34512500D03*
X88187500Y-31512500D03*
M02*
